<svg viewBox="0 0 445 216" fill="none" xmlns="http://www.w3.org/2000/svg">
<path d="M220.579 132.797C218.533 142.691 216.09 154.451 214.561 161.739C207.837 160.533 204.228 162.44 197.042 166.689C188.329 171.865 176.402 178.925 157.6 175.013C138.791 171.091 130.684 159.836 124.772 151.618C119.698 144.59 117.142 141.405 109.894 139.894C102.63 138.379 99.0231 140.27 91.5601 144.701C82.8501 149.86 70.9201 156.937 52.1211 153.008C33.3191 149.096 25.2111 137.841 19.2901 129.631C14.2201 122.586 11.6701 119.412 4.41211 117.907L4.41913 117.873C3.00613 117.694 1.67013 116.935 0.833133 115.657C-0.705867 113.308 -0.0508809 110.17 2.28812 108.638C3.08112 108.118 3.95112 107.873 4.82312 107.832C3.94112 107.452 3.14711 106.824 2.58011 105.958C1.04811 103.619 1.70211 100.481 4.04111 98.949C4.85511 98.416 5.76211 98.16 6.67511 98.137C6.11111 97.77 5.61611 97.284 5.21811 96.677C3.68611 94.338 4.34011 91.2 6.67911 89.668C7.92611 88.851 9.38613 88.675 10.7291 89.018C29.3231 92.993 37.3831 104.176 43.2771 112.345C48.3471 119.39 50.8971 122.564 58.1551 124.069C65.4091 125.591 69.0151 123.7 76.4791 119.269C85.1891 114.11 97.1191 107.033 115.928 110.955C134.72 114.874 142.827 126.129 148.749 134.339C153.829 141.377 156.369 144.558 163.634 146.073C170.892 147.578 174.498 145.687 181.968 141.266C190.542 136.169 202.256 129.234 220.579 132.797Z" fill="#FFD630"/>
<path d="M223.827 132.797C225.873 142.691 228.316 154.451 229.845 161.739C236.569 160.533 240.178 162.44 247.364 166.689C256.077 171.865 268.004 178.925 286.806 175.013C305.615 171.091 313.722 159.836 319.634 151.618C324.708 144.59 327.265 141.405 334.512 139.894C341.776 138.379 345.382 140.27 352.846 144.701C361.556 149.86 373.486 156.937 392.285 153.008C411.087 149.096 419.195 137.841 425.116 129.631C430.186 122.586 432.736 119.412 439.994 117.907L439.987 117.873C441.4 117.694 442.736 116.935 443.573 115.657C445.112 113.308 444.457 110.17 442.118 108.638C441.325 108.118 440.455 107.873 439.583 107.832C440.465 107.452 441.259 106.824 441.826 105.958C443.358 103.619 442.704 100.481 440.365 98.949C439.551 98.416 438.644 98.16 437.731 98.137C438.295 97.77 438.79 97.284 439.188 96.677C440.72 94.338 440.066 91.2 437.727 89.668C436.48 88.851 435.02 88.675 433.677 89.018C415.083 92.993 407.023 104.176 401.129 112.345C396.059 119.39 393.509 122.564 386.251 124.069C378.997 125.591 375.391 123.7 367.927 119.269C359.217 114.11 347.287 107.033 328.478 110.955C309.686 114.874 301.579 126.129 295.657 134.339C290.576 141.377 288.037 144.558 280.772 146.073C273.514 147.578 269.908 145.687 262.438 141.266C253.864 136.169 242.15 129.234 223.827 132.797Z" fill="#FFD630"/>
<path d="M132.354 56.396C132.332 56.2 132.365 55.975 132.28 55.813C132.271 55.796 132.261 55.779 132.252 55.761C132.131 55.982 132.006 56.2 131.886 56.422C132.042 56.42 132.198 56.404 132.354 56.396Z" fill="#FFD630"/>
<path d="M170.666 123.937C170.45 123.789 170.25 123.572 170.013 123.518C169.864 123.484 169.659 123.694 169.306 123.893C169.718 124.151 169.94 124.384 170.182 124.406C170.328 124.419 170.504 124.104 170.666 123.937Z" fill="#FFD630"/>
<path d="M163.409 120.853C163.512 121.166 163.814 121.414 164.034 121.688C164.243 121.488 164.657 121.237 164.622 121.1C164.537 120.765 164.244 120.482 163.924 120.017C163.664 120.417 163.356 120.694 163.409 120.853Z" fill="#FFD630"/>
<path d="M241.293 1.011C241.373 1.183 241.444 1.357 241.528 1.527C241.64 1.757 241.765 1.981 241.899 2.199C242.021 2.399 242.163 2.587 242.296 2.781C242.482 2.612 242.817 2.452 242.829 2.271C242.877 1.547 243.298 1.613 243.872 1.716C243.466 2.435 243.819 2.9 244.307 3.384C244.454 3.529 244.44 4.12299 244.309 4.20399C243.996 4.39899 243.411 4.614 243.217 4.461C242.494 3.893 241.925 3.566 241.398 4.64C241.357 4.724 241.1 4.746 240.952 4.727C240.28 4.639 239.028 3.151 238.951 2.479C238.913 2.146 238.683 1.836 238.546 1.514C238.421 1.221 238.291 0.928998 238.183 0.628998C234.359 0.216998 230.477 0 226.543 0C187.659 0 153.597 20.632 134.699 51.544C134.919 51.702 135.138 51.859 135.357 52.017C135.658 52.234 135.949 52.464 136.248 52.682C136.788 53.076 136.857 53.76 136.273 54.072C134.957 54.773 134.448 56.104 133.695 57.226C133.256 57.88 132.877 58.49 132.105 58.781C131.654 58.951 131.348 59.177 131.597 59.81C131.851 60.456 131.363 61.745 130.473 62.024C129.695 62.269 129.039 62.655 128.528 63.182C124.944 71.083 122.289 79.494 120.698 88.276C121.349 88.221 121.999 88.168 122.648 88.099C123.809 87.974 124.965 87.794 126.125 87.655C126.471 87.613 126.832 87.578 127.172 87.63C127.73 87.715 128.084 87.954 127.892 88.655C127.806 88.969 127.986 89.352 128.034 89.705C128.076 90.019 128.241 90.415 128.112 90.635C127.666 91.393 127.178 92.146 126.583 92.788C126.182 93.221 125.771 93.043 125.529 92.435C125.256 91.751 124.913 91.085 124.523 90.459C124.096 89.772 123.016 89.588 122.317 89.955C122.029 90.106 121.678 90.198 121.353 90.206C120.944 90.217 120.596 90.328 120.323 90.511C119.891 93.224 119.559 95.97 119.333 98.747C119.353 98.773 119.365 98.798 119.386 98.823C120.387 100.02 121.055 101.496 121.97 103.02C120.872 102.957 120.444 103.419 120.488 104.545C120.069 104.15 119.767 103.918 119.533 103.631C119.374 103.436 119.217 103.234 119.073 103.025C119.01 104.534 118.97 106.049 118.97 107.573C118.97 108.91 119.003 110.238 119.051 111.563C119.34 111.86 119.617 112.393 120.033 113.368C119.678 113.334 119.365 113.197 119.105 112.982C119.389 118.72 120.127 124.338 121.276 129.805C122.021 129.603 122.704 129.377 122.711 128.266C122.823 128.284 122.935 128.302 123.047 128.32C123.9 130.248 124.752 132.176 125.605 134.104C125.549 134.111 125.493 134.118 125.437 134.125C124.69 133.395 123.995 132.598 123.18 131.952C122.667 131.545 122.095 131.185 121.496 130.819C121.873 132.531 122.291 134.227 122.749 135.908C123.232 136.035 123.664 136.376 123.612 137.029C123.603 137.146 123.7 137.273 123.752 137.394C124.045 138.066 124.009 138.694 123.712 139.248C125.536 145.178 127.859 150.889 130.632 156.333C130.844 156.372 131.053 156.408 131.263 156.436C132.268 156.573 133.006 156.909 133.128 158.062C133.147 158.242 133.526 158.386 133.742 158.541C133.894 158.65 134.192 158.76 134.186 158.852C134.156 159.296 134.109 159.765 133.926 160.158C133.859 160.301 133.337 160.373 133.132 160.267C132.958 160.177 132.915 159.788 132.866 159.521C132.823 159.288 132.852 159.041 132.849 158.8C132.553 158.818 132.241 158.786 131.967 158.87C133.841 162.317 135.903 165.646 138.13 168.853C138.196 168.928 138.267 168.984 138.331 169.071C138.312 169.069 138.295 169.066 138.277 169.064C157.718 196.918 190.001 215.145 226.545 215.145C285.956 215.145 334.118 166.983 334.118 107.572C334.116 53.167 293.724 8.202 241.293 1.011ZM235.711 33.006C236.093 33.694 236.172 34.103 235.472 34.504C234.808 34.884 234.821 36.46 235.348 37.053C235.571 37.304 235.683 37.653 235.904 37.907C236.284 38.345 236.697 38.758 237.12 39.157C237.722 39.724 238.457 39.795 239.258 39.823C239.634 39.836 239.966 40.358 240.367 40.541C241.022 40.84 240.67 41.27 240.615 41.689C240.574 42.005 240.607 42.33 240.607 42.854C239.998 42.536 239.478 42.343 239.05 42.026C237.236 40.682 235.452 39.298 233.652 37.936C232.813 37.301 232.811 37.023 233.404 36.155C233.967 35.331 234.399 34.419 234.941 33.579C235.099 33.332 235.438 33.202 235.711 33.006ZM232.687 28.896C233.158 28.777 233.625 28.611 234.103 28.566C234.264 28.551 234.555 28.811 234.609 28.996C234.695 29.29 234.632 29.628 234.632 30.083C233.907 29.749 233.279 29.46 232.652 29.172C232.664 29.08 232.676 28.988 232.687 28.896ZM229.939 9.776C230.094 10.96 229.652 11.873 228.77 12.634C228.421 12.935 228.133 13.306 227.817 13.645C228.304 11.782 227.939 10 227.782 8.247C228.857 8.012 229.802 8.735 229.939 9.776ZM199.737 9.092C200.431 8.923 201.144 8.806 201.856 8.745C202.774 8.667 203.564 9.221 203.938 10.248C204.188 10.934 204.572 11.273 205.316 11.359C205.79 11.414 206.234 11.719 206.759 11.941C204.876 13.648 203.06 15.294 201.244 16.94C201.198 16.932 201.153 16.923 201.107 16.914C201.417 16.16 201.725 15.405 202.037 14.652C202.189 14.285 202.322 13.908 202.509 13.56C202.841 12.94 202.499 12.557 202.085 12.174C201.899 12.001 201.626 11.821 201.586 11.608C201.393 10.577 200.735 10.156 199.768 10.025C199.582 10 199.422 9.782 199.249 9.653C199.41 9.459 199.54 9.139 199.737 9.092ZM200.207 24.067C200.696 23.546 201.202 23.57 201.879 23.853C201.062 25.964 200.59 28.132 199.094 29.843C198.61 30.396 198.481 30.427 198.089 29.765C197.927 29.492 197.774 29.213 197.595 28.952C196.94 27.997 196.97 27.34 197.735 26.563C198.557 25.729 199.406 24.92 200.207 24.067ZM196.958 5.382C196.956 4.626 197.075 4.513 197.765 4.86C198.01 4.983 198.177 5.261 198.335 5.422C198.12 6.264 197.986 6.963 197.756 7.628C197.62 8.021 197.259 8.074 197.034 7.696C196.884 7.442 196.83 7.098 196.831 6.795C196.832 6.324 196.959 5.853 196.958 5.382ZM195.848 89.537C195.917 89.154 196.139 88.798 196.245 88.542C196.968 88.979 197.581 89.365 198.209 89.722C198.67 89.984 199.019 89.886 199.346 89.42C199.507 89.19 199.892 89.117 200.176 88.972C200.277 89.325 200.448 89.677 200.458 90.033C200.466 90.332 200.295 90.639 200.189 90.937C200.048 91.335 199.941 91.655 199.364 91.737C198.569 91.85 198.25 92.691 198.458 93.669C198.528 93.999 198.576 94.333 198.649 94.751C197.7 94.634 196.802 94.688 196.068 94.366C195.682 94.197 195.386 93.366 195.398 92.842C195.421 91.737 195.65 90.632 195.848 89.537ZM187.074 15.863C186.792 16.363 186.617 16.85 186.286 17.184C186.129 17.342 185.607 17.323 185.372 17.182C184.827 16.855 184.345 16.417 183.865 15.993C183.779 15.917 183.828 15.689 183.802 15.391C184.922 15.552 185.947 15.7 187.074 15.863ZM173.297 27.5C173.366 27.371 173.727 27.24 173.749 27.269C174.258 27.918 175.684 27.765 175.246 29.278C176.562 28.353 177.545 27.407 178.078 26.096C178.19 25.821 178.037 25.4 177.917 25.08C177.82 24.822 177.588 24.614 177.416 24.384C177.475 24.3 177.534 24.217 177.593 24.133C178.139 24.443 178.675 24.772 179.233 25.057C179.547 25.217 179.894 25.315 180.233 25.419C180.358 25.457 180.547 25.375 180.629 25.442C180.967 25.718 181.343 25.991 181.559 26.352C181.636 26.48 181.307 26.862 181.144 27.117C181.073 27.228 180.973 27.344 180.857 27.4C179.841 27.892 179.218 28.614 179.241 29.823C179.247 30.123 178.964 30.422 178.845 30.733C178.785 30.889 178.715 31.171 178.783 31.225C179.332 31.655 179.144 32.246 179.193 32.791C179.224 33.131 179.295 33.474 179.399 33.798C179.575 34.348 179.331 34.584 178.832 34.501C178.488 34.444 178.13 34.273 177.85 34.059C176.784 33.247 175.797 32.32 174.678 31.594C174.087 31.21 173.285 31.148 172.576 30.95C172.3 30.873 172.016 30.823 171.637 30.739C172.21 29.61 172.738 28.547 173.297 27.5ZM175.034 77.631C174.297 77.982 173.561 78.332 172.787 78.701C172.738 78.523 172.69 78.445 172.704 78.382C172.798 77.959 172.867 77.193 173.016 77.177C173.665 77.105 174.339 77.25 175.003 77.316C175.014 77.42 175.024 77.526 175.034 77.631ZM168.563 77.199C168.765 77.877 168.961 78.556 169.171 79.232C169.457 80.157 168.813 80.923 167.835 80.793C167.694 80.774 167.566 80.661 167.447 80.599C167.777 80.041 168.228 79.55 168.355 78.986C168.476 78.452 168.259 77.841 168.191 77.264C168.315 77.242 168.439 77.22 168.563 77.199ZM166.576 72.048C166.717 71.803 167.135 71.716 167.43 71.559C167.539 71.802 167.724 72.039 167.745 72.289C167.832 73.32 167.868 74.354 167.924 75.387C167.824 75.422 167.723 75.456 167.623 75.491C167.228 74.709 166.783 73.946 166.464 73.134C166.342 72.825 166.406 72.343 166.576 72.048ZM162.884 52.339C163.389 52.47 163.617 52.835 163.53 53.366C163.456 53.823 163.375 54.278 163.298 54.734C163.25 54.751 163.201 54.768 163.152 54.785C162.907 54.064 162.652 53.345 162.44 52.614C162.425 52.564 162.761 52.307 162.884 52.339ZM141.75 103.32C141.828 103.032 142.251 102.56 142.319 102.592C142.807 102.819 143.401 103.056 143.664 103.477C144.17 104.286 143.93 104.66 143.07 105.169C142.688 105.395 142.369 105.778 142.112 106.152C141.785 106.628 141.559 107.171 141.27 107.675C141.196 107.803 141.049 107.89 140.936 107.996C140.83 107.962 140.724 107.928 140.618 107.894C140.99 106.367 141.341 104.836 141.75 103.32ZM137.435 54.159C137.16 54.864 136.94 55.427 136.661 56.139C136.078 55.263 136.425 54.365 137.435 54.159ZM135.152 69.739C135.673 68.764 136.318 67.857 136.886 66.906C137.106 66.538 137.291 66.52 137.616 66.786C138.066 67.155 138.549 67.486 139.031 67.814C139.875 68.39 139.833 69.189 138.965 69.732C138.557 69.987 138.227 70.365 137.851 70.673C137.672 70.819 137.483 70.999 137.271 71.051C136.355 71.276 135.428 71.46 134.444 71.672C134.662 71.058 134.823 70.354 135.152 69.739ZM134.088 72.575C134.088 72.959 134.142 73.388 134.074 73.797C133.989 74.306 133.792 74.796 133.663 75.299C133.55 75.743 133.389 76.048 132.85 75.785C132.478 75.603 132.089 75.457 131.867 75.363C132.619 74.42 133.338 73.516 134.088 72.575ZM131.303 122.164C130.8 121.616 131.057 120.512 131.859 119.611C132.438 120.172 132.226 121.2 131.303 122.164ZM138.441 157.641C137.886 157.601 137.378 156.918 136.849 156.513C136.879 156.43 136.909 156.346 136.939 156.263C137.88 156.263 138.822 156.263 139.764 156.263C139.781 156.335 139.798 156.407 139.815 156.48C139.354 156.896 138.868 157.672 138.441 157.641ZM140.824 166.688C140.488 167.156 139.992 166.927 139.668 166.625C139.582 166.545 139.755 166.023 139.943 165.846C140.269 165.539 140.7 165.343 141.086 165.101C141.193 165.175 141.3 165.249 141.407 165.323C141.219 165.783 141.106 166.296 140.824 166.688ZM141.789 143.561C141.269 143.687 140.749 143.815 140.229 143.939C139.257 144.17 138.275 144.366 137.314 144.639C136.586 144.845 135.876 145.124 135.178 145.418C134.872 145.547 134.566 145.753 134.363 146.007C134.29 146.098 134.521 146.431 134.63 146.695C134.487 146.749 134.251 146.896 134.007 146.911C133.846 146.921 133.557 146.775 133.522 146.645C133.221 145.522 132.945 144.392 132.701 143.255C132.512 142.371 132.693 142.177 133.544 141.975C134.148 141.832 134.741 141.618 135.317 141.381C135.811 141.177 136.1 140.022 135.908 139.202C135.884 139.101 135.795 139.011 135.786 138.911C135.756 138.591 135.704 138.259 135.765 137.952C135.781 137.874 136.274 137.762 136.392 137.858C136.718 138.123 137.098 138.451 137.204 138.826C137.342 139.314 137.238 139.872 137.238 140.546C138.09 140.126 138.336 140.54 138.534 141.144C138.916 142.308 139.73 142.876 140.939 142.976C141.238 143.001 141.523 143.19 141.815 143.304C141.804 143.389 141.796 143.475 141.789 143.561ZM138.959 136.363C139.362 136.147 139.765 135.931 140.304 135.643C140.163 136.579 139.925 136.706 138.959 136.363ZM143.801 114.573C143.708 114.844 143.197 114.971 142.715 115.263C142.747 114.25 142.551 113.578 141.722 113.442C141.474 113.401 141.169 113.708 140.891 113.856C140.852 113.963 140.813 114.07 140.774 114.176C140.383 113.807 139.859 113.506 139.632 113.055C139.251 112.296 138.625 112.118 137.916 111.938C137.428 111.814 136.968 111.581 136.281 111.312C137.506 110.625 137.294 109.768 136.788 109.136C136.028 108.188 136.684 107.436 136.931 106.646C137.083 106.159 138.386 106.379 138.734 106.969C138.973 107.374 139.161 107.829 139.27 108.285C139.582 109.59 140.368 110.407 141.627 110.838C142.235 111.046 142.744 110.997 143.286 110.644C143.599 110.44 144.005 110.379 144.399 110.243C144.68 111.833 144.266 113.218 143.801 114.573ZM143.741 47.537C143.546 47.653 143.382 47.844 143.244 48.031C142.774 48.671 142.562 48.649 142.031 47.661C143.9 48.173 143.44 46.065 144.651 45.738C144.518 46.46 144.427 47.128 143.741 47.537ZM146.899 88.383C146.107 88.258 146.025 88.046 146.24 86.625C146.852 86.95 147.027 87.461 146.899 88.383ZM149.104 47.381C148.558 47.042 148.074 46.669 148.313 46.03C148.422 45.738 148.976 45.468 149.346 45.443C150.453 45.367 151.569 45.404 152.681 45.429C152.893 45.434 153.101 45.584 153.285 45.657C152.607 46.038 151.968 46.397 151.217 46.818C151.913 47.296 153.119 46.921 153.504 46.306C153.632 46.102 153.866 45.964 154.051 45.795C154.109 45.856 154.166 45.917 154.224 45.978C153.509 46.983 152.806 47.998 152.072 48.989C151.787 49.373 151.564 49.438 151.145 48.968C150.58 48.334 149.836 47.835 149.104 47.381ZM152.071 135.914C151.696 135.4 151.416 135.069 151.217 134.695C151.178 134.621 151.531 134.222 151.568 134.24C151.945 134.43 152.335 134.636 152.618 134.936C152.681 135.003 152.335 135.454 152.071 135.914ZM156.004 47.536C155.716 48.261 155.416 48.944 155.185 49.648C155.116 49.857 155.241 50.129 155.277 50.373C155.54 50.316 155.891 50.346 156.048 50.186C156.413 49.812 156.677 49.34 156.999 48.921C157.12 48.764 157.287 48.642 157.432 48.503C157.571 48.665 157.845 48.843 157.829 48.986C157.721 49.917 158.045 50.585 158.85 51.068C159.013 51.166 159.147 51.475 159.132 51.674C159.084 52.305 159.493 52.661 159.955 52.677C160.955 52.712 161.144 53.435 161.421 54.119C161.746 54.921 161.952 55.793 162.896 56.163C162.99 56.2 163.034 56.538 162.993 56.711C162.814 57.474 162.623 58.238 162.376 58.981C162.287 59.248 162.027 59.459 161.846 59.696C161.7 59.474 161.545 59.257 161.409 59.03C160.976 58.309 160.565 57.574 160.106 56.87C160.013 56.727 159.75 56.676 159.554 56.621C158.725 56.389 158.497 55.969 158.757 55.124C158.796 54.998 158.816 54.865 158.862 54.743C159.448 53.201 158.627 51.937 156.955 51.741C155.903 51.618 154.858 51.435 153.816 51.244C153.574 51.2 153.357 51.017 152.925 50.791C154.383 49.948 154.224 47.938 156.004 47.536ZM159.482 124.377C159.003 124.97 158.608 125.458 158.181 125.986C157.596 124.613 157.666 124.522 159.482 124.377ZM155.047 110.934C154.824 110.12 154.611 109.445 154.474 108.756C154.445 108.61 154.667 108.383 154.82 108.246C154.896 108.178 155.093 108.191 155.211 108.234C156.493 108.703 157.713 108.344 158.959 108.011C157.683 108.964 156.407 109.918 155.047 110.934ZM159.47 75.957C159.438 76.041 158.925 76.035 158.695 75.932C157.862 75.558 157.055 75.125 156.238 74.714C156.252 74.609 156.266 74.505 156.28 74.4C156.529 74.369 156.78 74.301 157.027 74.314C157.637 74.346 158.254 74.373 158.851 74.488C159.111 74.538 159.453 74.756 159.536 74.98C159.644 75.267 159.584 75.659 159.47 75.957ZM158.496 57.936C158.702 58.776 158.95 59.671 159.121 60.581C159.153 60.751 158.927 61.078 158.744 61.158C158.368 61.323 157.942 61.404 157.53 61.443C157.434 61.452 157.239 61.164 157.209 60.992C157.083 60.278 156.651 59.979 155.968 60.032C155.406 60.076 155.026 59.884 154.697 59.412C154.305 58.849 153.817 58.351 153.243 57.675C155.103 58.11 156.81 59.051 158.496 57.936ZM154.152 124.456C154.13 124.261 154.447 123.847 154.614 123.845C155.088 123.837 155.564 123.989 156.064 124.164C155.433 124.518 155.142 124.877 155.362 125.63C155.44 125.895 154.908 126.339 154.612 126.762C154.427 125.886 154.233 125.177 154.152 124.456ZM155.095 166.127C155.717 165.72 156.297 165.211 156.972 164.934C157.688 164.64 157.826 165.324 158.125 166.028C157.077 166.159 156.149 166.275 155.22 166.392C155.178 166.303 155.136 166.215 155.095 166.127ZM158.423 175.237C157.975 175.448 157.387 175.216 157.421 174.668C157.452 174.154 157.703 173.364 158.069 173.216C159.003 172.838 160.065 172.673 160.99 173.778C160.138 174.272 159.311 174.82 158.423 175.237ZM164.36 147.786C163.852 148.208 163.32 148.606 162.772 148.974C161.75 149.662 161.711 149.646 160.791 148.636C161.35 148.168 161.219 147.829 160.678 147.493C160.544 147.41 160.491 147.084 160.512 146.881C160.569 146.317 160.439 145.987 159.786 146.048C159.359 146.088 158.925 146.065 158.497 146.097C158.123 146.125 157.753 146.189 157.382 146.237C158.118 145.61 158.804 145.024 159.567 144.373C160.384 144.898 161.312 145.533 162.278 146.103C162.887 146.462 163.546 146.74 164.197 147.021C164.651 147.216 164.737 147.473 164.36 147.786ZM165.625 124.351C165.486 124.444 165.088 124.178 164.824 124.05C164.125 123.71 163.434 123.352 162.738 123.004C162.629 122.949 162.462 122.938 162.409 122.852C161.88 121.996 161.321 122.329 160.74 122.782C160.538 122.94 160.306 123.059 160.088 123.196C160.02 123.141 159.953 123.086 159.885 123.031C160.042 122.794 160.147 122.486 160.363 122.333C161.351 121.632 162.407 121.023 163.366 120.285C164.033 119.771 164.575 119.096 165.186 118.508C165.395 118.307 165.655 118.16 165.877 117.971C166.453 117.483 166.837 117.577 167.273 118.226C167.775 118.973 168.436 119.614 169.028 120.299C169.726 121.106 170.429 121.909 171.119 122.723C171.215 122.836 171.286 122.995 171.306 123.141C171.36 123.528 171.232 124.088 171.444 124.274C171.834 124.614 172.404 124.769 172.92 124.938C173.405 125.096 173.917 125.172 174.418 125.284C174.403 125.371 174.388 125.458 174.373 125.546C174.176 125.565 173.978 125.589 173.78 125.601C172.846 125.657 171.912 125.741 170.977 125.746C170.637 125.748 170.299 125.544 169.954 125.463C169.6 125.38 169.233 125.352 168.881 125.264C168.514 125.173 168.075 125.134 167.813 124.906C167.162 124.331 166.603 123.695 165.625 124.351ZM170.347 174.934C169.584 175.401 168.796 175.83 168.001 176.24C167.832 176.327 167.582 176.254 167.369 176.254C167.384 176.011 167.301 175.65 167.429 175.543C168.437 174.702 169.485 173.91 170.55 173.079C171.292 174.203 171.281 174.362 170.347 174.934ZM172.35 161.949C171.774 162.7 171.028 163.204 170.041 163.067C169.76 163.028 169.518 162.703 169.276 162.523C169.392 162.203 169.417 162.039 169.502 161.917C169.847 161.424 171.691 161.073 172.177 161.431C172.303 161.524 172.416 161.864 172.35 161.949ZM174.718 134.555C175.485 134.16 176.077 133.851 176.673 133.55C177.228 133.27 177.788 132.999 178.491 132.651C177.969 133.644 175.785 134.755 174.718 134.555ZM176.789 130.139C176.503 130.027 176.107 129.907 175.867 130.019C175.185 130.336 174.857 129.98 174.568 129.486C174.26 128.958 173.935 129.136 173.706 129.496C173.499 129.822 173.274 130.236 173.303 130.592C173.365 131.37 173.04 131.809 172.432 132.227C171.731 132.709 171.114 133.314 170.46 133.866C170.389 133.814 170.318 133.762 170.246 133.71C170.816 132.442 171.399 131.18 171.95 129.904C172.156 129.428 172.387 128.927 172.426 128.423C172.469 127.882 172.707 127.681 173.164 127.714C174.466 127.808 175.808 127.781 177.048 128.118C177.77 128.315 178.327 129.12 179.034 129.716C178.234 130.246 177.565 130.441 176.789 130.139ZM178.655 80.415C179.292 79.349 179.896 78.338 180.501 77.326C180.578 77.372 180.654 77.419 180.731 77.466C180.655 77.603 180.584 77.743 180.503 77.877C180.105 78.53 180.174 79.111 180.676 79.703C180.931 80.004 181.011 80.448 181.247 80.771C181.544 81.177 181.92 81.526 182.284 81.924C182.794 81.409 183.013 80.576 183.631 81.099C183.958 81.376 183.917 82.088 184.042 82.604C183.623 82.547 183.204 82.491 182.794 82.435C182.838 83.162 182.89 84.02 182.942 84.88C182.95 84.886 182.958 84.891 182.966 84.897L182.968 84.895C182.971 84.896 182.975 84.899 182.978 84.9C183.568 84.604 184.158 84.309 184.747 84.01C185.049 83.857 185.347 83.697 185.794 83.463C185.688 83.787 185.684 84.03 185.562 84.134C185.061 84.558 184.562 85.022 183.98 85.296C183.759 85.4 183.322 85.048 182.978 84.9C182.967 84.906 182.956 84.911 182.944 84.917C182.943 84.904 182.943 84.892 182.942 84.879C182.33 84.417 181.668 84.005 181.14 83.462C180.947 83.264 180.974 82.698 181.098 82.377C181.376 81.664 181.16 81.372 180.455 81.463C179.519 81.585 179.296 80.632 178.655 80.415ZM181.658 112.038C181.815 111.632 181.972 111.227 182.13 110.821C182.245 110.867 182.361 110.914 182.476 110.96C182.285 111.351 182.645 111.964 181.658 112.038ZM186.525 96.324C186.161 96.324 185.856 96.324 185.474 96.324C185.855 95.36 185.19 94.13 186.229 93.263C186.846 93.973 186.933 95.004 186.525 96.324ZM187.243 88.93C187.162 89.069 186.762 89.052 186.505 89.054C186.223 89.056 185.834 88.866 185.677 88.991C185.089 89.464 184.614 89.252 184.045 88.967C183.582 88.735 183.042 88.648 182.53 88.521C182.017 88.394 181.496 88.296 180.924 88.174C181.737 86.849 182.855 86.62 184.155 87.341C184.869 87.737 185.642 88.181 186.567 87.814C186.77 87.734 187.242 87.874 187.317 88.038C187.429 88.283 187.383 88.687 187.243 88.93ZM186.876 77.872C185.592 77.745 184.312 77.571 183.03 77.415C183.023 77.336 183.016 77.257 183.01 77.177C183.188 77.088 183.395 76.888 183.54 76.926C184.703 77.232 185.758 76.621 186.875 76.577C187.361 76.558 187.868 76.586 187.866 77.218C187.863 77.834 187.34 77.918 186.876 77.872ZM190.988 77.77C190.5 77.738 190.012 77.706 189.524 77.674C189.519 77.579 189.514 77.485 189.51 77.39C189.928 77.212 190.346 77.035 190.988 76.762C190.988 77.192 190.988 77.481 190.988 77.77ZM200.722 99.6C199.921 99.543 199.42 99.913 199.014 100.562C198.895 100.752 198.575 100.844 198.328 100.92C197.676 101.122 197.019 101.316 196.352 101.461C196.03 101.531 195.673 101.53 195.355 101.459C195.271 101.44 195.16 100.96 195.253 100.837C195.515 100.489 195.317 99.763 196.041 99.794C196.435 99.811 196.837 99.843 197.219 99.936C197.775 100.072 198.959 99.628 199.16 99.102C199.225 98.931 199.056 98.671 198.901 98.121C199.333 98.252 199.646 98.334 199.949 98.443C200.24 98.548 200.535 98.655 200.799 98.812C200.959 98.907 201.061 99.099 201.189 99.247C201.031 99.37 200.867 99.61 200.722 99.6ZM201.981 52.793C201.524 53.314 201.147 53.777 201.155 54.54C201.159 54.905 200.792 55.581 200.581 55.586C199.835 55.602 199.085 55.389 198.336 55.262C198.381 55.076 198.365 54.819 198.482 54.716C199.055 54.217 199.759 53.839 199.888 52.978C199.898 52.914 199.99 52.852 200.055 52.807C200.761 52.314 201.467 51.818 202.181 51.337C202.317 51.246 202.491 51.211 202.648 51.15C202.714 51.201 202.78 51.251 202.845 51.301C202.564 51.804 202.353 52.369 201.981 52.793ZM204.382 100.543C204.625 99.994 204.814 99.569 205.002 99.144C205.193 99.36 205.513 99.557 205.551 99.797C205.648 100.415 205.287 100.666 204.382 100.543ZM205.689 95.979C205.263 95.807 204.73 95.734 204.45 95.428C204.257 95.217 204.413 94.686 204.413 94.297C204.501 94.255 204.589 94.214 204.676 94.172C205.095 94.653 205.513 95.134 205.932 95.615C205.851 95.736 205.77 95.857 205.689 95.979ZM207.999 47.806C207.418 48.785 206.17 48.276 205.353 48.891C205.305 47.936 207.806 45.13 208.807 44.959C208.87 46.011 208.503 46.957 207.999 47.806ZM209.998 40.364C209.344 40.375 208.686 40.164 208.032 40.178C207.344 40.193 206.659 40.361 205.865 40.479C206.022 39.626 206.181 38.598 206.408 37.586C206.569 36.868 206.834 36.173 207.03 35.462C207.221 34.769 207.361 34.735 207.918 35.159C208.191 35.367 208.56 35.45 208.964 35.623C209.435 36.82 209.961 38.183 210.511 39.537C210.734 40.082 210.43 40.357 209.998 40.364ZM210.195 27.363C209.371 28.167 209.039 29.061 209.373 30.132C209.542 30.673 209.08 32.358 208.644 32.669C208.51 32.764 208.293 32.742 207.957 32.802C208.03 32.203 208.015 31.665 208.17 31.182C208.524 30.077 208.312 29.009 208.11 27.928C208.061 27.668 208.032 27.402 208.011 27.138C207.925 26.082 207.915 25.195 209.236 24.692C210.061 24.377 210.634 23.438 211.374 22.846C211.768 22.531 212.278 22.359 212.735 22.122C212.818 22.213 212.901 22.303 212.984 22.394C212.748 22.723 212.576 23.14 212.265 23.364C211.553 23.876 211.405 24.554 211.156 25.35C210.954 25.989 210.732 26.84 210.195 27.363ZM213.284 64.177C212.811 64.138 212.337 64.098 211.701 64.045C211.891 63.61 212.006 63.346 212.146 63.026C212.602 63.382 212.969 63.668 213.335 63.954C213.319 64.029 213.301 64.103 213.284 64.177ZM211.5 8.344C211.484 8.237 211.467 8.129 211.451 8.022C212.199 7.915 212.947 7.808 213.696 7.701C213.701 7.776 213.706 7.85199 213.71 7.92699C212.978 8.09299 212.281 8.513 211.5 8.344ZM216.401 80.735C216.201 80.55 215.958 80.39 215.827 80.165C215.786 80.095 216.048 79.848 216.172 79.683C216.364 79.921 216.555 80.16 216.746 80.398C216.632 80.511 216.517 80.623 216.401 80.735ZM221.981 87.44C221.297 87.554 221.263 87.098 221.4 86.286C221.926 86.564 222.35 86.787 222.774 87.01C222.51 87.159 222.261 87.394 221.981 87.44ZM225.949 70.066C225.931 70.401 225.781 70.728 225.697 71.061C225.594 71.467 225.321 71.677 224.935 71.541C223.793 71.139 222.917 71.447 222.241 72.609C221.801 71.59 221.655 70.861 222.397 69.976C223.028 69.223 223.384 68.166 222.918 67.072C222.792 66.775 222.803 66.42 222.749 66.082C222.906 66.072 222.984 66.044 223.006 66.068C223.936 67.079 224.883 68.077 225.769 69.126C225.951 69.341 225.965 69.751 225.949 70.066ZM229.506 63.26C229.058 63.526 228.607 64.033 228.178 64.012C227.784 63.992 227.43 63.396 227.038 63.078C226.175 62.377 226.149 62.277 226.662 61.236C226.803 60.951 226.945 60.665 227.064 60.371C227.309 59.763 227.822 59.591 228.368 59.719C229.386 59.957 230.38 60.294 231.429 60.603C231.119 61.776 230.515 62.659 229.506 63.26ZM230.729 74.141C230.96 72.879 231.998 72.564 233.652 73.274C232.711 73.552 231.77 73.831 230.729 74.141ZM241.566 79.15C241.192 79.15 240.876 79.15 240.499 79.15C240.515 78.411 240.433 77.608 239.541 77.605C238.142 77.6 236.743 77.772 235.312 77.872C234.99 76.741 235.744 75.685 236.004 74.545C236.045 74.366 236.467 74.251 236.73 74.149C237.794 73.739 238.637 73.897 239.297 74.957C239.707 75.615 240.268 76.221 240.88 76.699C241.733 77.364 241.674 78.19 241.566 79.15ZM250.378 2.722C250.846 3.274 250.837 3.429 250.301 4.004C249.836 3.535 249.688 3.117 250.378 2.722ZM250.841 25.11C250.717 25.313 250.279 25.325 249.984 25.424C249.935 25.201 249.79 24.944 249.855 24.76C250.035 24.249 250.302 23.768 250.615 23.107C251.141 23.924 251.185 24.546 250.841 25.11ZM251.129 18.666C250.997 19.678 250.8 20.612 250.038 21.319C249.779 21.559 249.4 21.669 248.903 21.929C248.965 20.82 248.964 20.006 248.168 19.365C247.791 19.062 248.455 17.174 248.955 16.922C249.117 16.84 249.368 16.895 249.567 16.938C249.771 16.982 249.954 17.127 250.158 17.163C251.244 17.356 251.276 17.537 251.129 18.666ZM254.064 25.759C253.87 25.763 253.64 25.589 253.494 25.433C253.449 25.385 253.603 25.112 253.706 24.971C253.909 24.695 254.141 24.441 254.472 24.044C254.848 24.56 255.173 25.006 255.562 25.539C254.945 25.637 254.505 25.749 254.064 25.759ZM255.331 17.91C254.982 16.83 254.695 15.853 255.135 14.776C256.252 15.873 256.356 17.041 255.331 17.91ZM263.365 48.501C263.28 47.698 263.166 46.959 263.147 46.218C263.141 45.997 263.352 45.666 263.553 45.564C264.088 45.294 264.672 45.122 265.261 44.902C264.991 46.146 263.959 48.119 263.365 48.501ZM291.114 32.571C290.602 33.127 290.501 33.696 290.847 34.393C290.922 34.544 290.73 34.997 290.555 35.076C289.647 35.486 289.068 36.115 288.825 37.096C288.695 37.622 288.32 37.895 287.803 37.503C287.023 36.911 286.232 36.319 285.54 35.632C285.342 35.435 285.468 34.912 285.582 34.458C283.603 33.583 281.999 32.186 280.653 30.255C281.038 30.163 281.326 30.094 281.615 30.026C281.767 29.99 281.977 30.007 282.061 29.912C282.51 29.404 282.968 28.999 283.707 29.365C283.776 29.399 283.941 29.348 283.999 29.282C284.782 28.38 285.733 28.62 286.696 28.853C286.882 28.898 287.092 28.841 287.517 28.82C287.004 29.396 286.736 29.878 287.227 30.397C287.709 30.907 288.252 30.884 288.909 30.688C290.015 30.356 290.916 30.787 291.653 31.814C291.496 32.038 291.335 32.332 291.114 32.571ZM300.671 67.345C300.264 66.87 299.857 66.395 299.45 65.92C299.533 65.849 299.616 65.778 299.698 65.707C300.594 65.79 300.645 66.552 300.906 67.145C300.828 67.212 300.749 67.279 300.671 67.345ZM301.846 62.6C301.971 63.007 302.03 63.2 302.09 63.398C300.789 63.366 299.678 61.545 299.453 59.065C301.322 60.216 303.168 61.352 305.194 62.6C304.038 62.6 302.998 62.6 301.846 62.6ZM323.49 73.346C324.322 73.464 325.135 73.579 325.948 73.694C325.955 73.736 325.962 73.778 325.969 73.82C325.17 74.1 324.371 74.38 323.489 74.689C323.49 74.206 323.49 73.801 323.49 73.346Z" fill="#FFD630"/>
<path d="M272.134 155.11C272.134 157.513 271.054 159.714 269.285 161.293C267.53 162.9 265.1 163.885 262.44 163.885H243.31C237.991 163.885 233.63 159.929 233.63 155.11C233.63 152.693 234.71 150.493 236.479 148.913C237.14 148.292 237.91 147.779 238.761 147.361C240.111 146.699 241.664 146.335 243.31 146.335H262.44C264.087 146.335 265.64 146.713 267.003 147.374C270.055 148.846 272.134 151.762 272.134 155.11Z" fill="#6C1B91"/>
<path d="M248.279 148.238C248.279 149.683 247.631 150.992 246.619 151.87C245.782 152.599 244.688 153.044 243.487 153.044C240.827 153.044 238.681 150.884 238.681 148.238C238.681 147.941 238.708 147.644 238.762 147.361C240.112 146.699 241.665 146.335 243.311 146.335H247.888C248.144 146.915 248.279 147.563 248.279 148.238Z" fill="white"/>
<path d="M254.543 148.238C254.543 149.683 253.895 150.992 252.882 151.856C252.045 152.599 250.951 153.044 249.75 153.044C248.562 153.044 247.468 152.612 246.618 151.87C245.592 151.006 244.944 149.697 244.944 148.238C244.944 147.563 245.079 146.915 245.335 146.334H254.151C254.408 146.915 254.543 147.563 254.543 148.238Z" fill="white"/>
<path d="M260.821 148.238C260.821 149.683 260.173 150.992 259.16 151.87C258.309 152.599 257.216 153.044 256.014 153.044C254.813 153.044 253.719 152.599 252.882 151.856C251.869 150.992 251.221 149.683 251.221 148.238C251.221 147.563 251.356 146.915 251.612 146.334H260.428C260.686 146.915 260.821 147.563 260.821 148.238Z" fill="white"/>
<path d="M267.085 148.238C267.085 150.884 264.938 153.044 262.279 153.044C261.091 153.044 259.997 152.612 259.16 151.87C258.134 151.006 257.486 149.697 257.486 148.238C257.486 147.563 257.621 146.915 257.878 146.334H262.441C264.088 146.334 265.641 146.712 267.004 147.373C267.058 147.658 267.085 147.941 267.085 148.238Z" fill="white"/>
<path d="M208.677 151.14C210.261 144.466 206.135 137.771 199.461 136.187C192.787 134.602 186.092 138.728 184.507 145.402C182.923 152.076 187.049 158.771 193.723 160.356C200.397 161.94 207.092 157.815 208.677 151.14Z" fill="#FAFF74"/>
<path d="M318.103 151.465C319.869 144.837 315.928 138.032 309.3 136.266C302.671 134.5 295.866 138.441 294.1 145.069C292.334 151.697 296.275 158.502 302.903 160.269C309.532 162.035 316.337 158.094 318.103 151.465Z" fill="#FAFF74"/>
<path d="M235.531 106.29V129.389C235.531 135.815 230.266 141.08 223.826 141.08C220.613 141.08 217.683 139.77 215.564 137.637C213.431 135.531 212.122 132.601 212.122 129.388V106.289C212.122 99.85 217.387 94.584 223.827 94.584C227.04 94.584 229.97 95.893 232.089 98.027C234.222 100.147 235.531 103.077 235.531 106.29Z" fill="white"/>
<path d="M234.866 86.127C234.569 86.127 234.275 85.995 234.077 85.743C231.591 82.563 227.853 80.739 223.822 80.739C219.79 80.739 216.051 82.563 213.566 85.743C213.226 86.179 212.596 86.255 212.162 85.915C211.727 85.575 211.65 84.946 211.99 84.511C214.858 80.842 219.171 78.738 223.823 78.738C228.474 78.738 232.787 80.842 235.654 84.511C235.994 84.946 235.917 85.574 235.482 85.915C235.299 86.058 235.081 86.127 234.866 86.127Z" fill="#333333"/>
<path d="M223.822 131.997C223.27 131.997 222.822 131.55 222.822 130.997V104.679C222.822 104.127 223.27 103.679 223.822 103.679C224.374 103.679 224.822 104.127 224.822 104.679V130.997C224.822 131.55 224.374 131.997 223.822 131.997Z" fill="#333333"/>
<path d="M235.531 125.973V129.389C235.531 135.815 230.266 141.08 223.826 141.08C220.613 141.08 217.683 139.77 215.564 137.637C213.431 135.531 212.122 132.601 212.122 129.388V125.973H235.531Z" fill="#FF9830"/>
<path d="M291.84 106.29V129.389C291.84 135.815 286.575 141.08 280.135 141.08C276.922 141.08 273.992 139.77 271.873 137.637C269.74 135.531 268.43 132.601 268.43 129.388V106.289C268.43 99.85 273.695 94.584 280.135 94.584C283.348 94.584 286.278 95.893 288.397 98.027C290.53 100.147 291.84 103.077 291.84 106.29Z" fill="white"/>
<path d="M291.181 86.127C290.884 86.127 290.59 85.995 290.392 85.743C287.906 82.563 284.168 80.739 280.137 80.739C276.105 80.739 272.366 82.563 269.881 85.743C269.54 86.179 268.91 86.255 268.477 85.915C268.042 85.575 267.965 84.946 268.305 84.511C271.173 80.842 275.486 78.738 280.138 78.738C284.789 78.738 289.102 80.842 291.97 84.511C292.31 84.946 292.233 85.574 291.798 85.915C291.613 86.058 291.396 86.127 291.181 86.127Z" fill="#333333"/>
<path d="M280.136 131.997C279.584 131.997 279.136 131.55 279.136 130.997V104.679C279.136 104.127 279.584 103.679 280.136 103.679C280.688 103.679 281.136 104.127 281.136 104.679V130.997C281.136 131.55 280.688 131.997 280.136 131.997Z" fill="#333333"/>
<path d="M291.84 125.973V129.389C291.84 135.815 286.575 141.08 280.135 141.08C276.922 141.08 273.992 139.77 271.873 137.637C269.74 135.531 268.43 132.601 268.43 129.388V125.973H291.84Z" fill="#FF9830"/>
<path d="M119.381 62.506C120.4 69.137 125.109 74.822 131.002 77.835C137.965 81.396 146.308 81.277 153.63 78.916C166.347 74.815 176.344 63.999 180.171 51.285C181.115 48.148 181.669 44.878 181.805 41.605C181.952 38.078 181.681 34.246 179.823 31.148C178.176 28.401 175.074 26.411 171.797 26.608C168.367 26.814 166.116 29.407 165.238 32.564C164.319 35.872 164.366 39.584 164.784 42.964C165.231 46.575 166.21 50.066 167.783 53.351C170.818 59.688 176.075 64.639 182.62 67.199C188.905 69.657 196.214 69.634 202.26 66.501C208.055 63.498 212.596 57.722 213.831 51.278C214.139 49.67 214.258 48.044 214.163 46.41C213.181 46.543 212.199 46.676 211.217 46.809C213.138 53.927 215.787 61.95 223.037 65.257C226.249 66.722 229.966 67.111 233.232 65.576C235.793 64.373 237.607 61.779 238.203 59.049C238.91 55.813 238.018 52.561 235.287 50.574C234.41 49.936 232.913 50.782 233.03 51.869C234.342 64.039 245.672 74.641 258.25 73.098C270.535 71.591 280.451 59.801 277.491 47.318C276.147 41.647 272.415 36.48 267.387 33.515C262.614 30.701 254.071 29.036 250.746 34.884C249.139 37.711 249.631 41.217 250.622 44.164C251.686 47.328 253.21 50.381 255.001 53.192C258.578 58.804 263.389 63.621 269.026 67.164C274.869 70.835 282.473 73.608 289.205 70.699C294.012 68.621 297.373 62.622 295.867 57.448C295.49 56.154 294.801 55.018 293.894 54.03C293.174 53.246 291.583 53.583 291.387 54.692C289.934 62.902 295.31 71.739 303.752 73.234C312.06 74.706 320.632 69.535 322.258 61.06C323.166 56.327 322.054 51.513 319.078 47.723C318.096 46.473 316.243 47.852 316.571 49.182C317.301 52.148 319.526 54.554 322.272 55.822C325.718 57.414 329.566 57.284 333.211 56.532C339.728 55.189 345.852 52.094 350.991 47.898C353.954 45.478 356.529 42.645 358.732 39.52C359.847 37.939 357.247 36.439 356.142 38.006C351.896 44.028 345.881 48.819 339.057 51.606C335.492 53.062 331.51 54.241 327.628 54.072C324.087 53.918 320.368 52.056 319.464 48.383C318.628 48.869 317.793 49.356 316.957 49.842C321.154 55.187 320.259 63.779 314.736 67.859C309.33 71.854 301.579 71.271 297.218 66.048C294.813 63.168 293.623 59.202 294.281 55.487C293.445 55.708 292.61 55.928 291.774 56.149C294.788 59.432 292.678 64.807 289.466 67.128C284.492 70.723 277.362 68.416 272.544 65.753C267.566 63.002 263.171 59.202 259.703 54.695C257.931 52.392 256.402 49.893 255.139 47.277C253.953 44.822 252.746 42.062 252.705 39.292C252.61 32.799 260.381 33.383 264.545 35.39C268.967 37.521 272.43 41.534 274.032 46.165C275.694 50.97 275.283 56.115 272.674 60.506C270.065 64.897 265.678 68.186 260.766 69.559C249.216 72.787 237.284 63.485 236.031 51.866C235.279 52.298 234.526 52.73 233.774 53.161C235.877 54.691 235.775 57.799 234.75 59.925C233.339 62.853 230.243 63.992 227.128 63.443C218.841 61.983 216.007 53.035 214.11 46.008C213.68 44.412 211.063 44.682 211.164 46.407C211.504 52.253 208.758 57.765 204.344 61.516C199.889 65.302 193.846 66.667 188.135 65.64C182.1 64.555 176.595 61.186 172.978 56.218C169.324 51.2 167.511 44.996 167.535 38.813C167.545 36.185 167.565 32.391 169.712 30.497C171.674 28.765 174.703 29.745 176.337 31.459C178.572 33.802 178.866 37.442 178.833 40.511C178.802 43.411 178.402 46.282 177.67 49.088C174.797 60.105 166.968 69.726 156.624 74.546C149.772 77.739 141.511 78.791 134.335 76.059C128.191 73.72 123.283 68.272 122.274 61.707C121.981 59.806 119.09 60.614 119.381 62.506Z" fill="#6C1B91"/>
</svg>
