<svg viewBox="0 0 273 240" fill="none" xmlns="http://www.w3.org/2000/svg">
<path d="M83.0518 24.825C82.9168 25.06 82.6847 25.239 82.3047 25.652C82.7057 25.909 83.0577 26.214 83.4667 26.359C83.6277 26.416 84.0667 26.153 84.1127 25.968C84.2107 25.578 84.2578 25.086 84.0978 24.743C83.8468 24.203 83.3578 24.291 83.0518 24.825Z" fill="#9EF580"/>
<path d="M216.702 80.124C215.825 80.054 215.531 80.375 215.554 81.424C216.678 81.538 216.888 81.286 216.702 80.124Z" fill="#9EF580"/>
<path d="M166.354 112.097C166.354 112.097 275.345 70.677 245.131 40.463C214.917 10.249 145.723 100.251 145.723 100.251C145.723 100.251 160.426 76.629 170.444 52.318C170.097 52.663 169.726 52.991 169.448 53.384C168.859 54.217 168.376 55.126 167.863 56.011C167.133 57.269 166.58 57.349 165.61 56.278C165.283 55.917 165.022 55.495 164.746 55.09C164.648 54.946 164.595 54.77 164.527 54.619C165.485 53.539 166.347 52.396 167.384 51.443C168.596 50.329 169.952 49.368 171.269 48.373C171.473 48.219 171.874 48.317 172.067 48.157C172.09 48.138 172.109 48.116 172.131 48.097C181.563 23.728 185.163 0 163.406 0C149.8 0 141.068 9.129 135.495 21.823C135.733 21.911 135.966 22.006 136.183 22.131C136.336 22.22 136.545 22.23 136.675 22.341C136.978 22.599 137.248 22.896 137.531 23.177C137.24 23.352 136.928 23.501 136.661 23.707C135.716 24.437 134.792 25.194 133.846 25.923C127.179 44.027 125.974 67.592 126.025 82.896C126.233 83.069 126.441 83.241 126.68 83.439C126.449 83.516 126.236 83.587 126.029 83.656C126.084 92.612 126.557 98.554 126.557 98.554C126.557 98.554 111.496 -23.958 80.0837 7.454C77.0267 10.511 74.8447 13.895 73.3797 17.508C73.5377 17.986 74.0777 18.176 74.4437 18.491C74.6437 18.663 74.9327 18.732 75.2727 18.891C74.6587 19.426 74.0417 19.426 73.6707 18.985C73.4637 18.738 73.2446 18.562 72.9826 18.536C72.7606 19.147 72.5567 19.764 72.3737 20.388C72.5067 20.258 72.6397 20.128 72.7837 20.012C72.9927 19.844 73.3127 19.672 73.5417 19.716C73.7297 19.752 73.8577 20.104 74.0527 20.371C73.8287 20.639 73.7087 20.895 73.5077 21.003C72.9387 21.311 72.8936 21.675 73.2376 22.181C73.3376 22.328 73.4307 22.647 73.3657 22.703C73.2127 22.836 72.9577 22.931 72.7547 22.913C72.4227 22.884 72.0946 22.648 71.8626 22.339C64.2586 55.908 108.668 104.477 108.668 104.477C108.668 104.477 22.1446 38.615 4.08162 67.881C-4.35437 81.549 1.14172 91.548 12.7497 98.844C12.8927 98.267 12.4286 97.896 11.9816 97.444C12.2686 97.457 12.4857 97.399 12.5957 97.482C13.6877 98.313 15.0627 98.128 16.2727 98.529C17.3637 98.891 18.4617 99.229 19.7927 99.653C18.8517 100.321 18.0726 100.868 17.3056 101.42C25.9866 105.857 36.9617 109.14 47.9187 111.556C48.8927 111.104 49.8736 110.666 50.8466 110.211C51.5386 109.888 52.2076 109.515 52.9046 109.202C53.1246 109.103 53.4007 109.129 53.7697 109.083C53.3397 110.181 52.5457 110.754 51.6987 110.93C50.9087 111.095 50.3837 111.463 50.0457 112.014C58.1187 113.713 66.0956 114.953 73.0446 115.843C73.4566 115.444 73.8667 115.042 74.2917 114.657C74.6487 114.333 75.0707 114.082 75.4627 113.797C75.5287 113.865 75.5947 113.934 75.6607 114.002C75.0307 114.642 74.3927 115.292 73.7627 115.933C86.1847 117.497 95.1536 117.943 95.1536 117.943C95.1536 117.943 -11.8893 128.042 13.9327 153.864C39.7547 179.686 101.148 141.931 101.148 141.931C101.148 141.931 20.2997 202.446 58.2337 223.21C86.2547 238.548 120.355 145.382 120.355 145.382C120.355 145.382 89.9326 239.049 124.806 239.049C159.679 239.049 146.106 147.816 146.106 147.816C146.106 147.816 179.112 259.546 212.387 226.271C245.662 192.996 167.094 133.898 167.094 133.898C167.094 133.898 272.017 164.515 272.017 126.98C272.017 89.445 166.354 112.097 166.354 112.097ZM210.484 78.505C210.621 77.595 210.853 77.472 211.792 77.805C211.4 78.015 211.008 78.225 210.484 78.505ZM216.688 54.663C216.753 54.524 217.261 54.453 217.46 54.557C217.629 54.645 217.671 55.023 217.719 55.282C217.761 55.509 217.732 55.749 217.735 55.983C218.03 55.965 218.343 56.001 218.614 55.912C218.869 55.828 219.08 55.61 219.431 55.369C219.479 56.421 219.524 57.356 220.669 57.709C221.023 57.818 221.326 58.107 221.64 58.33C221.733 58.396 221.782 58.522 221.999 58.829C220.947 58.613 220.119 58.397 219.277 58.282C218.3 58.149 217.581 57.822 217.463 56.701C217.445 56.526 217.076 56.386 216.866 56.235C216.718 56.129 216.428 56.022 216.435 55.932C216.465 55.502 216.51 55.046 216.688 54.663ZM216.414 78.967C216.622 78.86 216.956 78.869 217.185 78.952C218.06 79.27 218.356 79.049 218.237 78.112C218.228 78.039 218.232 77.951 218.266 77.889C218.3 77.826 218.378 77.786 218.419 77.752C219.391 78.526 219.862 79.51 219.619 80.752C219.57 81.004 219.423 81.316 219.222 81.443C218.704 81.769 218.14 82.025 217.577 82.272C216.997 82.527 216.82 82.942 217.017 83.518C217.24 84.17 217.516 84.79 217.289 85.525C217.213 85.77 217.459 86.101 217.502 86.4C217.533 86.611 217.537 86.885 217.426 87.039C217.346 87.15 217.05 87.15 216.859 87.126C215.697 86.984 215.785 85.877 215.368 85.16C215.281 85.01 215.272 84.749 215.154 84.693C214.344 84.308 214.052 83.528 213.623 82.836C212.928 81.713 213.078 80.929 214.21 80.237C214.934 79.797 215.661 79.355 216.414 78.967ZM212.296 57.112C212.836 57.151 213.33 57.815 213.844 58.21C213.815 58.291 213.785 58.372 213.756 58.453C212.84 58.453 211.925 58.453 211.009 58.453C210.993 58.383 210.976 58.313 210.96 58.242C211.407 57.836 211.88 57.081 212.296 57.112ZM209.978 48.314C210.305 47.859 210.787 48.082 211.103 48.375C211.187 48.453 211.018 48.96 210.836 49.132C210.519 49.43 210.1 49.621 209.724 49.857C209.62 49.785 209.516 49.713 209.412 49.641C209.594 49.194 209.704 48.695 209.978 48.314ZM204.573 67.033C203.845 67.638 203.345 67.531 203.012 66.746C203.595 66.853 204.084 66.943 204.573 67.033ZM200.654 82.477C201.034 82.835 201.544 83.129 201.764 83.567C202.134 84.305 202.743 84.478 203.433 84.653C203.907 84.774 204.355 85.001 205.024 85.262C203.832 85.931 204.039 86.763 204.531 87.378C205.27 88.3 204.632 89.031 204.391 89.8C204.243 90.273 202.976 90.06 202.637 89.486C202.405 89.092 202.221 88.65 202.115 88.206C201.812 86.937 201.047 86.142 199.823 85.723C199.232 85.52 198.736 85.569 198.21 85.912C197.906 86.11 197.511 86.169 197.127 86.302C196.854 84.758 197.256 83.41 197.709 82.092C197.8 81.829 198.297 81.705 198.766 81.421C198.735 82.407 198.925 83.059 199.732 83.192C199.973 83.232 200.269 82.933 200.54 82.789C200.579 82.685 200.616 82.581 200.654 82.477ZM199.04 78.242C199.404 78.742 199.677 79.063 199.871 79.427C199.909 79.499 199.565 79.887 199.529 79.869C199.163 79.684 198.783 79.484 198.508 79.192C198.447 79.128 198.783 78.689 199.04 78.242ZM197.982 57.855C198.099 57.825 198.329 58.115 198.446 58.297C198.476 58.343 198.282 58.639 198.173 58.65C197.56 58.715 196.941 58.728 196.324 58.759C196.311 58.653 196.298 58.547 196.284 58.441C196.848 58.237 197.404 58.001 197.982 57.855ZM195.839 88.244C195.763 87.986 196.281 87.554 196.568 87.143C196.749 87.994 196.937 88.683 197.016 89.385C197.037 89.575 196.729 89.977 196.566 89.98C196.106 89.988 195.643 89.839 195.156 89.67C195.77 89.326 196.053 88.976 195.839 88.244ZM191.832 89.462C192.298 88.886 192.682 88.41 193.097 87.897C193.667 89.232 193.599 89.321 191.832 89.462ZM193.102 58.542C192.916 58.575 192.844 58.598 192.772 58.598C191.777 58.6 190.782 58.6 189.777 58.6C190.235 57.644 191.757 57.594 193.102 58.542ZM177.016 79.563C176.27 79.947 175.694 80.248 175.114 80.54C174.574 80.813 174.03 81.076 173.346 81.414C173.854 80.45 175.977 79.369 177.016 79.563ZM175.001 83.859C175.28 83.967 175.664 84.084 175.898 83.976C176.561 83.668 176.881 84.014 177.161 84.495C177.46 85.008 177.777 84.835 177.999 84.485C178.2 84.168 178.419 83.765 178.391 83.419C178.331 82.663 178.647 82.235 179.238 81.829C179.92 81.36 180.52 80.772 181.156 80.235C181.225 80.285 181.294 80.336 181.364 80.387C180.809 81.62 180.242 82.847 179.706 84.088C179.506 84.551 179.282 85.038 179.243 85.528C179.201 86.054 178.97 86.25 178.525 86.218C177.259 86.127 175.954 86.153 174.748 85.825C174.046 85.634 173.505 84.851 172.816 84.271C173.596 83.755 174.246 83.565 175.001 83.859ZM170.266 101.462C170.113 101.856 169.96 102.251 169.807 102.645C169.695 102.6 169.582 102.555 169.47 102.51C169.656 102.131 169.306 101.534 170.266 101.462ZM170.78 12.647C171.04 14.26 169.434 14.757 169.401 16.204C168.468 15.642 167.754 15.211 167.039 14.781C167.029 14.673 167.019 14.566 167.009 14.458C168.233 13.87 169.458 13.282 170.78 12.647ZM166.402 25.773C166.833 25.838 167.272 25.856 167.7 25.933C167.909 25.971 168.247 26.069 168.27 26.188C168.31 26.399 168.223 26.727 168.065 26.864C167.752 27.136 167.369 27.342 166.989 27.52C166.536 27.733 166.055 27.888 165.388 28.145C165.039 27.337 164.666 26.471 164.206 25.406C165.076 25.552 165.737 25.672 166.402 25.773ZM92.9637 24.766C93.4497 24.169 93.9327 23.962 94.5697 24.621C94.7497 24.807 95.1847 24.72 95.4427 24.865C95.6797 24.999 95.8767 25.252 96.0197 25.496C96.2817 25.944 96.4906 26.423 96.7216 26.89C96.6606 26.951 96.5987 27.013 96.5377 27.074C96.2717 27.012 95.9917 26.984 95.7417 26.882C94.8717 26.527 94.0046 26.162 93.1536 25.766C92.9216 25.658 92.7466 25.427 92.5446 25.252C92.6836 25.09 92.8287 24.932 92.9637 24.766ZM86.8787 9.118C86.9307 9.06 86.9727 8.983 87.0367 8.947C87.7737 8.544 88.5377 8.194 88.9477 7.368C89.0387 7.185 89.4037 7.138 89.6427 7.028C89.6597 7.261 89.7187 7.501 89.6877 7.728C89.5497 8.702 89.1827 9.524 88.0537 9.612C87.6537 9.643 87.2407 9.495 86.8327 9.429C86.8477 9.325 86.8627 9.221 86.8787 9.118ZM86.5866 14.429C86.7746 14.33 86.8976 14.115 87.0656 13.972C87.3936 13.694 87.7327 13.43 88.1517 13.091C88.4237 14.191 88.2557 14.821 87.4437 15.385C86.9217 15.747 86.6627 16.488 86.2497 17.113C85.4567 16.194 85.6476 14.924 86.5866 14.429ZM81.4787 48.347C81.7047 48.398 81.9047 48.562 82.1157 48.674C82.1017 48.742 82.0877 48.81 82.0737 48.878C81.4347 48.848 80.7957 48.817 80.1657 48.788C79.6357 47.09 80.7137 46.044 82.2937 46.338C81.8537 46.727 81.4506 47.011 81.1386 47.373C80.6626 47.926 80.7857 48.189 81.4787 48.347ZM85.5916 41.762C85.5346 42.486 85.5026 43.212 85.4306 43.934C85.3966 44.278 85.2937 44.615 85.2227 44.956C85.1097 44.978 84.9966 44.999 84.8836 45.021C84.8156 44.777 84.7057 44.536 84.6887 44.289C84.6487 43.711 84.7507 43.105 84.6157 42.554C84.4117 41.722 84.0196 40.937 83.7796 40.112C83.6946 39.819 83.8037 39.464 83.8507 39.141C83.9067 38.76 83.9907 38.383 84.1087 37.766C84.4827 38.03 84.8247 38.198 85.0687 38.457C85.9847 39.43 85.6826 40.616 85.5916 41.762ZM85.9437 26.99C85.7667 27.531 85.4837 27.621 84.9897 27.688C84.3977 27.768 83.8316 28.031 83.2476 28.185C82.6206 28.35 81.9897 28.558 81.3507 28.605C80.7937 28.645 80.2737 28.535 80.0947 29.278C80.0457 29.483 79.7677 29.645 79.5747 29.801C78.9407 30.311 78.2696 30.779 77.6806 31.335C77.5476 31.46 77.5747 31.994 77.7237 32.139C78.4297 32.825 79.1897 33.459 79.9577 34.078C80.6197 34.612 81.4396 34.997 81.6486 36.086C81.1666 35.856 80.7307 35.737 80.4067 35.479C79.3337 34.621 78.3267 33.679 77.2417 32.836C76.6667 32.389 76.0026 32.041 75.3416 31.724C75.0156 31.568 74.4337 31.717 74.2667 31.499C73.5707 30.59 72.6347 29.774 72.7887 28.425C72.8617 27.786 73.0677 27.562 73.7357 27.713C74.7817 27.949 75.7086 28.668 76.8676 28.457C77.4596 28.349 77.9577 28.234 78.0247 27.479C78.0767 26.894 78.4167 26.819 78.8737 27.126C79.0737 27.261 79.4867 27.296 79.6837 27.178C80.3207 26.796 80.9037 26.322 81.4257 25.942C81.1387 25.29 80.6117 24.661 80.7567 24.309C81.1027 23.47 81.1807 22.312 82.4237 22.083C82.3787 22.354 82.2277 22.667 82.3117 22.892C82.4437 23.247 82.7207 23.8 82.9587 23.812C83.5077 23.838 84.1557 23.719 84.6037 23.42C85.1477 23.056 85.5267 22.446 85.9957 21.922C86.1337 22.021 86.2407 22.062 86.2907 22.138C86.5407 22.529 86.6867 23.06 87.0357 23.298C87.7987 23.818 88.7547 24.132 89.6267 23.826C90.5807 23.491 90.7957 24.29 90.8927 24.659C91.0847 25.394 90.9497 26.214 90.9497 27.194C90.4077 26.805 89.9566 26.554 89.5966 26.208C88.2436 24.906 86.5147 25.243 85.9437 26.99ZM98.7996 73.82C98.9676 73.321 99.1357 72.821 99.3497 72.184C99.9987 72.914 99.8956 73.238 98.7996 73.82ZM103.228 65.256C101.972 64.844 100.901 65.255 99.8297 65.736C99.5857 65.846 99.1937 65.948 99.0157 65.831C97.8897 65.094 96.4077 64.784 95.7987 63.214C96.1217 63.08 96.4117 63.019 96.6237 62.855C96.8267 62.699 97.1216 62.306 97.0756 62.245C96.8466 61.943 96.5487 61.592 96.2127 61.507C95.9927 61.452 95.5587 61.758 95.4117 62.013C95.1797 62.416 95.1457 62.926 94.9627 63.364C94.6437 64.129 94.0667 64.194 93.6507 63.471C93.1047 62.523 92.6377 61.528 92.1787 60.533C91.9867 60.116 91.8877 59.737 92.5127 59.428C92.9977 59.188 93.2367 58.618 92.8347 58.026C92.7057 57.836 92.6127 57.62 92.5057 57.416C92.2237 56.879 91.9487 56.39 91.3877 57.211C91.3527 57.262 90.8196 57.066 90.6276 56.876C90.5326 56.781 90.6046 56.34 90.7426 56.224C91.1036 55.922 93.9017 56.658 94.1427 57.064C94.1957 57.153 94.2567 57.282 94.3357 57.301C95.2847 57.528 95.0647 58.281 95.0617 58.918C95.0567 60.158 96.1747 60.823 97.3607 60.948C97.9107 61.006 98.3627 61.048 98.8427 61.448C99.6267 62.102 100.586 61.787 101.424 61.452C102.097 61.183 102.372 61.358 102.535 62.01C102.752 62.881 103.029 63.736 103.255 64.605C103.305 64.792 103.243 65.006 103.228 65.256ZM104.381 50.804C103.804 51.009 103.239 51.272 103.031 51.958C102.989 52.098 102.758 52.22 102.592 52.263C102.53 52.279 102.382 52.053 102.313 51.917C102.208 51.712 102.13 51.492 102.052 51.274C101.858 50.732 101.644 50.188 102.585 50.173C102.74 50.171 102.939 50.032 103.036 49.897C103.416 49.375 103.871 49.371 104.409 49.602C104.582 49.676 104.825 49.74 104.98 49.676C105.662 49.394 106.004 49.877 106.556 50.213C105.704 50.441 105.026 50.576 104.381 50.804ZM107.527 30.324C107.119 31.325 106.651 32.301 106.233 33.298C105.799 34.334 105.371 35.365 105.468 36.544C105.514 37.103 105.42 37.687 105.299 38.24C105.242 38.502 104.973 38.719 104.8 38.956C104.688 38.919 104.576 38.882 104.464 38.846C105.056 37.358 103.591 36.675 103.279 35.531C103.222 35.321 102.735 35.194 102.425 35.093C101.914 34.927 101.75 34.662 102.053 34.183C102.15 34.03 102.232 33.867 102.343 33.725C103.445 32.31 103.231 30.908 101.756 29.827C101.486 29.629 101.252 29.382 101.002 29.158C101.032 29.065 101.062 28.973 101.091 28.88C102.128 28.95 103.166 29.004 104.2 29.094C105.102 29.173 105.998 29.31 106.9 29.389C107.593 29.451 107.789 29.681 107.527 30.324ZM14.2247 74.041C13.5647 74.097 12.8987 74.091 12.2347 74.099C11.8417 74.103 11.3877 73.963 11.0677 74.113C10.0627 74.586 9.09365 74.305 7.83565 74.137C8.19765 73.83 8.37771 73.56 8.61471 73.496C10.1267 73.085 11.6477 72.706 13.1717 72.346C13.6057 72.244 14.5777 73.138 14.5357 73.591C14.5197 73.756 14.3447 74.03 14.2247 74.041ZM40.3977 96.584C40.1217 97.072 39.7807 97.066 39.4757 96.594C39.0357 95.911 38.7837 95.251 39.6097 94.592C40.6357 95.241 40.8477 95.788 40.3977 96.584ZM40.2376 90.333C39.7766 90.649 39.9237 91.047 39.9867 91.429C40.0947 92.087 39.8447 92.34 39.2077 92.163C39.0837 92.129 38.9607 92.094 38.8387 92.053C37.8537 91.728 37.8157 91.616 38.2247 90.63C38.4407 90.111 38.5656 89.552 38.8046 89.045C39.1836 88.247 39.6387 88.039 40.3347 88.489C40.7817 88.777 41.1427 88.966 41.6527 88.797C41.6907 88.785 41.7676 88.892 41.8936 89.003C41.3276 89.465 40.8106 89.939 40.2376 90.333ZM50.2027 87.91C50.0677 88.128 49.8647 88.32 49.7877 88.555C49.5297 89.353 48.5966 90.122 47.7586 90.168C47.6576 90.174 47.5067 90.183 47.4587 90.124C46.7907 89.327 46.1317 89.841 45.5327 90.18C44.8837 90.548 44.3297 90.539 43.7467 90.03C44.4447 88.047 48.8547 85.619 51.5017 85.786C51.0527 86.521 50.6297 87.217 50.2027 87.91ZM46.0057 81.125C46.0987 80.079 46.3987 79.78 47.2027 79.812C47.3267 80.685 46.5297 80.68 46.0057 81.125ZM49.7247 77.336C49.2217 77.377 48.6957 76.838 48.1467 76.673C46.8767 76.292 46.1367 75.275 45.2817 74.397C44.7857 73.887 45.0867 73.41 45.4257 72.952C45.7577 72.503 46.1387 72.621 46.5247 72.841C47.6647 73.491 48.7906 74.165 49.9406 74.797C50.7216 75.226 51.5347 75.6 52.3787 76.022C51.8067 77.084 50.7277 77.255 49.7247 77.336ZM64.5387 107C64.0747 106.097 63.5117 105.868 62.5767 106.079C61.1277 106.406 59.6577 106.599 58.3997 107.478C58.3257 107.53 58.1976 107.523 58.0966 107.517C57.5196 107.482 56.9447 107.438 56.3347 107.395C56.4197 107.299 56.5397 107.122 56.6977 106.992C57.4667 106.364 58.2337 105.732 59.0257 105.135C59.8207 104.536 59.4127 103.78 59.3647 103.059C59.3437 102.744 59.3897 102.425 59.4057 102.107C59.6947 102.138 60.0197 102.094 60.2667 102.212C61.3887 102.746 62.4757 103.354 63.6027 103.877C64.3357 104.217 65.1157 104.454 66.0127 104.789C66.1197 105.727 65.2957 106.273 64.5387 107ZM66.6877 96.085C66.6067 96.033 66.5257 95.982 66.4447 95.93C66.5237 95.587 66.6016 95.245 66.6806 94.902C66.7606 94.888 66.8407 94.875 66.9207 94.861C67.0397 95.112 67.2657 95.373 67.2437 95.61C67.2277 95.784 66.8847 95.928 66.6877 96.085ZM92.0057 115.766C91.1057 114.976 90.6757 115.664 90.0907 116.154C89.9837 115.773 89.9017 115.484 89.8217 115.2C90.4577 115.09 90.9886 114.984 91.5236 114.914C91.7246 114.887 91.9366 114.943 92.1436 114.962C92.1076 115.171 92.0717 115.381 92.0057 115.766ZM32.3297 139.091C31.5207 138.976 30.7297 138.864 29.9387 138.752C29.9317 138.711 29.9247 138.67 29.9177 138.629C30.6947 138.357 31.4717 138.084 32.3297 137.784C32.3297 138.255 32.3297 138.649 32.3297 139.091ZM41.4107 157.868C40.2567 157.902 39.1007 157.891 37.9447 157.884C37.3177 157.88 37.4327 157.428 37.4637 157.042C37.4937 156.675 37.5387 156.31 37.5887 155.83C38.0357 155.83 38.6067 155.812 39.1767 155.835C39.7207 155.857 40.1547 155.818 39.8027 155.062C40.5547 155.304 41.8727 156.858 41.8347 157.461C41.8257 157.612 41.5627 157.864 41.4107 157.868ZM48.7817 143.062C48.7137 143.029 48.5536 143.078 48.4976 143.142C47.7356 144.019 46.8117 143.786 45.8747 143.559C45.6937 143.515 45.4897 143.571 45.0767 143.591C45.5757 143.031 45.8367 142.562 45.3587 142.057C44.8897 141.561 44.3617 141.583 43.7227 141.774C42.6467 142.096 41.7707 141.678 41.0537 140.679C41.2067 140.46 41.3637 140.175 41.5777 139.943C42.0757 139.402 42.1737 138.849 41.8377 138.171C41.7647 138.024 41.9517 137.584 42.1217 137.507C43.0047 137.108 43.5676 136.497 43.8046 135.542C43.9316 135.031 44.2957 134.765 44.7987 135.146C45.5577 135.722 46.3267 136.298 46.9997 136.966C47.1927 137.157 47.0687 137.666 46.9587 138.108C48.8827 138.959 50.4426 140.318 51.7526 142.195C51.3786 142.284 51.0977 142.352 50.8167 142.418C50.6687 142.453 50.4646 142.437 50.3826 142.529C49.9456 143.025 49.5007 143.418 48.7817 143.062ZM50.1226 149.542C51.2476 149.542 52.2587 149.542 53.3787 149.542C53.2577 149.146 53.1997 148.959 53.1407 148.766C54.4057 148.798 55.4857 150.568 55.7047 152.98C53.8877 151.861 52.0926 150.756 50.1226 149.542ZM55.4677 146.519C54.5957 146.438 54.5467 145.697 54.2927 145.121C54.3687 145.057 54.4457 144.992 54.5217 144.927C54.9177 145.389 55.3137 145.851 55.7087 146.312C55.6287 146.381 55.5477 146.45 55.4677 146.519ZM81.5407 145.312C80.9927 146.113 80.5727 147 80.0457 147.817C79.8917 148.056 79.5617 148.183 79.2967 148.372C78.9247 147.703 78.8476 147.304 79.5286 146.915C80.1746 146.545 80.1616 145.012 79.6486 144.436C79.4316 144.192 79.3227 143.853 79.1087 143.606C78.7387 143.18 78.3377 142.778 77.9257 142.39C77.3407 141.839 76.6256 141.77 75.8466 141.743C75.4816 141.73 75.1586 141.223 74.7686 141.045C74.1316 140.754 74.4747 140.336 74.5277 139.929C74.5677 139.622 74.5357 139.306 74.5357 138.796C75.1277 139.106 75.6336 139.293 76.0496 139.601C77.8136 140.908 79.5496 142.254 81.2996 143.579C82.1156 144.197 82.1177 144.467 81.5407 145.312ZM91.6477 121.286C91.1277 121.548 90.5587 121.716 89.9857 121.93C90.2487 120.721 91.2527 118.802 91.8307 118.43C91.9127 119.211 92.0237 119.929 92.0427 120.65C92.0487 120.866 91.8437 121.188 91.6477 121.286ZM111.189 77.998C110.356 77.384 110.438 77.096 111.766 75.976C112.282 76.423 112.145 76.901 111.189 77.998ZM117.734 79.13C116.523 79.459 115.31 79.881 114.036 79.43C113.398 79.204 112.974 78.838 113.047 78.055C113.098 77.505 113.187 76.892 112.527 76.545C112.477 76.518 112.541 76.064 112.614 76.045C113.29 75.869 112.849 74.5 113.865 74.82C114.382 74.983 114.846 75.38 115.274 75.742C115.761 76.155 116.171 76.657 116.633 77.102C117.149 77.598 117.592 78.23 118.478 78.059C118.597 78.036 118.773 78.306 119.08 78.582C118.528 78.809 118.144 79.018 117.734 79.13ZM119.848 80.61C119.657 79.863 119.533 79.379 119.401 78.865C120.073 78.626 120.393 79.16 120.575 79.569C120.653 79.744 120.172 80.167 119.848 80.61ZM149.195 16.76C149.487 17.254 149.684 17.588 149.947 18.034C149.535 18.187 149.198 18.312 148.813 18.456C148.943 17.881 149.042 17.441 149.195 16.76ZM141.292 27.754C140.922 28.751 140.629 28.799 139.688 27.883C140.314 27.833 140.786 27.795 141.292 27.754ZM132.803 80.345C133.763 80.466 134.594 80.571 135.501 80.686C135.039 81.288 134.546 81.691 133.753 81.327C133.615 81.264 133.468 81.21 133.32 81.182C133.049 81.131 132.773 81.103 132.499 81.066C132.622 80.776 132.744 80.485 132.803 80.345ZM127.285 84.415C127.563 83.444 127.826 83.377 128.812 84.044C128.243 84.183 127.799 84.29 127.285 84.415ZM136.106 100.181C135.474 99.362 134.88 99.46 134.221 100.003C134.01 100.177 133.629 100.269 133.369 100.21C133.234 100.18 133.135 99.74 133.121 99.48C133.069 98.515 132.845 98.329 131.876 98.522C131.803 98.537 131.718 98.526 131.646 98.504C131.609 98.493 131.587 98.431 131.526 98.348C133.576 97.556 135.583 96.78 137.744 95.945C137.47 97.52 136.726 98.768 136.106 100.181ZM136.192 82.107C136.483 81.362 136.667 80.891 136.812 80.523C137.403 80.736 138.017 80.956 138.77 81.227C137.956 81.505 137.164 81.776 136.192 82.107ZM139.861 55.118C140.655 55.599 141.37 56.031 142.216 56.543C142.254 57.003 141.307 57.691 140.586 57.448C140.465 57.407 140.357 57.33 140.239 57.278C138.037 56.305 138.635 56.349 139.861 55.118ZM138.902 73.064C138.774 72.145 139.152 71.64 139.879 71.528C140.09 71.496 140.348 71.357 140.464 71.185C140.954 70.458 141.66 70.241 142.688 70.693C141.379 71.514 140.163 72.275 138.902 73.064ZM143.55 27.563C143.134 26.872 142.816 26.129 141.68 26.173C142.716 25.818 141.757 25.253 142.109 24.715C143.576 25.335 145.067 25.966 146.557 26.596C146.562 26.716 146.567 26.836 146.573 26.956C145.848 27.296 145.141 27.687 144.388 27.944C144.168 28.019 143.686 27.789 143.55 27.563ZM144.646 56.129C144.506 55.826 144.678 55.38 144.71 54.999C144.977 55.05 145.242 55.118 145.511 55.149C146.774 55.295 146.303 56.543 146.854 57.23C146.727 57.333 146.613 57.492 146.47 57.525C146.217 57.584 145.825 57.683 145.704 57.558C145.291 57.136 144.891 56.659 144.646 56.129ZM208.116 112.866C207.381 115.698 206.638 118.528 205.889 121.356C205.839 121.546 205.727 121.72 205.653 121.879C205.549 121.885 205.472 121.912 205.448 121.887C204.65 121.063 203.473 120.894 202.598 120.224C202.406 120.077 202.368 119.659 202.355 119.362C202.334 118.869 202.364 118.37 202.428 117.88C202.453 117.686 202.626 117.51 202.731 117.327C202.9 117.454 203.087 117.562 203.233 117.711C203.557 118.041 203.861 118.391 204.174 118.733C204.469 118.349 204.797 117.986 205.052 117.577C205.495 116.867 205.836 116.088 206.325 115.413C206.76 114.812 206.308 114.525 205.961 114.549C205.082 114.61 204.883 114.057 204.649 113.281C205.182 113.146 205.671 113.023 206.16 112.897C206.648 112.771 207.134 112.635 207.624 112.515C207.765 112.48 207.936 112.443 208.056 112.494C208.121 112.522 208.147 112.749 208.116 112.866ZM216.277 128.646C215.146 128.349 214.12 128.943 213.034 128.986C212.562 129.005 212.068 128.978 212.07 128.363C212.072 127.764 212.581 127.683 213.032 127.727C214.281 127.85 215.526 128.02 216.772 128.171C216.779 128.248 216.785 128.325 216.792 128.402C216.619 128.489 216.417 128.683 216.277 128.646ZM219.232 128.257C219.158 128.212 219.083 128.166 219.008 128.121C219.082 127.988 219.151 127.851 219.23 127.721C219.617 127.086 219.55 126.521 219.062 125.945C218.814 125.652 218.736 125.221 218.507 124.907C218.218 124.512 217.853 124.173 217.498 123.786C217.002 124.287 216.789 125.097 216.188 124.589C215.87 124.32 215.91 123.627 215.788 123.126C216.196 123.181 216.604 123.236 217.002 123.29C216.959 122.583 216.908 121.748 216.858 120.912C216.85 120.906 216.842 120.901 216.835 120.895C216.835 120.896 216.833 120.897 216.833 120.897C216.83 120.896 216.826 120.893 216.823 120.892C216.25 121.18 215.675 121.467 215.103 121.757C214.81 121.906 214.52 122.061 214.084 122.289C214.187 121.974 214.191 121.737 214.31 121.636C214.797 121.223 215.282 120.773 215.848 120.506C216.063 120.404 216.488 120.747 216.823 120.892C216.834 120.886 216.845 120.881 216.856 120.875C216.857 120.887 216.857 120.899 216.858 120.911C217.453 121.36 218.097 121.761 218.61 122.289C218.797 122.482 218.772 123.032 218.65 123.344C218.38 124.037 218.59 124.322 219.275 124.233C220.187 124.115 220.403 125.042 221.027 125.252C220.408 126.29 219.82 127.273 219.232 128.257ZM226.512 128.404C225.881 128.474 225.226 128.333 224.579 128.269C224.569 128.167 224.559 128.064 224.549 127.962C225.265 127.621 225.982 127.28 226.734 126.922C226.781 127.095 226.828 127.171 226.815 127.233C226.723 127.643 226.656 128.388 226.512 128.404ZM231.204 128.319C231.083 128.34 230.963 128.361 230.842 128.382C230.646 127.723 230.455 127.062 230.251 126.405C229.972 125.506 230.599 124.761 231.55 124.887C231.687 124.905 231.811 125.015 231.927 125.076C231.606 125.619 231.168 126.096 231.044 126.645C230.926 127.163 231.138 127.757 231.204 128.319ZM247.936 119.87C248.581 119.765 248.845 120.132 249.039 120.742C248.285 120.852 247.724 120.874 247.936 119.87ZM244.389 112.611C246.092 112.888 247.702 113.149 249.463 113.435C248.658 114.587 249.225 115.288 249.806 116.014C250.042 116.309 250.175 116.686 250.26 117.091C248.047 116.003 245.256 115.765 244.389 112.611ZM255.194 116.029C254.632 115.594 254.071 115.158 253.51 114.723C253.554 114.628 253.597 114.533 253.641 114.437C254.877 114.698 256.113 114.959 257.361 115.222C256.975 116.395 256.058 116.697 255.194 116.029Z" fill="#9EF580"/>
<path d="M98.4706 63.523C98.2656 63.548 97.9077 63.969 97.9417 64.03C98.1207 64.353 98.4037 64.618 98.7807 65.054C99.1197 64.673 99.4527 64.461 99.4337 64.289C99.3747 63.777 98.9896 63.459 98.4706 63.523Z" fill="#9EF580"/>
<path d="M123.916 115.372C123.916 115.971 123.82 116.546 123.64 117.085H102.377C102.185 116.546 102.089 115.971 102.089 115.372C102.089 113.863 102.712 112.485 103.706 111.491C104.7 110.485 106.066 109.874 107.575 109.874H118.416C121.437 109.874 123.916 112.342 123.916 115.372Z" fill="white"/>
<path d="M118.861 118.945C118.308 118.945 117.861 118.497 117.861 117.945V112.87C117.861 112.318 118.308 111.87 118.861 111.87C119.414 111.87 119.861 112.318 119.861 112.87V117.945C119.861 118.498 119.413 118.945 118.861 118.945Z" fill="#333333"/>
<path d="M162.333 115.372C162.333 115.971 162.237 116.546 162.057 117.085H140.807C140.615 116.546 140.52 115.971 140.52 115.372C140.52 113.863 141.131 112.485 142.125 111.491C143.119 110.485 144.496 109.874 146.005 109.874H156.834C159.865 109.874 162.333 112.342 162.333 115.372Z" fill="white"/>
<path d="M157.478 118.945C156.925 118.945 156.478 118.497 156.478 117.945V112.87C156.478 112.318 156.925 111.87 157.478 111.87C158.031 111.87 158.478 112.318 158.478 112.87V117.945C158.478 118.498 158.031 118.945 157.478 118.945Z" fill="#333333"/>
<path d="M123.641 117.086C123.365 117.9 122.898 118.643 122.299 119.242C121.305 120.248 119.927 120.859 118.418 120.859H107.577C105.157 120.859 103.085 119.266 102.378 117.086H123.641Z" fill="#69A355"/>
<path d="M162.058 117.086C161.782 117.9 161.327 118.643 160.716 119.242C159.722 120.248 158.344 120.859 156.835 120.859H146.006C143.586 120.859 141.514 119.266 140.807 117.086H162.058Z" fill="#69A355"/>
<path d="M140.006 140.445H123.032C117.306 140.445 112.646 136.146 112.646 130.862C112.646 128.254 113.758 125.826 115.775 124.024C116.439 123.399 117.267 122.834 118.203 122.374C119.665 121.657 121.335 121.279 123.032 121.279H140.006C141.68 121.279 143.352 121.66 144.84 122.381C148.271 124.037 150.406 127.287 150.406 130.862C150.406 133.426 149.264 135.915 147.277 137.689C145.34 139.46 142.753 140.445 140.006 140.445ZM123.031 124.872C121.879 124.872 120.757 125.124 119.786 125.599C119.172 125.901 118.637 126.263 118.2 126.673C116.924 127.814 116.24 129.29 116.24 130.861C116.24 134.163 119.286 136.851 123.031 136.851H140.005C141.851 136.851 143.578 136.202 144.866 135.023C146.126 133.898 146.81 132.426 146.81 130.862C146.81 128.678 145.456 126.669 143.276 125.616C142.256 125.122 141.155 124.872 140.005 124.872H123.031Z" fill="#69A355"/>
<path d="M148.607 130.862C148.607 132.994 147.649 134.947 146.079 136.349C144.522 137.774 142.365 138.649 140.006 138.649H123.031C118.311 138.649 114.442 135.139 114.442 130.863C114.442 128.719 115.4 126.766 116.97 125.365C117.557 124.814 118.24 124.359 118.995 123.987C120.193 123.4 121.57 123.077 123.032 123.077H140.007C141.469 123.077 142.846 123.412 144.056 123.999C146.763 125.303 148.607 127.891 148.607 130.862Z" fill="#333333"/>
<path d="M127.44 124.764C127.44 126.046 126.865 127.208 125.966 127.986C125.223 128.633 124.253 129.028 123.187 129.028C120.827 129.028 118.922 127.111 118.922 124.763C118.922 124.499 118.946 124.236 118.994 123.984C120.192 123.397 121.569 123.074 123.031 123.074H127.092C127.32 123.59 127.44 124.165 127.44 124.764Z" fill="white"/>
<path d="M133 124.764C133 126.046 132.425 127.208 131.526 127.974C130.783 128.633 129.812 129.028 128.746 129.028C127.692 129.028 126.722 128.645 125.968 127.986C125.058 127.219 124.482 126.057 124.482 124.764C124.482 124.165 124.602 123.59 124.829 123.075H132.651C132.879 123.59 133 124.165 133 124.764Z" fill="white"/>
<path d="M138.569 124.764C138.569 126.046 137.994 127.208 137.096 127.986C136.341 128.633 135.371 129.028 134.305 129.028C133.239 129.028 132.269 128.633 131.526 127.974C130.628 127.207 130.053 126.045 130.053 124.764C130.053 124.165 130.173 123.59 130.401 123.075H138.223C138.449 123.59 138.569 124.165 138.569 124.764Z" fill="white"/>
<path d="M144.127 124.764C144.127 127.112 142.222 129.029 139.862 129.029C138.808 129.029 137.837 128.646 137.095 127.987C136.185 127.22 135.61 126.058 135.61 124.765C135.61 124.166 135.73 123.591 135.957 123.076H140.006C141.468 123.076 142.845 123.411 144.055 123.998C144.103 124.249 144.127 124.501 144.127 124.764Z" fill="white"/>
<path d="M96.4849 124.809C96.4849 122.628 98.2528 120.859 100.435 120.859C102.617 120.859 104.385 122.627 104.385 124.809C104.385 126.991 102.617 128.758 100.435 128.758C98.2528 128.758 96.4849 126.99 96.4849 124.809Z" fill="#FF7580"/>
<path d="M161.272 124.809C161.272 122.628 163.041 120.859 165.223 120.859C167.405 120.859 169.172 122.627 169.172 124.809C169.172 126.991 167.405 128.758 165.223 128.758C163.041 128.758 161.272 126.99 161.272 124.809Z" fill="#FF7580"/>
</svg>
