<svg viewBox="0 0 301 243" fill="none" xmlns="http://www.w3.org/2000/svg">
<path d="M119.786 150.924V242.092H73.6182C74.2752 227.867 90.2601 223.336 90.2601 223.336V152.185L119.786 150.924Z" fill="#9FB54A"/>
<path d="M100.85 201.625C97.9519 201.625 95.2868 199.916 93.5388 196.936C93.2598 196.459 93.4189 195.847 93.8949 195.568C94.3719 195.286 94.9838 195.448 95.2628 195.924C96.6418 198.276 98.6779 199.624 100.849 199.624C103.02 199.624 105.057 198.275 106.436 195.924C106.714 195.447 107.328 195.287 107.804 195.568C108.281 195.847 108.44 196.46 108.16 196.936C106.414 199.916 103.749 201.625 100.85 201.625Z" fill="#333333"/>
<path d="M177.959 242.092H131.804V150.924L161.331 152.185V223.336C161.331 223.336 177.303 227.867 177.959 242.092Z" fill="#9FB54A"/>
<path d="M150.736 201.625C147.838 201.625 145.174 199.916 143.426 196.936C143.147 196.459 143.306 195.847 143.782 195.568C144.259 195.286 144.871 195.448 145.15 195.924C146.529 198.276 148.565 199.624 150.736 199.624C152.907 199.624 154.944 198.275 156.323 195.924C156.601 195.447 157.214 195.287 157.69 195.568C158.167 195.847 158.327 196.46 158.047 196.936C156.302 199.916 153.636 201.625 150.736 201.625Z" fill="#333333"/>
<path d="M90.2592 213.59H119.786V242.092H73.6182C74.2752 227.867 90.2601 223.336 90.2601 223.336L90.2592 213.59Z" fill="#CDFF7D"/>
<path d="M177.959 242.092H131.804V213.59H161.331V223.336C161.331 223.336 177.303 227.867 177.959 242.092Z" fill="#CDFF7D"/>
<path d="M57.9901 181.047C57.9901 189.586 56.2582 196.508 54.1232 196.508C51.9872 196.508 50.2561 189.586 50.2561 181.047C50.2561 180.955 50.2592 180.865 50.2592 180.773H50.2521C50.2521 180.865 50.2561 180.954 50.2561 181.047C50.2561 189.586 48.5241 196.508 46.3881 196.508C44.2521 196.508 42.5211 189.586 42.5211 181.047C42.5211 180.955 42.5242 180.865 42.5242 180.773H42.5171C42.5171 180.865 42.5211 180.954 42.5211 181.047C42.5211 189.586 40.7891 196.508 38.6531 196.508C36.5171 196.508 34.7852 189.586 34.7852 181.047C34.7852 180.955 34.7881 180.865 34.7891 180.773H34.7852V133.108L57.9901 133.051V180.774H57.9861C57.9871 180.866 57.9901 180.955 57.9901 181.047Z" fill="#9FB54A"/>
<path d="M188.013 152.909C187.47 152.778 187.124 152.689 186.996 152.655L193.03 129.795L190.013 141.225L193.01 129.79C193.338 129.871 226.213 138.235 247.522 126.988C267.841 116.264 273.887 86.395 273.946 86.095L297.169 90.528C296.851 92.206 289.033 131.813 258.557 147.897C231.25 162.31 194.698 154.517 188.013 152.909Z" fill="#9FB54A"/>
<path d="M294.059 71.109C293.198 71.109 292.383 71.299 291.643 71.627L297.534 59.409C298.289 58.016 297.766 56.259 296.373 55.504C294.98 54.749 293.222 55.272 292.468 56.665L287.792 65.32L286.918 56.399C286.879 54.815 285.552 53.551 283.968 53.589C282.384 53.628 281.12 54.955 281.158 56.539L281.333 70.217C281.331 70.216 281.33 70.215 281.328 70.214C281.183 70.149 281.018 70.089 280.857 70.051C279.315 69.68 277.754 70.636 277.383 72.178L273.713 87.437C274.038 87.665 274.417 87.837 274.824 87.934L279.261 89.001L286.989 90.86L290.896 91.8L295.333 92.867C295.749 92.967 296.155 92.985 296.558 92.931L300.228 77.672C300.413 76.906 300.398 71.109 294.059 71.109Z" fill="#9FB54A"/>
<path d="M284.219 82.4409C281.548 82.4409 278.988 81.8879 278.448 81.7639C277.91 81.6399 277.574 81.1039 277.697 80.5659C277.821 80.0279 278.361 79.6939 278.895 79.8149C281.883 80.4979 288.27 81.1209 288.945 78.6809C289.644 76.1519 283.829 72.4949 280.903 71.1209C280.404 70.8859 280.189 70.2899 280.424 69.7899C280.659 69.2909 281.253 69.0759 281.755 69.3099C282.828 69.8149 292.209 74.3809 290.873 79.2129C290.161 81.7859 287.124 82.4409 284.219 82.4409Z" fill="#333333"/>
<path d="M171.426 70.069C171.144 70.332 171.028 70.813 170.719 71.018C170.252 71.327 169.666 71.656 169.143 71.636C168.287 71.603 167.426 71.347 166.598 71.087C166.055 70.917 165.908 69.846 166.305 69.406C166.495 69.194 166.698 68.993 166.941 68.739C166.568 68.427 166.358 68.129 166.288 67.825L126.709 50.538C126.09 50.691 125.524 50.829 125.005 51.013C124.373 51.237 123.753 51.527 123.524 52.279C123.477 52.433 123.225 52.567 123.043 52.613C122.976 52.63 122.813 52.383 122.737 52.234C122.622 52.009 122.537 51.768 122.451 51.529C122.238 50.934 122.003 50.338 123.035 50.322C123.204 50.319 123.423 50.167 123.53 50.02C123.802 49.645 124.114 49.531 124.459 49.555L104.432 40.808C104.422 40.905 104.412 41.001 104.404 41.098C104.341 41.892 104.306 42.688 104.227 43.48C104.189 43.857 104.077 44.227 103.998 44.6C103.874 44.624 103.75 44.648 103.626 44.671C103.552 44.404 103.431 44.139 103.412 43.868C103.368 43.234 103.48 42.569 103.332 41.966C103.171 41.308 102.903 40.678 102.667 40.038L89.4659 34.272C89.3779 34.517 89.2731 34.757 89.1021 34.925C88.2261 35.784 87.973 37.142 86.74 37.739C86.41 37.898 86.29 38.49 85.953 39.101C84.984 37.448 85.997 35.986 85.892 34.436C86.796 34.877 87.354 34.52 87.948 33.898C88.018 33.824 88.11 33.77 88.21 33.725L86.647 33.042C86.519 33.17 86.385 33.302 86.261 33.426C86.113 33.167 85.979 32.933 85.84 32.69L55.446 19.415C55.42 19.431 55.3929 19.447 55.3669 19.462C55.3319 19.419 55.295 19.376 55.26 19.333L10.995 0C9.966 2.356 9.02004 4.728 8.13904 7.109C8.17304 7.107 8.20099 7.116 8.23499 7.112C9.24199 7.004 10.073 7.251 10.749 8.049C11.623 9.081 12.519 10.098 13.459 11.069C13.682 11.299 14.13 11.298 14.453 11.45C14.775 11.603 15.112 11.77 15.365 12.012C15.776 12.403 16.0961 12.887 16.5031 13.283C17.5381 14.293 18.6089 15.266 19.6479 16.272C20.6299 17.224 20.893 17.312 21.699 16.284C22.402 15.387 23.084 15.284 23.985 15.803C24.544 16.125 25.094 16.464 25.825 16.902C24.957 17.436 24.276 17.944 23.519 18.281C23.19 18.427 22.679 18.291 22.293 18.16C21.109 17.757 21.12 17.736 20.481 18.76C20.408 18.877 20.277 18.959 20.15 19.078C19.112 18.676 18.092 18.219 17.032 17.889C16.138 17.61 15.933 16.81 15.827 16.162C15.705 15.42 15.414 14.904 14.781 14.787C13.057 14.466 11.948 13.208 10.62 12.275C9.812 11.707 8.92795 11.242 8.14795 10.641C7.80695 10.379 7.48896 10.086 7.17896 9.784C2.88896 22.191 0.573989 34.871 0.0889893 47.454C0.459989 47.086 0.85797 46.737 1.19397 46.343C1.48297 46.004 1.66595 45.576 1.92395 45.207C3.21195 43.36 4.50201 41.515 5.80701 39.68C6.12401 39.234 6.46205 39.251 6.97705 39.542C7.79005 40.003 8.44603 40.853 9.55103 40.728C9.66203 40.716 9.81095 41.046 10.049 41.355C7.75095 40.773 7.82895 40.828 6.54395 42.657C5.90495 43.567 5.69402 44.33 6.24402 45.286C6.27102 45.334 6.203 45.437 6.151 45.605C5.542 44.89 5.06205 45.116 4.45605 45.628C4.14205 45.893 3.52204 45.795 3.04004 45.861C3.03004 45.952 3.02001 46.043 3.01001 46.134C3.66601 46.339 4.336 46.509 4.974 46.76C5.64 47.022 6.24798 47.456 6.92798 47.653C8.68298 48.16 8.79697 49.774 9.39197 51.08C9.67197 51.695 10.056 52.262 10.354 52.87C10.491 53.151 10.535 53.477 10.621 53.783C10.542 53.836 10.4631 53.89 10.3831 53.943C9.75706 53.365 9.10506 52.811 8.50806 52.203C6.28806 49.943 5.35006 50.736 3.40906 51.485C2.68706 51.764 2.08604 52.342 1.39404 52.72C0.955043 52.96 0.461 53.095 0 53.297C0.02 56.428 0.15302 59.549 0.39502 62.655C1.27602 62.036 2.23496 61.565 3.28796 61.235C2.35596 62.112 1.64897 63.318 0.495972 63.94C2.43897 86.014 9.95198 107.268 22.225 125.625C22.618 125.345 23.01 125.066 23.403 124.786C23.47 124.858 23.537 124.93 23.603 125.002C23.205 125.299 22.8071 125.597 22.4091 125.894C35.8711 145.919 55.005 162.476 78.757 172.85C145.182 201.862 222.568 171.526 251.588 105.082L171.426 70.069ZM15.025 20.474C15.435 20.542 15.849 20.594 16.255 20.682C17.159 20.879 18.053 21.205 18.964 21.263C19.596 21.303 20.249 20.977 20.895 20.825C21.715 20.632 22.3549 20.933 22.6119 21.665C22.6799 21.858 22.6999 22.153 22.5959 22.295C22.5049 22.419 22.186 22.473 22.009 22.42C21.259 22.197 20.5391 21.789 19.7791 21.707C19.0931 21.633 18.3709 21.898 17.6639 22.005C16.4749 22.184 15.673 21.555 14.964 20.739C14.984 20.65 15.004 20.562 15.025 20.474ZM10.774 16.983C10.916 16.721 11.106 16.484 11.274 16.236C11.454 15.969 11.583 15.619 11.833 15.471C11.951 15.401 12.293 15.729 12.543 15.86C12.835 16.014 13.1379 16.148 13.4349 16.292C13.7039 16.423 13.972 16.555 14.241 16.687C14.241 16.796 14.24 16.905 14.24 17.014C13.797 17.12 13.355 17.23 12.911 17.33C12.348 17.457 11.786 17.598 11.217 17.688C11.014 17.72 10.79 17.622 10.575 17.584C10.639 17.383 10.675 17.166 10.774 16.983ZM8.58301 37.576C7.99101 37.247 7.85498 36.932 8.22998 36.381C8.46698 36.033 8.68595 35.673 9.00195 35.178C9.22595 35.519 9.44998 35.74 9.53198 36.006C10.117 37.898 11.773 38.659 13.314 39.428C15.036 40.287 16.912 40.832 18.665 41.635C20.201 42.338 21.6601 43.21 23.1541 44.006C23.1581 44.069 23.161 44.132 23.165 44.196C22.274 44.357 21.385 44.534 20.489 44.665C20.33 44.688 20.01 44.546 19.991 44.439C19.773 43.231 18.5779 43.286 17.8359 42.818C16.3649 41.889 14.7609 41.176 13.2419 40.319C11.6729 39.432 10.157 38.452 8.58301 37.576ZM8.02905 72.859C7.59705 73.007 7.16601 73.155 6.73401 73.304C6.64801 73.217 6.56195 73.131 6.47595 73.044C6.64695 72.706 6.76898 72.136 7.00098 72.086C7.30198 72.022 7.69002 72.374 8.04102 72.547C8.03802 72.651 8.03305 72.755 8.02905 72.859ZM13.4 92.766C13.284 92.763 13.167 92.76 13.051 92.757C11.455 90.704 9.85901 88.651 8.26001 86.593C10.468 86.819 12.662 87.043 14.983 87.281C14.536 89.196 12.644 90.567 13.4 92.766ZM23.007 111.084C21.331 112.34 19.668 113.614 17.996 114.875C17.938 114.919 17.836 114.905 17.736 114.921C17.597 113.696 18.4449 112.881 18.9189 111.922C19.5519 110.64 20.1831 109.356 20.8521 108.092C21.0361 107.744 21.351 107.466 21.606 107.156C21.914 107.445 22.3019 107.687 22.5129 108.035C22.8619 108.611 23.097 109.256 23.38 109.871C23.619 110.388 23.444 110.757 23.007 111.084ZM40.811 31.377C40.886 31.261 41.1079 31.241 41.4449 31.102C41.9809 32.043 42.522 32.992 43.09 33.988C42.111 34.2 40.107 33.17 40.118 32.697C40.128 32.249 40.536 31.799 40.811 31.377ZM36.093 17.591C36.823 17.856 37.4509 18.402 38.1639 18.863C37.5709 19.628 36.919 18.893 36.337 19.029C36.12 19.08 35.8199 18.974 35.6169 18.846C35.3259 18.662 35.088 18.392 34.828 18.159C35.256 17.952 35.781 17.478 36.093 17.591ZM34.975 28.045C35.147 28.116 35.374 28.066 35.575 28.055C36.632 27.995 36.644 27.997 36.366 29.011C36.277 29.333 36.151 29.668 35.954 29.932C35.613 30.388 35.237 30.777 34.559 30.367C33.731 29.866 32.854 29.448 31.786 28.881C32.998 28.352 33.809 27.564 34.975 28.045ZM25.793 15.041C26.347 14.436 26.924 14.85 27.488 14.958C27.075 15.838 26.792 15.857 25.793 15.041ZM25.853 23.107C26.038 22.795 26.33 22.546 26.67 22.16C27.06 23.198 27.3699 24.011 27.6689 24.827C27.9359 25.558 27.561 26.1 26.989 26.396C26.74 26.525 26.143 26.348 25.936 26.109C25.571 25.687 25.195 25.117 25.178 24.597C25.162 24.107 25.57 23.582 25.853 23.107ZM29.87 87.944C28.364 87.657 26.8611 87.348 25.3571 87.048C25.3551 86.937 25.352 86.825 25.35 86.714C26.864 86.374 28.369 85.983 29.896 85.716C30.564 85.599 30.854 86.155 30.843 87.141C30.835 87.826 30.49 88.062 29.87 87.944ZM32.932 66.082C32.64 66.014 32.333 65.984 32.059 65.872C31.105 65.483 30.1549 65.083 29.2209 64.649C28.9659 64.53 28.774 64.277 28.553 64.085C28.707 63.908 28.866 63.734 29.014 63.552C29.547 62.897 30.077 62.671 30.775 63.393C30.972 63.597 31.4501 63.501 31.7321 63.66C31.9921 63.806 32.208 64.085 32.364 64.351C32.651 64.842 32.8801 65.368 33.1331 65.879C33.0661 65.948 32.999 66.015 32.932 66.082ZM40.491 117.953C38.533 117.596 36.595 117.243 34.54 116.869C34.719 116.597 34.783 116.435 34.9 116.336C35.57 115.767 36.207 115.137 36.947 114.677C37.584 114.281 38.328 114.068 39.033 114.711C39.201 114.864 39.611 114.952 39.783 114.852C40.014 114.718 40.288 114.347 40.254 114.122C40.131 113.311 40.662 112.906 41.182 112.459C40.96 114.224 40.738 115.988 40.491 117.953ZM40.807 107.814C40.873 107.701 40.938 107.587 41.004 107.474C41.549 107.747 42.094 108.02 42.639 108.293C42.594 108.385 42.55 108.478 42.505 108.57C41.939 108.317 41.373 108.066 40.807 107.814ZM41.618 137.047C41.477 136.039 41.892 135.485 42.689 135.363C42.921 135.327 43.204 135.175 43.33 134.987C43.866 134.19 44.6409 133.951 45.7679 134.448C44.3339 135.347 43.001 136.181 41.618 137.047ZM44.578 56.121C44.195 55.971 43.748 55.978 43.328 55.931C42.618 55.852 42.128 55.997 42.032 56.871C41.959 57.537 41.385 57.567 40.718 57.426C40.917 56.214 41.0839 55.025 41.3199 53.85C41.4279 53.314 41.79 53.207 42.287 53.5C42.989 53.915 43.71 54.173 44.571 54.259C45.283 54.331 45.939 54.95 46.644 55.341C46.051 56.198 45.44 56.457 44.578 56.121ZM47.767 53.646C47.215 53.691 46.639 53.1 46.036 52.919C44.644 52.501 43.832 51.386 42.895 50.424C42.351 49.865 42.682 49.342 43.053 48.839C43.417 48.347 43.8351 48.476 44.2581 48.718C45.5081 49.431 46.7431 50.17 48.0031 50.863C48.8601 51.334 49.75 51.743 50.676 52.206C50.05 53.369 48.867 53.557 47.767 53.646ZM54.851 101.208C54.549 101.743 54.174 101.737 53.84 101.219C53.357 100.47 53.081 99.747 53.986 99.024C55.111 99.736 55.343 100.336 54.851 101.208ZM60.999 84.258C61.101 83.112 61.43 82.783 62.312 82.818C62.447 83.776 61.573 83.77 60.999 84.258ZM65.1169 28.054C65.0509 27.782 65.048 27.486 64.934 27.238C64.814 26.975 64.596 26.758 64.422 26.52C64.222 26.684 63.992 26.822 63.827 27.016C63.354 27.572 62.984 27.569 62.427 27.077C62.261 26.93 61.926 26.959 61.667 26.934C61.427 26.911 61.072 27.024 60.962 26.901C60.368 26.243 59.834 25.531 59.28 24.837C59.329 24.762 59.379 24.686 59.428 24.611C59.715 24.64 60.0119 24.633 60.2889 24.704C61.2039 24.937 62.102 25.258 63.028 25.425C63.508 25.511 64.033 25.339 64.538 25.292C65.769 25.177 66.3 26.125 66.953 26.887C67.297 27.288 67.6429 27.686 68.0909 28.204C67.8869 28.503 67.625 28.889 67.29 29.381C66.876 29.082 66.532 28.832 66.149 28.556C65.598 28.867 65.2839 28.746 65.1169 28.054ZM66.731 34.524C66.554 33.949 66.391 33.419 66.165 32.686C67.642 33.501 67.712 33.769 66.731 34.524ZM67.563 50.147C67.562 50.052 67.561 49.957 67.561 49.861C68.503 49.115 68.764 49.133 69.559 50.147C68.808 50.147 68.185 50.147 67.563 50.147ZM70.668 42.396C71.188 42.257 71.188 42.257 72.178 43.864C71.353 44.035 70.953 43.646 70.668 42.396ZM72.444 33.558C72.293 33.62 72.105 33.599 71.934 33.599C71.18 33.603 70.417 33.671 69.675 33.576C69.221 33.518 68.798 33.207 68.3 32.982C69.628 31.486 69.956 31.424 71.416 32.229C71.788 32.434 72.179 32.604 72.542 32.823C72.686 32.91 72.775 33.086 72.889 33.221C72.743 33.338 72.611 33.49 72.444 33.558ZM80.2321 46.976C81.1341 47.1 81.912 48.862 81.58 50.147C80.238 49.641 79.9861 49.033 80.2321 46.976ZM83.621 65.881C83.127 66.696 82.6189 67.505 82.0649 68.28C81.8419 68.591 81.484 68.806 81.187 69.064C81.137 68.659 80.925 68.18 81.069 67.864C81.378 67.189 81.0261 66.725 80.8051 66.184C80.6461 65.794 80.55 65.379 80.425 64.975C80.963 64.865 81.497 64.705 82.04 64.658C82.682 64.603 83.333 64.645 84.234 64.645C84.064 64.993 83.877 65.458 83.621 65.881ZM86.292 64.357C86.039 64.502 85.472 64.575 85.39 64.451C85.176 64.13 85.102 63.684 85.088 63.284C85.085 63.189 85.5461 62.984 85.7841 62.996C86.2571 63.02 86.723 63.161 87.519 63.319C87.015 63.759 86.693 64.126 86.292 64.357ZM89.575 59.208C87.866 59.543 86.364 58.695 84.799 58.27C84.599 58.216 84.4509 57.327 84.5699 56.906C84.7209 56.371 84.909 55.939 84.606 55.388C84.495 55.186 84.666 54.829 84.739 54.339C85.46 54.91 86.039 55.37 86.473 55.713C86.332 56.23 86.236 56.584 86.139 56.938C86.591 57.052 87.1001 57.352 87.4821 57.236C88.0391 57.067 88.311 57.25 88.683 57.567C89.02 57.854 89.479 57.995 89.835 58.264C90.012 58.398 90.08 58.676 90.197 58.888C89.99 58.999 89.794 59.165 89.575 59.208ZM99.8929 48.319C100.14 48.375 100.36 48.555 100.592 48.678C100.577 48.753 100.561 48.827 100.546 48.902C99.845 48.869 99.145 48.836 98.454 48.803C97.873 46.942 99.055 45.795 100.787 46.117C100.304 46.543 99.863 46.855 99.521 47.252C98.999 47.857 99.1339 48.146 99.8929 48.319ZM118.885 76.248C119.069 75.701 119.253 75.153 119.488 74.455C120.2 75.256 120.087 75.611 118.885 76.248ZM139.057 67.328C138.99 67.186 138.877 67.044 138.86 66.891C138.675 65.143 138.517 63.393 138.321 61.646C138.278 61.263 138.122 60.892 138.007 60.518C137.805 59.867 137.989 59.333 138.505 58.774C138.647 59.036 138.783 59.21 138.841 59.407C139.14 60.437 139.549 60.592 140.514 60.236C141.054 60.037 141.694 60.127 142.271 60.001C143.193 59.8 144.099 59.529 145.008 59.288C145.117 60.631 140.576 66.818 139.057 67.328Z" fill="#9FB54A"/>
<mask id="mask0_206_2791" style="mask-type:luminance" maskUnits="userSpaceOnUse" x="0" y="0" width="252" height="184">
<path d="M171.426 70.069C171.144 70.332 171.028 70.813 170.719 71.018C170.252 71.327 169.666 71.656 169.143 71.636C168.287 71.603 167.426 71.347 166.598 71.087C166.055 70.917 165.908 69.846 166.305 69.406C166.495 69.194 166.698 68.993 166.941 68.739C166.568 68.427 166.358 68.129 166.288 67.825L126.709 50.538C126.09 50.691 125.524 50.829 125.005 51.013C124.373 51.237 123.753 51.527 123.524 52.279C123.477 52.433 123.225 52.567 123.043 52.613C122.976 52.63 122.813 52.383 122.737 52.234C122.622 52.009 122.537 51.768 122.451 51.529C122.238 50.934 122.003 50.338 123.035 50.322C123.204 50.319 123.423 50.167 123.53 50.02C123.802 49.645 124.114 49.531 124.459 49.555L104.432 40.808C104.422 40.905 104.412 41.001 104.404 41.098C104.341 41.892 104.306 42.688 104.227 43.48C104.189 43.857 104.077 44.227 103.998 44.6C103.874 44.624 103.75 44.648 103.626 44.671C103.552 44.404 103.431 44.139 103.412 43.868C103.368 43.234 103.48 42.569 103.332 41.966C103.171 41.308 102.903 40.678 102.667 40.038L89.4659 34.272C89.3779 34.517 89.2731 34.757 89.1021 34.925C88.2261 35.784 87.973 37.142 86.74 37.739C86.41 37.898 86.29 38.49 85.953 39.101C84.984 37.448 85.997 35.986 85.892 34.436C86.796 34.877 87.354 34.52 87.948 33.898C88.018 33.824 88.11 33.77 88.21 33.725L86.647 33.042C86.519 33.17 86.385 33.302 86.261 33.426C86.113 33.167 85.979 32.933 85.84 32.69L55.446 19.415C55.42 19.431 55.3929 19.447 55.3669 19.462C55.3319 19.419 55.295 19.376 55.26 19.333L10.995 0C9.966 2.356 9.02004 4.728 8.13904 7.109C8.17304 7.107 8.20099 7.116 8.23499 7.112C9.24199 7.004 10.073 7.251 10.749 8.049C11.623 9.081 12.519 10.098 13.459 11.069C13.682 11.299 14.13 11.298 14.453 11.45C14.775 11.603 15.112 11.77 15.365 12.012C15.776 12.403 16.0961 12.887 16.5031 13.283C17.5381 14.293 18.6089 15.266 19.6479 16.272C20.6299 17.224 20.893 17.312 21.699 16.284C22.402 15.387 23.084 15.284 23.985 15.803C24.544 16.125 25.094 16.464 25.825 16.902C24.957 17.436 24.276 17.944 23.519 18.281C23.19 18.427 22.679 18.291 22.293 18.16C21.109 17.757 21.12 17.736 20.481 18.76C20.408 18.877 20.277 18.959 20.15 19.078C19.112 18.676 18.092 18.219 17.032 17.889C16.138 17.61 15.933 16.81 15.827 16.162C15.705 15.42 15.414 14.904 14.781 14.787C13.057 14.466 11.948 13.208 10.62 12.275C9.812 11.707 8.92795 11.242 8.14795 10.641C7.80695 10.379 7.48896 10.086 7.17896 9.784C2.88896 22.191 0.573989 34.871 0.0889893 47.454C0.459989 47.086 0.85797 46.737 1.19397 46.343C1.48297 46.004 1.66595 45.576 1.92395 45.207C3.21195 43.36 4.50201 41.515 5.80701 39.68C6.12401 39.234 6.46205 39.251 6.97705 39.542C7.79005 40.003 8.44603 40.853 9.55103 40.728C9.66203 40.716 9.81095 41.046 10.049 41.355C7.75095 40.773 7.82895 40.828 6.54395 42.657C5.90495 43.567 5.69402 44.33 6.24402 45.286C6.27102 45.334 6.203 45.437 6.151 45.605C5.542 44.89 5.06205 45.116 4.45605 45.628C4.14205 45.893 3.52204 45.795 3.04004 45.861C3.03004 45.952 3.02001 46.043 3.01001 46.134C3.66601 46.339 4.336 46.509 4.974 46.76C5.64 47.022 6.24798 47.456 6.92798 47.653C8.68298 48.16 8.79697 49.774 9.39197 51.08C9.67197 51.695 10.056 52.262 10.354 52.87C10.491 53.151 10.535 53.477 10.621 53.783C10.542 53.836 10.4631 53.89 10.3831 53.943C9.75706 53.365 9.10506 52.811 8.50806 52.203C6.28806 49.943 5.35006 50.736 3.40906 51.485C2.68706 51.764 2.08604 52.342 1.39404 52.72C0.955043 52.96 0.461 53.095 0 53.297C0.02 56.428 0.15302 59.549 0.39502 62.655C1.27602 62.036 2.23496 61.565 3.28796 61.235C2.35596 62.112 1.64897 63.318 0.495972 63.94C2.43897 86.014 9.95198 107.268 22.225 125.625C22.618 125.345 23.01 125.066 23.403 124.786C23.47 124.858 23.537 124.93 23.603 125.002C23.205 125.299 22.8071 125.597 22.4091 125.894C35.8711 145.919 55.005 162.476 78.757 172.85C145.182 201.862 222.568 171.526 251.588 105.082L171.426 70.069ZM15.025 20.474C15.435 20.542 15.849 20.594 16.255 20.682C17.159 20.879 18.053 21.205 18.964 21.263C19.596 21.303 20.249 20.977 20.895 20.825C21.715 20.632 22.3549 20.933 22.6119 21.665C22.6799 21.858 22.6999 22.153 22.5959 22.295C22.5049 22.419 22.186 22.473 22.009 22.42C21.259 22.197 20.5391 21.789 19.7791 21.707C19.0931 21.633 18.3709 21.898 17.6639 22.005C16.4749 22.184 15.673 21.555 14.964 20.739C14.984 20.65 15.004 20.562 15.025 20.474ZM10.774 16.983C10.916 16.721 11.106 16.484 11.274 16.236C11.454 15.969 11.583 15.619 11.833 15.471C11.951 15.401 12.293 15.729 12.543 15.86C12.835 16.014 13.1379 16.148 13.4349 16.292C13.7039 16.423 13.972 16.555 14.241 16.687C14.241 16.796 14.24 16.905 14.24 17.014C13.797 17.12 13.355 17.23 12.911 17.33C12.348 17.457 11.786 17.598 11.217 17.688C11.014 17.72 10.79 17.622 10.575 17.584C10.639 17.383 10.675 17.166 10.774 16.983ZM8.58301 37.576C7.99101 37.247 7.85498 36.932 8.22998 36.381C8.46698 36.033 8.68595 35.673 9.00195 35.178C9.22595 35.519 9.44998 35.74 9.53198 36.006C10.117 37.898 11.773 38.659 13.314 39.428C15.036 40.287 16.912 40.832 18.665 41.635C20.201 42.338 21.6601 43.21 23.1541 44.006C23.1581 44.069 23.161 44.132 23.165 44.196C22.274 44.357 21.385 44.534 20.489 44.665C20.33 44.688 20.01 44.546 19.991 44.439C19.773 43.231 18.5779 43.286 17.8359 42.818C16.3649 41.889 14.7609 41.176 13.2419 40.319C11.6729 39.432 10.157 38.452 8.58301 37.576ZM8.02905 72.859C7.59705 73.007 7.16601 73.155 6.73401 73.304C6.64801 73.217 6.56195 73.131 6.47595 73.044C6.64695 72.706 6.76898 72.136 7.00098 72.086C7.30198 72.022 7.69002 72.374 8.04102 72.547C8.03802 72.651 8.03305 72.755 8.02905 72.859ZM13.4 92.766C13.284 92.763 13.167 92.76 13.051 92.757C11.455 90.704 9.85901 88.651 8.26001 86.593C10.468 86.819 12.662 87.043 14.983 87.281C14.536 89.196 12.644 90.567 13.4 92.766ZM23.007 111.084C21.331 112.34 19.668 113.614 17.996 114.875C17.938 114.919 17.836 114.905 17.736 114.921C17.597 113.696 18.4449 112.881 18.9189 111.922C19.5519 110.64 20.1831 109.356 20.8521 108.092C21.0361 107.744 21.351 107.466 21.606 107.156C21.914 107.445 22.3019 107.687 22.5129 108.035C22.8619 108.611 23.097 109.256 23.38 109.871C23.619 110.388 23.444 110.757 23.007 111.084ZM40.811 31.377C40.886 31.261 41.1079 31.241 41.4449 31.102C41.9809 32.043 42.522 32.992 43.09 33.988C42.111 34.2 40.107 33.17 40.118 32.697C40.128 32.249 40.536 31.799 40.811 31.377ZM36.093 17.591C36.823 17.856 37.4509 18.402 38.1639 18.863C37.5709 19.628 36.919 18.893 36.337 19.029C36.12 19.08 35.8199 18.974 35.6169 18.846C35.3259 18.662 35.088 18.392 34.828 18.159C35.256 17.952 35.781 17.478 36.093 17.591ZM34.975 28.045C35.147 28.116 35.374 28.066 35.575 28.055C36.632 27.995 36.644 27.997 36.366 29.011C36.277 29.333 36.151 29.668 35.954 29.932C35.613 30.388 35.237 30.777 34.559 30.367C33.731 29.866 32.854 29.448 31.786 28.881C32.998 28.352 33.809 27.564 34.975 28.045ZM25.793 15.041C26.347 14.436 26.924 14.85 27.488 14.958C27.075 15.838 26.792 15.857 25.793 15.041ZM25.853 23.107C26.038 22.795 26.33 22.546 26.67 22.16C27.06 23.198 27.3699 24.011 27.6689 24.827C27.9359 25.558 27.561 26.1 26.989 26.396C26.74 26.525 26.143 26.348 25.936 26.109C25.571 25.687 25.195 25.117 25.178 24.597C25.162 24.107 25.57 23.582 25.853 23.107ZM29.87 87.944C28.364 87.657 26.8611 87.348 25.3571 87.048C25.3551 86.937 25.352 86.825 25.35 86.714C26.864 86.374 28.369 85.983 29.896 85.716C30.564 85.599 30.854 86.155 30.843 87.141C30.835 87.826 30.49 88.062 29.87 87.944ZM32.932 66.082C32.64 66.014 32.333 65.984 32.059 65.872C31.105 65.483 30.1549 65.083 29.2209 64.649C28.9659 64.53 28.774 64.277 28.553 64.085C28.707 63.908 28.866 63.734 29.014 63.552C29.547 62.897 30.077 62.671 30.775 63.393C30.972 63.597 31.4501 63.501 31.7321 63.66C31.9921 63.806 32.208 64.085 32.364 64.351C32.651 64.842 32.8801 65.368 33.1331 65.879C33.0661 65.948 32.999 66.015 32.932 66.082ZM40.491 117.953C38.533 117.596 36.595 117.243 34.54 116.869C34.719 116.597 34.783 116.435 34.9 116.336C35.57 115.767 36.207 115.137 36.947 114.677C37.584 114.281 38.328 114.068 39.033 114.711C39.201 114.864 39.611 114.952 39.783 114.852C40.014 114.718 40.288 114.347 40.254 114.122C40.131 113.311 40.662 112.906 41.182 112.459C40.96 114.224 40.738 115.988 40.491 117.953ZM40.807 107.814C40.873 107.701 40.938 107.587 41.004 107.474C41.549 107.747 42.094 108.02 42.639 108.293C42.594 108.385 42.55 108.478 42.505 108.57C41.939 108.317 41.373 108.066 40.807 107.814ZM41.618 137.047C41.477 136.039 41.892 135.485 42.689 135.363C42.921 135.327 43.204 135.175 43.33 134.987C43.866 134.19 44.6409 133.951 45.7679 134.448C44.3339 135.347 43.001 136.181 41.618 137.047ZM44.578 56.121C44.195 55.971 43.748 55.978 43.328 55.931C42.618 55.852 42.128 55.997 42.032 56.871C41.959 57.537 41.385 57.567 40.718 57.426C40.917 56.214 41.0839 55.025 41.3199 53.85C41.4279 53.314 41.79 53.207 42.287 53.5C42.989 53.915 43.71 54.173 44.571 54.259C45.283 54.331 45.939 54.95 46.644 55.341C46.051 56.198 45.44 56.457 44.578 56.121ZM47.767 53.646C47.215 53.691 46.639 53.1 46.036 52.919C44.644 52.501 43.832 51.386 42.895 50.424C42.351 49.865 42.682 49.342 43.053 48.839C43.417 48.347 43.8351 48.476 44.2581 48.718C45.5081 49.431 46.7431 50.17 48.0031 50.863C48.8601 51.334 49.75 51.743 50.676 52.206C50.05 53.369 48.867 53.557 47.767 53.646ZM54.851 101.208C54.549 101.743 54.174 101.737 53.84 101.219C53.357 100.47 53.081 99.747 53.986 99.024C55.111 99.736 55.343 100.336 54.851 101.208ZM60.999 84.258C61.101 83.112 61.43 82.783 62.312 82.818C62.447 83.776 61.573 83.77 60.999 84.258ZM65.1169 28.054C65.0509 27.782 65.048 27.486 64.934 27.238C64.814 26.975 64.596 26.758 64.422 26.52C64.222 26.684 63.992 26.822 63.827 27.016C63.354 27.572 62.984 27.569 62.427 27.077C62.261 26.93 61.926 26.959 61.667 26.934C61.427 26.911 61.072 27.024 60.962 26.901C60.368 26.243 59.834 25.531 59.28 24.837C59.329 24.762 59.379 24.686 59.428 24.611C59.715 24.64 60.0119 24.633 60.2889 24.704C61.2039 24.937 62.102 25.258 63.028 25.425C63.508 25.511 64.033 25.339 64.538 25.292C65.769 25.177 66.3 26.125 66.953 26.887C67.297 27.288 67.6429 27.686 68.0909 28.204C67.8869 28.503 67.625 28.889 67.29 29.381C66.876 29.082 66.532 28.832 66.149 28.556C65.598 28.867 65.2839 28.746 65.1169 28.054ZM66.731 34.524C66.554 33.949 66.391 33.419 66.165 32.686C67.642 33.501 67.712 33.769 66.731 34.524ZM67.563 50.147C67.562 50.052 67.561 49.957 67.561 49.861C68.503 49.115 68.764 49.133 69.559 50.147C68.808 50.147 68.185 50.147 67.563 50.147ZM70.668 42.396C71.188 42.257 71.188 42.257 72.178 43.864C71.353 44.035 70.953 43.646 70.668 42.396ZM72.444 33.558C72.293 33.62 72.105 33.599 71.934 33.599C71.18 33.603 70.417 33.671 69.675 33.576C69.221 33.518 68.798 33.207 68.3 32.982C69.628 31.486 69.956 31.424 71.416 32.229C71.788 32.434 72.179 32.604 72.542 32.823C72.686 32.91 72.775 33.086 72.889 33.221C72.743 33.338 72.611 33.49 72.444 33.558ZM80.2321 46.976C81.1341 47.1 81.912 48.862 81.58 50.147C80.238 49.641 79.9861 49.033 80.2321 46.976ZM83.621 65.881C83.127 66.696 82.6189 67.505 82.0649 68.28C81.8419 68.591 81.484 68.806 81.187 69.064C81.137 68.659 80.925 68.18 81.069 67.864C81.378 67.189 81.0261 66.725 80.8051 66.184C80.6461 65.794 80.55 65.379 80.425 64.975C80.963 64.865 81.497 64.705 82.04 64.658C82.682 64.603 83.333 64.645 84.234 64.645C84.064 64.993 83.877 65.458 83.621 65.881ZM86.292 64.357C86.039 64.502 85.472 64.575 85.39 64.451C85.176 64.13 85.102 63.684 85.088 63.284C85.085 63.189 85.5461 62.984 85.7841 62.996C86.2571 63.02 86.723 63.161 87.519 63.319C87.015 63.759 86.693 64.126 86.292 64.357ZM89.575 59.208C87.866 59.543 86.364 58.695 84.799 58.27C84.599 58.216 84.4509 57.327 84.5699 56.906C84.7209 56.371 84.909 55.939 84.606 55.388C84.495 55.186 84.666 54.829 84.739 54.339C85.46 54.91 86.039 55.37 86.473 55.713C86.332 56.23 86.236 56.584 86.139 56.938C86.591 57.052 87.1001 57.352 87.4821 57.236C88.0391 57.067 88.311 57.25 88.683 57.567C89.02 57.854 89.479 57.995 89.835 58.264C90.012 58.398 90.08 58.676 90.197 58.888C89.99 58.999 89.794 59.165 89.575 59.208ZM99.8929 48.319C100.14 48.375 100.36 48.555 100.592 48.678C100.577 48.753 100.561 48.827 100.546 48.902C99.845 48.869 99.145 48.836 98.454 48.803C97.873 46.942 99.055 45.795 100.787 46.117C100.304 46.543 99.863 46.855 99.521 47.252C98.999 47.857 99.1339 48.146 99.8929 48.319ZM118.885 76.248C119.069 75.701 119.253 75.153 119.488 74.455C120.2 75.256 120.087 75.611 118.885 76.248ZM139.057 67.328C138.99 67.186 138.877 67.044 138.86 66.891C138.675 65.143 138.517 63.393 138.321 61.646C138.278 61.263 138.122 60.892 138.007 60.518C137.805 59.867 137.989 59.333 138.505 58.774C138.647 59.036 138.783 59.21 138.841 59.407C139.14 60.437 139.549 60.592 140.514 60.236C141.054 60.037 141.694 60.127 142.271 60.001C143.193 59.8 144.099 59.529 145.008 59.288C145.117 60.631 140.576 66.818 139.057 67.328Z" fill="white"/>
</mask>
<g mask="url(#mask0_206_2791)">
<path d="M243.807 155.021C239.839 132.29 234.546 109.79 227.964 87.674C224.245 75.177 220.106 62.808 215.573 50.583C214.852 48.638 211.569 48.733 211.703 51.107C213.07 75.349 213.461 99.643 212.854 123.917C212.249 148.082 210.663 172.222 208.1 196.258C207.167 205.006 206.088 213.738 204.893 222.453C202.418 201.508 199.944 180.562 197.469 159.617C195.949 146.748 194.428 133.878 192.908 121.009C191.434 108.533 190.064 96.037 188.177 83.614C186.082 69.825 183.252 56.121 178.717 42.911C178.012 40.856 174.875 41.133 174.847 43.435C174.724 53.313 174.801 63.192 175.074 73.065C174.432 69.834 173.775 66.606 173.089 63.384C170.472 51.092 167.52 38.873 164.165 26.762C163.592 24.695 160.078 25.011 160.295 27.286C162.713 52.686 165.123 78.092 166.706 103.561C168.279 128.86 169.036 154.232 168.143 179.572C167.796 189.411 167.174 199.239 166.283 209.043C162.311 188.531 158.277 168.031 153.868 147.608C148.543 122.942 142.676 98.383 135.737 74.117C131.807 60.374 127.528 46.732 122.829 33.232C122.132 31.231 118.881 31.418 118.959 33.756C120.353 75.458 121.748 117.16 123.142 158.862C123.304 163.71 123.466 168.557 123.628 173.405C119.331 154.299 115.034 135.193 110.736 116.087C104.941 90.32 99.145 64.552 93.35 38.785C90.069 24.198 86.788 9.611 83.507 -4.977C83.012 -7.178 79.659 -6.642 79.637 -4.453C79.378 21.144 79.12 46.741 78.861 72.337C78.602 97.933 78.344 123.531 78.085 149.127C77.982 159.316 77.879 169.505 77.776 179.695C66.929 144.248 56.083 108.8 45.236 73.353C41.845 62.27 38.453 51.187 35.062 40.104C34.424 38.018 31.168 38.351 31.192 40.628C31.48 67.755 31.769 94.881 32.057 122.008C32.139 129.743 32.222 137.478 32.304 145.213C32.331 147.747 36.271 147.753 36.244 145.213C35.955 118.086 35.667 90.96 35.379 63.833C35.345 60.647 35.311 57.46 35.277 54.274C46.032 89.423 56.788 124.572 67.543 159.721C70.934 170.804 74.3261 181.887 77.7171 192.97C78.3621 195.077 81.564 194.707 81.587 192.446C81.846 166.849 82.104 141.252 82.363 115.656C82.622 90.059 82.88 64.462 83.139 38.866C83.228 30.083 83.316 21.3 83.405 12.517C87.992 32.909 92.578 53.301 97.165 73.694C102.96 99.461 108.756 125.228 114.551 150.996C117.832 165.583 121.113 180.17 124.394 194.758C124.88 196.92 128.338 196.455 128.264 194.234C126.869 152.532 125.475 110.83 124.08 69.127C123.835 61.795 123.59 54.462 123.345 47.13C129.774 66.811 135.379 86.756 140.392 106.844C146.507 131.348 151.776 156.055 156.736 180.816C159.547 194.851 162.26 208.905 164.971 222.959C165.428 225.327 168.601 224.454 168.841 222.435C171.846 197.172 172.77 171.708 172.376 146.281C171.983 120.889 170.305 95.535 168.167 70.237C167.66 64.235 167.116 58.235 166.567 52.237C169.661 65.551 172.339 78.962 174.701 92.426C175.332 96.022 175.934 99.623 176.523 103.226C177.877 122.998 180.021 142.715 182.951 162.322C184.627 173.539 186.566 184.715 188.754 195.844C189.176 197.991 192.882 197.539 192.624 195.32C190.052 173.184 187.471 151.047 184.38 128.976C183.159 120.259 181.852 111.552 180.437 102.863C179.845 94.19 179.399 85.506 179.116 76.815C178.898 70.112 178.784 63.407 178.75 56.701C183.912 76.331 186.09 96.661 188.469 116.794C191.51 142.533 194.551 168.271 197.592 194.01C199.304 208.501 201.016 222.993 202.728 237.484C202.844 238.47 203.389 239.278 204.436 239.419C205.311 239.537 206.449 238.977 206.598 238.008C210.299 213.942 213.045 189.731 214.786 165.444C216.53 141.119 217.278 116.723 217.025 92.337C216.928 82.975 216.669 73.615 216.277 64.261C222.319 81.749 227.562 99.511 231.944 117.489C237.367 139.734 241.521 162.297 244.322 185.022C245.904 197.86 247.059 210.748 247.802 223.661C247.947 226.182 251.888 226.199 251.742 223.661C250.42 200.65 247.77 177.722 243.807 155.021Z" fill="#AAC24F"/>
</g>
<path d="M66.09 143.488C71.0064 143.488 74.9919 139.502 74.9919 134.586C74.9919 129.67 71.0064 125.684 66.09 125.684C61.1735 125.684 57.188 129.67 57.188 134.586C57.188 139.502 61.1735 143.488 66.09 143.488Z" fill="#FF5757"/>
<path d="M184.448 143.488C189.364 143.488 193.35 139.502 193.35 134.586C193.35 129.67 189.364 125.684 184.448 125.684C179.531 125.684 175.546 129.67 175.546 134.586C175.546 139.502 179.531 143.488 184.448 143.488Z" fill="#FF5757"/>
<path d="M121.518 113.359C123.451 102.324 116.073 91.81 105.037 89.8763C94.0016 87.9425 83.4878 95.3209 81.5541 106.357C79.6204 117.392 86.9988 127.906 98.0344 129.84C109.07 131.773 119.584 124.395 121.518 113.359Z" fill="white"/>
<path d="M170.11 113.145C171.916 102.089 164.417 91.6611 153.36 89.8551C142.303 88.049 131.876 95.5483 130.07 106.605C128.264 117.662 135.763 128.09 146.82 129.896C157.877 131.702 168.304 124.202 170.11 113.145Z" fill="white"/>
<path d="M101.482 125.904C101.482 125.904 93.8481 118.716 93.8481 109.849C93.8481 100.982 101.482 93.7941 101.482 93.7941C101.482 93.7941 109.116 100.982 109.116 109.849C109.116 118.716 101.482 125.904 101.482 125.904Z" fill="#333333"/>
<path d="M150.095 125.904C150.095 125.904 142.461 118.716 142.461 109.849C142.461 100.982 150.095 93.7941 150.095 93.7941C150.095 93.7941 157.729 100.982 157.729 109.849C157.729 118.716 150.095 125.904 150.095 125.904Z" fill="#333333"/>
<path d="M124.424 143.483V154.24C124.424 157.51 121.745 160.203 118.461 160.203C116.819 160.203 115.335 159.533 114.258 158.443C113.168 157.366 112.498 155.882 112.498 154.24V143.483H124.424Z" fill="white"/>
<path d="M138.807 143.483V154.24C138.807 157.51 136.114 160.203 132.844 160.203C131.202 160.203 129.718 159.533 128.628 158.443C127.551 157.366 126.881 155.882 126.881 154.24V143.483H138.807Z" fill="white"/>
<path d="M149.236 143.483C149.236 144.219 148.658 144.796 147.923 144.796H103.383C102.648 144.796 102.07 144.218 102.07 143.483C102.07 142.761 102.648 142.17 103.383 142.17H147.923C148.658 142.169 149.236 142.76 149.236 143.483Z" fill="#333333"/>
</svg>
