<svg viewBox="0 0 360 279" fill="none" xmlns="http://www.w3.org/2000/svg">
<path d="M100.63 119.386C99.6281 119.268 99.3341 119.474 99.2671 120.317C100.202 120.423 100.405 120.292 100.63 119.386Z" fill="#FFD630"/>
<path d="M38.5628 119.189C38.0538 119.528 37.9559 119.932 38.2889 120.378C38.3389 120.445 38.7238 120.394 38.7978 120.289C39.0758 119.89 39.0328 119.502 38.5628 119.189Z" fill="#FFD630"/>
<path d="M145.835 48.962C146.692 49.014 146.825 48.857 146.729 47.853C145.934 47.833 145.661 48.187 145.835 48.962Z" fill="#FFD630"/>
<path d="M278.242 159.453L297.889 149.082L359.59 116.471L267.454 107.847L269.464 26.804L234.945 56.519C235.446 56.681 236.04 57.02 236.24 57.285C236.355 57.437 236.615 57.587 236.788 57.567C237.445 57.491 238.093 57.344 238.765 57.22C238.739 57.346 238.673 57.465 238.708 57.533C239.079 58.261 238.55 58.781 238.328 59.386C238.127 59.933 238.043 60.524 237.926 61.099C237.903 61.213 237.921 61.394 237.995 61.46C238.687 62.075 238.056 62.192 237.653 62.372C236.786 62.758 235.924 63.166 235.033 63.488C234.407 63.714 233.735 63.813 233.014 63.986C232.953 63.2 233.329 62.66 233.696 62.135C234.425 61.091 234.963 59.974 235.214 58.607C234.976 58.656 234.78 58.649 234.64 58.733C233.657 59.325 232.887 60.084 232.406 61.175C232.062 61.957 231.496 62.641 230.911 63.302C231.005 62.524 231.053 61.806 231.536 61.125C232.177 60.22 232.591 59.156 233.126 58.172C233.161 58.108 233.203 58.049 233.239 57.986L224.907 65.158C224.87 65.241 224.835 65.327 224.792 65.407C224.02 66.85 223.549 68.456 222.973 70C222.849 70.331 222.844 70.705 222.75 71.05C222.71 71.195 222.597 71.416 222.492 71.432C221.819 71.532 221.172 71.83 220.451 71.562C219.927 71.367 219.345 71.329 218.797 71.222C218.934 70.875 218.972 70.575 218.927 70.306L188.574 96.434L151.609 0L145.085 19.984C145.102 19.984 145.118 19.984 145.135 19.984C146.726 19.943 148.317 20.324 149.915 19.798C150.592 19.575 151.344 19.624 151.863 19.001C151.921 18.932 152.182 19.033 152.385 19.212C151.421 19.879 150.463 20.554 149.49 21.208C149.087 21.479 148.657 21.712 148.231 21.947C147.956 22.099 147.701 22.18 147.483 21.806C147.347 21.571 147.079 21.417 146.905 21.199C146.365 20.52 145.713 20.338 144.884 20.594L134.891 51.204C135.174 51.412 135.513 51.511 135.893 51.594C136.261 51.674 136.599 51.891 136.991 52.065C136.278 52.856 136.166 53.029 136.764 53.89C137.308 54.673 136.768 55.218 136.587 55.821C136.454 56.265 135.388 56.001 135.112 55.425C134.841 54.858 134.689 54.231 134.398 53.676C134.338 53.561 134.259 53.467 134.185 53.367L129.901 66.489C130.05 67.031 130.192 67.513 130.286 67.992C130.31 68.113 130.153 68.319 130.025 68.403C129.919 68.473 129.713 68.468 129.586 68.415C129.488 68.374 129.393 68.372 129.295 68.346L128.731 70.073C128.789 70.076 128.846 70.084 128.904 70.087C129.235 70.103 129.571 70.017 129.902 70.031C130.54 70.058 131.017 70.308 131.535 70.767C132.016 71.194 132.868 71.202 133.555 71.398C134.079 71.548 134.612 71.675 135.115 71.878C135.237 71.927 135.353 72.263 135.306 72.417C135.103 73.088 134.338 73.496 133.63 73.633C133.107 73.734 132.625 74.09 132.154 74.38C132.091 74.419 132.173 74.743 132.233 74.921C132.357 75.288 132.594 75.636 132.636 76.009C132.727 76.816 133.379 76.689 133.866 76.835C134.456 77.011 135.056 77.159 135.678 77.429C134.874 77.824 134.437 78.442 134.052 79.168C133.721 79.792 132.832 79.798 132.324 79.305C131.811 78.807 131.375 78.235 130.526 78.217C130.056 78.208 129.916 77.641 130.242 77.243C130.6 76.804 130.618 76.395 130.269 75.941C129.961 75.539 129.667 75.122 129.413 74.685C129.325 74.533 129.296 74.253 129.38 74.12C129.462 73.99 129.719 73.963 129.905 73.91C130.067 73.864 130.236 73.844 130.403 73.813C130.343 73.648 130.318 73.457 130.218 73.321C129.669 72.578 129.013 71.956 128.295 71.402L120.37 95.676C120.502 95.94 120.633 96.204 120.727 96.481C120.82 96.756 120.667 97.232 120.457 97.468C120.171 97.79 119.908 97.775 119.776 97.497L118.01 102.906L108.469 102.918C108.887 103.081 109.373 103.139 109.815 103.261C110.033 103.321 110.255 103.366 110.548 103.434C110.102 104.317 109.7 105.085 109.326 105.866C109.152 106.23 108.985 106.412 108.643 106.032C108.562 105.942 108.441 105.858 108.325 105.833C107.718 105.706 107.535 105.312 107.646 104.631C106.569 105.337 105.801 106.174 105.338 107.259C105.264 107.433 105.437 107.736 105.544 107.956C105.641 108.156 105.802 108.325 105.935 108.508C105.887 108.574 105.839 108.64 105.791 108.706C105.37 108.467 104.957 108.214 104.526 107.996C104.257 107.86 103.963 107.7 103.675 107.688C103.211 107.668 102.889 107.491 102.722 107.084C102.659 106.93 102.692 106.707 102.751 106.541C102.797 106.412 102.934 106.287 103.062 106.222C104.038 105.723 104.53 104.94 104.537 103.839C104.538 103.717 104.709 103.604 104.76 103.471C104.814 103.33 104.897 103.091 104.835 103.03C104.801 102.996 104.783 102.959 104.755 102.924L76.736 102.96C77.395 103.162 78.028 103.356 78.595 103.53C77.657 103.763 77.607 104.646 77.535 105.572C76.851 105.583 76.106 105.822 75.618 105.11C75.473 104.898 75.485 104.541 75.512 104.259C75.545 103.912 75.664 103.572 75.752 103.23C75.776 103.136 75.803 103.045 75.828 102.961L66.398 102.973C66.477 103.388 66.555 103.797 66.63 104.19C66.638 104.23 66.673 104.297 66.662 104.305C66.239 104.608 65.782 105.19 65.391 105.149C64.241 105.028 63.518 104.441 63.212 103.174C63.197 103.111 63.198 103.045 63.207 102.977L61.788 102.979C61.571 103.025 61.333 103.023 61.077 102.98L60.503 102.981C60.339 103.069 60.158 103.232 60.105 103.37C59.859 104.007 59.713 104.684 58.863 104.84C59.253 105.775 60.102 106.02 60.875 106.522C60.677 106.926 60.477 107.193 59.902 107.193C59.385 107.192 58.864 107.46 58.352 107.633C58.05 107.735 57.763 107.882 57.28 108.09C57.38 107.58 57.423 107.278 57.499 106.984C57.744 106.033 57.976 105.077 58.265 104.139C58.385 103.75 58.546 103.275 58.847 103.064C58.882 103.039 58.906 103.011 58.939 102.985L0 103.061L15.82 116.313C16.251 115.969 16.661 115.644 17.072 115.352C17.915 114.753 18.4 114.913 18.807 115.846C19.191 116.727 19.69 117.57 19.97 118.481C20.123 118.977 20.205 119.499 20.28 120.048L57.652 151.353L78.727 169.004L75.801 197.095L67.939 272.523L155.291 204.582L200.437 278.221L219.275 243.336C218.851 243.066 218.306 243.188 217.74 243.347C216.974 243.563 216.058 243.548 215.457 243.98C214.659 244.554 213.815 244.085 212.982 244.342C213.157 244.199 213.333 244.059 213.506 243.914C214.118 243.404 214.727 242.892 215.339 242.382C215.912 241.904 215.541 241.32 215.53 240.774C215.525 240.514 215.551 240.253 215.563 239.993C215.8 240.016 216.066 239.977 216.268 240.073C217.19 240.511 218.082 241.01 219.007 241.439C219.347 241.597 219.703 241.729 220.071 241.861L243.115 199.187L336.471 218.599L301.308 182.882L278.242 159.453ZM148.806 16.846C148.642 16.867 148.451 16.677 148.269 16.447C149.674 16.617 149.974 15.624 150.429 14.724C150.466 15.323 150.503 15.922 150.539 16.51C150.022 16.616 149.418 16.766 148.806 16.846ZM10.091 104.922C10.082 104.88 10.073 104.837 10.064 104.795C10.897 104.795 11.731 104.795 12.619 104.795C12.536 104.534 12.488 104.381 12.426 104.187C12.579 104.196 12.742 104.159 12.854 104.219C14.234 104.956 14.044 106.464 14.687 107.745C13.047 106.738 11.569 105.83 10.091 104.922ZM53.768 126.99C53.813 126.521 53.746 126.03 53.858 125.581C54.001 125.004 54.109 124.517 53.927 123.873C53.783 123.365 54.093 122.608 54.429 122.118C54.752 121.646 54.811 121.246 54.693 120.756C54.506 119.978 54.295 119.206 54.115 118.427C54.019 118.011 54.176 117.665 54.529 117.426C55.063 117.064 55.605 116.715 56.322 116.243C56.358 117.325 56.388 118.229 56.417 119.133C56.425 119.375 56.404 119.622 56.443 119.859C56.676 121.266 56.606 122.662 56.361 124.062C56.309 124.361 56.447 124.687 56.441 125C56.412 126.313 56.321 127.626 56.334 128.939C56.343 129.806 56.441 130.681 56.589 131.537C56.789 132.697 55.944 133.226 55.289 133.879C55.221 133.947 55.038 133.966 54.941 133.927C54.35 133.69 53.983 132.628 54.234 132.019C54.394 131.632 54.554 131.23 54.61 130.821C54.662 130.444 54.513 130.162 54.007 130.32C53.636 130.436 53.422 130.247 53.463 129.846C53.562 128.894 53.678 127.943 53.768 126.99ZM53.34 134.835C53.389 134.672 53.785 134.612 54.023 134.505C54.059 134.699 54.17 134.918 54.116 135.083C53.988 135.477 53.782 135.845 53.607 136.224C53.479 136.194 53.352 136.165 53.224 136.135C53.253 135.698 53.218 135.243 53.34 134.835ZM39.707 110.109C40.524 109.126 41.373 108.17 42.204 107.199C42.425 106.941 42.612 106.655 42.835 106.4C42.934 106.286 43.1 106.127 43.205 106.147C43.331 106.17 43.469 106.348 43.521 106.488C43.592 106.68 43.623 106.903 43.609 107.108C43.536 108.126 43.43 109.142 43.363 110.161C43.334 110.596 43.201 110.792 42.712 110.798C41.646 110.812 40.581 110.903 39.355 110.972C39.507 110.583 39.55 110.298 39.707 110.109ZM41.542 128.513C41.497 128.665 41.332 128.781 41.222 128.914C41.115 128.798 40.955 128.699 40.91 128.562C40.752 128.08 40.633 127.585 40.461 126.955C40.514 126.833 40.618 126.538 40.764 126.265C41.306 125.25 40.781 124.457 40.258 123.649C40.007 123.261 39.911 122.888 40.268 122.441C40.53 122.113 40.621 121.648 40.69 121.1C40.436 121.201 40.169 121.277 39.934 121.411C39.771 121.504 39.672 121.708 39.51 121.804C38.735 122.266 38.596 122.415 38.156 121.518C38.006 121.211 37.758 120.943 37.52 120.691C37.176 120.327 37.204 119.654 37.662 119.135C38.081 118.661 38.228 117.948 38.928 117.709C39.036 117.672 39.094 117.474 39.166 117.345C39.359 116.997 39.547 116.646 39.781 116.217C39.55 116.304 39.302 116.387 39.062 116.489C38.531 116.714 38.009 117.011 37.623 116.24C37.578 116.15 36.998 116.167 36.957 116.262C36.696 116.856 36.339 117.217 35.679 117.429C35.386 117.523 35.254 118.149 35.068 118.543C34.875 118.952 34.706 119.373 34.526 119.789C34.197 119.54 33.796 119.347 33.554 119.032C32.968 118.271 32.294 117.5 32.804 116.318C33.065 116.358 33.308 116.354 33.52 116.433C34.428 116.771 34.96 116.615 35.544 115.778C35.786 115.432 35.943 115.011 36.233 114.718C36.59 114.357 37.007 113.93 37.467 113.822C38.371 113.609 39.326 113.495 40.253 113.532C41.009 113.563 41.702 113.433 42.414 113.261C43.048 113.108 43.244 113.265 43.223 113.928C43.208 114.395 43.162 114.864 43.083 115.325C42.956 116.074 43.228 116.86 43.857 117.244C44.428 117.592 44.813 118.017 44.953 118.705C45.002 118.948 45.328 119.188 45.585 119.324C45.944 119.513 45.957 119.67 45.857 120.065C45.605 121.064 44.837 121.673 44.307 122.463C43.419 123.785 42.737 125.252 42.043 126.694C41.772 127.251 41.722 127.91 41.542 128.513ZM47.864 132.569C47.086 132.799 46.352 133.176 45.601 133.496C45.14 133.692 44.682 133.897 44.226 134.104C44.095 134.164 43.945 134.221 43.856 134.324C43.463 134.777 43.186 134.677 42.951 134.177C42.79 133.835 42.607 133.503 42.425 133.149C42.526 133.093 42.553 133.069 42.561 133.075C43.467 133.624 44.067 133.193 44.656 132.498C44.941 132.162 45.312 131.967 45.889 132.078C46.398 132.176 46.984 131.89 47.532 131.754C47.846 131.676 48.15 131.559 48.502 131.445C48.598 132.095 48.451 132.395 47.864 132.569ZM48.65 127.02C48.573 127 48.497 126.98 48.42 126.96C48.42 126.656 48.421 126.351 48.42 126.047C48.418 125.27 48.448 124.49 48.402 123.715C48.365 123.084 48.25 122.456 48.14 121.832C48.106 121.64 47.965 121.468 47.895 121.279C47.818 121.072 47.766 120.856 47.702 120.644C47.977 120.655 48.284 120.592 48.519 120.694C48.982 120.895 49.405 121.188 49.978 121.521C49.869 122.025 49.712 122.695 49.58 123.37C49.397 124.299 49.252 125.235 49.049 126.16C48.982 126.461 48.787 126.734 48.65 127.02ZM49.768 143.029C49.537 142.437 49.245 141.859 49.111 141.246C49.07 141.059 49.462 140.777 49.739 140.435C50.057 141.364 50.268 142.145 49.768 143.029ZM51.053 134.885C50.898 135.109 50.713 135.311 50.46 135.621C50.156 135.206 49.904 134.861 49.588 134.43C50.071 134.35 50.433 134.263 50.799 134.242C50.943 134.234 51.167 134.339 51.221 134.455C51.268 134.553 51.143 134.756 51.053 134.885ZM55.265 140.629C55.175 140.901 54.905 141.309 54.711 141.312C54.245 141.318 53.772 141.138 53.315 140.992C53.209 140.958 53.086 140.758 53.088 140.637C53.109 139.542 53.187 138.451 54.111 137.674C54.285 137.528 54.552 137.49 54.9 137.354C54.862 138.192 54.869 138.806 55.446 139.341C55.633 139.514 55.405 140.207 55.265 140.629ZM57.235 138.166C56.418 138.302 55.645 137.736 55.538 136.968C55.409 136.039 55.712 135.282 56.435 134.674C56.732 134.424 56.979 134.116 57.248 133.834C56.803 135.339 57.173 136.764 57.235 138.166ZM65.26 115.539C65.169 115.554 65.079 115.568 64.988 115.583C64.862 115.362 64.657 115.153 64.623 114.918C64.473 113.881 64.295 112.858 64.566 111.785C64.679 111.336 64.356 110.775 64.227 110.267C64.091 109.732 63.726 109.205 64.206 108.655C64.253 108.601 64.195 108.454 64.178 108.264C63.917 108.378 63.752 108.45 63.444 108.584C63.444 107.8 63.299 107.043 63.48 106.376C63.713 105.519 64.057 105.459 64.883 105.801C65.558 106.08 65.6 106.075 66.186 105.656C66.524 105.855 66.842 106.063 67.179 106.235C67.548 106.423 67.544 106.659 67.337 106.96C67.244 107.096 67.099 107.235 67.087 107.382C66.914 109.5 66.288 111.514 65.701 113.538C65.512 114.193 65.405 114.871 65.26 115.539ZM67.87 131.727C67.465 131.826 67.063 131.954 66.651 132.005C66.548 132.018 66.344 131.801 66.311 131.661C66.254 131.42 66.295 131.156 66.295 130.793C66.875 131.06 67.376 131.291 67.877 131.522C67.875 131.59 67.873 131.658 67.87 131.727ZM72.89 105.324C72.655 105.917 72.338 106.491 71.97 107.012C71.863 107.164 71.437 107.188 71.194 107.128C70.421 106.936 69.666 106.677 68.841 106.425C69.158 105.468 69.601 104.717 70.488 104.284C70.823 104.12 71.13 103.691 71.426 103.712C71.73 103.733 71.993 104.175 72.298 104.399C72.623 104.637 73.083 104.837 72.89 105.324ZM97.201 114.799C98.394 115.11 99.651 115.176 100.59 116.187C100.918 116.541 101.518 116.637 101.982 116.875C102.22 116.997 102.43 117.173 102.644 117.319C102.191 117.527 101.873 117.673 101.554 117.819C101.844 118.245 102.135 118.67 102.502 119.209C102.382 119.385 102.166 119.742 101.91 120.069C101.626 120.433 101.613 120.789 101.953 121.081C102.514 121.564 103.114 122.003 103.693 122.466C103.897 122.629 104.088 122.807 104.285 122.978C104.251 123.059 104.217 123.14 104.183 123.221C103.898 123.143 103.59 123.11 103.331 122.98C102.599 122.609 101.916 122.12 101.155 121.833C100.722 121.67 100.169 121.774 99.679 121.829C99.162 121.888 98.655 122.032 98.256 122.115C98.123 121.688 98.076 121.173 97.929 121.142C97.6 121.074 97.221 121.248 96.863 121.323C96.852 121.419 96.841 121.515 96.829 121.611C97.176 121.801 97.522 121.992 97.879 122.188C97.304 122.607 96.753 123.111 96.108 123.423C95.872 123.537 95.265 123.296 95.086 123.038C94.545 122.259 94.099 121.409 93.685 120.552C93.537 120.245 93.554 119.881 94.001 119.637C94.316 119.465 94.506 119.071 94.765 118.789C95.336 118.165 95.913 117.547 96.491 116.931C96.934 116.461 96.978 116.34 97.201 114.799ZM104.017 149.385C103.221 148.835 102.857 147.985 103.211 147.369C103.829 147.943 103.959 148.62 104.017 149.385ZM96.365 150.976C95.573 151.107 95.209 150.743 95.404 150C95.51 149.596 95.598 149.187 95.724 148.79C95.761 148.672 95.913 148.494 95.99 148.504C96.126 148.523 96.304 148.64 96.356 148.763C96.442 148.966 96.473 149.206 96.471 149.43C96.469 149.678 96.388 149.924 96.369 150.173C96.35 150.421 96.365 150.671 96.365 150.976ZM92.64 135.19C93.205 133.745 93.57 132.207 94.661 131.006C95.064 130.563 95.174 130.537 95.496 131.077C95.769 131.536 96.059 131.984 96.368 132.479C96.143 132.896 96.016 133.293 95.761 133.574C95.104 134.297 94.395 134.973 93.693 135.654C93.567 135.776 93.38 135.882 93.21 135.903C92.529 135.992 92.391 135.828 92.64 135.19ZM91.867 113.999C91.796 113.94 91.724 113.882 91.653 113.823C91.923 113.395 92.213 112.977 92.458 112.534C92.664 112.16 92.815 111.757 92.994 111.368C93.143 111.043 93.284 110.453 93.452 110.444C94.046 110.413 94.65 110.583 95.251 110.676C95.215 110.84 95.234 111.065 95.132 111.156C94.698 111.546 94.137 111.824 94.059 112.498C94.057 112.515 94.033 112.533 94.016 112.544C93.299 113.03 92.583 113.515 91.867 113.999ZM86.157 107.138C86.944 106.503 87.889 106.688 88.759 106.516C89.776 106.316 90.814 106.053 91.835 106.083C93.191 106.123 94.54 106.412 95.889 106.618C96.052 106.643 96.193 106.813 96.441 106.982C95.543 107.409 94.538 106.754 93.89 107.655C93.977 107.764 94.085 107.866 94.152 107.99C94.301 108.266 94.939 108.394 94.548 108.812C94.289 109.089 93.914 109.713 93.406 109.15C93.113 108.824 92.708 108.404 93.224 107.875C93.493 107.599 93.156 107.058 92.654 107.05C92.298 107.044 91.91 107.177 91.589 107.348C91.149 107.582 90.759 107.91 90.349 108.197C89.702 107.287 89.505 107.258 88.493 107.7C88.215 107.821 87.861 107.755 87.551 107.82C87.206 107.892 86.867 108.003 86.533 108.121C86.227 108.229 85.852 108.57 85.656 108.111C85.483 107.709 85.806 107.421 86.157 107.138ZM89.757 115.719C89.595 116.701 87.663 118.795 86.913 118.918C86.866 118.079 87.154 117.322 87.56 116.645C88.025 115.87 89.018 116.268 89.757 115.719ZM83.349 103.602C83.73 103.626 84.111 103.65 84.601 103.681C84.456 104.039 84.374 104.243 84.269 104.501C83.908 104.231 83.612 104.009 83.315 103.787C83.326 103.726 83.337 103.664 83.349 103.602ZM77.368 237.015C77.328 237.133 77.133 237.273 77.016 237.268C76.919 237.264 76.815 237.067 76.745 236.94C76.675 236.813 76.658 236.656 76.591 236.526C76.32 236 76.272 235.599 77.041 235.529C77.187 235.516 77.324 235.355 77.457 235.252C77.558 235.174 77.637 235.064 77.744 234.997C77.81 234.956 77.911 234.954 77.994 234.962C78.524 235.011 79.06 235.031 79.578 235.138C79.795 235.183 79.972 235.418 80.198 235.591C79.521 235.787 78.938 235.942 78.365 236.128C77.912 236.275 77.535 236.518 77.368 237.015ZM83.279 256.197C82.336 256.332 81.386 256.427 80.447 256.582C79.649 256.714 78.189 255.966 77.939 255.195C77.894 255.056 78.085 254.769 78.242 254.648C79.098 253.99 80.048 253.435 80.823 252.696C81.26 252.278 81.556 251.598 81.667 250.99C81.769 250.437 82.066 250.249 82.471 250.028C82.471 250.224 82.462 250.395 82.473 250.564C82.492 250.843 82.416 251.244 82.57 251.378C83.392 252.101 83.108 253.082 83.29 253.957C83.429 254.626 83.706 255.266 83.955 256.018C83.755 256.072 83.521 256.162 83.279 256.197ZM83.006 148.656C82.997 148.602 82.989 148.549 82.98 148.495C83.569 148.35 84.12 147.98 84.769 148.192C84.78 148.261 84.792 148.33 84.803 148.399C84.204 148.485 83.605 148.571 83.006 148.656ZM85.247 136.325C84.785 136.635 84.278 136.88 83.791 137.154C83.722 137.081 83.653 137.008 83.583 136.935C83.768 136.672 83.905 136.348 84.147 136.159C84.686 135.74 84.968 135.298 85.007 134.555C85.035 134.01 85.414 133.399 85.807 132.975C86.438 132.295 86.733 131.591 86.465 130.76C86.326 130.329 86.684 128.999 87.038 128.734C87.142 128.656 87.316 128.67 87.504 128.632C87.504 129.052 87.613 129.471 87.483 129.794C87.121 130.69 87.341 131.562 87.432 132.45C87.495 133.064 87.521 133.682 87.545 134.298C87.549 134.403 87.483 134.584 87.41 134.607C86.464 134.903 86.011 135.812 85.247 136.325ZM85.869 218.239C85.918 217.599 86.543 217.049 87.228 216.967C87.59 216.924 87.887 217.398 88.176 218.523C87.404 218.428 86.657 218.336 85.869 218.239ZM87.626 126.745C87.408 126.579 87.115 126.51 86.783 126.366C86.412 125.421 85.994 124.332 85.554 123.253C85.377 122.818 85.612 122.595 85.957 122.588C86.479 122.577 87.025 122.617 87.522 122.766C88.187 122.966 88.665 122.695 89.137 122.283C89.186 122.309 89.235 122.335 89.285 122.361C89.136 123.174 89.01 123.993 88.829 124.799C88.7 125.372 88.488 125.926 88.331 126.494C88.178 127.052 88.068 127.081 87.626 126.745ZM88.764 218.845C89.486 218.623 89.784 219.067 90.238 219.454C89.488 219.681 89.152 219.317 88.764 218.845ZM90.801 146.624C90.601 146.076 90.295 145.806 89.701 145.737C89.323 145.693 88.968 145.449 88.549 145.273C90.052 143.91 91.502 142.597 92.952 141.283C92.988 141.29 93.025 141.297 93.061 141.303C92.814 141.905 92.567 142.507 92.319 143.108C92.198 143.401 92.091 143.702 91.942 143.98C91.677 144.475 91.95 144.78 92.28 145.086C92.429 145.224 92.646 145.368 92.678 145.538C92.832 146.361 93.358 146.697 94.13 146.801C94.279 146.821 94.407 146.995 94.544 147.098C94.416 147.253 94.311 147.508 94.154 147.547C93.6 147.682 93.031 147.775 92.462 147.824C91.73 147.885 91.1 147.443 90.801 146.624ZM94.113 212.643C93.574 212.962 92.984 213.197 92.417 213.47C92.37 213.436 92.324 213.402 92.277 213.367C92.708 212.224 93.47 211.258 94.04 210.179C95.04 210.849 95.055 212.086 94.113 212.643ZM96.188 170.235C95.99 170.549 95.874 170.915 95.719 171.256C95.515 171.706 95.326 172.163 95.099 172.601C94.895 172.994 94.66 173.372 94.417 173.743C94.213 174.054 93.979 174.345 93.757 174.645C93.676 174.599 93.595 174.553 93.515 174.507C93.933 173.674 94.353 172.842 94.765 172.007C94.829 171.879 94.901 171.732 94.897 171.597C94.884 171.131 94.847 170.665 94.804 170.2C94.765 169.77 94.905 169.554 95.379 169.577C95.541 169.585 95.732 169.464 95.872 169.354C96.289 169.026 96.687 168.673 97.093 168.331C97.179 168.409 97.264 168.486 97.349 168.564C96.959 169.118 96.55 169.661 96.188 170.235ZM98.129 150.333C98.295 150.187 98.75 150.201 98.973 150.325C99.38 150.552 99.725 150.901 100.066 151.231C100.146 151.308 100.106 151.508 100.129 151.732C99.227 151.605 98.425 151.492 97.527 151.367C97.739 150.979 97.859 150.57 98.129 150.333ZM107.452 153.77C105.798 153.332 104.276 153.597 102.765 154.288C102.314 154.494 101.994 154.705 102.054 155.271C102.07 155.426 101.95 155.638 101.828 155.758C101.441 156.141 101.037 156.509 100.616 156.853C99.773 157.54 99.989 158.456 100.047 159.34C100.055 159.464 100.096 159.584 100.112 159.708C100.116 159.744 100.084 159.784 100.004 159.98C99.419 159.732 98.824 159.505 98.258 159.222C98.137 159.162 98.016 158.812 98.073 158.744C98.229 158.558 98.479 158.45 98.642 158.345C98.73 157.975 98.847 157.628 98.886 157.272C98.917 156.99 98.867 156.696 98.828 156.411C98.747 155.826 98.674 155.237 98.547 154.661C98.499 154.442 98.326 154.242 98.183 154.053C98.045 153.871 97.873 153.715 97.619 153.444C97.956 153.42 98.12 153.361 98.246 153.406C99.065 153.703 99.767 153.413 100.452 153.004C100.54 152.951 100.636 152.901 100.735 152.88C101.481 152.718 101.542 152.592 101.12 151.823C101.393 151.782 101.622 151.726 101.854 151.715C102.737 151.674 103.653 151.859 104.444 151.251C104.53 151.185 104.759 151.271 104.908 151.324C105.503 151.533 106.093 151.756 106.686 151.973C106.726 151.988 106.788 151.979 106.808 152.005C107.399 152.807 108.077 152.645 108.809 152.078C108.809 152.34 108.815 152.49 108.808 152.64C108.752 153.733 108.471 154.04 107.452 153.77ZM109.648 170.588C109.606 170.669 109.232 170.697 109.14 170.611C108.819 170.311 108.554 169.951 108.267 169.614C108.276 169.534 108.284 169.454 108.292 169.374C108.907 169.308 109.523 169.241 110.22 169.166C109.993 169.756 109.854 170.19 109.648 170.588ZM110.044 150.322C110.113 149.871 110.143 149.5 110.238 149.147C110.269 149.032 110.466 148.913 110.601 148.894C110.67 148.884 110.804 149.078 110.849 149.201C111.002 149.616 110.688 150.117 110.044 150.322ZM165.606 71.927C165.793 71.621 166.125 71.404 166.398 71.151C166.5 71.236 166.601 71.32 166.703 71.405C166.494 71.807 166.285 72.21 166.076 72.612C166 72.609 165.924 72.606 165.848 72.603C165.759 72.372 165.528 72.055 165.606 71.927ZM143.115 28.992C143.535 28.998 143.946 29.574 144.362 29.902C144.326 29.97 144.29 30.038 144.254 30.107C143.515 30.107 142.775 30.107 142.036 30.107C142.017 30.057 141.997 30.007 141.978 29.957C142.357 29.61 142.741 28.986 143.115 28.992ZM140.43 40.161C140.963 40.082 141.503 40.033 142.027 39.915C142.682 39.768 143.33 39.582 143.971 39.38C144.568 39.192 145.147 38.946 145.742 38.754C146.368 38.552 146.505 38.206 146.036 37.757C146.332 37.646 146.585 37.552 146.913 37.429C147.133 38.292 147.348 39.122 147.555 39.954C147.611 40.179 147.662 40.409 147.682 40.639C147.724 41.115 147.744 41.504 147.025 41.513C146.532 41.519 146.03 41.786 145.557 41.993C145.165 42.165 144.962 43.105 145.128 43.743C145.144 43.803 145.204 43.854 145.21 43.913C145.239 44.175 145.291 44.444 145.251 44.696C145.243 44.749 144.807 44.839 144.699 44.752C144.442 44.544 144.161 44.267 144.079 43.967C143.974 43.579 144.053 43.141 144.053 42.629C143.432 42.912 143.218 42.723 143.049 42.237C142.73 41.321 142.147 40.681 141.058 40.689C140.836 40.691 140.612 40.501 140.388 40.399C140.403 40.319 140.417 40.24 140.43 40.161ZM130.016 107.322C130.43 107.717 130.776 108.183 131.119 108.757C130.689 108.617 130.268 108.437 129.828 108.348C129.352 108.252 128.857 108.186 128.374 108.208C127.915 108.229 127.461 108.382 127.06 108.466C126.919 107.904 126.726 107.238 126.6 106.56C126.568 106.389 126.698 106.074 126.84 106.006C127.153 105.857 127.52 105.804 127.87 105.76C127.938 105.752 128.091 105.956 128.107 106.076C128.191 106.724 128.593 106.879 129.181 106.915C129.47 106.933 129.8 107.115 130.016 107.322ZM126.192 94.368C126.276 93.943 126.594 94.029 126.896 94.182C127.563 94.52 128.235 94.847 128.905 95.178C128.889 95.242 128.874 95.306 128.858 95.37C128.732 95.413 128.605 95.497 128.481 95.491C127.865 95.462 127.24 95.458 126.636 95.349C126.106 95.254 126.113 94.76 126.192 94.368ZM123.567 113.022C123.112 112.912 122.997 112.561 123.065 112.134C123.118 111.802 123.184 111.472 123.245 111.141C123.286 111.121 123.327 111.101 123.368 111.081C123.556 111.64 123.756 112.196 123.914 112.763C123.929 112.819 123.662 113.046 123.567 113.022ZM129.058 116.9C129.3 116.283 129.537 115.751 129.71 115.199C129.766 115.019 129.654 114.786 129.619 114.578C129.411 114.64 129.142 114.642 129.008 114.777C128.73 115.06 128.534 115.421 128.286 115.735C128.178 115.871 128.025 115.972 127.893 116.089C127.794 115.948 127.598 115.795 127.613 115.668C127.701 114.944 127.435 114.44 126.819 114.061C126.676 113.973 126.565 113.702 126.574 113.522C126.598 113.043 126.272 112.776 125.941 112.769C125.219 112.753 124.988 112.265 124.785 111.757C124.506 111.057 124.376 110.278 123.53 109.97C123.471 109.948 123.469 109.657 123.505 109.506C123.646 108.918 123.792 108.329 123.98 107.755C124.052 107.537 124.243 107.358 124.38 107.162C124.504 107.33 124.643 107.489 124.75 107.667C125.095 108.242 125.416 108.832 125.777 109.397C125.852 109.514 126.055 109.569 126.21 109.612C126.928 109.812 127.083 110.102 126.85 110.841C126.818 110.942 126.808 111.05 126.769 111.147C126.326 112.269 127.018 113.371 128.22 113.509C129.081 113.608 129.937 113.754 130.791 113.904C130.988 113.939 131.168 114.074 131.377 114.174C130.806 115.027 130.309 115.81 129.762 116.555C129.637 116.725 129.336 116.77 129.058 116.9ZM135.213 118.054C135.114 118.293 134.689 118.513 134.397 118.533C133.513 118.595 132.622 118.564 131.734 118.545C131.564 118.542 131.396 118.427 131.24 118.369C131.8 118.052 132.299 117.77 132.893 117.434C132.691 117.29 132.548 117.125 132.48 117.152C131.941 117.362 131.223 117.259 130.964 117.998C130.924 118.112 130.722 118.169 130.595 118.252C130.559 118.204 130.524 118.156 130.488 118.107C131.057 117.307 131.617 116.5 132.201 115.711C132.423 115.411 132.631 115.293 132.936 115.721C133.353 116.307 133.862 116.809 134.618 117.026C135.063 117.154 135.413 117.569 135.213 118.054ZM136.852 85.712C136.238 85.343 136.326 84.787 136.278 84.246C136.975 84.372 137.045 84.553 136.852 85.712ZM137.637 82.131C137.589 82.138 137.526 82.166 137.508 82.148C136.845 81.482 135.874 81.359 135.158 80.807C134.991 80.678 134.965 80.313 134.95 80.053C134.927 79.647 134.95 79.235 134.992 78.83C135.007 78.684 135.132 78.549 135.206 78.41C135.351 78.501 135.518 78.571 135.638 78.689C135.922 78.967 136.184 79.268 136.455 79.559C136.694 79.236 136.957 78.929 137.165 78.588C137.513 78.02 137.77 77.389 138.169 76.862C138.563 76.341 138.187 76.105 137.866 76.115C137.189 76.137 136.978 75.77 136.849 75.088C137.224 74.986 137.622 74.876 138.02 74.769C138.44 74.656 138.859 74.54 139.282 74.439C139.395 74.412 139.529 74.415 139.637 74.452C139.675 74.465 139.694 74.627 139.673 74.708C139.051 77.093 138.423 79.477 137.791 81.86C137.765 81.958 137.688 82.043 137.637 82.131ZM138.76 117.708C138.617 117.937 138.413 118.129 138.172 118.284C138.296 117.702 138.321 117.089 138.972 116.807C139.106 116.749 139.163 116.532 139.285 116.421C139.415 116.302 139.609 116.114 139.722 116.146C139.895 116.194 140.022 116.405 140.169 116.547C140.181 116.621 140.194 116.694 140.206 116.767C139.204 116.454 139.082 117.192 138.76 117.708ZM140.632 71.783C140.609 71.885 140.608 72.002 140.554 72.085C140.36 72.381 140.1 72.93 139.951 72.903C139.482 72.819 139.017 72.615 138.849 72.009C138.704 71.486 138.767 71.209 139.257 70.922C139.647 70.693 139.973 70.311 140.244 69.935C140.545 69.516 140.751 69.029 140.998 68.571C141.109 68.607 141.219 68.644 141.33 68.68C141.096 69.715 140.864 70.749 140.632 71.783ZM141.575 46.229C141.75 45.746 142.14 45.709 142.679 45.962C142.359 46.138 142.04 46.314 141.72 46.489C141.672 46.403 141.623 46.316 141.575 46.229ZM145.548 99.378C145.212 100.03 144.782 100.634 144.439 101.283C144.202 101.73 143.937 101.685 143.606 101.438C143.266 101.184 142.938 100.914 142.589 100.674C141.939 100.227 141.99 99.521 142.713 99.144C142.805 99.096 142.975 99.116 143.008 99.052C143.694 97.721 145.25 98.22 146.201 97.457C146.247 97.49 146.293 97.523 146.339 97.556C146.077 98.165 145.85 98.791 145.548 99.378ZM146.593 96.848C146.551 96.853 146.508 96.859 146.466 96.864C146.548 96.45 146.625 96.035 146.715 95.624C146.768 95.381 146.88 95.145 146.901 94.901C146.956 94.273 147.163 94.118 147.74 94.354C147.989 94.456 148.217 94.609 148.329 94.67C147.741 95.406 147.167 96.127 146.593 96.848ZM148.981 58.031C148.892 58.395 148.733 58.743 148.581 59.088C148.537 59.189 148.416 59.257 148.33 59.34C148.245 59.234 148.095 59.134 148.086 59.022C148.035 58.349 148.341 57.808 148.725 57.303C148.801 57.306 148.877 57.309 148.953 57.312C148.968 57.552 149.036 57.807 148.981 58.031ZM149.103 48.358C149.059 48.58 148.925 48.852 148.746 48.966C148.324 49.236 147.852 49.431 147.395 49.645C146.922 49.866 146.82 50.215 146.98 50.689C147.152 51.2 147.398 51.687 147.194 52.277C147.121 52.488 147.314 52.793 147.391 53.053C147.521 53.491 147.308 53.703 146.864 53.645C145.902 53.518 145.967 52.621 145.616 52.036C145.533 51.897 145.524 51.653 145.413 51.6C144.766 51.293 144.542 50.67 144.201 50.121C143.585 49.128 143.723 48.533 144.758 47.942C145.181 47.701 145.625 47.49 146.017 47.206C146.452 46.89 146.818 46.643 147.383 47.002C147.724 47.218 148.099 46.819 148.051 46.354C148.037 46.216 148.02 46.079 147.993 45.836C148.912 46.575 149.3 47.364 149.103 48.358ZM149.357 30.069C148.964 29.994 148.578 29.884 148.183 29.826C147.657 29.748 147.531 29.346 147.43 28.935C147.339 28.563 147.238 28.329 146.764 28.238C146.111 28.114 146.693 27.526 146.519 27.187C146.76 27.072 147.001 26.957 147.242 26.842C147.345 27.063 147.474 27.276 147.541 27.508C147.592 27.685 147.565 27.885 147.573 28.075C147.797 28.061 148.038 28.094 148.24 28.02C148.467 27.937 148.658 27.758 148.964 27.554C148.954 28.487 149.101 29.22 150.037 29.522C150.308 29.609 150.537 29.831 150.777 30.001C150.841 30.046 150.877 30.129 151.057 30.369C150.379 30.251 149.867 30.166 149.357 30.069ZM161.934 95.216C160.752 95.124 159.574 94.984 158.397 94.843C158.196 94.819 158.005 94.717 157.809 94.651C157.814 94.582 157.82 94.513 157.825 94.444C159.231 94.444 160.637 94.434 162.043 94.46C162.17 94.462 162.292 94.692 162.417 94.816C162.256 94.956 162.084 95.228 161.934 95.216ZM165.301 84.795C164.98 84.563 164.673 84.306 164.333 84.106C164.053 83.941 163.742 83.817 163.43 83.718C162.958 83.567 162.48 83.404 161.992 83.336C161.523 83.271 161.037 83.334 160.56 83.317C160.33 83.309 160.104 83.232 159.873 83.207C159.439 83.159 159.037 83.132 159.071 83.788C159.078 83.927 158.828 84.194 158.675 84.211C156.899 84.412 155.119 84.575 153.341 84.749C152.939 84.789 152.537 84.873 152.137 84.866C151.592 84.857 151.434 84.588 151.531 84.038C151.571 83.814 151.589 83.549 151.507 83.347C151.165 82.5 151.848 80.891 152.711 80.621C153.031 80.521 153.253 80.622 153.395 80.982C153.596 81.489 153.846 81.984 154.134 82.447C154.606 83.208 155.274 83.337 156.078 82.918C156.271 82.818 156.525 82.807 156.751 82.805C157.664 82.794 158.222 82.129 158.038 81.236C157.841 80.279 157.916 79.422 158.394 78.493C158.779 77.746 159.097 76.837 158.292 75.921C157.551 75.077 157.072 74.001 156.484 73.024C156.422 72.921 156.395 72.796 156.331 72.626C157.007 72.581 157.505 72.368 157.381 71.379C157.74 71.676 157.995 71.831 158.175 72.048C158.429 72.356 158.675 72.69 158.832 73.052C158.923 73.263 158.9 73.578 158.813 73.801C158.635 74.255 158.776 74.675 159.228 74.604C159.854 74.506 160.044 74.898 160.302 75.27C160.891 76.12 161.539 76.938 162.036 77.839C162.395 78.49 162.477 79.29 162.812 79.959C163.413 81.161 164.108 82.315 164.771 83.486C164.994 83.88 165.237 84.262 165.472 84.65C165.415 84.697 165.358 84.746 165.301 84.795ZM166.701 76.78C166.386 76.583 166.064 76.395 165.757 76.185C165.165 75.78 164.575 75.371 163.995 74.948C163.448 74.549 162.897 74.152 162.39 73.707C162.238 73.574 162.104 73.212 162.18 73.077C162.305 72.854 162.587 72.643 162.839 72.584C163.435 72.445 164.255 72.932 164.553 73.48C164.638 73.636 164.796 73.797 164.958 73.857C165.828 74.179 166.254 74.937 166.705 75.645C166.879 75.919 166.848 76.323 166.911 76.668C166.841 76.705 166.771 76.743 166.701 76.78ZM166.869 71.223C167.038 70.437 166.232 70.424 165.898 69.919C166.552 70.029 167.206 70.139 167.891 70.254C167.752 70.8 167.788 71.448 166.869 71.223ZM168.966 61.977C169.143 61.551 169.246 61.092 169.444 60.677C169.756 60.021 170.129 59.851 170.7 60.224C171.068 60.464 171.365 60.609 171.782 60.476C171.815 60.466 171.878 60.552 171.984 60.64C171.513 61.022 171.025 61.344 170.641 61.762C170.46 61.959 170.397 62.347 170.424 62.636C170.473 63.174 170.293 63.381 169.771 63.235C169.67 63.207 169.568 63.179 169.468 63.146C168.664 62.882 168.63 62.785 168.966 61.977ZM172.406 70.742C172.342 71.124 172.248 71.5 172.159 71.877C172.084 71.854 172.009 71.832 171.934 71.809C171.934 71.447 171.934 71.085 171.934 70.614C172.121 70.664 172.408 70.727 172.406 70.742ZM170.756 66.824C170.675 66.973 170.487 67.113 170.325 67.148C170.236 67.167 170.077 66.972 169.987 66.847C169.589 66.292 169.443 65.743 170.123 65.226C170.949 65.783 171.111 66.173 170.756 66.824ZM172.477 80.369C172.75 80.578 173.022 80.787 173.362 81.047C172.506 81.407 172.311 81.283 172.477 80.369ZM169.469 74.654C170.861 74.556 172.142 75.028 173.646 75.232C172.915 76.158 173.415 76.699 173.833 77.269C174.031 77.539 174.181 77.843 174.265 78.198C172.443 77.318 170.159 77.124 169.469 74.654ZM176.812 225.047C176.737 224.968 176.673 224.929 176.653 224.873C176.583 224.676 176.529 224.473 176.43 224.141C176.934 223.918 177.46 223.735 177.928 223.456C178.157 223.319 178.266 222.991 178.455 222.771C178.622 222.576 178.824 222.411 179.088 222.16C179.227 222.954 177.856 224.57 176.812 225.047ZM178.249 77.283C177.801 76.95 177.364 76.601 176.923 76.259C176.958 76.185 176.993 76.111 177.028 76.037C178.048 76.251 179.069 76.464 180.148 76.689C179.646 77.706 179.026 77.861 178.249 77.283ZM190.724 240.969C190.3 240.781 189.877 240.592 189.453 240.404C189.502 240.319 189.551 240.234 189.6 240.149C190.008 240.353 190.416 240.557 190.824 240.762C190.791 240.831 190.758 240.9 190.724 240.969ZM199.827 251.823C199.157 252.475 199.087 252.474 198.47 251.774C197.217 250.353 195.991 248.906 194.796 247.434C194.593 247.184 194.686 246.703 194.497 246.428C193.808 245.426 194.216 244.472 194.51 243.491C194.641 243.055 194.694 242.595 194.783 242.14C195.406 242.367 195.934 242.538 196.445 242.75C197.357 243.128 198.05 242.818 198.511 241.878C198.684 241.526 199.003 241.245 199.248 240.94C199.916 241.322 199.927 241.519 199.354 241.931C198.802 242.327 198.846 243.011 199.513 243.815C199.394 243.862 199.287 243.891 199.193 243.943C198.575 244.283 198.533 244.981 199.089 245.408C199.323 245.588 199.708 245.799 199.713 246.004C199.727 246.581 199.594 247.164 199.485 247.738C199.456 247.89 199.304 248.019 199.209 248.159C198.793 248.773 198.895 249.374 199.498 249.822C199.599 249.898 199.724 249.943 199.819 250.025C200.059 250.232 200.516 250.507 200.479 250.654C200.374 251.076 200.139 251.519 199.827 251.823ZM204.215 223.272C203.404 223.757 202.567 224.2 201.734 224.647C201.681 224.675 201.585 224.623 201.509 224.608C201.461 224.571 201.412 224.534 201.364 224.497C202.815 223.923 202.611 222.504 203.179 221.313C203.595 221.819 203.994 222.265 204.336 222.752C204.408 222.854 204.327 223.205 204.215 223.272ZM228.477 71.971C228.525 71.9 228.618 71.797 228.67 71.676C228.731 71.535 228.755 71.378 228.795 71.228C228.604 71.233 228.339 71.156 228.234 71.254C227.015 72.39 225.785 73.517 224.64 74.725C224.236 75.151 224.059 75.765 224.676 76.31C224.885 76.495 224.933 76.862 225.078 77.199C224.436 77.522 223.963 77.47 223.62 76.747C223.552 76.604 222.98 76.537 222.768 76.658C222.361 76.892 222.051 77.291 221.69 77.609C221.535 77.745 221.351 77.849 221.056 78.053C221.154 77.256 221.141 76.634 221.899 76.353C222.123 76.27 222.266 75.968 222.441 75.774C222.013 75.646 221.495 75.625 221.433 75.447C221.257 74.937 221.252 74.365 221.218 73.815C221.212 73.724 221.386 73.558 221.499 73.535C221.872 73.459 222.255 73.413 222.636 73.392C223.615 73.338 224.093 72.999 224.431 72.081C224.46 72.002 224.456 71.901 224.504 71.841C224.616 71.701 224.739 71.562 224.886 71.466C224.912 71.449 225.147 71.629 225.156 71.73C225.176 71.934 225.183 72.223 225.062 72.344C224.496 72.908 223.865 73.407 223.303 73.974C223.149 74.129 223.156 74.442 223.089 74.683C223.323 74.683 223.6 74.765 223.784 74.669C224.66 74.209 225.242 73.48 225.618 72.563C225.713 72.33 225.931 72.117 226.144 71.969C226.884 71.456 227.453 70.858 227.575 69.905C227.605 69.672 227.879 69.47 228.041 69.254C228.208 69.385 228.4 69.495 228.538 69.652C228.986 70.164 229.43 70.682 229.843 71.222C230.01 71.441 230.091 71.726 230.247 72.058C229.582 72.024 229.047 71.998 228.477 71.971ZM246.59 53.611C246.613 53.556 246.647 53.506 246.631 53.535C247.416 53.641 248.092 53.733 248.84 53.834C248.45 54.198 248.161 54.679 247.484 54.36C247.3 54.273 247.081 54.259 246.875 54.223C246.709 54.194 246.541 54.182 246.374 54.162C246.446 53.979 246.516 53.794 246.59 53.611ZM239.861 56.642C240.018 56.036 240.135 55.583 240.284 55.006C240.75 55.389 241.1 55.676 241.584 56.074C240.935 56.288 240.433 56.453 239.861 56.642ZM242.062 56.876C242.322 56.08 242.552 56.025 243.322 56.585C242.857 56.692 242.491 56.777 242.062 56.876ZM249.347 69.839C248.78 69.128 248.297 69.263 247.735 69.703C247.189 70.13 246.878 69.94 246.86 69.259C246.837 68.439 246.661 68.308 245.798 68.458C245.73 68.47 245.651 68.422 245.44 68.364C247.219 67.674 248.871 67.034 250.523 66.394C250.593 66.435 250.664 66.475 250.735 66.516C250.286 67.588 249.839 68.661 249.347 69.839ZM249.376 54.999C249.618 54.395 249.773 54.01 249.899 53.694C250.382 53.862 250.899 54.042 251.514 54.257C250.846 54.489 250.201 54.713 249.376 54.999ZM251.601 47.566C251.518 46.791 251.822 46.397 252.426 46.303C252.599 46.276 252.808 46.157 252.903 46.015C253.301 45.421 253.902 45.242 254.724 45.628C253.626 46.309 252.633 46.925 251.601 47.566ZM259.059 75.814C258.557 76.494 258.083 77.196 257.59 77.883C257.533 77.962 257.431 78.008 257.243 78.151C256.849 77.341 256.467 76.595 256.137 75.827C256.092 75.722 256.289 75.487 256.41 75.344C256.619 75.097 256.856 74.874 257.082 74.64C257.023 74.542 256.964 74.445 256.905 74.347C256.503 74.458 256.104 74.587 255.697 74.673C255.49 74.717 255.226 74.758 255.064 74.666C254.945 74.598 254.858 74.277 254.914 74.13C255.209 73.36 255.303 72.502 256.091 71.956C256.46 71.7 256.632 71.172 256.923 70.79C257.385 70.185 257.872 69.598 258.428 68.903C258.528 69.09 258.629 69.204 258.651 69.331C258.786 70.141 258.904 70.955 259.026 71.768C259.032 71.809 259.039 71.87 259.016 71.891C257.991 72.865 259.015 73.768 259.139 74.691C259.192 75.093 259.335 75.44 259.059 75.814ZM304.026 208.113C306.012 207.087 308.01 206.085 309.992 205.052C310.382 204.849 310.706 204.522 311.084 204.292C311.802 203.856 312.519 203.411 313.271 203.041C313.851 202.756 314.021 203.291 314.281 203.686C313.303 204.293 313.326 204.895 313.941 205.765C314.715 206.859 315.787 207.177 316.975 207.415C317.382 207.497 317.774 207.684 318.152 207.868C318.295 207.937 318.377 208.132 318.486 208.27C318.32 208.297 318.155 208.338 317.988 208.349C317.483 208.381 316.978 208.418 316.473 208.422C316.111 208.424 315.73 208.44 315.392 208.338C314.41 208.04 313.455 207.467 312.469 207.418C311.544 207.373 310.448 207.003 309.596 207.929C309.318 208.231 308.767 208.374 308.325 208.413C307.465 208.488 306.592 208.408 305.728 208.451C305.118 208.482 304.513 208.615 303.904 208.694C303.76 208.713 303.611 208.697 303.274 208.697C303.616 208.427 303.8 208.23 304.026 208.113Z" fill="#FF7F30"/>
<path d="M196.817 244.611C196.706 244.719 196.704 244.94 196.603 245.276C197.114 245.027 197.457 244.889 197.764 244.694C197.866 244.629 197.922 244.413 197.91 244.274C197.9 244.157 197.759 244.051 197.677 243.94C197.387 244.16 197.076 244.359 196.817 244.611Z" fill="#FFD630"/>
<path d="M179.097 178.281C170.612 178.281 163.708 171.378 163.708 162.892C163.708 162.339 164.155 161.892 164.708 161.892C165.261 161.892 165.708 162.339 165.708 162.892C165.708 170.275 171.714 176.281 179.097 176.281C186.48 176.281 192.486 170.275 192.486 162.892C192.486 162.339 192.933 161.892 193.486 161.892C194.039 161.892 194.486 162.339 194.486 162.892C194.486 171.378 187.583 178.281 179.097 178.281Z" fill="#333333"/>
<path d="M188.695 148.542C188.695 148.542 201.083 161.706 216.365 161.706C216.497 161.706 216.641 161.706 216.773 161.693C231.857 161.469 244.022 148.542 244.022 148.542C244.022 148.542 231.857 135.628 216.773 135.404C216.642 135.391 216.497 135.391 216.365 135.391C201.084 135.391 188.695 148.542 188.695 148.542Z" fill="white"/>
<path d="M219.692 148.542C217.22 151.093 215.76 154.039 215.76 157.195C215.76 158.747 216.102 160.259 216.773 161.693C231.857 161.469 244.022 148.542 244.022 148.542C244.022 148.542 231.857 135.628 216.773 135.404C216.102 136.838 215.76 138.35 215.76 139.902C215.76 143.045 217.22 145.99 219.692 148.542Z" fill="#333333"/>
<path d="M114.173 148.542C114.173 148.542 126.561 161.706 141.843 161.706C141.975 161.706 142.119 161.706 142.251 161.693C157.335 161.469 169.5 148.542 169.5 148.542C169.5 148.542 157.335 135.628 142.251 135.404C142.119 135.391 141.975 135.391 141.843 135.391C126.561 135.391 114.173 148.542 114.173 148.542Z" fill="white"/>
<path d="M145.17 148.542C142.698 151.093 141.238 154.039 141.238 157.195C141.238 158.747 141.58 160.259 142.251 161.693C157.335 161.469 169.5 148.542 169.5 148.542C169.5 148.542 157.335 135.628 142.251 135.404C141.58 136.838 141.238 138.35 141.238 139.902C141.238 143.045 142.697 145.99 145.17 148.542Z" fill="#333333"/>
<path d="M114.173 136.391C113.835 136.391 113.506 136.22 113.318 135.911C113.031 135.439 113.181 134.824 113.653 134.537L137.266 120.185C137.739 119.898 138.353 120.049 138.64 120.52C138.927 120.992 138.777 121.607 138.305 121.894L114.692 136.246C114.53 136.344 114.35 136.391 114.173 136.391Z" fill="#333333"/>
<path d="M244.021 136.391C243.844 136.391 243.665 136.344 243.502 136.246L219.888 121.894C219.416 121.607 219.266 120.992 219.553 120.52C219.84 120.049 220.455 119.898 220.927 120.185L244.541 134.537C245.013 134.824 245.163 135.439 244.876 135.911C244.688 136.22 244.359 136.391 244.021 136.391Z" fill="#333333"/>
<path d="M90.6239 232.935C93.3089 232.935 93.3139 228.762 90.6239 228.762C87.9379 228.762 87.9339 232.935 90.6239 232.935Z" fill="#FCFF40"/>
<path d="M117.364 217.015C120.049 217.015 120.054 212.842 117.364 212.842C114.679 212.841 114.674 217.015 117.364 217.015Z" fill="#FCFF40"/>
<path d="M87.0687 192.902C89.7537 192.902 89.7587 188.729 87.0687 188.729C84.3827 188.729 84.3787 192.902 87.0687 192.902Z" fill="#FCFF40"/>
<path d="M128.029 185.792C130.714 185.792 130.719 181.619 128.029 181.619C125.344 181.618 125.34 185.792 128.029 185.792Z" fill="#FCFF40"/>
<path d="M151.06 198.621C153.745 198.621 153.75 194.448 151.06 194.448C148.375 194.448 148.37 198.621 151.06 198.621Z" fill="#FCFF40"/>
<path d="M188.775 196.457C191.46 196.457 191.465 192.284 188.775 192.284C186.09 192.284 186.085 196.457 188.775 196.457Z" fill="#FCFF40"/>
<path d="M233.909 188.729C236.594 188.729 236.599 184.556 233.909 184.556C231.224 184.555 231.219 188.729 233.909 188.729Z" fill="#FCFF40"/>
<path d="M174.245 214.232C176.93 214.232 176.935 210.059 174.245 210.059C171.56 210.059 171.556 214.232 174.245 214.232Z" fill="#FCFF40"/>
<path d="M226.644 205.886C229.329 205.886 229.334 201.713 226.644 201.713C223.959 201.712 223.954 205.886 226.644 205.886Z" fill="#FCFF40"/>
<path d="M214.433 232.781C217.118 232.781 217.123 228.608 214.433 228.608C211.748 228.607 211.744 232.781 214.433 232.781Z" fill="#FCFF40"/>
<path d="M191.557 234.326C194.242 234.326 194.247 230.153 191.557 230.153C188.872 230.153 188.867 234.326 191.557 234.326Z" fill="#FCFF40"/>
<path d="M200.058 268.177C202.743 268.177 202.748 264.004 200.058 264.004C197.373 264.004 197.369 268.177 200.058 268.177Z" fill="#FCFF40"/>
<path d="M251.607 166.625C254.292 166.625 254.297 162.452 251.607 162.452C248.922 162.452 248.917 166.625 251.607 166.625Z" fill="#FCFF40"/>
<path d="M270.774 173.735C273.459 173.735 273.464 169.562 270.774 169.562C268.088 169.562 268.084 173.735 270.774 173.735Z" fill="#FCFF40"/>
<path d="M252.535 183.937C255.22 183.937 255.225 179.764 252.535 179.764C249.849 179.764 249.845 183.937 252.535 183.937Z" fill="#FCFF40"/>
<path d="M282.212 198.776C284.897 198.776 284.902 194.603 282.212 194.603C279.526 194.602 279.522 198.776 282.212 198.776Z" fill="#FCFF40"/>
<path d="M289.94 189.192C292.625 189.192 292.63 185.019 289.94 185.019C287.255 185.019 287.25 189.192 289.94 189.192Z" fill="#FCFF40"/>
<path d="M109.868 195.684C112.553 195.684 112.558 191.511 109.868 191.511C107.182 191.511 107.178 195.684 109.868 195.684Z" fill="#FCFF40"/>
<path d="M80.4219 159.747C83.1069 159.747 83.1119 155.574 80.4219 155.574C77.7369 155.574 77.7319 159.747 80.4219 159.747Z" fill="#FCFF40"/>
<path d="M277.961 148.618C280.646 148.618 280.651 144.445 277.961 144.445C275.276 144.445 275.271 148.618 277.961 148.618Z" fill="#FCFF40"/>
<path d="M320.854 125.433C323.539 125.433 323.544 121.26 320.854 121.26C318.169 121.259 318.164 125.433 320.854 125.433Z" fill="#FCFF40"/>
</svg>
