<svg viewBox="0 0 302 279" fill="none" xmlns="http://www.w3.org/2000/svg">
<path d="M150.664 262.677C149.016 264.588 146.084 264.807 144.173 263.158C146.084 264.806 146.317 267.724 144.654 269.649C143.006 271.575 140.088 271.793 138.177 270.13C140.088 271.793 140.307 274.71 138.658 276.621C137.01 278.546 134.092 278.765 132.167 277.117C132.167 277.117 108.668 258.096 98.5012 242.634C87.0652 225.261 76.8983 199.136 83.8413 165.47C84.1183 164.128 84.4242 162.801 84.7602 161.502H113.773C112.635 164.478 111.687 167.672 110.987 171.086C102.177 213.767 131.175 239.98 136.602 244.516L150.168 256.185C152.094 257.835 152.313 260.752 150.664 262.677Z" fill="#BA75FF"/>
<path d="M220.433 238.026C211.564 254.261 189.699 275.15 189.699 275.15C187.934 276.959 185.002 276.973 183.193 275.194C181.399 273.429 181.371 270.497 183.15 268.688C181.37 270.497 178.438 270.511 176.644 268.746C174.835 266.966 174.82 264.034 176.599 262.24C174.82 264.034 171.888 264.063 170.093 262.284C168.284 260.504 168.271 257.572 170.036 255.778L182.609 243.029C187.641 238.069 214.395 209.552 202.098 167.732C201.456 165.559 200.727 163.473 199.91 161.503H226.75C227.552 161.503 228.325 161.445 229.098 161.343C238.143 193.667 230.236 220.025 220.433 238.026Z" fill="#BA75FF"/>
<path d="M270.437 3.91136C270.304 4.71536 270.128 5.51435 270.003 6.32135C269.935 6.75935 269.992 7.21535 269.992 7.71235C269.711 7.54735 269.518 7.35936 269.298 7.31936C268.406 7.15736 268.125 6.60635 268.188 5.76735C268.203 5.57035 268.148 5.32135 268.031 5.16835C267.487 4.46236 267.686 3.76736 268.027 3.08136C268.038 3.05836 268.051 3.03636 268.062 3.01336C257.588 -0.617644 244.541 -1.14765 228.734 2.43435C225.308 3.21035 222.039 4.24736 218.913 5.50136C218.625 5.93336 218.32 6.35536 218.064 6.80436C217.816 7.23836 217.521 7.27135 217.184 6.99335C216.984 6.82835 216.8 6.65136 216.618 6.47336C211.206 8.88436 206.251 11.9674 201.717 15.5354C202.791 16.2284 202.755 17.0134 201.702 17.8404C200.787 18.5594 199.992 19.4274 199.109 20.1894C198.824 20.4354 198.436 20.6754 198.083 20.6954C197.816 20.7104 197.512 20.3894 197.269 20.1684C197.232 20.1344 197.415 19.8064 197.544 19.6564C197.823 19.3334 197.884 19.0864 197.762 18.8594C192.191 23.8524 187.316 29.5684 183.064 35.6074C183.232 35.5904 183.403 35.5784 183.511 35.4884C184.048 35.0424 184.518 34.5154 185.019 34.0244C185.349 33.7014 185.661 33.3514 186.028 33.0764C186.492 32.7284 186.976 32.3764 187.506 32.1574C187.844 32.0174 188.281 32.1164 188.673 32.1084C188.605 32.4994 188.632 32.9474 188.442 33.2644C188.27 33.5514 187.887 33.7994 187.551 33.8884C185.749 34.3644 184.782 35.8044 183.733 37.1364C183.211 37.7984 182.839 38.5784 182.322 39.2444C181.871 39.8254 181.24 40.2704 180.818 40.8674C180.212 41.7244 179.715 42.6604 179.187 43.5714C178.59 44.5994 178.105 44.8494 177.432 44.3624C161.859 70.8264 156.836 99.5394 156.836 99.5394C156.836 99.5394 147.199 75.5354 128.241 52.6164C127.764 53.0874 127.342 53.4244 127.046 53.5244C126.984 53.3904 126.877 53.2574 126.862 53.1144C126.776 52.3014 126.692 51.4884 126.611 50.6754C122.908 46.3354 118.869 42.0634 114.494 38.0254C114.28 38.0854 114.06 38.1404 113.857 38.2124C113.263 38.4234 112.682 38.6944 112.467 39.4004C112.423 39.5444 112.186 39.6704 112.015 39.7144C111.952 39.7304 111.799 39.4984 111.728 39.3584C111.62 39.1474 111.54 38.9204 111.46 38.6964C111.26 38.1384 111.04 37.5784 112.008 37.5634C112.167 37.5604 112.372 37.4184 112.472 37.2794C112.688 36.9814 112.931 36.8594 113.197 36.8394C105.317 29.7584 96.3811 23.4874 86.4071 18.9694C86.4141 18.9784 86.417 18.9954 86.424 19.0024C87.151 19.7084 87.9331 20.3604 88.7231 20.9974C89.4051 21.5464 90.2481 21.9424 90.4641 23.0644C89.9681 22.8284 89.5191 22.7054 89.1861 22.4394C88.0811 21.5564 87.045 20.5874 85.929 19.7194C85.337 19.2594 84.6541 18.9014 83.9741 18.5744C83.6391 18.4134 83.0401 18.5674 82.8681 18.3434C82.5401 17.9144 82.1631 17.5034 81.8621 17.0524C69.2841 12.1994 55.1511 10.1954 39.4841 12.8064C35.7511 13.4274 32.1481 14.6994 28.7371 16.5264C28.9351 16.5334 29.1391 16.5654 29.3581 16.6554C29.5201 16.7224 29.7331 16.6754 29.9211 16.6644C30.9131 16.6084 30.924 16.6094 30.663 17.5614C30.58 17.8634 30.4611 18.1784 30.2761 18.4254C29.9561 18.8534 29.6031 19.2184 28.9671 18.8334C28.3101 18.4364 27.5961 18.0794 26.7921 17.6614C22.0601 20.5574 17.745 24.5464 14.022 29.3984C14.031 29.4024 14.0411 29.4054 14.0501 29.4104C15.4921 30.0704 16.8611 30.8884 18.2631 31.6364C18.2661 31.6954 18.2701 31.7554 18.2731 31.8144C17.4361 31.9654 16.602 32.1314 15.762 32.2544C15.613 32.2764 15.3121 32.1424 15.2941 32.0424C15.0901 30.9084 13.968 30.9604 13.272 30.5204C13.251 30.5074 13.2281 30.4974 13.2081 30.4844C11.3221 33.0674 9.60412 35.8774 8.07112 38.8794C8.45412 39.5154 8.63408 40.2914 8.94808 40.9814C9.21108 41.5584 9.57105 42.0914 9.85005 42.6614C9.97905 42.9244 10.0201 43.2314 10.1001 43.5184C10.0261 43.5684 9.95103 43.6184 9.87703 43.6694C9.28903 43.1264 8.67812 42.6064 8.11812 42.0364C7.69512 41.6054 7.33011 41.3184 6.98811 41.0994C-1.73788 59.8654 -3.27085 85.4124 8.12215 110.29C8.58915 111.326 9.07013 112.347 9.58113 113.353C25.3061 145.998 49.3301 169.279 74.0841 185.456C111.281 209.787 150.125 218.116 165.033 218.116C175.813 218.116 207.947 212.121 240.272 183.983C256.259 170.082 272.29 150.769 285.798 124.089C287.534 120.676 289.124 117.219 290.583 113.732C309.497 68.4484 305.262 18.0954 270.437 3.91136ZM4.06612 58.7144C3.66112 58.8534 3.25603 58.9924 2.85103 59.1324C2.77003 59.0514 2.69009 58.9704 2.60909 58.8884C2.77009 58.5704 2.88413 58.0354 3.10213 57.9894C3.38413 57.9294 3.74908 58.2594 4.07808 58.4224C4.07508 58.5194 4.07012 58.6174 4.06612 58.7144ZM9.10811 77.3994C8.99911 77.3964 8.88911 77.3944 8.78011 77.3914C7.28211 75.4644 5.78404 73.5374 4.28304 71.6064C6.35504 71.8184 8.41409 72.0294 10.5931 72.2514C10.1731 74.0484 8.39811 75.3354 9.10811 77.3994ZM18.1241 94.5924C16.5511 95.7714 14.9901 96.9664 13.4211 98.1504C13.3661 98.1914 13.2711 98.1784 13.1771 98.1934C13.0471 97.0434 13.8421 96.2784 14.2871 95.3784C14.8811 94.1754 15.474 92.9704 16.101 91.7844C16.274 91.4584 16.57 91.1964 16.809 90.9054C17.098 91.1774 17.4621 91.4034 17.6601 91.7304C17.9871 92.2704 18.2081 92.8764 18.4741 93.4544C18.6981 93.9384 18.5351 94.2844 18.1241 94.5924ZM17.8271 62.1974C16.7931 62.6834 15.7951 62.3954 14.5011 62.2224C14.8741 61.9064 15.0591 61.6284 15.3021 61.5624C16.8581 61.1394 18.4231 60.7494 19.9921 60.3794C20.4381 60.2744 21.4381 61.1954 21.3961 61.6604C21.3801 61.8304 21.2001 62.1124 21.0761 62.1234C20.3971 62.1814 19.7121 62.1754 19.0291 62.1824C18.6241 62.1874 18.1571 62.0424 17.8271 62.1974ZM24.5661 72.8724C23.1521 72.6024 21.7421 72.3134 20.3311 72.0314C20.3291 71.9264 20.3261 71.8224 20.3241 71.7174C21.7451 71.3984 23.157 71.0314 24.59 70.7814C25.217 70.6714 25.4891 71.1934 25.4791 72.1194C25.4721 72.7624 25.1481 72.9834 24.5661 72.8724ZM24.3371 42.2104C23.9971 42.6934 23.6041 42.5354 23.3021 42.2974C22.6201 41.7604 22.0001 41.1434 21.3431 40.5734C21.1241 40.3834 20.8821 40.2064 20.6241 40.0774C19.8731 39.7004 19.3031 39.8574 18.8841 40.5934C18.6501 41.0034 18.5531 41.4934 18.3111 41.8964C18.1881 42.1004 17.8941 42.2564 17.6491 42.3114C17.5201 42.3404 17.275 42.1414 17.179 41.9854C16.722 41.2434 15.5311 40.9244 14.7501 41.3644C13.7651 41.9204 12.8421 41.4374 12.6701 40.1674C13.3271 40.2364 13.9581 40.3524 14.5891 40.3564C15.2811 40.3614 16.0031 40.3704 16.6611 40.1894C17.9451 39.8354 19.177 39.2944 20.46 38.9344C21.522 38.6364 22.626 38.4924 23.71 38.2724C24.268 38.1594 24.8231 38.0294 25.3851 37.9064C25.7131 39.5824 25.2311 40.9414 24.3371 42.2104ZM34.184 21.0204C34.193 20.6004 34.5771 20.1784 34.8341 19.7814C34.9041 19.6734 35.112 19.6544 35.429 19.5234C35.932 20.4064 36.4401 21.2974 36.9731 22.2324C36.0541 22.4304 34.174 21.4634 34.184 21.0204ZM36.424 92.2314C35.893 91.9954 35.3621 91.7584 34.8311 91.5224C34.8921 91.4164 34.9541 91.3094 35.0161 91.2034C35.5271 91.4594 36.0391 91.7154 36.5501 91.9714C36.5081 92.0584 36.466 92.1454 36.424 92.2314ZM38.3701 43.0054C38.0101 42.8654 37.5911 42.8714 37.1961 42.8274C36.5301 42.7534 36.0691 42.8894 35.9801 43.7094C35.9121 44.3344 35.3731 44.3624 34.7471 44.2304C34.9341 43.0934 35.0901 41.9774 35.3121 40.8744C35.4131 40.3714 35.7531 40.2704 36.2191 40.5464C36.8781 40.9364 37.5551 41.1774 38.3621 41.2594C39.0301 41.3264 39.6461 41.9084 40.3081 42.2744C39.7521 43.0774 39.1791 43.3204 38.3701 43.0054ZM81.6821 93.0994C81.0141 93.6824 80.359 94.2524 79.705 94.8224C79.913 93.3994 80.8741 92.6564 81.6821 93.0994ZM63.5601 20.5824C63.9091 20.7744 64.2761 20.9344 64.6171 21.1394C64.7521 21.2204 64.8361 21.3864 64.9421 21.5134C64.8041 21.6214 64.6801 21.7634 64.5241 21.8274C64.3831 21.8854 64.2061 21.8654 64.0451 21.8664C63.3371 21.8704 62.6211 21.9344 61.9251 21.8454C61.4981 21.7914 61.1021 21.4994 60.6351 21.2884C61.8811 19.8844 62.1901 19.8264 63.5601 20.5824ZM52.3081 13.4314C52.5781 13.4584 52.856 13.4524 53.116 13.5184C53.975 13.7374 54.8181 14.0384 55.6871 14.1954C56.1371 14.2764 56.6301 14.1144 57.1041 14.0704C58.2591 13.9624 58.758 14.8524 59.371 15.5674C59.693 15.9434 60.019 16.3174 60.439 16.8034C60.248 17.0844 60.0021 17.4464 59.6881 17.9084C59.3001 17.6274 58.9761 17.3934 58.6171 17.1334C58.0991 17.4264 57.8051 17.3124 57.6481 16.6634C57.5861 16.4084 57.583 16.1304 57.476 15.8974C57.363 15.6514 57.1591 15.4464 56.9951 15.2234C56.8071 15.3774 56.5911 15.5074 56.4371 15.6894C55.9931 16.2114 55.6461 16.2084 55.1241 15.7464C54.9681 15.6084 54.6541 15.6364 54.4101 15.6124C54.1851 15.5904 53.8521 15.6964 53.7481 15.5814C53.1901 14.9634 52.6901 14.2954 52.1691 13.6444C52.2151 13.5724 52.2611 13.5024 52.3081 13.4314ZM59.1621 22.7354C58.9961 22.1964 58.8431 21.6984 58.6311 21.0104C60.0171 21.7754 60.0831 22.0264 59.1621 22.7354ZM48.012 85.3224C47.728 85.8254 47.3771 85.8184 47.0631 85.3324C46.6101 84.6294 46.35 83.9504 47.2 83.2714C48.256 83.9414 48.474 84.5044 48.012 85.3224ZM47.8461 78.8894C47.3721 79.2154 47.5231 79.6234 47.5871 80.0174C47.6981 80.6944 47.4411 80.9554 46.7861 80.7734C46.6591 80.7384 46.5321 80.7014 46.4071 80.6604C45.3931 80.3264 45.3541 80.2104 45.7751 79.1964C45.9971 78.6624 46.1251 78.0864 46.3721 77.5654C46.7621 76.7434 47.2301 76.5304 47.9461 76.9934C48.4061 77.2904 48.7781 77.4844 49.3031 77.3104C49.3421 77.2974 49.4211 77.4074 49.5511 77.5224C48.9681 77.9964 48.4361 78.4844 47.8461 78.8894ZM55.5871 78.7204C55.4821 78.7264 55.328 78.7354 55.278 78.6754C54.591 77.8554 53.9131 78.3834 53.2961 78.7334C52.6291 79.1114 52.0581 79.1034 51.4581 78.5794C52.1761 76.5384 56.7141 74.0404 59.4381 74.2114C58.9761 74.9674 58.5421 75.6844 58.1021 76.3974C57.9631 76.6214 57.7541 76.8194 57.6751 77.0604C57.4091 77.8814 56.4491 78.6724 55.5871 78.7204ZM53.7821 69.4144C53.8781 68.3384 54.1861 68.0304 55.0141 68.0634C55.1421 68.9614 54.3211 68.9564 53.7821 69.4144ZM59.382 106.654C59.307 107.028 58.8161 107.434 58.4211 107.599C57.9601 107.791 57.4361 107.556 57.4941 106.948C57.5871 105.978 57.655 104.959 58.017 104.078C58.242 103.531 58.9921 103.199 59.5061 102.771C59.6091 102.852 59.712 102.934 59.814 103.015C59.684 104.231 59.62 105.46 59.382 106.654ZM57.6091 65.5154C57.0911 65.5574 56.5501 65.0024 55.9851 64.8334C54.6781 64.4414 53.9171 63.3944 53.0371 62.4914C52.5271 61.9674 52.8371 61.4754 53.1851 61.0034C53.5261 60.5414 53.9191 60.6634 54.3161 60.8894C55.4891 61.5584 56.6481 62.2524 57.8311 62.9024C58.6351 63.3444 59.471 63.7284 60.34 64.1624C59.752 65.2554 58.6421 65.4314 57.6091 65.5154ZM62.4591 45.0514C61.9951 45.8164 61.5181 46.5754 60.9981 47.3024C60.7891 47.5944 60.453 47.7954 60.174 48.0384C60.127 47.6584 59.928 47.2094 60.064 46.9124C60.354 46.2794 60.0241 45.8434 59.8161 45.3354C59.6671 44.9694 59.576 44.5804 59.46 44.2014C59.965 44.0984 60.466 43.9484 60.976 43.9034C61.579 43.8514 62.1901 43.8914 63.0351 43.8914C62.8751 44.2184 62.6991 44.6554 62.4591 45.0514ZM64.1191 43.7104C63.9181 43.4094 63.8481 42.9904 63.8361 42.6154C63.8331 42.5264 64.2661 42.3334 64.4901 42.3454C64.9331 42.3684 65.3711 42.5004 66.1191 42.6484C65.6451 43.0604 65.3431 43.4054 64.9671 43.6224C64.7281 43.7584 64.1961 43.8264 64.1191 43.7104ZM72.8541 96.0424C72.3771 95.1134 71.7971 94.8774 70.8341 95.0944C69.3431 95.4314 67.8301 95.6294 66.5351 96.5344C66.4581 96.5884 66.3271 96.5814 66.2231 96.5744C65.6301 96.5384 65.0371 96.4934 64.4091 96.4494C64.4971 96.3504 64.62 96.1684 64.783 96.0354C65.575 95.3894 66.363 94.7384 67.179 94.1244C67.997 93.5084 67.577 92.7294 67.528 91.9884C67.507 91.6644 67.5541 91.3354 67.5701 91.0094C67.8671 91.0404 68.2011 90.9964 68.4561 91.1174C69.6111 91.6664 70.7291 92.2934 71.8891 92.8304C72.6431 93.1804 73.4461 93.4244 74.3691 93.7694C74.4821 94.7314 73.6341 95.2944 72.8541 96.0424ZM75.0671 84.8094C74.9841 84.7564 74.9001 84.7034 74.8171 84.6494C74.8981 84.2964 74.9791 83.9444 75.0601 83.5914C75.1421 83.5774 75.2251 83.5634 75.3071 83.5494C75.4301 83.8074 75.6621 84.0764 75.6391 84.3204C75.6221 84.5004 75.2691 84.6474 75.0671 84.8094ZM76.158 19.3654C76.821 19.0204 77.634 18.5974 78.575 18.1074C78.755 18.5234 79.007 19.0904 79.241 19.6634C79.277 19.7514 79.2741 19.9144 79.2171 19.9734C78.6351 20.5744 78.0391 21.1604 77.4941 21.7034C77.0141 20.8644 76.601 20.1424 76.158 19.3654ZM78.142 109.512C78.102 108.087 79.061 107.383 80.002 106.608C81.015 105.774 81.9161 104.806 82.8911 103.923C83.2581 103.59 83.6921 103.331 84.0961 103.038C84.1641 103.108 84.2321 103.179 84.3001 103.249C82.2571 105.326 80.215 107.403 78.142 109.512ZM138.999 72.4184C138.413 72.5604 137.956 72.6714 137.427 72.8004C137.713 71.8004 137.983 71.7314 138.999 72.4184ZM135.185 70.4554C135.753 70.9264 136.203 71.2994 136.803 71.7964C135.994 72.0654 135.378 72.2714 134.635 72.5184C134.85 71.7114 134.999 71.1534 135.185 70.4554ZM88.0321 73.2454C87.9961 73.9174 87.6731 73.9984 87.2081 73.6744C86.7931 73.3864 86.4461 72.9994 85.9351 72.5354C86.7001 71.5454 87.4121 70.6234 88.1241 69.7024C88.1801 69.7454 88.237 69.7874 88.293 69.8304C88.204 70.9684 88.0931 72.1054 88.0321 73.2454ZM91.1261 33.6154C90.6731 34.0154 90.2591 34.3084 89.9381 34.6814C89.4481 35.2494 89.5751 35.5204 90.2871 35.6834C90.5191 35.7364 90.7251 35.9044 90.9431 36.0204C90.9281 36.0904 90.9141 36.1604 90.8991 36.2304C90.2421 36.1994 89.5841 36.1684 88.9361 36.1374C88.3911 34.3894 89.5001 33.3124 91.1261 33.6154ZM89.6561 97.2414C89.5351 96.9314 89.4131 96.6204 89.2241 96.1364C89.8711 95.8434 90.5231 95.6084 91.1051 95.2584C91.3931 95.0854 91.5371 94.6854 91.7761 94.4134C91.9971 94.1624 92.2571 93.9454 92.6461 93.5734C92.7151 94.6774 90.8391 96.8014 89.6561 97.2414ZM94.5201 28.9054C94.4611 29.6504 94.4281 30.3974 94.3541 31.1404C94.3191 31.4944 94.2131 31.8414 94.1401 32.1914C94.0231 32.2134 93.9071 32.2364 93.7911 32.2584C93.7211 32.0074 93.6081 31.7594 93.5911 31.5044C93.5501 30.9094 93.6551 30.2854 93.5161 29.7194C93.3061 28.8634 92.9031 28.0564 92.6561 27.2064C92.5681 26.9054 92.6811 26.5394 92.7291 26.2074C92.7861 25.8154 92.8731 25.4274 92.9941 24.7924C93.3791 25.0644 93.7311 25.2374 93.9821 25.5034C94.9241 26.5054 94.6141 27.7264 94.5201 28.9054ZM108.112 61.8964C108.285 61.3824 108.458 60.8684 108.678 60.2134C109.346 60.9644 109.24 61.2974 108.112 61.8964ZM119.732 71.4124C119.718 71.1324 119.751 70.9214 119.689 70.7454C119.549 70.3494 119.276 70.1294 118.864 70.4074C118.643 70.5564 118.487 70.7974 118.276 70.9644C117.767 71.3664 117.244 71.7374 116.729 70.9644C116.714 70.9424 116.692 70.9124 116.67 70.9104C115.415 70.7594 114.957 69.7434 114.434 68.8204C114.154 68.3264 113.879 67.8094 113.733 67.2674C113.577 66.6884 113.303 66.3874 112.723 66.1824C112.163 65.9844 111.644 65.6094 111.185 65.2184C110.982 65.0454 110.973 64.6434 110.838 64.2294C111.598 64.3784 112.175 64.4544 112.727 64.6144C112.993 64.6914 113.346 64.8744 113.431 65.0964C113.869 66.2494 114.84 66.4924 115.882 66.7074C116.522 66.8394 117.149 67.0564 117.764 67.2844C118.454 67.5414 118.634 68.1624 118.731 68.8154C118.753 68.9644 118.764 69.1154 118.766 69.1394C119.255 68.8464 119.675 68.4054 120.128 68.3684C120.721 68.3204 121.3 68.6454 121.447 69.1734C120.848 69.9564 120.326 70.6374 119.732 71.4124ZM120.862 66.1964C120.005 65.5644 120.09 65.2684 121.456 64.1154C121.986 64.5754 121.846 65.0664 120.862 66.1964ZM127.598 67.3604C126.352 67.6984 125.103 68.1334 123.792 67.6684C123.136 67.4354 122.7 67.0584 122.774 66.2534C122.826 65.6874 122.918 65.0564 122.238 64.6984C122.186 64.6714 122.253 64.2034 122.327 64.1844C123.022 64.0034 122.568 62.5944 123.614 62.9234C124.146 63.0904 124.623 63.4994 125.063 63.8724C125.564 64.2974 125.986 64.8144 126.462 65.2714C126.992 65.7814 127.449 66.4324 128.361 66.2564C128.484 66.2324 128.665 66.5104 128.981 66.7944C128.414 67.0314 128.02 67.2464 127.598 67.3604ZM129.773 68.8844C129.576 68.1154 129.449 67.6174 129.313 67.0884C130.005 66.8424 130.334 67.3914 130.521 67.8124C130.602 67.9934 130.107 68.4284 129.773 68.8844ZM135.056 101.896C134.305 102.355 132.969 102.13 132.373 101.453C133.798 101.631 134.1 100.251 134.98 99.6324C135.153 100.187 135.366 100.668 135.43 101.167C135.459 101.397 135.262 101.77 135.056 101.896ZM136.75 121.919C137.692 121.64 138.633 121.36 139.675 121.051C139.444 122.314 138.405 122.63 136.75 121.919ZM141.883 116.116C141.356 115.838 140.932 115.615 140.508 115.391C140.772 115.242 141.021 115.007 141.302 114.961C141.986 114.846 142.021 115.303 141.883 116.116ZM147.115 122.725C146.923 122.486 146.732 122.248 146.54 122.009C146.655 121.896 146.77 121.784 146.886 121.672C147.086 121.857 147.329 122.017 147.46 122.242C147.501 122.312 147.239 122.559 147.115 122.725ZM179.883 83.9494C179.275 83.9944 178.667 84.0534 178.058 84.0634C177.605 84.0714 177.125 84.0944 176.701 83.9654C175.469 83.5934 174.273 82.8734 173.037 82.8114C171.878 82.7544 170.505 82.2814 169.434 83.4384C169.083 83.8174 168.397 84.0024 167.844 84.0514C166.766 84.1474 165.672 84.0454 164.588 84.1004C163.823 84.1394 163.065 84.3064 162.302 84.4044C162.119 84.4284 161.93 84.4084 161.744 84.4084C161.719 84.3394 161.693 84.2694 161.668 84.2004C162.023 83.9954 162.371 83.7784 162.733 83.5874C165.398 82.1764 168.081 80.7974 170.726 79.3494C171.673 78.8304 172.49 78.0744 173.439 77.5594C174.48 76.9954 174.617 77.0924 175.223 78.0414C174.942 78.3754 174.6 78.6614 174.418 79.0264C174.169 79.5264 174.184 80.0384 174.659 80.4834C174.964 80.7694 175.114 81.2554 175.45 81.4654C176.17 81.9144 176.946 82.2914 177.736 82.6034C178.492 82.9014 179.306 83.0524 180.074 83.3254C180.28 83.3984 180.412 83.6804 180.577 83.8664C180.346 83.8954 180.115 83.9324 179.883 83.9494ZM181.186 91.5604C181.07 91.5144 180.955 91.4674 180.839 91.4214C181.03 91.0304 180.67 90.4174 181.658 90.3424C181.501 90.7484 181.343 91.1544 181.186 91.5604ZM188.604 67.8074C187.836 68.2024 187.244 68.5124 186.647 68.8134C186.091 69.0944 185.531 69.3654 184.827 69.7124C185.35 68.7194 187.536 67.6074 188.604 67.8074ZM191.373 72.4614C191.167 72.9384 190.936 73.4394 190.896 73.9434C190.853 74.4844 190.615 74.6864 190.157 74.6534C188.854 74.5594 187.511 74.5864 186.27 74.2484C185.547 74.0514 184.99 73.2454 184.282 72.6494C185.085 72.1204 185.754 71.9244 186.531 72.2274C186.818 72.3384 187.213 72.4594 187.454 72.3474C188.136 72.0304 188.465 72.3864 188.754 72.8814C189.062 73.4094 189.388 73.2314 189.616 72.8714C189.823 72.5454 190.048 72.1304 190.02 71.7744C189.958 70.9954 190.283 70.5554 190.892 70.1374C191.594 69.6554 192.211 69.0494 192.865 68.4974C192.936 68.5494 193.008 68.6014 193.079 68.6534C192.508 69.9214 191.924 71.1844 191.373 72.4614ZM191.166 45.3144C190.349 44.7884 189.42 44.1534 188.452 43.5834C187.843 43.2244 187.183 42.9464 186.531 42.6644C186.078 42.4684 185.992 42.2114 186.369 41.8984C186.878 41.4764 187.41 41.0784 187.958 40.7094C188.981 40.0214 189.02 40.0374 189.941 41.0474C189.381 41.5154 189.513 41.8554 190.055 42.1914C190.19 42.2744 190.242 42.6004 190.222 42.8034C190.165 43.3674 190.295 43.6984 190.948 43.6374C191.376 43.5974 191.809 43.6204 192.238 43.5884C192.612 43.5604 192.983 43.4964 193.353 43.4484C192.617 44.0764 191.93 44.6624 191.166 45.3144ZM193.824 40.4234C193.479 40.9174 191.633 41.2684 191.147 40.9094C191.021 40.8164 190.908 40.4764 190.974 40.3904C191.551 39.6384 192.297 39.1344 193.285 39.2714C193.566 39.3104 193.808 39.6354 194.05 39.8164C193.934 40.1364 193.909 40.3004 193.824 40.4234ZM195.899 26.7854C194.89 27.6274 193.841 28.4204 192.775 29.2504C192.032 28.1264 192.043 27.9674 192.978 27.3944C193.742 26.9264 194.53 26.4974 195.327 26.0874C195.495 26.0004 195.746 26.0744 195.959 26.0734C195.945 26.3174 196.028 26.6784 195.899 26.7854ZM205.154 76.3824C205.739 77.7574 205.67 77.8484 203.852 77.9934C204.332 77.4004 204.727 76.9114 205.154 76.3824ZM208.519 94.1374C208.443 94.2054 208.245 94.1934 208.127 94.1494C206.844 93.6804 205.623 94.0394 204.376 94.3724C205.653 93.4184 206.93 92.4644 208.291 91.4464C208.514 92.2614 208.727 92.9364 208.865 93.6264C208.894 93.7734 208.672 94.0004 208.519 94.1374ZM208.724 78.5264C208.25 78.5344 207.774 78.3814 207.273 78.2074C207.905 77.8534 208.196 77.4934 207.976 76.7404C207.898 76.4744 208.431 76.0304 208.727 75.6074C208.913 76.4834 209.107 77.1924 209.187 77.9144C209.209 78.1104 208.891 78.5234 208.724 78.5264ZM211.671 11.4494C211.005 11.6134 210.341 11.7864 209.67 11.9214C209.623 11.9304 209.429 11.5524 209.455 11.5314C209.814 11.2244 210.168 10.7984 210.587 10.7124C210.92 10.6444 211.339 11.0024 211.721 11.1714C211.703 11.2634 211.687 11.3564 211.671 11.4494ZM215.729 14.1524C215.714 13.3544 216.219 12.8024 216.679 12.2374C216.745 12.1564 216.927 12.1184 217.043 12.1384C217.437 12.2054 218.697 13.7104 218.767 14.1534C217.775 14.1524 216.781 14.1524 215.729 14.1524ZM220.562 9.88636C220.461 9.80336 220.309 9.68735 220.311 9.58835C220.328 8.59635 220.372 7.60436 220.408 6.61236C220.498 6.60936 220.587 6.60735 220.677 6.60435C221.949 7.99835 221.936 9.88035 222.666 11.5864C221.885 10.9584 221.221 10.4254 220.562 9.88636ZM223.817 18.1234C223.663 17.9784 223.432 17.8604 223.37 17.6824C223.163 17.0894 222.774 16.4244 223.783 16.0004C223.919 16.5354 224.087 17.0134 224.142 17.5044C224.164 17.6964 223.933 17.9164 223.817 18.1234ZM236.662 10.4494C236.049 10.4004 235.513 10.3654 234.979 10.3084C234.861 10.2954 234.646 10.1754 234.652 10.1534C234.801 9.61936 234.827 8.93735 235.18 8.60035C235.658 8.14235 235.89 8.75235 236.081 9.14435C236.278 9.54835 236.482 9.94936 236.67 10.3574C236.697 10.4164 236.654 10.5094 236.662 10.4494ZM240.193 12.8794C239.91 13.0954 239.454 13.4624 239.28 13.3704C238.754 13.0934 238.313 12.6404 237.892 12.2044C237.855 12.1654 238.204 11.7524 238.311 11.6014C239.057 11.7544 239.577 11.8394 240.082 11.9754C240.263 12.0244 240.557 12.2174 240.543 12.3074C240.512 12.5144 240.364 12.7484 240.193 12.8794ZM263.504 19.8484C263.092 20.2104 262.758 20.6604 262.195 21.2874C261.933 20.4414 261.664 19.8114 261.557 19.1544C261.463 18.5814 261.948 18.1894 262.502 18.3114C262.832 18.3844 263.168 18.5094 263.455 18.6864C264.109 19.0924 264.08 19.3414 263.504 19.8484ZM289.198 22.5434C289.971 22.4414 290.744 22.3384 291.518 22.2364C290.839 23.1144 290.057 23.2054 289.198 22.5434Z" fill="#BA75FF"/>
<path d="M200.308 18.0244C200.6 17.5114 200.724 16.9054 200.951 16.3524C201.002 16.2274 201.073 16.1104 201.135 15.9904C200.186 16.7514 199.259 17.5354 198.347 18.3374C198.443 18.4064 198.554 18.4804 198.698 18.5714C199.327 18.9704 199.845 18.8374 200.308 18.0244Z" fill="#BA75FF"/>
<mask id="mask0_206_2795" style="mask-type:luminance" maskUnits="userSpaceOnUse" x="0" y="0" width="302" height="219">
<path d="M290.581 113.731C289.122 117.217 287.532 120.674 285.796 124.088C272.289 150.767 256.258 170.08 240.27 183.982C207.946 212.12 175.811 218.115 165.031 218.115C150.123 218.115 111.279 209.786 74.0822 185.455C49.3282 169.278 25.3042 145.998 9.57917 113.352C9.06917 112.345 8.58718 111.324 8.12018 110.289C-12.5348 65.1864 9.24324 17.8384 39.4822 12.8054C116.865 -0.0896387 156.833 99.5384 156.833 99.5384C156.833 99.5384 171.536 15.3864 228.731 2.43336C300.384 -13.8016 315.394 54.3334 290.581 113.731Z" fill="white"/>
</mask>
<g mask="url(#mask0_206_2795)">
<path d="M357.076 22.1933C350.244 21.6153 344.222 28.1533 339.7 32.4203C329.387 42.1533 319.682 53.8033 305.266 57.2323C303.18 57.7283 301.051 57.9793 298.934 58.0013C301.206 53.2983 303.089 48.4133 304.461 43.3503C308.106 29.8993 307.934 15.2353 302.84 2.16932C300.345 -4.22968 296.763 -10.1747 292.015 -15.1607C287.631 -19.7637 280.671 -24.2637 274.088 -21.7777C268.01 -19.4827 265.947 -12.9827 265.316 -7.07068C264.459 0.951322 265.048 9.33532 266.044 17.3163C267.697 30.5693 270.599 46.5543 281.242 55.8083C284.636 58.7593 288.449 60.5503 292.436 61.4313C291.224 63.5843 289.938 65.6913 288.584 67.7413C284.737 73.5683 280.366 79.3273 275.362 84.2173C271.257 88.2293 263.843 92.8353 259.294 86.7913C255.968 82.3723 256.219 75.8613 256.42 70.6333C256.743 62.2373 257.065 53.8403 257.388 45.4433C258.039 28.5193 258.689 11.5943 259.34 -5.32968C259.501 -9.52768 259.663 -13.7267 259.824 -17.9247C259.92 -20.4187 256.51 -20.5637 255.725 -18.4797C245.809 7.86132 235.894 34.2033 225.978 60.5443C225.378 62.1373 224.781 63.7313 224.179 65.3223C224.09 65.5573 223.983 65.8913 223.853 66.2553C223.179 57.0233 221.055 47.9103 217.523 39.3223C217.451 31.5633 215.64 23.7013 212.998 16.7013C207.391 1.84632 197.753 -11.0217 187.625 -23.0827C185.093 -26.0987 182.512 -29.0727 179.924 -32.0407C178.475 -33.7007 176.004 -31.9087 176.436 -30.0107C178.751 -19.8527 181.54 -9.80668 184.775 0.0933189C180.271 -2.85868 175.502 -5.38968 170.524 -7.46968C167.182 -8.86568 163.706 -10.1897 160.171 -11.0087C156.769 -11.7977 153.284 -11.5157 150.676 -8.99268C146.085 -4.55068 146.605 3.01132 146.958 8.80932C147.505 17.7963 148.209 26.8483 150.366 35.6163C153.844 49.7523 162.009 64.2153 175.983 70.1323C188.618 75.4823 203.801 72.6473 211.622 61.1353C212.384 62.4893 213.121 63.8583 213.902 65.2023C215.305 67.6173 216.673 70.4933 219.154 71.9963C219.405 72.1483 219.665 72.2713 219.928 72.3793C219.953 79.0353 219.215 85.6793 217.662 92.1583C216.805 95.7303 215.715 99.2483 214.388 102.674C213.241 105.633 211.818 108.653 209.55 110.928C203.544 116.952 196.951 109.959 192.566 105.54C187.226 100.157 182.357 94.3153 178.053 88.0733C175.915 84.9733 173.921 81.7783 172.051 78.5103C171.195 77.0153 168.618 77.2253 168.237 79.0093C166.31 88.0393 164.336 97.4673 158.931 105.156C154.387 111.62 146.266 116.919 138.08 115.623C130.871 114.481 126.026 108.6 123.232 102.255C120.914 96.9903 119.864 91.3023 119.408 85.5773C119.687 85.5043 119.971 85.4413 120.244 85.3543C129.93 82.2833 133.762 72.5523 135.891 63.4753C137.076 58.4193 138.75 52.6543 137.053 47.5223C135.725 43.5083 131.95 39.9173 127.519 40.0153C122.812 40.1183 120.1 44.2803 118.774 48.3003C117.026 53.6003 116.234 59.3663 115.61 64.8963C114.981 70.4643 114.683 76.2273 114.922 81.9483C113.799 81.9053 112.689 81.6943 111.651 81.2313C107.979 79.5923 106.564 75.5063 106.175 71.7823C105.646 66.7223 106.21 61.4803 106.6 56.4283C107.052 50.5863 107.704 44.7593 108.576 38.9653C108.81 37.4133 109.095 35.8713 109.358 34.3243C112.156 29.0073 114.293 23.3603 115.427 17.3133C116.22 13.0833 116.504 8.79332 116.18 4.50032C116.008 2.21432 112.773 1.59432 112.081 3.94532C109.285 13.4443 107.043 23.0973 105.368 32.8543C102.198 38.8193 98.163 44.3893 93.762 49.4463C88.328 55.6893 82.3451 61.4393 76.3491 67.1363C75.6691 67.7823 74.9681 68.4443 74.2501 69.1073C77.5501 59.2543 79.3771 48.9043 79.7131 38.5193C80.2391 22.2303 77.0721 5.84732 70.2761 -8.97768C67.3161 -15.4337 63.2991 -24.5387 55.7811 -26.6587C47.6821 -28.9417 43.02 -20.9957 40.564 -14.6737C33.712 2.95932 30.605 22.1183 31.397 41.0133C31.953 54.2863 33.9041 71.9823 46.3581 79.8263C52.7311 83.8393 59.05 83.2973 64.976 80.5923C64.487 81.5573 63.9871 82.5173 63.4671 83.4653C61.7161 86.6593 59.878 90.0243 57.386 92.7083C54.752 95.5443 51.3581 96.9283 47.5231 95.8953C43.8011 94.8933 40.592 92.3573 37.855 89.7363C29.488 81.7223 22.6801 72.1453 17.5371 61.7093C18.3401 55.5353 18.955 49.3323 19.127 43.1053C19.481 30.2613 17.9651 17.1043 12.2851 5.43432C10.8491 2.48432 9.13911 -0.309681 7.20111 -2.95468C6.28311 -4.20768 3.68503 -4.42868 3.38703 -2.45568C2.15003 5.72232 1.87812 14.0013 2.50812 22.2023C0.981122 19.7893 -0.704932 17.4763 -2.54693 15.2873C-4.35993 13.1333 -6.32993 11.1113 -8.44293 9.25032C-10.7399 7.22632 -13.4319 4.91632 -16.6729 4.91632C-23.5589 4.91632 -23.4329 13.0023 -22.7299 17.8153C-20.5809 32.5233 -16.4389 46.8783 -10.5739 60.5303C-9.13791 63.8723 -7.59598 67.1683 -5.94598 70.4093C-4.33198 73.5813 -2.74797 76.9363 -0.633968 79.8103C0.437032 81.2673 1.74312 82.7223 3.28412 83.7753C0.650122 89.4243 -3.07288 94.5333 -8.21588 97.7523C-12.8029 100.623 -18.43 101.093 -22.869 97.6543C-26.816 94.5963 -29.0069 89.6173 -30.2929 84.9263C-33.5979 72.8693 -32.6959 59.5273 -28.7479 47.7443C-27.7129 44.6543 -26.436 41.6683 -24.955 38.7663C-23.737 36.3793 -27.3359 34.2643 -28.5589 36.6603C-35.1429 49.5633 -37.7149 64.2703 -35.7579 78.6343C-34.2809 89.4783 -29.0669 104.182 -15.8729 104.321C-5.00592 104.436 2.64212 94.6413 7.06012 85.2543C9.63312 85.5413 12.0531 84.2683 13.4741 82.0893C15.1581 79.5073 15.376 76.1333 15.856 73.1713C16.1 71.6613 16.3361 70.1483 16.5651 68.6353C20.3911 75.4503 24.937 81.8733 30.174 87.7413C35.293 93.4773 42.189 100.752 50.575 100.438C58.923 100.126 63.5061 92.0723 67.0701 85.5713C68.6191 82.7463 70.021 79.8453 71.288 76.8863C77.167 72.7133 82.474 67.1063 86.813 62.8223C92.87 56.8433 98.819 50.4103 103.782 43.3713C103.189 47.9613 102.711 52.5653 102.368 57.1803C101.982 62.3733 101.444 67.7273 102.138 72.9153C102.72 77.2713 104.455 81.5263 108.211 84.0673C110.278 85.4653 112.729 86.0793 115.2 86.1033C115.531 89.6993 116.087 93.2593 116.971 96.7153C118.989 104.598 122.968 112.788 130.192 117.104C139.528 122.682 150.818 119.305 158.297 112.217C165.792 105.113 168.902 94.9963 171.162 85.1153C174.68 90.7463 178.591 96.1253 182.898 101.184C185.56 104.311 188.371 107.312 191.317 110.174C194.102 112.879 197.048 115.672 200.791 116.96C208.092 119.473 213.864 113.645 216.793 107.588C220.262 100.412 222.248 92.3783 223.304 84.5083C223.849 80.4503 224.108 76.3613 224.087 72.2783C224.727 71.9833 225.325 71.5713 225.832 71.0153C227.897 68.7503 228.673 65.1793 229.725 62.3863C231.062 58.8333 232.4 55.2803 233.737 51.7273C236.412 44.6213 239.087 37.5153 241.762 30.4093C246.228 18.5453 250.694 6.68132 255.16 -5.18268C254.627 8.67432 254.095 22.5313 253.562 36.3883C253.219 45.3093 252.876 54.2313 252.533 63.1523C252.274 69.8933 251.431 77.0223 253.294 83.6233C254.894 89.2933 259.218 94.1983 265.555 93.9133C272.939 93.5823 278.493 87.2953 282.939 82.0793C288.212 75.8933 292.985 69.1883 296.872 62.0223C304.793 62.4703 313.05 59.7603 319.916 55.4263C326.458 51.2973 332.006 45.7783 337.489 40.3783C340.253 37.6563 343.019 34.9323 345.93 32.3663C348.572 30.0373 351.788 26.8643 355.449 26.3723C356.883 26.1793 358.206 26.4913 359.192 27.5883C359.884 28.3573 360.65 29.7823 359.865 30.7423C358.179 32.8053 361.115 35.7753 362.816 33.6933C366.558 29.1203 362.513 22.6533 357.076 22.1933ZM6.38007 9.48532C6.45607 7.65932 6.58009 5.83732 6.75409 4.01832C15.4111 19.0703 15.965 37.0843 14.241 54.3323C13.499 52.4913 12.803 50.6323 12.163 48.7533C12.05 47.9473 11.9541 47.1383 11.8131 46.3373C11.0321 41.8953 9.78913 37.5363 8.13813 33.3403C6.67513 25.4513 6.05107 17.4283 6.38007 9.48532ZM2.12812 76.4753C0.410117 73.7653 -1.05096 70.8513 -2.49896 67.9903C-8.40596 56.3173 -12.8979 43.9483 -15.9229 31.2213C-16.6829 28.0253 -17.3479 24.8073 -17.9189 21.5713C-18.4219 18.7183 -19.1239 15.7193 -18.9989 12.8063C-18.8759 9.93632 -17.3829 8.20732 -14.5229 9.80532C-12.3119 11.0403 -10.3849 13.0343 -8.61493 14.8233C-3.01193 20.4833 1.27103 27.3303 4.18903 34.7203C5.15103 39.7383 6.45405 44.6883 8.08405 49.5303C9.07405 56.5733 8.93802 63.7823 7.50202 70.7443C6.88802 73.7203 6.03603 76.8213 4.91303 79.8593C3.74803 78.8533 2.76412 77.4773 2.12812 76.4753ZM12.7601 66.1073C12.3291 69.0273 11.864 71.9423 11.377 74.8533C11.083 76.6113 10.7831 79.9403 8.90912 80.8963C8.96212 80.7553 9.01803 80.6133 9.06903 80.4733C11.342 74.3183 12.527 67.8223 12.793 61.2823C12.959 61.6383 13.1211 61.9963 13.2911 62.3493C13.1201 63.6083 12.9431 64.8633 12.7601 66.1073ZM57.2331 78.4423C43.6941 79.3143 38.0831 63.3453 36.5521 52.5113C34.1661 35.6193 35.485 18.0223 39.735 1.53832C40.816 -2.65268 42.097 -6.79268 43.575 -10.8607C44.757 -14.1167 45.9491 -17.6997 48.2861 -20.3407C54.2641 -27.0977 60.5921 -18.4317 63.4401 -13.2797C70.7151 -0.118678 74.7281 14.7743 75.4671 29.7733C76.1961 44.5723 73.812 59.4813 68.308 73.2483C68.161 73.6153 68.002 73.9763 67.851 74.3413C64.622 76.5483 61.0901 78.1933 57.2331 78.4423ZM120.022 62.9593C120.645 58.2893 121.359 53.3233 122.981 48.8783C124.313 45.2293 127.553 42.4963 131.052 45.6643C134.663 48.9353 133.607 54.3973 132.707 58.6043C131.055 66.3323 129.19 76.1093 121.606 80.2643C120.841 80.6833 120.015 81.0413 119.158 81.3233C119.123 80.3003 119.103 79.2793 119.093 78.2623C119.044 73.1513 119.346 68.0273 120.022 62.9593ZM211.431 52.1233C210.274 49.9483 209.119 47.7723 208.01 45.5733C202.527 34.7003 197.659 23.5243 193.4 12.1173C201.98 20.0743 208.774 29.7383 213.337 40.4233C213.306 41.9603 213.211 43.4983 213.021 45.0343C212.727 47.4173 212.204 49.8143 211.431 52.1233ZM203.144 5.54632C207.157 12.6433 210.514 20.5123 212.195 28.6443C206.611 19.2413 199.182 10.9653 190.555 4.23532C187.499 -4.62268 184.819 -13.6057 182.507 -22.6847C190.094 -13.8047 197.387 -4.63468 203.144 5.54632ZM205.713 61.9183C201.208 66.6063 194.901 68.7733 188.47 68.6473C174.444 68.3723 163.918 57.9933 158.298 45.9103C155.081 38.9943 153.407 31.3993 152.433 23.8673C151.913 19.8453 151.589 15.7993 151.319 11.7543C151.096 8.40432 150.738 5.01032 150.965 1.65132C151.129 -0.777678 151.582 -3.63568 153.186 -5.57568C155.429 -8.28968 159.003 -7.07168 161.869 -6.18768C168.149 -4.24968 174.153 -1.52368 179.783 1.86432C182.315 3.38832 184.743 5.04532 187.074 6.81032C191.887 20.5613 197.551 34.0143 204.086 47.0433C205.763 50.3863 207.506 53.6953 209.294 56.9803C208.306 58.7643 207.134 60.4393 205.713 61.9183ZM217.15 62.4813C216.082 60.6353 215.059 58.7633 214.027 56.8973C215.157 54.4663 215.981 51.9293 216.55 49.3313C218.25 55.0563 219.333 60.9973 219.743 67.0603C218.589 65.5153 217.618 63.2903 217.15 62.4813ZM286.44 54.5543C281.325 51.2083 277.904 45.7473 275.634 40.1833C272.981 33.6813 271.573 26.6723 270.55 19.7513C269.361 11.7033 268.907 3.46532 269.306 -4.66368C269.554 -9.70468 270.745 -17.2727 276.873 -18.2227C283.32 -19.2227 289.199 -12.6407 292.592 -8.02368C300.357 2.54332 303.466 15.9243 302.687 28.8953C302.083 38.9573 298.989 48.6693 294.455 57.6423C291.64 57.1533 288.918 56.1753 286.44 54.5543Z" fill="#943DEB"/>
</g>
<path d="M130.222 140.444C130.222 152.887 120.128 162.966 107.685 162.966C107.175 162.966 106.679 162.951 106.183 162.908C94.4411 162.15 85.1631 152.376 85.1631 140.444C85.1631 128.512 94.4401 118.724 106.183 117.966C106.679 117.922 107.175 117.907 107.685 117.907C120.128 117.908 130.222 128.002 130.222 140.444Z" fill="white"/>
<path d="M101.122 140.444C105.367 144.805 107.861 149.867 107.861 155.264C107.861 157.904 107.278 160.472 106.183 162.908C94.4411 162.15 85.1631 152.376 85.1631 140.444C85.1631 128.512 94.4401 118.724 106.183 117.966C107.277 120.402 107.861 122.969 107.861 125.609C107.861 131.007 105.366 136.068 101.122 140.444Z" fill="#333333"/>
<path d="M232.343 140.444C232.343 152.887 222.249 162.966 209.806 162.966C209.296 162.966 208.799 162.951 208.303 162.908C196.561 162.15 187.283 152.376 187.283 140.444C187.283 128.512 196.56 118.724 208.303 117.966C208.799 117.922 209.295 117.907 209.806 117.907C222.249 117.908 232.343 128.002 232.343 140.444Z" fill="white"/>
<path d="M203.242 140.444C207.487 144.805 209.981 149.867 209.981 155.264C209.981 157.904 209.398 160.472 208.304 162.908C196.562 162.15 187.284 152.376 187.284 140.444C187.284 128.512 196.561 118.724 208.304 117.966C209.398 120.402 209.981 122.969 209.981 125.609C209.981 131.007 207.487 136.068 203.242 140.444Z" fill="#333333"/>
<path d="M158.753 174.217C149.855 174.217 142.615 166.978 142.615 158.079C142.615 157.526 143.062 157.079 143.615 157.079C144.168 157.079 144.615 157.526 144.615 158.079C144.615 165.875 150.957 172.217 158.753 172.217C166.549 172.217 172.891 165.875 172.891 158.079C172.891 157.526 173.338 157.079 173.891 157.079C174.444 157.079 174.891 157.526 174.891 158.079C174.89 166.978 167.651 174.217 158.753 174.217Z" fill="#333333"/>
<path d="M75.3381 173.216C75.3381 177.417 74.9151 181.501 74.0831 185.454C49.3291 169.277 25.3051 145.997 9.58008 113.351C11.4331 113.176 13.3142 113.088 15.2112 113.088C48.4112 113.089 75.3381 140.002 75.3381 173.216Z" fill="#FB74D7"/>
<path d="M290.581 113.731C289.122 117.217 287.532 120.674 285.796 124.088C272.289 150.767 256.258 170.08 240.27 183.982C239.643 180.496 239.307 176.893 239.307 173.217C239.309 143.007 261.583 118.02 290.581 113.731Z" fill="#FB74D7"/>
</svg>
