<svg viewBox="0 0 263 243" fill="none" xmlns="http://www.w3.org/2000/svg">
<path d="M131.096 228.563C129.662 230.226 127.111 230.416 125.448 228.982C127.111 230.416 127.314 232.955 125.867 234.63C124.433 236.305 121.894 236.496 120.232 235.049C121.895 236.496 122.085 239.034 120.651 240.697C119.217 242.372 116.678 242.564 115.003 241.13C115.003 241.13 94.5547 224.578 85.7087 211.124C75.7577 196.007 66.9107 173.275 72.9527 143.981C73.1937 142.813 73.4607 141.658 73.7527 140.529H98.9977C98.0077 143.118 97.1827 145.898 96.5737 148.868C88.9077 186.006 114.14 208.815 118.862 212.762L130.666 222.916C132.34 224.35 132.53 226.888 131.096 228.563Z" fill="#FF4274"/>
<path d="M191.804 207.114C184.087 221.241 165.061 239.416 165.061 239.416C163.525 240.99 160.974 241.003 159.4 239.454C157.839 237.918 157.813 235.367 159.362 233.793C157.813 235.367 155.262 235.38 153.701 233.844C152.127 232.296 152.114 229.744 153.663 228.183C152.115 229.744 149.563 229.77 148.002 228.221C146.428 226.672 146.415 224.121 147.951 222.56L158.892 211.467C163.271 207.152 186.549 182.338 175.849 145.948C175.291 144.057 174.656 142.242 173.945 140.528H197.299C197.997 140.528 198.67 140.477 199.342 140.388C207.213 168.516 200.334 191.451 191.804 207.114Z" fill="#FF4274"/>
<path d="M235.314 3.40247C235.198 4.10147 235.045 4.79747 234.936 5.49947C234.877 5.88047 234.926 6.27747 234.926 6.70947C234.681 6.56647 234.513 6.40247 234.322 6.36747C233.546 6.22647 233.301 5.74747 233.356 5.01647C233.369 4.84547 233.322 4.62847 233.22 4.49547C232.747 3.88147 232.919 3.27647 233.217 2.67947C233.227 2.65947 233.238 2.64047 233.247 2.62047C224.133 -0.539535 212.781 -1.00053 199.026 2.11647C196.045 2.79147 193.201 3.69447 190.48 4.78447C190.229 5.16047 189.964 5.52747 189.741 5.91847C189.525 6.29647 189.268 6.32447 188.975 6.08347C188.801 5.93947 188.641 5.78547 188.483 5.63047C183.774 7.72847 179.463 10.4115 175.517 13.5155C176.452 14.1185 176.42 14.8015 175.504 15.5215C174.708 16.1465 174.016 16.9025 173.248 17.5655C173 17.7795 172.663 17.9885 172.355 18.0055C172.122 18.0185 171.858 17.7395 171.647 17.5465C171.615 17.5175 171.774 17.2315 171.887 17.1005C172.129 16.8195 172.183 16.6045 172.077 16.4075C167.23 20.7525 162.987 25.7265 159.288 30.9805C159.434 30.9655 159.583 30.9555 159.677 30.8775C160.144 30.4895 160.553 30.0305 160.989 29.6045C161.276 29.3235 161.548 29.0195 161.867 28.7795C162.271 28.4765 162.692 28.1705 163.153 27.9795C163.447 27.8585 163.827 27.9435 164.168 27.9365C164.109 28.2765 164.132 28.6665 163.967 28.9425C163.817 29.1925 163.484 29.4075 163.191 29.4855C161.623 29.8995 160.782 31.1525 159.869 32.3115C159.415 32.8875 159.091 33.5665 158.641 34.1465C158.249 34.6515 157.7 35.0395 157.333 35.5585C156.806 36.3045 156.373 37.1185 155.913 37.9115C155.394 38.8065 154.972 39.0245 154.386 38.5995C140.835 61.6265 136.465 86.6115 136.465 86.6115C136.465 86.6115 128.08 65.7245 111.583 45.7825C111.168 46.1925 110.801 46.4865 110.543 46.5725C110.489 46.4565 110.396 46.3405 110.383 46.2155C110.308 45.5085 110.235 44.8015 110.165 44.0935C106.943 40.3175 103.428 36.5995 99.6216 33.0855C99.4356 33.1375 99.2436 33.1855 99.0666 33.2475C98.5506 33.4305 98.0436 33.6665 97.8576 34.2815C97.8196 34.4065 97.6136 34.5165 97.4646 34.5545C97.4096 34.5685 97.2766 34.3665 97.2146 34.2445C97.1206 34.0605 97.0506 33.8635 96.9816 33.6685C96.8076 33.1825 96.6166 32.6955 97.4586 32.6825C97.5966 32.6805 97.7756 32.5565 97.8626 32.4355C98.0506 32.1765 98.2626 32.0695 98.4926 32.0525C91.6366 25.8915 83.8606 20.4345 75.1816 16.5035C75.1876 16.5115 75.1906 16.5265 75.1966 16.5325C75.8286 17.1465 76.5096 17.7145 77.1976 18.2685C77.7906 18.7465 78.5246 19.0915 78.7126 20.0665C78.2806 19.8605 77.8906 19.7545 77.6006 19.5225C76.6396 18.7535 75.7376 17.9105 74.7666 17.1555C74.2516 16.7545 73.6566 16.4435 73.0656 16.1595C72.7736 16.0195 72.2526 16.1535 72.1036 15.9585C71.8176 15.5855 71.4896 15.2275 71.2286 14.8355C60.2836 10.6125 47.9866 8.86847 34.3536 11.1405C31.1056 11.6815 27.9706 12.7875 25.0026 14.3775C25.1746 14.3835 25.3526 14.4115 25.5426 14.4895C25.6836 14.5475 25.8686 14.5065 26.0326 14.4975C26.8956 14.4485 26.9056 14.4505 26.6786 15.2785C26.6066 15.5415 26.5026 15.8155 26.3416 16.0305C26.0626 16.4025 25.7566 16.7205 25.2026 16.3855C24.6316 16.0395 24.0096 15.7295 23.3106 15.3655C19.1926 17.8855 15.4386 21.3565 12.1986 25.5785C12.2066 25.5825 12.2146 25.5855 12.2226 25.5885C13.4766 26.1625 14.6686 26.8745 15.8886 27.5245C15.8916 27.5765 15.8946 27.6275 15.8976 27.6795C15.1696 27.8115 14.4437 27.9555 13.7127 28.0625C13.5827 28.0815 13.3216 27.9655 13.3056 27.8785C13.1276 26.8915 12.1516 26.9375 11.5456 26.5545C11.5276 26.5435 11.5076 26.5345 11.4896 26.5225C9.84863 28.7705 8.35363 31.2145 7.01963 33.8275C7.35263 34.3815 7.50863 35.0565 7.78263 35.6565C8.01163 36.1585 8.32463 36.6225 8.56763 37.1185C8.67963 37.3475 8.71565 37.6145 8.78565 37.8645C8.72065 37.9085 8.65665 37.9515 8.59165 37.9955C8.07965 37.5235 7.54764 37.0705 7.06064 36.5745C6.69264 36.1995 6.37464 35.9495 6.07764 35.7595C-1.51536 52.0885 -2.84936 74.3175 7.06464 95.9645C7.47064 96.8655 7.88962 97.7545 8.33362 98.6295C22.0166 127.035 42.9206 147.292 64.4596 161.368C96.8256 182.539 130.626 189.787 143.598 189.787C152.978 189.787 180.939 184.57 209.066 160.086C222.977 147.99 236.926 131.185 248.679 107.971C250.189 105.001 251.573 101.993 252.842 98.9595C269.302 59.5585 265.617 15.7445 235.314 3.40247ZM3.53565 51.0885C3.18365 51.2095 2.83064 51.3305 2.47864 51.4515C2.40864 51.3805 2.33865 51.3105 2.26865 51.2395C2.40865 50.9635 2.50764 50.4975 2.69764 50.4575C2.94364 50.4055 3.26064 50.6925 3.54764 50.8335C3.54264 50.9195 3.53965 51.0035 3.53565 51.0885ZM7.92264 67.3465C7.82764 67.3445 7.73264 67.3415 7.63764 67.3395C6.33464 65.6625 5.03064 63.9855 3.72464 62.3055C5.52764 62.4895 7.31963 62.6735 9.21463 62.8675C8.84963 64.4305 7.30464 65.5515 7.92264 67.3465ZM15.7676 82.3065C14.3986 83.3325 13.0406 84.3725 11.6756 85.4025C11.6276 85.4385 11.5447 85.4275 11.4627 85.4405C11.3497 84.4405 12.0416 83.7745 12.4286 82.9905C12.9456 81.9435 13.4616 80.8945 14.0076 79.8625C14.1576 79.5785 14.4156 79.3515 14.6236 79.0975C14.8756 79.3335 15.1916 79.5315 15.3636 79.8155C15.6486 80.2855 15.8406 80.8125 16.0716 81.3155C16.2676 81.7385 16.1256 82.0395 15.7676 82.3065ZM15.5096 54.1195C14.6096 54.5425 13.7416 54.2915 12.6156 54.1405C12.9396 53.8655 13.1016 53.6235 13.3126 53.5665C14.6666 53.1985 16.0276 52.8595 17.3937 52.5375C17.7817 52.4455 18.6516 53.2475 18.6146 53.6525C18.6016 53.8005 18.4446 54.0465 18.3366 54.0555C17.7456 54.1055 17.1496 54.1005 16.5556 54.1065C16.2036 54.1105 15.7966 53.9845 15.5096 54.1195ZM21.3736 63.4085C20.1436 63.1735 18.9166 62.9215 17.6886 62.6765C17.6866 62.5855 17.6846 62.4945 17.6826 62.4035C18.9186 62.1255 20.1486 61.8065 21.3946 61.5885C21.9406 61.4925 22.1766 61.9465 22.1676 62.7525C22.1616 63.3125 21.8796 63.5045 21.3736 63.4085ZM21.1746 36.7275C20.8786 37.1475 20.5366 37.0105 20.2736 36.8025C19.6796 36.3355 19.1406 35.7985 18.5686 35.3025C18.3776 35.1375 18.1676 34.9835 17.9436 34.8705C17.2906 34.5425 16.7946 34.6785 16.4286 35.3195C16.2256 35.6765 16.1406 36.1025 15.9296 36.4535C15.8226 36.6315 15.5666 36.7665 15.3536 36.8145C15.2416 36.8395 15.0286 36.6665 14.9446 36.5315C14.5476 35.8855 13.5106 35.6085 12.8316 35.9915C11.9746 36.4755 11.1716 36.0555 11.0216 34.9495C11.5936 35.0095 12.1416 35.1105 12.6916 35.1145C13.2936 35.1195 13.9226 35.1265 14.4946 34.9695C15.6116 34.6605 16.6836 34.1905 17.7996 33.8775C18.7236 33.6185 19.6846 33.4925 20.6276 33.3015C21.1136 33.2035 21.5966 33.0905 22.0856 32.9825C22.3706 34.4415 21.9516 35.6235 21.1746 36.7275ZM29.7416 18.2895C29.7496 17.9245 30.0836 17.5565 30.3076 17.2115C30.3686 17.1175 30.5496 17.1005 30.8256 16.9865C31.2636 17.7545 31.7056 18.5305 32.1686 19.3435C31.3696 19.5165 29.7336 18.6755 29.7416 18.2895ZM31.6916 80.2535C31.2296 80.0475 30.7676 79.8425 30.3056 79.6365C30.3586 79.5435 30.4126 79.4515 30.4666 79.3585C30.9116 79.5815 31.3566 79.8045 31.8016 80.0275C31.7646 80.1025 31.7276 80.1775 31.6916 80.2535ZM33.3846 37.4195C33.0716 37.2975 32.7066 37.3025 32.3636 37.2645C31.7836 37.1995 31.3836 37.3185 31.3056 38.0325C31.2456 38.5765 30.7776 38.6015 30.2326 38.4855C30.3956 37.4955 30.5316 36.5245 30.7246 35.5645C30.8126 35.1265 31.1086 35.0395 31.5136 35.2795C32.0866 35.6185 32.6756 35.8285 33.3786 35.8995C33.9596 35.9575 34.4956 36.4645 35.0716 36.7825C34.5876 37.4825 34.0886 37.6935 33.3846 37.4195ZM71.0716 81.0075C70.4896 81.5145 69.9206 82.0105 69.3516 82.5065C69.5326 81.2685 70.3686 80.6225 71.0716 81.0075ZM55.3036 17.9085C55.6076 18.0755 55.9276 18.2145 56.2236 18.3935C56.3406 18.4645 56.4136 18.6085 56.5066 18.7195C56.3866 18.8135 56.2786 18.9375 56.1426 18.9925C56.0196 19.0425 55.8666 19.0255 55.7266 19.0265C55.1106 19.0295 54.4876 19.0855 53.8816 19.0075C53.5106 18.9605 53.1656 18.7065 52.7586 18.5225C53.8426 17.3015 54.1106 17.2505 55.3036 17.9085ZM45.5126 11.6855C45.7476 11.7085 45.9896 11.7035 46.2156 11.7615C46.9636 11.9525 47.6966 12.2145 48.4526 12.3505C48.8446 12.4205 49.2736 12.2805 49.6856 12.2415C50.6906 12.1475 51.1246 12.9215 51.6576 13.5435C51.9386 13.8705 52.2217 14.1955 52.5877 14.6195C52.4217 14.8635 52.2076 15.1785 51.9336 15.5805C51.5956 15.3365 51.3146 15.1325 51.0016 14.9065C50.5506 15.1615 50.2946 15.0625 50.1586 14.4975C50.1046 14.2755 50.1016 14.0335 50.0086 13.8315C49.9106 13.6175 49.7326 13.4395 49.5896 13.2455C49.4266 13.3795 49.2386 13.4925 49.1036 13.6505C48.7166 14.1045 48.4146 14.1025 47.9606 13.7005C47.8246 13.5805 47.5516 13.6045 47.3396 13.5835C47.1436 13.5645 46.8536 13.6565 46.7636 13.5565C46.2786 13.0195 45.8426 12.4375 45.3896 11.8705C45.4316 11.8095 45.4716 11.7475 45.5126 11.6855ZM51.4766 19.7815C51.3316 19.3125 51.1986 18.8795 51.0146 18.2805C52.2206 18.9465 52.2776 19.1645 51.4766 19.7815ZM41.7736 74.2415C41.5266 74.6785 41.2206 74.6735 40.9476 74.2505C40.5536 73.6395 40.3276 73.0485 41.0676 72.4575C41.9866 73.0395 42.1766 73.5295 41.7736 74.2415ZM41.6306 68.6435C41.2176 68.9265 41.3496 69.2825 41.4056 69.6255C41.5026 70.2145 41.2786 70.4415 40.7086 70.2835C40.5976 70.2525 40.4876 70.2215 40.3786 70.1855C39.4966 69.8945 39.4626 69.7935 39.8286 68.9115C40.0216 68.4465 40.1336 67.9455 40.3486 67.4925C40.6876 66.7775 41.0946 66.5925 41.7186 66.9945C42.1186 67.2525 42.4426 67.4215 42.8986 67.2705C42.9326 67.2595 43.0016 67.3555 43.1146 67.4545C42.6066 67.8665 42.1436 68.2915 41.6306 68.6435ZM48.3656 68.4965C48.2746 68.5015 48.1406 68.5095 48.0966 68.4575C47.4986 67.7435 46.9086 68.2035 46.3726 68.5075C45.7916 68.8365 45.2956 68.8295 44.7726 68.3735C45.3976 66.5975 49.3466 64.4235 51.7166 64.5735C51.3146 65.2315 50.9366 65.8545 50.5536 66.4755C50.4326 66.6705 50.2506 66.8425 50.1826 67.0525C49.9506 67.7665 49.1156 68.4545 48.3656 68.4965ZM46.7956 60.3985C46.8786 59.4625 47.1476 59.1935 47.8676 59.2225C47.9776 60.0055 47.2646 59.9995 46.7956 60.3985ZM51.6676 92.8025C51.6026 93.1275 51.1756 93.4815 50.8316 93.6245C50.4306 93.7915 49.9736 93.5865 50.0246 93.0585C50.1056 92.2145 50.1646 91.3285 50.4796 90.5615C50.6756 90.0855 51.3276 89.7975 51.7756 89.4245C51.8646 89.4955 51.9546 89.5665 52.0436 89.6375C51.9306 90.6945 51.8746 91.7635 51.6676 92.8025ZM50.1256 57.0065C49.6746 57.0425 49.2037 56.5605 48.7127 56.4125C47.5757 56.0715 46.9126 55.1605 46.1476 54.3745C45.7036 53.9185 45.9736 53.4905 46.2766 53.0805C46.5736 52.6785 46.9156 52.7845 47.2606 52.9815C48.2816 53.5635 49.2896 54.1675 50.3196 54.7335C51.0196 55.1175 51.7466 55.4525 52.5026 55.8305C51.9896 56.7795 51.0236 56.9335 50.1256 57.0065ZM54.3446 39.2005C53.9416 39.8665 53.5266 40.5265 53.0736 41.1595C52.8916 41.4135 52.5986 41.5885 52.3566 41.7995C52.3156 41.4685 52.1426 41.0775 52.2606 40.8195C52.5126 40.2685 52.2256 39.8885 52.0446 39.4475C51.9146 39.1295 51.8366 38.7905 51.7346 38.4605C52.1736 38.3705 52.6096 38.2395 53.0536 38.2015C53.5786 38.1565 54.1096 38.1905 54.8456 38.1905C54.7066 38.4755 54.5546 38.8545 54.3446 39.2005ZM55.7896 38.0325C55.6146 37.7705 55.5536 37.4065 55.5436 37.0795C55.5406 37.0025 55.9176 36.8345 56.1126 36.8445C56.4986 36.8645 56.8796 36.9795 57.5296 37.1085C57.1176 37.4675 56.8546 37.7675 56.5266 37.9555C56.3196 38.0745 55.8566 38.1335 55.7896 38.0325ZM63.3906 83.5685C62.9756 82.7605 62.4706 82.5545 61.6336 82.7435C60.3356 83.0365 59.0196 83.2095 57.8926 83.9965C57.8256 84.0435 57.7116 84.0365 57.6206 84.0315C57.1046 83.9995 56.5886 83.9615 56.0426 83.9225C56.1186 83.8365 56.2256 83.6775 56.3676 83.5615C57.0566 82.9995 57.7426 82.4335 58.4526 81.8985C59.1636 81.3625 58.7986 80.6845 58.7566 80.0395C58.7376 79.7575 58.7796 79.4715 58.7936 79.1875C59.0526 79.2145 59.3426 79.1755 59.5646 79.2815C60.5696 79.7595 61.5426 80.3045 62.5526 80.7725C63.2086 81.0765 63.9076 81.2895 64.7106 81.5895C64.8066 82.4285 64.0686 82.9175 63.3906 83.5685ZM65.3156 73.7945C65.2426 73.7485 65.1706 73.7025 65.0976 73.6555C65.1676 73.3485 65.2386 73.0415 65.3086 72.7345C65.3806 72.7225 65.4516 72.7105 65.5236 72.6985C65.6306 72.9235 65.8326 73.1565 65.8126 73.3695C65.7986 73.5255 65.4916 73.6535 65.3156 73.7945ZM66.2646 16.8495C66.8416 16.5495 67.5486 16.1805 68.3676 15.7545C68.5246 16.1165 68.7436 16.6095 68.9476 17.1085C68.9786 17.1855 68.9766 17.3275 68.9266 17.3785C68.4206 17.9015 67.9016 18.4115 67.4276 18.8845C67.0106 18.1545 66.6506 17.5255 66.2646 16.8495ZM67.9916 95.2895C67.9566 94.0495 68.7916 93.4375 69.6096 92.7635C70.4906 92.0375 71.2756 91.1955 72.1236 90.4275C72.4426 90.1375 72.8206 89.9125 73.1716 89.6575C73.2306 89.7185 73.2896 89.7795 73.3486 89.8415C71.5726 91.6475 69.7956 93.4545 67.9916 95.2895ZM120.945 63.0125C120.435 63.1365 120.037 63.2325 119.578 63.3445C119.827 62.4755 120.062 62.4155 120.945 63.0125ZM117.627 61.3045C118.121 61.7135 118.513 62.0385 119.035 62.4715C118.331 62.7055 117.795 62.8845 117.148 63.0995C117.336 62.3975 117.465 61.9115 117.627 61.3045ZM76.5976 63.7325C76.5666 64.3165 76.2846 64.3875 75.8806 64.1065C75.5196 63.8555 75.2176 63.5195 74.7726 63.1155C75.4386 62.2535 76.0576 61.4525 76.6776 60.6505C76.7266 60.6875 76.7756 60.7245 76.8246 60.7615C76.7466 61.7515 76.6506 62.7405 76.5976 63.7325ZM79.2896 29.2485C78.8956 29.5965 78.5346 29.8515 78.2556 30.1755C77.8296 30.6705 77.9396 30.9055 78.5596 31.0475C78.7616 31.0935 78.9406 31.2405 79.1306 31.3405C79.1176 31.4015 79.1056 31.4625 79.0926 31.5235C78.5206 31.4965 77.9486 31.4695 77.3846 31.4425C76.9096 29.9225 77.8746 28.9855 79.2896 29.2485ZM78.0106 84.6125C77.9056 84.3425 77.7996 84.0725 77.6346 83.6505C78.1976 83.3955 78.7646 83.1905 79.2716 82.8865C79.5226 82.7355 79.6476 82.3875 79.8546 82.1515C80.0466 81.9325 80.2726 81.7435 80.6116 81.4205C80.6726 82.3815 79.0396 84.2295 78.0106 84.6125ZM82.2426 25.1505C82.1906 25.7985 82.1626 26.4485 82.0986 27.0955C82.0676 27.4035 81.9766 27.7055 81.9116 28.0105C81.8106 28.0305 81.7086 28.0495 81.6076 28.0685C81.5466 27.8505 81.4486 27.6345 81.4336 27.4125C81.3976 26.8945 81.4896 26.3515 81.3686 25.8585C81.1856 25.1135 80.8346 24.4115 80.6196 23.6715C80.5436 23.4095 80.6416 23.0915 80.6836 22.8025C80.7336 22.4615 80.8096 22.1245 80.9146 21.5705C81.2496 21.8075 81.5556 21.9575 81.7746 22.1895C82.5946 23.0625 82.3246 24.1245 82.2426 25.1505ZM94.0696 53.8575C94.2206 53.4105 94.3706 52.9635 94.5626 52.3925C95.1436 53.0465 95.0506 53.3365 94.0696 53.8575ZM104.181 62.1375C104.168 61.8935 104.198 61.7105 104.144 61.5565C104.022 61.2115 103.785 61.0205 103.426 61.2625C103.234 61.3915 103.098 61.6015 102.915 61.7465C102.472 62.0965 102.017 62.4195 101.569 61.7465C101.556 61.7275 101.537 61.7015 101.518 61.6995C100.426 61.5675 100.028 60.6845 99.5726 59.8805C99.3296 59.4505 99.0896 59.0005 98.9626 58.5295C98.8266 58.0255 98.5886 57.7635 98.0836 57.5855C97.5966 57.4135 97.1446 57.0865 96.7456 56.7465C96.5686 56.5955 96.5616 56.2465 96.4436 55.8855C97.1056 56.0145 97.6066 56.0815 98.0876 56.2205C98.3186 56.2875 98.6266 56.4465 98.6996 56.6395C99.0816 57.6425 99.9256 57.8545 100.833 58.0415C101.39 58.1565 101.936 58.3445 102.47 58.5435C103.071 58.7675 103.227 59.3075 103.311 59.8755C103.33 60.0055 103.34 60.1365 103.342 60.1575C103.767 59.9025 104.133 59.5185 104.527 59.4865C105.043 59.4445 105.547 59.7275 105.674 60.1865C105.152 60.8705 104.697 61.4635 104.181 62.1375ZM105.164 57.5985C104.418 57.0485 104.492 56.7915 105.681 55.7885C106.142 56.1885 106.02 56.6155 105.164 57.5985ZM111.025 58.6115C109.941 58.9055 108.854 59.2835 107.714 58.8795C107.143 58.6775 106.763 58.3495 106.828 57.6485C106.874 57.1565 106.953 56.6065 106.362 56.2955C106.317 56.2715 106.375 55.8645 106.44 55.8475C107.045 55.6895 106.65 54.4645 107.56 54.7505C108.023 54.8955 108.438 55.2515 108.821 55.5755C109.257 55.9455 109.625 56.3955 110.038 56.7935C110.499 57.2375 110.896 57.8035 111.69 57.6505C111.797 57.6295 111.954 57.8715 112.229 58.1185C111.736 58.3245 111.392 58.5125 111.025 58.6115ZM112.918 59.9375C112.747 59.2685 112.636 58.8355 112.518 58.3745C113.12 58.1605 113.406 58.6385 113.569 59.0045C113.639 59.1625 113.208 59.5415 112.918 59.9375ZM117.515 88.6625C116.861 89.0615 115.699 88.8665 115.18 88.2765C116.42 88.4315 116.682 87.2305 117.448 86.6915C117.599 87.1745 117.784 87.5925 117.84 88.0275C117.866 88.2275 117.694 88.5525 117.515 88.6625ZM118.989 106.085C119.808 105.842 120.628 105.599 121.534 105.33C121.333 106.429 120.429 106.703 118.989 106.085ZM123.455 101.035C122.997 100.793 122.628 100.599 122.259 100.404C122.488 100.274 122.705 100.07 122.95 100.03C123.545 99.9315 123.575 100.328 123.455 101.035ZM128.008 106.786C127.841 106.578 127.675 106.371 127.508 106.163C127.608 106.065 127.709 105.967 127.809 105.87C127.983 106.031 128.195 106.17 128.309 106.366C128.344 106.427 128.115 106.641 128.008 106.786ZM156.52 73.0465C155.991 73.0855 155.462 73.1365 154.932 73.1455C154.537 73.1525 154.12 73.1725 153.751 73.0605C152.679 72.7365 151.639 72.1105 150.563 72.0565C149.554 72.0065 148.36 71.5955 147.428 72.6025C147.123 72.9315 146.525 73.0935 146.044 73.1355C145.106 73.2185 144.154 73.1305 143.211 73.1785C142.545 73.2125 141.885 73.3575 141.222 73.4435C141.063 73.4645 140.899 73.4465 140.737 73.4465C140.715 73.3865 140.693 73.3255 140.671 73.2655C140.98 73.0875 141.283 72.8985 141.598 72.7325C143.917 71.5055 146.252 70.3055 148.553 69.0445C149.377 68.5935 150.088 67.9345 150.913 67.4875C151.819 66.9965 151.938 67.0815 152.466 67.9065C152.221 68.1975 151.924 68.4455 151.765 68.7635C151.548 69.1985 151.562 69.6435 151.975 70.0315C152.24 70.2805 152.371 70.7035 152.663 70.8855C153.289 71.2755 153.964 71.6045 154.652 71.8755C155.31 72.1345 156.018 72.2665 156.686 72.5035C156.865 72.5675 156.98 72.8125 157.124 72.9745C156.923 72.9995 156.723 73.0315 156.52 73.0465ZM157.654 79.6695C157.554 79.6295 157.453 79.5885 157.352 79.5485C157.518 79.2085 157.205 78.6745 158.064 78.6095C157.928 78.9625 157.791 79.3155 157.654 79.6695ZM164.109 59.0005C163.441 59.3445 162.925 59.6135 162.406 59.8755C161.923 60.1195 161.435 60.3555 160.823 60.6585C161.277 59.7945 163.179 58.8265 164.109 59.0005ZM166.518 63.0505C166.339 63.4655 166.138 63.9015 166.103 64.3405C166.066 64.8115 165.858 64.9865 165.46 64.9585C164.326 64.8765 163.157 64.9005 162.078 64.6065C161.449 64.4355 160.965 63.7345 160.348 63.2155C161.047 62.7545 161.629 62.5845 162.305 62.8475C162.555 62.9445 162.899 63.0495 163.108 62.9525C163.702 62.6765 163.988 62.9865 164.239 63.4165C164.507 63.8765 164.791 63.7205 164.989 63.4075C165.169 63.1235 165.365 62.7625 165.34 62.4525C165.286 61.7755 165.569 61.3925 166.099 61.0285C166.71 60.6085 167.247 60.0815 167.816 59.6015C167.878 59.6465 167.94 59.6925 168.002 59.7375C167.505 60.8405 166.998 61.9395 166.518 63.0505ZM166.338 39.4285C165.627 38.9715 164.819 38.4185 163.977 37.9225C163.447 37.6095 162.873 37.3675 162.305 37.1235C161.91 36.9535 161.836 36.7295 162.164 36.4565C162.607 36.0895 163.069 35.7425 163.547 35.4215C164.437 34.8225 164.471 34.8365 165.272 35.7155C164.785 36.1225 164.9 36.4185 165.371 36.7105C165.488 36.7835 165.534 37.0665 165.516 37.2435C165.466 37.7345 165.58 38.0225 166.148 37.9695C166.52 37.9345 166.897 37.9545 167.271 37.9275C167.596 37.9035 167.919 37.8475 168.242 37.8055C167.6 38.3515 167.003 38.8615 166.338 39.4285ZM168.651 35.1725C168.35 35.6025 166.744 35.9075 166.322 35.5955C166.213 35.5145 166.114 35.2185 166.171 35.1445C166.673 34.4895 167.322 34.0515 168.182 34.1705C168.427 34.2045 168.638 34.4875 168.848 34.6445C168.746 34.9235 168.725 35.0665 168.651 35.1725ZM170.457 23.3055C169.579 24.0375 168.667 24.7275 167.739 25.4505C167.092 24.4725 167.102 24.3335 167.916 23.8355C168.581 23.4285 169.267 23.0545 169.96 22.6985C170.107 22.6235 170.325 22.6865 170.51 22.6865C170.496 22.8985 170.568 23.2125 170.457 23.3055ZM178.51 66.4625C179.019 67.6585 178.959 67.7375 177.377 67.8645C177.794 67.3475 178.138 66.9215 178.51 66.4625ZM181.437 81.9115C181.371 81.9705 181.199 81.9595 181.096 81.9225C179.98 81.5145 178.917 81.8265 177.832 82.1165C178.943 81.2865 180.054 80.4555 181.239 79.5705C181.433 80.2795 181.618 80.8665 181.738 81.4675C181.764 81.5945 181.57 81.7925 181.437 81.9115ZM181.616 68.3275C181.204 68.3345 180.789 68.2015 180.353 68.0495C180.903 67.7415 181.156 67.4285 180.965 66.7735C180.897 66.5425 181.361 66.1555 181.618 65.7875C181.78 66.5495 181.949 67.1665 182.019 67.7945C182.038 67.9655 181.761 68.3255 181.616 68.3275ZM184.18 9.96147C183.601 10.1045 183.023 10.2545 182.439 10.3715C182.398 10.3795 182.23 10.0505 182.252 10.0315C182.564 9.76447 182.872 9.39347 183.237 9.31947C183.526 9.26047 183.892 9.57146 184.223 9.71846C184.208 9.80046 184.194 9.88147 184.18 9.96147ZM187.711 12.3135C187.698 11.6195 188.138 11.1385 188.538 10.6465C188.595 10.5755 188.754 10.5425 188.854 10.5595C189.196 10.6185 190.293 11.9275 190.354 12.3125C189.491 12.3135 188.627 12.3135 187.711 12.3135ZM191.916 8.60147C191.828 8.52947 191.696 8.42747 191.698 8.34247C191.712 7.47947 191.751 6.61647 191.782 5.75347C191.86 5.75147 191.938 5.74946 192.016 5.74646C193.123 6.95946 193.112 8.59647 193.747 10.0815C193.068 9.53447 192.49 9.07047 191.916 8.60147ZM194.749 15.7695C194.615 15.6435 194.414 15.5405 194.36 15.3865C194.18 14.8705 193.841 14.2915 194.719 13.9235C194.837 14.3885 194.983 14.8045 195.032 15.2325C195.051 15.3975 194.849 15.5885 194.749 15.7695ZM205.926 9.09147C205.393 9.04847 204.926 9.01846 204.461 8.96846C204.358 8.95746 204.171 8.85247 204.176 8.83447C204.306 8.36947 204.329 7.77646 204.635 7.48246C205.051 7.08446 205.253 7.61447 205.419 7.95547C205.59 8.30747 205.768 8.65547 205.932 9.01147C205.956 9.06347 205.919 9.14347 205.926 9.09147ZM208.998 11.2055C208.752 11.3935 208.355 11.7125 208.203 11.6325C207.745 11.3915 207.361 10.9975 206.995 10.6185C206.962 10.5845 207.266 10.2255 207.36 10.0945C208.009 10.2275 208.461 10.3015 208.901 10.4205C209.058 10.4625 209.314 10.6315 209.302 10.7095C209.276 10.8885 209.147 11.0915 208.998 11.2055ZM229.282 17.2695C228.924 17.5845 228.633 17.9765 228.143 18.5215C227.915 17.7855 227.681 17.2365 227.588 16.6655C227.506 16.1665 227.929 15.8265 228.41 15.9325C228.697 15.9955 228.99 16.1045 229.239 16.2585C229.808 16.6115 229.783 16.8295 229.282 17.2695ZM251.639 19.6145C252.312 19.5255 252.985 19.4365 253.657 19.3475C253.066 20.1115 252.386 20.1905 251.639 19.6145Z" fill="#FF4274"/>
<path d="M174.292 15.6825C174.546 15.2365 174.654 14.7085 174.851 14.2275C174.895 14.1195 174.957 14.0175 175.011 13.9125C174.185 14.5745 173.378 15.2575 172.585 15.9545C172.669 16.0145 172.765 16.0795 172.89 16.1585C173.438 16.5055 173.889 16.3905 174.292 15.6825Z" fill="#FF4274"/>
<mask id="mask0_206_2789" style="mask-type:luminance" maskUnits="userSpaceOnUse" x="0" y="0" width="263" height="190">
<path d="M252.843 98.9605C251.574 101.993 250.19 105.002 248.68 107.972C236.927 131.187 222.978 147.992 209.067 160.087C180.94 184.571 152.979 189.788 143.599 189.788C130.627 189.788 96.8268 182.541 64.4608 161.369C42.9218 147.293 22.0168 127.036 8.33483 98.6305C7.89083 97.7545 7.47185 96.8665 7.06585 95.9655C-10.9071 56.7205 8.04285 15.5205 34.3549 11.1415C101.689 -0.0785284 136.466 86.6115 136.466 86.6115C136.466 86.6115 149.26 13.3885 199.027 2.11747C261.372 -12.0095 274.433 47.2765 252.843 98.9605Z" fill="white"/>
</mask>
<g mask="url(#mask0_206_2789)">
<path d="M-24.5772 32.0584C-30.2722 43.2194 -32.4982 55.9544 -30.8042 68.3804C-29.5412 77.6454 -25.1142 90.3384 -13.8112 90.4574C-2.87623 90.5724 4.26777 78.9204 7.58477 69.9364C11.0538 60.5424 11.7018 50.2334 9.97277 40.4034C8.24477 30.5724 3.99578 21.1714 -2.43922 13.5254C-4.01722 11.6514 -5.73122 9.89244 -7.56922 8.27244C-9.51822 6.55544 -11.7662 4.62444 -14.5072 4.59344C-20.2482 4.53044 -20.0472 11.4914 -19.4732 15.4184C-17.6072 28.1864 -14.0202 40.6584 -8.92823 52.5104C-7.67923 55.4184 -6.33622 58.2864 -4.90122 61.1064C-3.49722 63.8654 -2.12021 66.7884 -0.279215 69.2864C1.17979 71.2664 3.16077 73.2694 5.65777 73.8014C7.95577 74.2914 10.1988 73.2114 11.4528 71.2684C12.8938 69.0354 13.0798 66.1404 13.4928 63.5834C13.9608 60.6934 14.4008 57.8004 14.7918 54.8994C15.5708 49.1304 16.1658 43.3294 16.3268 37.5074C16.6338 26.3904 15.3338 14.9914 10.4158 4.88844C9.16676 2.32244 7.67878 -0.10956 5.99178 -2.41156C5.33178 -3.31156 3.46478 -3.47156 3.24978 -2.05356C-0.964221 25.8124 7.69777 55.0794 26.4768 76.1234C30.8708 81.0474 36.7998 87.3484 44.0058 87.0794C51.1348 86.8134 55.0488 79.8404 58.0858 74.2994C64.9208 61.8314 68.5828 47.7094 69.0418 33.5174C69.4978 19.4014 66.7628 5.19644 60.8738 -7.65156C58.3408 -13.1776 54.8948 -21.0746 48.4498 -22.8916C41.5958 -24.8246 37.6698 -18.0176 35.5968 -12.6836C29.6438 2.63644 26.9438 19.2704 27.6318 35.6874C28.1108 47.1114 29.7648 62.4294 40.4938 69.1874C53.7328 77.5254 66.7528 62.8924 75.3138 54.4414C86.4258 43.4714 97.1658 30.7834 100.128 14.9814C100.813 11.3284 101.051 7.62344 100.772 3.91544C100.648 2.27144 98.3228 1.82644 97.8258 3.51644C94.8538 13.6134 92.5878 23.9064 91.0828 34.3244C90.3428 39.4474 89.7708 44.5934 89.3868 49.7554C89.0508 54.2714 88.5778 58.9354 89.1868 63.4474C89.6828 67.1234 91.1478 70.7294 94.3148 72.8794C97.2888 74.8974 101.192 75.0264 104.541 73.9654C112.855 71.3294 116.111 62.9274 117.935 55.1474C118.953 50.8074 120.408 45.8394 118.946 41.4344C117.833 38.0804 114.668 35.0434 110.955 35.1334C107.01 35.2294 104.76 38.7464 103.65 42.1114C102.138 46.6964 101.448 51.6834 100.908 56.4684C99.8848 65.5274 99.8068 75.1844 102.083 84.0734C103.819 90.8524 107.227 97.9124 113.442 101.625C121.442 106.405 131.109 103.493 137.514 97.4224C145.102 90.2294 147.485 79.4554 149.583 69.6294C148.669 69.7484 147.755 69.8684 146.841 69.9874C150.456 76.3054 154.647 82.2784 159.367 87.8224C161.683 90.5434 164.129 93.1544 166.692 95.6454C169.073 97.9584 171.595 100.367 174.796 101.469C181.014 103.609 185.876 98.6034 188.363 93.4594C191.356 87.2684 193.072 80.3254 193.986 73.5364C195.861 59.6104 193.885 45.2584 188.166 32.4124C183.032 20.8784 174.789 10.8674 164.749 3.25944C159.687 -0.576562 154.151 -3.74656 148.292 -6.19356C145.384 -7.40856 142.359 -8.55956 139.283 -9.27356C136.434 -9.93456 133.515 -9.71456 131.328 -7.60056C127.401 -3.80356 127.884 2.71744 128.185 7.66644C128.66 15.4594 129.269 23.3054 131.139 30.9084C134.146 43.1324 141.193 55.6434 153.284 60.7534C164.693 65.5754 178.527 62.6424 184.875 51.4494C191.198 40.2994 189.365 26.1084 185.028 14.6174C180.17 1.74644 171.807 -9.41056 163.031 -19.8606C160.828 -22.4846 158.582 -25.0736 156.33 -27.6546C155.289 -28.8486 153.512 -27.5596 153.823 -26.1956C159.108 -3.00956 167.186 19.5174 177.849 40.7754C180.534 46.1284 183.383 51.3994 186.392 56.5764C187.577 58.6154 188.741 61.1154 190.849 62.3754C192.673 63.4654 194.841 63.1224 196.277 61.5724C198.04 59.6714 198.696 56.5594 199.583 54.2034C200.747 51.1114 201.911 48.0204 203.074 44.9284C205.402 38.7454 207.729 32.5624 210.057 26.3784C215.274 12.5194 220.491 -1.33956 225.708 -15.1986C224.726 -15.3316 223.744 -15.4646 222.762 -15.5976C222.156 0.156439 221.551 15.9104 220.945 31.6644C220.647 39.4274 220.348 47.1904 220.05 54.9524C219.826 60.7874 219.088 66.9664 220.701 72.6814C222.056 77.4844 225.691 81.6444 231.065 81.4034C237.392 81.1194 242.164 75.6614 245.968 71.1984C254.311 61.4104 261.228 50.1274 264.613 37.6354C267.771 25.9814 267.616 13.2904 263.203 1.97044C261.053 -3.54456 257.957 -8.67356 253.865 -12.9696C250.11 -16.9126 244.211 -20.7466 238.573 -18.6466C233.432 -16.7316 231.703 -11.1226 231.172 -6.15456C230.427 0.825444 230.939 8.12144 231.805 15.0654C233.233 26.5154 235.742 40.3404 244.937 48.3354C254.589 56.7274 268.154 54.3024 278.208 47.9564C283.877 44.3774 288.683 39.5914 293.435 34.9114C295.84 32.5424 298.247 30.1724 300.78 27.9394C303.131 25.8664 305.955 23.1044 309.202 22.6424C310.56 22.4494 311.826 22.7454 312.766 23.7814C313.506 24.5964 314.157 25.9864 313.352 26.9714C312.14 28.4544 314.25 30.5894 315.473 29.0924C318.554 25.3224 315.136 20.0164 310.699 19.6234C304.861 19.1054 299.658 24.7914 295.803 28.4294C286.787 36.9374 278.303 47.1034 265.702 50.1004C260.05 51.4444 254.021 50.9724 249.077 47.7384C244.553 44.7784 241.534 39.9674 239.529 35.0454C237.224 29.3854 235.996 23.2904 235.105 17.2674C234.066 10.2364 233.662 3.04144 234.011 -4.06056C234.234 -8.60656 235.342 -15.2826 240.827 -16.1636C246.595 -17.0896 251.822 -11.2816 254.861 -7.14356C261.645 2.09244 264.369 13.8034 263.688 25.1404C262.955 37.3524 258.055 48.9824 251.375 59.1004C248.013 64.1924 244.194 69.2274 239.821 73.5004C236.094 77.1434 229.418 81.1464 225.344 75.6764C222.43 71.7634 222.623 66.0784 222.8 61.4574C223.081 54.1514 223.362 46.8454 223.642 39.5384C224.208 24.8124 224.774 10.0854 225.34 -4.64056C225.481 -8.29356 225.621 -11.9466 225.761 -15.5996C225.83 -17.3926 223.379 -17.4966 222.815 -15.9986C214.187 6.92144 205.559 29.8424 196.931 52.7624C196.409 54.1484 195.891 55.5354 195.366 56.9204C195.017 57.8394 194.501 59.8374 193.303 60.0294C191.281 60.3544 189.422 55.8214 188.671 54.5224C185.88 49.6954 183.227 44.7894 180.717 39.8104C175.708 29.8754 171.269 19.6584 167.431 9.21444C163.085 -2.61156 159.515 -14.7136 156.715 -26.9976C155.879 -26.5116 155.044 -26.0246 154.208 -25.5386C162.501 -16.0346 170.795 -6.36156 177.028 4.66244C182.865 14.9854 187.135 27.1664 185.665 39.1804C185.002 44.5984 183.051 50.1024 179.214 54.0954C175.238 58.2324 169.663 60.1544 163.987 60.0434C151.673 59.8014 142.399 50.7204 137.461 40.1034C134.637 34.0314 133.168 27.3764 132.315 20.7634C131.863 17.2634 131.58 13.7434 131.346 10.2234C131.152 7.30944 130.841 4.35544 131.038 1.43344C131.187 -0.767559 131.606 -3.32556 133.063 -5.07856C135.103 -7.53156 138.314 -6.49856 140.925 -5.69256C146.414 -3.99856 151.667 -1.61556 156.588 1.34544C177.58 13.9794 190.937 36.5364 191.652 61.0614C191.84 67.5194 191.201 73.9854 189.694 80.2694C188.949 83.3784 188 86.4384 186.845 89.4194C185.827 92.0454 184.567 94.7214 182.554 96.7404C177.17 102.141 171.282 96.0364 167.33 92.0524C162.665 87.3504 158.413 82.2434 154.652 76.7904C152.792 74.0924 151.057 71.3134 149.429 68.4694C148.814 67.3944 146.961 67.5454 146.687 68.8274C145.005 76.7094 143.277 84.9434 138.558 91.6544C134.52 97.3964 127.328 102.077 120.058 100.907C113.707 99.8844 109.42 94.7294 106.95 89.1304C104.044 82.5454 103.373 75.2114 103.305 68.0944C103.262 63.6314 103.529 59.1604 104.119 54.7364C104.663 50.6574 105.286 46.3254 106.699 42.4424C107.238 40.9614 108.048 39.2964 109.513 38.5344C111.153 37.6814 112.958 38.3334 114.249 39.5074C117.48 42.4444 116.579 47.2934 115.77 51.0744C114.313 57.8884 112.647 66.4504 105.966 70.1104C103.301 71.5704 99.8508 72.2484 96.9848 70.9514C93.6898 69.4594 92.4118 65.8144 92.0638 62.4574C91.6078 58.0524 92.0938 53.4944 92.4338 49.0974C92.8288 43.9864 93.4018 38.8884 94.1638 33.8184C95.6648 23.8444 97.8668 13.9874 100.715 4.31144C99.7328 4.17844 98.7508 4.04544 97.7688 3.91244C98.8898 18.7924 91.2738 32.3624 81.8008 43.2454C77.0728 48.6774 71.8658 53.6814 66.6498 58.6374C62.0438 63.0134 56.4778 68.1364 49.7928 68.5674C37.8498 69.3354 32.8568 55.3494 31.4938 45.7724C29.3948 31.0234 30.5528 15.6444 34.2638 1.25144C35.2038 -2.39556 36.3198 -5.99756 37.6048 -9.53756C38.6528 -12.4256 39.7118 -15.5846 41.7848 -17.9256C47.1578 -23.9956 52.8848 -16.3886 55.4668 -11.7176C61.8248 -0.216559 65.3298 12.7964 65.9758 25.9034C66.6118 38.8044 64.5328 51.8144 59.7348 63.8164C58.5068 66.8874 57.0818 69.8824 55.4918 72.7824C53.9548 75.5854 52.3378 78.5334 50.1508 80.8884C47.7838 83.4374 44.7038 84.6704 41.2618 83.7424C37.9708 82.8564 35.1298 80.6194 32.7108 78.3024C14.0978 60.4744 4.16779 33.8504 5.22979 8.25044C5.36179 5.06644 5.66276 1.89244 6.13976 -1.25856C5.22576 -1.13956 4.31179 -1.01956 3.39779 -0.900558C15.7188 15.9174 14.2848 38.0444 11.3998 57.6014C11.0248 60.1424 10.6198 62.6784 10.1968 65.2114C9.87477 67.1354 9.51278 70.7944 6.92178 70.9264C4.64678 71.0424 2.64178 68.3864 1.57278 66.6994C0.0777768 64.3414 -1.19323 61.8064 -2.45323 59.3164C-7.60523 49.1354 -11.5272 38.3474 -14.1652 27.2474C-14.8262 24.4664 -15.4052 21.6654 -15.9022 18.8504C-16.3442 16.3424 -16.9652 13.7014 -16.8532 11.1404C-16.7332 8.41844 -15.1992 6.73844 -12.4832 8.25644C-10.5372 9.34444 -8.83624 11.0974 -7.27824 12.6714C-1.05324 18.9604 3.34379 26.9114 5.75079 35.4034C8.15579 43.8904 8.61177 52.9844 6.82677 61.6374C5.01777 70.4054 0.901789 80.3854 -6.99421 85.3274C-11.1062 87.9014 -16.1642 88.2874 -20.1262 85.1924C-23.5952 82.4834 -25.5322 78.1174 -26.6672 73.9784C-29.5562 63.4354 -28.7752 51.7604 -25.3232 41.4574C-24.4132 38.7434 -23.2922 36.1194 -21.9912 33.5704C-21.1112 31.8564 -23.6982 30.3364 -24.5772 32.0584Z" fill="#EB3D6B"/>
</g>
<path d="M113.309 122.204C113.309 133.031 104.526 141.801 93.6991 141.801C93.2551 141.801 92.8231 141.788 92.3921 141.75C82.1751 141.09 74.1021 132.586 74.1021 122.203C74.1021 111.821 82.1751 103.304 92.3921 102.644C92.8241 102.606 93.2551 102.593 93.6991 102.593C104.525 102.594 113.309 111.378 113.309 122.204Z" fill="white"/>
<path d="M87.9871 122.204C91.6801 125.999 93.8511 130.403 93.8511 135.1C93.8511 137.397 93.3431 139.631 92.3911 141.751C82.1741 141.091 74.1011 132.587 74.1011 122.204C74.1011 111.822 82.1741 103.305 92.3911 102.645C93.3431 104.765 93.8511 106.999 93.8511 109.296C93.8511 113.992 91.6811 118.397 87.9871 122.204Z" fill="#333333"/>
<path d="M202.167 122.204C202.167 133.031 193.384 141.801 182.557 141.801C182.113 141.801 181.681 141.788 181.25 141.75C171.033 141.09 162.96 132.586 162.96 122.203C162.96 111.821 171.032 103.304 181.25 102.644C181.682 102.606 182.113 102.593 182.557 102.593C193.384 102.594 202.167 111.378 202.167 122.204Z" fill="white"/>
<path d="M176.846 122.204C180.54 125.999 182.71 130.403 182.71 135.1C182.71 137.397 182.202 139.631 181.25 141.751C171.033 141.091 162.96 132.587 162.96 122.204C162.96 111.822 171.032 103.305 181.25 102.645C182.202 104.765 182.71 106.999 182.71 109.296C182.71 113.992 180.539 118.397 176.846 122.204Z" fill="#333333"/>
<path d="M138.134 151.721C130.32 151.721 123.962 145.364 123.962 137.549C123.962 136.996 124.41 136.549 124.962 136.549C125.514 136.549 125.962 136.996 125.962 137.549C125.962 144.261 131.423 149.721 138.134 149.721C144.845 149.721 150.306 144.261 150.306 137.549C150.306 136.996 150.754 136.549 151.306 136.549C151.858 136.549 152.306 136.996 152.306 137.549C152.306 145.363 145.949 151.721 138.134 151.721Z" fill="#333333"/>
<path d="M65.552 150.72C65.552 154.376 65.184 157.929 64.46 161.369C42.921 147.293 22.016 127.036 8.33398 98.6304C9.94598 98.4784 11.583 98.4014 13.233 98.4014C42.122 98.4024 65.552 121.819 65.552 150.72Z" fill="#74FBDA"/>
<path d="M252.843 98.9605C251.574 101.994 250.19 105.003 248.68 107.973C236.927 131.188 222.978 147.993 209.067 160.088C208.521 157.055 208.229 153.919 208.229 150.721C208.228 124.435 227.61 102.693 252.843 98.9605Z" fill="#74FBDA"/>
</svg>
