<svg viewBox="0 0 280 240" fill="none" xmlns="http://www.w3.org/2000/svg">
<path d="M120.355 158.928V239.052H79.7793C80.3563 226.55 94.4053 222.568 94.4053 222.568V160.036L120.355 158.928Z" fill="#74C0FF"/>
<path d="M103.714 203.608C101.122 203.608 98.7423 202.085 97.1843 199.428C96.9053 198.952 97.0643 198.339 97.5413 198.06C98.0183 197.779 98.6303 197.94 98.9093 198.416C100.099 200.444 101.851 201.607 103.715 201.607C105.579 201.607 107.33 200.444 108.52 198.415C108.798 197.938 109.411 197.776 109.888 198.059C110.365 198.338 110.524 198.951 110.245 199.427C108.686 202.085 106.307 203.608 103.714 203.608Z" fill="#333333"/>
<path d="M171.482 239.052H130.918V158.928L156.868 160.036V222.567C156.868 222.567 170.905 226.55 171.482 239.052Z" fill="#74C0FF"/>
<path d="M147.558 203.608C144.965 203.608 142.584 202.085 141.028 199.427C140.749 198.95 140.908 198.338 141.384 198.059C141.861 197.777 142.474 197.939 142.752 198.415C143.941 200.444 145.693 201.607 147.558 201.607C149.422 201.607 151.173 200.444 152.363 198.416C152.641 197.939 153.255 197.778 153.731 198.06C154.208 198.339 154.367 198.952 154.087 199.428C152.53 202.085 150.15 203.608 147.558 203.608Z" fill="#333333"/>
<path d="M94.4062 214.002H120.356V239.052H79.7803C80.3573 226.55 94.4062 222.568 94.4062 222.568V214.002Z" fill="#4B65FB"/>
<path d="M171.482 239.052H130.918V214.002H156.868V222.567C156.868 222.567 170.905 226.55 171.482 239.052Z" fill="#4B65FB"/>
<path d="M83.4941 183.094C83.4941 190.598 81.9722 196.682 80.0952 196.682C78.2182 196.682 76.6961 190.599 76.6961 183.094C76.6961 183.013 76.6991 182.934 76.6991 182.853H76.6931C76.6931 182.934 76.6961 183.012 76.6961 183.094C76.6961 190.598 75.1741 196.682 73.2971 196.682C71.4201 196.682 69.8981 190.599 69.8981 183.094C69.8981 183.013 69.9011 182.934 69.9011 182.853H69.8951C69.8951 182.934 69.8981 183.012 69.8981 183.094C69.8981 190.598 68.3761 196.682 66.4991 196.682C64.6221 196.682 63.1001 190.599 63.1001 183.094C63.1001 183.013 63.1031 182.934 63.1031 182.853H63.1001V140.962L83.4941 140.912V182.854H83.4911C83.4911 182.934 83.4941 183.012 83.4941 183.094Z" fill="#74C0FF"/>
<path d="M180.445 133.977C179.968 133.862 179.664 133.783 179.551 133.754L184.854 113.663L182.203 123.708L184.837 113.658C185.125 113.73 214.018 121.08 232.746 111.196C250.603 101.771 255.917 75.5207 255.969 75.2567L276.379 79.1527C276.1 80.6277 269.229 115.436 242.445 129.572C218.444 142.239 186.32 135.391 180.445 133.977Z" fill="#74C0FF"/>
<path d="M273.644 62.0857C272.887 62.0857 272.171 62.2527 271.521 62.5407L276.698 51.8027C277.361 50.5787 276.902 49.0337 275.678 48.3707C274.454 47.7077 272.909 48.1667 272.246 49.3907L268.137 56.9977L267.369 49.1577C267.335 47.7657 266.168 46.6547 264.776 46.6877C263.384 46.7217 262.273 47.8887 262.307 49.2807L262.461 61.3017C262.459 61.3007 262.458 61.2997 262.456 61.2987C262.329 61.2417 262.183 61.1897 262.042 61.1547C260.687 60.8287 259.315 61.6687 258.989 63.0237L255.764 76.4337C256.05 76.6347 256.383 76.7847 256.741 76.8707L260.64 77.8087L267.432 79.4427L270.866 80.2687L274.765 81.2067C275.131 81.2947 275.488 81.3097 275.842 81.2637L279.067 67.8537C279.229 67.1807 279.216 62.0857 273.644 62.0857Z" fill="#74C0FF"/>
<path d="M264.981 72.1627C262.623 72.1627 260.374 71.6767 259.897 71.5677C259.359 71.4437 259.023 70.9077 259.146 70.3697C259.27 69.8317 259.81 69.4987 260.344 69.6187C262.933 70.2097 268.462 70.7667 269.032 68.7077C269.626 66.5597 264.57 63.3987 262.029 62.2057C261.53 61.9707 261.315 61.3747 261.55 60.8747C261.785 60.3757 262.38 60.1607 262.881 60.3947C263.834 60.8427 272.159 64.8977 270.96 69.2397C270.316 71.5727 267.582 72.1627 264.981 72.1627Z" fill="#333333"/>
<path d="M214.014 3.0947C213.909 3.7307 213.769 4.3637 213.67 5.0017C213.616 5.3477 213.661 5.7097 213.661 6.1017C213.438 5.9717 213.286 5.8227 213.112 5.7907C212.406 5.6617 212.184 5.22671 212.233 4.56171C212.245 4.40571 212.202 4.2087 212.109 4.0877C211.679 3.5287 211.836 2.97871 212.106 2.43571C212.115 2.41771 212.125 2.4007 212.134 2.3827C203.845 -0.491296 193.52 -0.910296 181.011 1.9247C178.3 2.5387 175.713 3.3597 173.239 4.3517C173.011 4.6937 172.77 5.0277 172.567 5.3827C172.371 5.7257 172.137 5.75271 171.871 5.53271C171.713 5.40171 171.567 5.2617 171.423 5.1207C167.14 7.0287 163.219 9.4687 159.631 12.2917C160.481 12.8407 160.452 13.4607 159.619 14.1157C158.895 14.6847 158.265 15.3717 157.567 15.9747C157.341 16.1697 157.035 16.3597 156.755 16.3747C156.544 16.3867 156.303 16.1327 156.111 15.9577C156.082 15.9317 156.226 15.6707 156.329 15.5517C156.55 15.2957 156.598 15.1007 156.502 14.9207C152.093 18.8727 148.235 23.3957 144.871 28.1747C145.004 28.1617 145.139 28.1517 145.225 28.0807C145.65 27.7277 146.022 27.3107 146.418 26.9227C146.679 26.6667 146.926 26.3907 147.217 26.1727C147.584 25.8977 147.967 25.6187 148.386 25.4457C148.654 25.3347 148.999 25.4127 149.309 25.4067C149.255 25.7157 149.277 26.0707 149.126 26.3217C148.99 26.5487 148.687 26.7447 148.42 26.8157C146.994 27.1927 146.229 28.3317 145.399 29.3857C144.986 29.9097 144.691 30.5267 144.282 31.0547C143.925 31.5137 143.426 31.8667 143.092 32.3387C142.612 33.0167 142.219 33.7577 141.801 34.4787C141.329 35.2917 140.945 35.4907 140.412 35.1047C128.088 56.0477 124.113 78.7697 124.113 78.7697C124.113 78.7697 116.487 59.7737 101.484 41.6367C101.107 42.0097 100.773 42.2767 100.538 42.3557C100.489 42.2497 100.404 42.1447 100.392 42.0317C100.324 41.3887 100.258 40.7457 100.194 40.1017C97.2633 36.6667 94.0672 33.2857 90.6052 30.0907C90.4362 30.1377 90.2623 30.1817 90.1013 30.2387C89.6313 30.4057 89.1712 30.6197 89.0012 31.1787C88.9662 31.2927 88.7793 31.3927 88.6433 31.4267C88.5933 31.4397 88.4723 31.2557 88.4163 31.1447C88.3303 30.9777 88.2672 30.7987 88.2042 30.6207C88.0462 30.1787 87.8723 29.7357 88.6383 29.7247C88.7643 29.7227 88.9262 29.6097 89.0062 29.5007C89.1772 29.2647 89.3692 29.1677 89.5792 29.1517C83.3432 23.5487 76.2723 18.5857 68.3783 15.0097C68.3833 15.0167 68.3863 15.0307 68.3923 15.0357C68.9673 15.5947 69.5862 16.1107 70.2122 16.6147C70.7512 17.0497 71.4193 17.3627 71.5903 18.2507C71.1973 18.0637 70.8422 17.9667 70.5792 17.7557C69.7052 17.0567 68.8852 16.2897 68.0012 15.6037C67.5322 15.2397 66.9922 14.9557 66.4542 14.6977C66.1892 14.5707 65.7152 14.6917 65.5792 14.5147C65.3192 14.1747 65.0213 13.8497 64.7833 13.4927C54.8293 9.65171 43.6453 8.06571 31.2463 10.1317C28.2923 10.6237 25.4413 11.6297 22.7413 13.0757C22.8983 13.0807 23.0593 13.1067 23.2323 13.1777C23.3603 13.2307 23.5292 13.1937 23.6782 13.1847C24.4632 13.1407 24.4723 13.1417 24.2653 13.8947C24.1993 14.1337 24.1052 14.3827 23.9592 14.5787C23.7052 14.9177 23.4273 15.2067 22.9233 14.9017C22.4033 14.5867 21.8383 14.3047 21.2023 13.9737C17.4573 16.2657 14.0433 19.4227 11.0963 23.2617C11.1033 23.2647 11.1112 23.2677 11.1182 23.2707C12.2592 23.7927 13.3433 24.4397 14.4523 25.0317C14.4553 25.0787 14.4573 25.1257 14.4603 25.1727C13.7983 25.2927 13.1382 25.4237 12.4722 25.5207C12.3542 25.5377 12.1162 25.4327 12.1022 25.3537C11.9402 24.4557 11.0533 24.4977 10.5023 24.1497C10.4863 24.1387 10.4672 24.1317 10.4512 24.1207C8.95824 26.1647 7.59924 28.3887 6.38624 30.7647C6.68924 31.2687 6.83127 31.8827 7.08027 32.4287C7.28827 32.8857 7.57326 33.3067 7.79426 33.7587C7.89626 33.9667 7.92826 34.2097 7.99226 34.4367C7.93326 34.4767 7.87424 34.5157 7.81624 34.5557C7.35124 34.1257 6.86727 33.7147 6.42427 33.2637C6.08927 32.9227 5.80029 32.6957 5.53029 32.5217C-1.37471 47.3727 -2.58777 67.5897 6.42823 87.2767C6.79723 88.0967 7.17829 88.9047 7.58229 89.7007C20.0263 115.536 39.0382 133.959 58.6282 146.761C88.0642 166.016 118.804 172.607 130.602 172.607C139.133 172.607 164.563 167.863 190.144 145.595C202.796 134.594 215.482 119.31 226.171 98.1967C227.545 95.4957 228.803 92.7597 229.957 90.0007C244.925 54.1677 241.573 14.3197 214.014 3.0947ZM3.21724 46.4637C2.89624 46.5737 2.57626 46.6837 2.25526 46.7937C2.19126 46.7297 2.12728 46.6647 2.06428 46.6007C2.19128 46.3497 2.28224 45.9257 2.45424 45.8897C2.67724 45.8427 2.96625 46.1037 3.22725 46.2317C3.22325 46.3097 3.22024 46.3867 3.21724 46.4637ZM7.20625 61.2507C7.11925 61.2487 7.03324 61.2467 6.94624 61.2447C5.76124 59.7197 4.57528 58.1947 3.38728 56.6667C5.02728 56.8347 6.65626 57.0007 8.38026 57.1777C8.05026 58.5987 6.64525 59.6177 7.20625 61.2507ZM14.3422 74.8567C13.0972 75.7897 11.8623 76.7357 10.6203 77.6727C10.5773 77.7057 10.5013 77.6947 10.4273 77.7067C10.3243 76.7967 10.9542 76.1917 11.3052 75.4787C11.7752 74.5267 12.2443 73.5727 12.7413 72.6337C12.8783 72.3757 13.1123 72.1687 13.3013 71.9387C13.5303 72.1537 13.8183 72.3327 13.9743 72.5917C14.2333 73.0197 14.4072 73.4987 14.6182 73.9557C14.7962 74.3397 14.6662 74.6127 14.3422 74.8567ZM14.1073 49.2207C13.2893 49.6057 12.4992 49.3767 11.4752 49.2407C11.7702 48.9907 11.9173 48.7707 12.1093 48.7187C13.3403 48.3837 14.5793 48.0757 15.8203 47.7827C16.1733 47.6997 16.9653 48.4287 16.9313 48.7967C16.9193 48.9307 16.7762 49.1547 16.6782 49.1637C16.1412 49.2097 15.5982 49.2047 15.0582 49.2107C14.7372 49.2127 14.3673 49.0977 14.1073 49.2207ZM19.4393 57.6687C18.3203 57.4557 17.2042 57.2257 16.0872 57.0027C16.0852 56.9197 16.0833 56.8377 16.0823 56.7547C17.2063 56.5017 18.3243 56.2117 19.4583 56.0137C19.9543 55.9267 20.1693 56.3397 20.1613 57.0727C20.1563 57.5817 19.9003 57.7567 19.4393 57.6687ZM19.2583 33.4027C18.9893 33.7847 18.6783 33.6597 18.4393 33.4717C17.8993 33.0467 17.4092 32.5587 16.8892 32.1067C16.7162 31.9567 16.5243 31.8167 16.3203 31.7137C15.7263 31.4157 15.2752 31.5397 14.9432 32.1217C14.7582 32.4467 14.6813 32.8337 14.4893 33.1537C14.3923 33.3157 14.1593 33.4387 13.9653 33.4817C13.8633 33.5047 13.6693 33.3477 13.5933 33.2247C13.2313 32.6367 12.2893 32.3847 11.6713 32.7337C10.8923 33.1737 10.1613 32.7917 10.0253 31.7857C10.5453 31.8407 11.0443 31.9317 11.5443 31.9357C12.0923 31.9397 12.6633 31.9467 13.1843 31.8037C14.2003 31.5227 15.1753 31.0957 16.1903 30.8107C17.0303 30.5747 17.9043 30.4607 18.7623 30.2867C19.2043 30.1967 19.6433 30.0947 20.0883 29.9967C20.3473 31.3237 19.9653 32.3987 19.2583 33.4027ZM27.0513 16.6337C27.0583 16.3017 27.3622 15.9677 27.5662 15.6537C27.6222 15.5677 27.7862 15.5527 28.0372 15.4497C28.4352 16.1487 28.8373 16.8537 29.2593 17.5937C28.5313 17.7507 27.0433 16.9847 27.0513 16.6337ZM28.8233 72.9887C28.4033 72.8017 27.9823 72.6147 27.5623 72.4277C27.6113 72.3437 27.6593 72.2587 27.7083 72.1747C28.1133 72.3777 28.5173 72.5797 28.9223 72.7827C28.8903 72.8517 28.8573 72.9197 28.8233 72.9887ZM30.3632 34.0317C30.0782 33.9207 29.7463 33.9257 29.4343 33.8907C28.9073 33.8317 28.5423 33.9397 28.4713 34.5887C28.4173 35.0827 27.9913 35.1057 27.4953 35.0007C27.6433 34.1007 27.7663 33.2177 27.9423 32.3447C28.0223 31.9467 28.2913 31.8667 28.6603 32.0847C29.1813 32.3927 29.7173 32.5847 30.3563 32.6487C30.8853 32.7017 31.3723 33.1627 31.8963 33.4517C31.4573 34.0897 31.0042 34.2817 30.3632 34.0317ZM64.6392 73.6747C64.1102 74.1357 63.5923 74.5867 63.0753 75.0377C63.2393 73.9127 64.0002 73.3247 64.6392 73.6747ZM50.2983 16.2877C50.5743 16.4397 50.8653 16.5657 51.1343 16.7287C51.2413 16.7927 51.3073 16.9237 51.3923 17.0247C51.2833 17.1107 51.1852 17.2227 51.0612 17.2737C50.9492 17.3197 50.8103 17.3037 50.6823 17.3047C50.1223 17.3077 49.5553 17.3587 49.0043 17.2877C48.6663 17.2447 48.3533 17.0137 47.9833 16.8467C48.9703 15.7357 49.2143 15.6897 50.2983 16.2877ZM41.3933 10.6287C41.6073 10.6497 41.8273 10.6447 42.0333 10.6977C42.7133 10.8707 43.3802 11.1097 44.0682 11.2327C44.4242 11.2967 44.8143 11.1687 45.1903 11.1337C46.1043 11.0487 46.4993 11.7517 46.9843 12.3187C47.2393 12.6167 47.4972 12.9117 47.8292 13.2967C47.6782 13.5187 47.4833 13.8047 47.2343 14.1707C46.9273 13.9487 46.6712 13.7637 46.3862 13.5577C45.9762 13.7897 45.7433 13.6997 45.6193 13.1857C45.5703 12.9837 45.5673 12.7637 45.4833 12.5797C45.3943 12.3847 45.2322 12.2227 45.1022 12.0467C44.9532 12.1687 44.7833 12.2717 44.6603 12.4147C44.3083 12.8277 44.0343 12.8257 43.6213 12.4597C43.4973 12.3507 43.2493 12.3727 43.0563 12.3537C42.8783 12.3367 42.6142 12.4197 42.5322 12.3297C42.0912 11.8407 41.6942 11.3117 41.2822 10.7967C41.3202 10.7407 41.3563 10.6847 41.3933 10.6287ZM46.8182 17.9907C46.6872 17.5637 46.5653 17.1707 46.3983 16.6257C47.4943 17.2317 47.5462 17.4297 46.8182 17.9907ZM37.9932 67.5207C37.7682 67.9187 37.4903 67.9137 37.2423 67.5287C36.8833 66.9727 36.6783 66.4357 37.3513 65.8977C38.1863 66.4277 38.3592 66.8737 37.9932 67.5207ZM37.8632 62.4297C37.4882 62.6877 37.6073 63.0107 37.6583 63.3227C37.7463 63.8587 37.5432 64.0647 37.0242 63.9207C36.9232 63.8927 36.8233 63.8637 36.7243 63.8317C35.9223 63.5677 35.8913 63.4757 36.2243 62.6737C36.3993 62.2507 36.5013 61.7957 36.6973 61.3837C37.0053 60.7337 37.3762 60.5647 37.9432 60.9307C38.3072 61.1657 38.6013 61.3197 39.0173 61.1817C39.0483 61.1717 39.1102 61.2587 39.2142 61.3487C38.7502 61.7237 38.3292 62.1097 37.8632 62.4297ZM43.9882 62.2957C43.9052 62.3007 43.7832 62.3077 43.7432 62.2607C43.1992 61.6117 42.6622 62.0297 42.1752 62.3067C41.6472 62.6057 41.1953 62.5997 40.7203 62.1847C41.2883 60.5697 44.8803 58.5927 47.0353 58.7287C46.6703 59.3267 46.3262 59.8937 45.9772 60.4587C45.8672 60.6367 45.7012 60.7927 45.6392 60.9837C45.4302 61.6317 44.6702 62.2577 43.9882 62.2957ZM42.5603 54.9317C42.6363 54.0797 42.8803 53.8357 43.5353 53.8627C43.6363 54.5737 42.9873 54.5687 42.5603 54.9317ZM46.9923 84.4017C46.9333 84.6977 46.5443 85.0187 46.2323 85.1487C45.8673 85.3007 45.4522 85.1147 45.4982 84.6337C45.5722 83.8657 45.6252 83.0597 45.9122 82.3627C46.0902 81.9297 46.6833 81.6677 47.0903 81.3287C47.1713 81.3927 47.2532 81.4577 47.3342 81.5217C47.2312 82.4847 47.1803 83.4567 46.9923 84.4017ZM45.5892 51.8457C45.1792 51.8787 44.7513 51.4397 44.3043 51.3057C43.2703 50.9957 42.6673 50.1677 41.9713 49.4517C41.5673 49.0367 41.8123 48.6477 42.0883 48.2747C42.3583 47.9097 42.6693 48.0057 42.9833 48.1847C43.9113 48.7137 44.8293 49.2637 45.7653 49.7777C46.4013 50.1277 47.0632 50.4317 47.7512 50.7747C47.2842 51.6407 46.4062 51.7797 45.5892 51.8457ZM49.4263 35.6517C49.0593 36.2567 48.6823 36.8577 48.2703 37.4337C48.1053 37.6647 47.8382 37.8247 47.6182 38.0167C47.5812 37.7157 47.4233 37.3597 47.5313 37.1257C47.7603 36.6247 47.4993 36.2797 47.3353 35.8777C47.2173 35.5887 47.1452 35.2797 47.0532 34.9797C47.4532 34.8977 47.8492 34.7787 48.2532 34.7447C48.7302 34.7037 49.2143 34.7347 49.8823 34.7347C49.7563 34.9927 49.6173 35.3377 49.4263 35.6517ZM50.7402 34.5897C50.5812 34.3517 50.5262 34.0197 50.5162 33.7227C50.5142 33.6517 50.8563 33.4997 51.0333 33.5087C51.3843 33.5267 51.7303 33.6317 52.3223 33.7487C51.9473 34.0747 51.7083 34.3477 51.4103 34.5197C51.2223 34.6287 50.8012 34.6817 50.7402 34.5897ZM57.6533 76.0037C57.2753 75.2687 56.8162 75.0817 56.0552 75.2537C54.8752 75.5207 53.6773 75.6767 52.6533 76.3927C52.5923 76.4347 52.4883 76.4297 52.4063 76.4247C51.9373 76.3957 51.4683 76.3607 50.9713 76.3257C51.0403 76.2477 51.1383 76.1037 51.2673 75.9977C51.8933 75.4867 52.5183 74.9717 53.1633 74.4847C53.8103 73.9967 53.4783 73.3807 53.4393 72.7937C53.4223 72.5377 53.4603 72.2777 53.4733 72.0187C53.7083 72.0437 53.9733 72.0077 54.1743 72.1037C55.0883 72.5387 55.9732 73.0337 56.8912 73.4597C57.4882 73.7367 58.1233 73.9297 58.8543 74.2027C58.9413 74.9667 58.2703 75.4117 57.6533 76.0037ZM59.4042 67.1147C59.3382 67.0727 59.2722 67.0307 59.2062 66.9887C59.2702 66.7097 59.3343 66.4307 59.3983 66.1517C59.4633 66.1407 59.5282 66.1297 59.5942 66.1187C59.6912 66.3227 59.8753 66.5357 59.8573 66.7287C59.8433 66.8697 59.5642 66.9867 59.4042 67.1147ZM60.2673 15.3247C60.7923 15.0517 61.4352 14.7167 62.1802 14.3287C62.3232 14.6577 62.5223 15.1067 62.7073 15.5607C62.7363 15.6307 62.7332 15.7597 62.6882 15.8067C62.2282 16.2817 61.7562 16.7467 61.3242 17.1757C60.9452 16.5107 60.6193 15.9387 60.2673 15.3247ZM61.8383 86.6637C61.8063 85.5357 62.5653 84.9787 63.3103 84.3657C64.1113 83.7057 64.8253 82.9397 65.5963 82.2417C65.8873 81.9787 66.2303 81.7727 66.5493 81.5417C66.6033 81.5977 66.6563 81.6527 66.7103 81.7087C65.0943 83.3517 63.4783 84.9947 61.8383 86.6637ZM109.998 57.3087C109.534 57.4217 109.173 57.5087 108.754 57.6107C108.98 56.8197 109.194 56.7657 109.998 57.3087ZM106.98 55.7557C107.429 56.1277 107.786 56.4237 108.261 56.8167C107.621 57.0297 107.134 57.1927 106.545 57.3877C106.715 56.7497 106.833 56.3077 106.98 55.7557ZM69.6652 57.9637C69.6372 58.4947 69.3813 58.5597 69.0133 58.3037C68.6853 58.0757 68.4102 57.7697 68.0062 57.4017C68.6122 56.6177 69.1753 55.8887 69.7393 55.1597C69.7843 55.1937 69.8282 55.2277 69.8732 55.2607C69.8002 56.1617 69.7132 57.0617 69.6652 57.9637ZM72.1132 26.6007C71.7542 26.9167 71.4273 27.1487 71.1733 27.4437C70.7853 27.8937 70.8852 28.1077 71.4492 28.2367C71.6332 28.2787 71.7963 28.4117 71.9683 28.5037C71.9573 28.5587 71.9453 28.6147 71.9343 28.6697C71.4143 28.6447 70.8933 28.6207 70.3803 28.5957C69.9483 27.2137 70.8262 26.3617 72.1132 26.6007ZM70.9503 76.9537C70.8543 76.7087 70.7583 76.4627 70.6083 76.0787C71.1203 75.8467 71.6363 75.6607 72.0963 75.3837C72.3243 75.2467 72.4383 74.9297 72.6273 74.7147C72.8023 74.5157 73.0073 74.3437 73.3153 74.0497C73.3703 74.9247 71.8863 76.6047 70.9503 76.9537ZM74.7993 22.8747C74.7523 23.4637 74.7273 24.0557 74.6683 24.6437C74.6403 24.9237 74.5572 25.1987 74.4982 25.4757C74.4062 25.4937 74.3142 25.5107 74.2222 25.5287C74.1672 25.3297 74.0772 25.1337 74.0632 24.9327C74.0302 24.4617 74.1143 23.9687 74.0043 23.5197C73.8383 22.8417 73.5193 22.2037 73.3233 21.5307C73.2543 21.2927 73.3432 21.0027 73.3812 20.7397C73.4262 20.4297 73.4953 20.1227 73.5913 19.6197C73.8963 19.8347 74.1742 19.9717 74.3732 20.1827C75.1192 20.9757 74.8733 21.9407 74.7993 22.8747ZM85.5553 48.9817C85.6923 48.5747 85.8293 48.1687 86.0033 47.6497C86.5323 48.2447 86.4483 48.5087 85.5553 48.9817ZM94.7512 56.5127C94.7402 56.2907 94.7662 56.1247 94.7172 55.9847C94.6062 55.6707 94.3903 55.4977 94.0643 55.7167C93.8893 55.8347 93.7663 56.0247 93.5993 56.1567C93.1973 56.4747 92.7823 56.7687 92.3753 56.1567C92.3633 56.1397 92.3463 56.1157 92.3283 56.1137C91.3353 55.9937 90.9733 55.1907 90.5593 54.4597C90.3383 54.0687 90.1203 53.6597 90.0043 53.2307C89.8803 52.7727 89.6633 52.5337 89.2053 52.3727C88.7623 52.2167 88.3512 51.9187 87.9882 51.6097C87.8272 51.4727 87.8202 51.1547 87.7142 50.8267C88.3162 50.9447 88.7722 51.0047 89.2092 51.1317C89.4192 51.1927 89.6993 51.3377 89.7663 51.5137C90.1133 52.4257 90.8813 52.6187 91.7063 52.7887C92.2133 52.8927 92.7093 53.0647 93.1953 53.2457C93.7413 53.4487 93.8833 53.9407 93.9603 54.4577C93.9783 54.5757 93.9862 54.6947 93.9882 54.7147C94.3752 54.4827 94.7072 54.1337 95.0662 54.1047C95.5362 54.0667 95.9932 54.3237 96.1102 54.7417C95.6342 55.3607 95.2212 55.8997 94.7512 56.5127ZM95.6453 52.3847C94.9673 51.8847 95.0342 51.6507 96.1152 50.7377C96.5352 51.1027 96.4243 51.4907 95.6453 52.3847ZM100.975 53.3067C99.9892 53.5747 99.0013 53.9177 97.9633 53.5507C97.4443 53.3667 97.0993 53.0687 97.1583 52.4307C97.2003 51.9827 97.2723 51.4837 96.7343 51.2007C96.6933 51.1787 96.7453 50.8087 96.8053 50.7937C97.3553 50.6507 96.9962 49.5357 97.8242 49.7957C98.2452 49.9277 98.6233 50.2517 98.9713 50.5467C99.3683 50.8827 99.7023 51.2917 100.078 51.6537C100.498 52.0577 100.859 52.5727 101.581 52.4327C101.678 52.4137 101.821 52.6337 102.071 52.8587C101.622 53.0457 101.309 53.2157 100.975 53.3067ZM102.697 54.5127C102.541 53.9047 102.441 53.5097 102.333 53.0917C102.88 52.8967 103.141 53.3317 103.289 53.6647C103.353 53.8067 102.961 54.1517 102.697 54.5127ZM106.878 80.6367C106.283 80.9997 105.226 80.8227 104.755 80.2857C105.883 80.4267 106.121 79.3347 106.818 78.8447C106.955 79.2837 107.123 79.6637 107.174 80.0597C107.197 80.2417 107.041 80.5367 106.878 80.6367ZM108.218 96.4827C108.963 96.2617 109.708 96.0407 110.533 95.7957C110.35 96.7957 109.528 97.0447 108.218 96.4827ZM112.28 91.8897C111.863 91.6697 111.527 91.4927 111.192 91.3157C111.401 91.1977 111.598 91.0127 111.82 90.9747C112.362 90.8857 112.389 91.2467 112.28 91.8897ZM116.421 97.1197C116.269 96.9307 116.118 96.7417 115.966 96.5527C116.057 96.4637 116.148 96.3747 116.24 96.2857C116.398 96.4327 116.591 96.5587 116.694 96.7367C116.726 96.7937 116.518 96.9887 116.421 97.1197ZM142.352 66.4347C141.871 66.4707 141.389 66.5167 140.908 66.5247C140.549 66.5307 140.17 66.5487 139.834 66.4477C138.859 66.1527 137.913 65.5837 136.935 65.5347C136.018 65.4887 134.931 65.1157 134.084 66.0307C133.807 66.3307 133.263 66.4767 132.826 66.5157C131.973 66.5917 131.107 66.5107 130.25 66.5547C129.644 66.5857 129.044 66.7177 128.441 66.7957C128.296 66.8147 128.147 66.7987 128 66.7987C127.98 66.7437 127.96 66.6887 127.94 66.6337C128.221 66.4717 128.497 66.3007 128.783 66.1487C130.892 65.0327 133.015 63.9407 135.108 62.7947C135.857 62.3847 136.504 61.7857 137.255 61.3787C138.079 60.9317 138.188 61.0087 138.667 61.7597C138.444 62.0237 138.174 62.2507 138.03 62.5397C137.833 62.9357 137.845 63.3407 138.221 63.6927C138.462 63.9187 138.581 64.3037 138.847 64.4697C139.417 64.8247 140.031 65.1237 140.656 65.3697C141.255 65.6057 141.898 65.7247 142.506 65.9407C142.669 65.9987 142.773 66.2217 142.904 66.3687C142.719 66.3917 142.536 66.4207 142.352 66.4347ZM143.383 72.4577C143.292 72.4207 143.2 72.3847 143.109 72.3477C143.26 72.0387 142.975 71.5527 143.757 71.4937C143.632 71.8147 143.508 72.1367 143.383 72.4577ZM149.254 53.6597C148.646 53.9727 148.178 54.2177 147.705 54.4557C147.265 54.6777 146.822 54.8927 146.265 55.1677C146.679 54.3817 148.409 53.5017 149.254 53.6597ZM151.445 57.3437C151.282 57.7207 151.099 58.1177 151.068 58.5167C151.034 58.9447 150.845 59.1047 150.484 59.0787C149.453 59.0047 148.39 59.0257 147.408 58.7587C146.836 58.6027 146.395 57.9657 145.835 57.4937C146.471 57.0747 147 56.9207 147.615 57.1597C147.842 57.2477 148.155 57.3427 148.345 57.2547C148.885 57.0037 149.145 57.2857 149.374 57.6777C149.618 58.0957 149.876 57.9547 150.056 57.6697C150.22 57.4117 150.398 57.0837 150.375 56.8017C150.326 56.1857 150.583 55.8377 151.065 55.5067C151.62 55.1247 152.109 54.6457 152.627 54.2087C152.683 54.2497 152.74 54.2907 152.796 54.3327C152.343 55.3327 151.881 56.3327 151.445 57.3437ZM151.281 35.8597C150.634 35.4437 149.899 34.9407 149.133 34.4897C148.651 34.2057 148.128 33.9857 147.613 33.7627C147.254 33.6077 147.186 33.4037 147.485 33.1567C147.888 32.8227 148.308 32.5077 148.743 32.2157C149.552 31.6707 149.584 31.6837 150.312 32.4837C149.869 32.8547 149.973 33.1237 150.402 33.3887C150.509 33.4547 150.55 33.7127 150.534 33.8727C150.489 34.3187 150.592 34.5807 151.109 34.5327C151.448 34.5007 151.791 34.5197 152.13 34.4947C152.426 34.4727 152.72 34.4217 153.013 34.3837C152.429 34.8807 151.886 35.3437 151.281 35.8597ZM153.385 31.9887C153.112 32.3797 151.651 32.6577 151.267 32.3737C151.168 32.2997 151.078 32.0307 151.13 31.9637C151.586 31.3687 152.177 30.9697 152.959 31.0777C153.182 31.1087 153.373 31.3657 153.565 31.5087C153.471 31.7617 153.452 31.8927 153.385 31.9887ZM155.027 21.1967C154.229 21.8627 153.399 22.4907 152.555 23.1477C151.967 22.2577 151.976 22.1327 152.716 21.6797C153.32 21.3097 153.944 20.9697 154.575 20.6457C154.708 20.5767 154.907 20.6347 155.075 20.6347C155.063 20.8257 155.129 21.1117 155.027 21.1967ZM162.351 60.4457C162.814 61.5337 162.759 61.6057 161.32 61.7207C161.7 61.2517 162.013 60.8647 162.351 60.4457ZM165.014 74.4967C164.954 74.5507 164.797 74.5407 164.704 74.5067C163.689 74.1357 162.722 74.4197 161.736 74.6837C162.746 73.9287 163.757 73.1737 164.834 72.3687C165.011 73.0137 165.179 73.5477 165.288 74.0937C165.311 74.2087 165.135 74.3887 165.014 74.4967ZM165.176 62.1427C164.801 62.1487 164.424 62.0287 164.028 61.8897C164.528 61.6097 164.759 61.3247 164.584 60.7287C164.523 60.5187 164.944 60.1667 165.178 59.8327C165.325 60.5257 165.479 61.0867 165.542 61.6587C165.56 61.8137 165.308 62.1407 165.176 62.1427ZM167.508 9.06071C166.981 9.19071 166.456 9.3277 165.924 9.4337C165.887 9.4407 165.734 9.1417 165.753 9.1247C166.037 8.8817 166.317 8.5447 166.649 8.4767C166.912 8.4227 167.244 8.70571 167.546 8.83971C167.534 8.91271 167.521 8.98671 167.508 9.06071ZM170.719 11.1987C170.707 10.5677 171.107 10.1297 171.471 9.6827C171.523 9.6187 171.667 9.58871 171.759 9.60371C172.07 9.65671 173.068 10.8477 173.124 11.1977C172.339 11.1987 171.552 11.1987 170.719 11.1987ZM174.544 7.8237C174.464 7.7577 174.344 7.6657 174.345 7.5877C174.358 6.8027 174.393 6.0177 174.422 5.2327C174.493 5.2307 174.564 5.2287 174.635 5.2267C175.642 6.3297 175.632 7.8187 176.209 9.1687C175.591 8.6717 175.065 8.2497 174.544 7.8237ZM177.12 14.3417C176.998 14.2267 176.815 14.1337 176.767 13.9927C176.603 13.5227 176.295 12.9967 177.094 12.6617C177.202 13.0847 177.334 13.4637 177.378 13.8517C177.395 14.0037 177.212 14.1777 177.12 14.3417ZM187.285 8.2687C186.8 8.2297 186.376 8.2027 185.953 8.1567C185.859 8.1467 185.689 8.05171 185.694 8.03471C185.812 7.61171 185.833 7.0727 186.112 6.8057C186.491 6.4437 186.674 6.9257 186.825 7.2357C186.981 7.5557 187.142 7.8727 187.291 8.1957C187.313 8.2427 187.279 8.3157 187.285 8.2687ZM190.079 10.1917C189.855 10.3627 189.494 10.6527 189.356 10.5797C188.94 10.3607 188.591 10.0027 188.258 9.65771C188.228 9.62671 188.505 9.3007 188.59 9.1807C189.181 9.3017 189.592 9.3687 189.992 9.4767C190.135 9.5157 190.368 9.6687 190.357 9.7397C190.332 9.9027 190.215 10.0877 190.079 10.1917ZM208.527 15.7067C208.201 15.9927 207.936 16.3497 207.491 16.8447C207.284 16.1757 207.071 15.6767 206.986 15.1567C206.912 14.7027 207.296 14.3937 207.734 14.4897C207.995 14.5467 208.261 14.6457 208.488 14.7867C209.006 15.1087 208.983 15.3057 208.527 15.7067ZM228.861 17.8387C229.473 17.7577 230.085 17.6767 230.697 17.5957C230.159 18.2917 229.54 18.3637 228.861 17.8387Z" fill="#74C0FF"/>
<path d="M158.516 14.2627C158.747 13.8567 158.845 13.3767 159.024 12.9397C159.065 12.8407 159.121 12.7487 159.169 12.6537C158.418 13.2557 157.684 13.8767 156.963 14.5107C157.039 14.5657 157.127 14.6237 157.241 14.6957C157.739 15.0117 158.15 14.9067 158.516 14.2627Z" fill="#FF4274"/>
<mask id="mask0_206_2786" style="mask-type:luminance" maskUnits="userSpaceOnUse" x="0" y="0" width="239" height="173">
<path d="M229.955 90.0027C228.801 92.7617 227.542 95.4977 226.169 98.1987C215.48 119.312 202.793 134.596 190.142 145.597C164.561 167.865 139.131 172.609 130.6 172.609C118.802 172.609 88.0621 166.018 58.6261 146.763C39.0371 133.961 20.0241 115.538 7.58014 89.7027C7.17614 88.9067 6.79514 88.0987 6.42614 87.2787C-9.91986 51.5857 7.31511 14.1157 31.2451 10.1327C92.4841 -0.0712814 124.113 78.7707 124.113 78.7707C124.113 78.7707 135.748 12.1757 181.011 1.92572C237.713 -10.9223 249.591 42.9977 229.955 90.0027Z" fill="white"/>
</mask>
<g mask="url(#mask0_206_2786)">
<path d="M282.577 17.4827C277.145 17.0257 272.366 22.2057 268.77 25.5997C260.619 33.2917 252.949 42.5047 241.555 45.2147C239.953 45.5957 238.32 45.7907 236.693 45.8187C238.468 42.1287 239.941 38.2977 241.016 34.3287C243.904 23.6717 243.77 12.0497 239.734 1.6967C237.755 -3.3803 234.915 -8.0973 231.147 -12.0533C227.656 -15.7173 222.12 -19.2843 216.882 -17.3103C212.034 -15.4833 210.385 -10.3103 209.881 -5.5943C209.203 0.753697 209.669 7.3887 210.457 13.7047C211.768 24.2137 214.069 36.8847 222.508 44.2227C225.176 46.5427 228.171 47.9577 231.302 48.6657C230.358 50.3377 229.358 51.9747 228.306 53.5677C225.265 58.1737 221.811 62.7247 217.855 66.5907C214.646 69.7277 208.836 73.3727 205.265 68.6437C202.637 65.1637 202.843 60.0157 203.002 55.8977C203.257 49.2527 203.513 42.6077 203.768 35.9637C204.283 22.5707 204.798 9.1767 205.313 -4.2163C205.441 -7.5383 205.568 -10.8613 205.696 -14.1833C205.776 -16.2523 202.946 -16.3733 202.295 -14.6433C194.448 6.2027 186.601 27.0477 178.754 47.8937C178.28 49.1537 177.807 50.4157 177.331 51.6747C177.291 51.7807 177.246 51.9137 177.197 52.0577C176.634 44.8757 174.968 37.7897 172.221 31.1047C172.162 24.9627 170.73 18.7397 168.638 13.1977C164.196 1.4277 156.563 -8.7653 148.538 -18.3213C146.534 -20.7073 144.492 -23.0623 142.443 -25.4103C141.241 -26.7883 139.19 -25.3003 139.549 -23.7253C141.365 -15.7573 143.546 -7.8763 146.078 -0.108303C142.562 -2.3963 138.847 -4.3653 134.969 -5.9863C132.324 -7.0913 129.573 -8.1383 126.776 -8.7873C124.055 -9.4183 121.269 -9.1893 119.184 -7.1713C115.533 -3.6383 115.937 2.3607 116.218 6.9737C116.652 14.0927 117.209 21.2637 118.918 28.2097C121.675 39.4167 128.151 50.8797 139.227 55.5727C149.223 59.8087 161.232 57.5947 167.467 48.5397C168.049 49.5727 168.611 50.6167 169.207 51.6427C170.322 53.5617 171.414 55.8607 173.392 57.0487C173.578 57.1607 173.771 57.2487 173.965 57.3297C173.981 62.5747 173.398 67.8087 172.174 72.9127C171.496 75.7397 170.633 78.5237 169.583 81.2347C168.681 83.5637 167.56 85.9407 165.775 87.7307C161.063 92.4577 155.882 86.9287 152.448 83.4667C148.227 79.2117 144.378 74.5947 140.975 69.6607C139.283 67.2067 137.705 64.6797 136.225 62.0927C135.515 60.8517 133.376 61.0267 133.06 62.5067C131.536 69.6467 129.977 77.0997 125.703 83.1797C122.128 88.2657 115.734 92.4407 109.292 91.4257C103.607 90.5297 99.79 85.8847 97.59 80.8837C95.77 76.7487 94.942 72.2817 94.58 67.7857C94.779 67.7327 94.982 67.6887 95.178 67.6267C102.872 65.1877 105.925 57.4697 107.616 50.2557C108.558 46.2397 109.882 41.6647 108.536 37.5887C107.475 34.3767 104.457 31.5137 100.914 31.5887C97.151 31.6687 94.977 34.9897 93.916 38.2047C92.53 42.4057 91.904 46.9757 91.409 51.3597C90.914 55.7387 90.678 60.2697 90.86 64.7697C90.014 64.7277 89.179 64.5647 88.396 64.2167C85.516 62.9367 84.408 59.7247 84.102 56.8087C83.683 52.8047 84.13 48.6547 84.439 44.6587C84.796 40.0427 85.311 35.4387 86 30.8607C86.184 29.6347 86.41 28.4167 86.617 27.1947C88.831 22.9847 90.523 18.5137 91.421 13.7257C92.05 10.3707 92.276 6.9687 92.02 3.5637C91.877 1.6667 89.193 1.1527 88.619 3.1037C86.412 10.6027 84.658 18.2257 83.334 25.9277C80.826 30.6557 77.63 35.0707 74.143 39.0767C69.843 44.0167 65.108 48.5677 60.363 53.0757C59.9 53.5157 59.424 53.9647 58.939 54.4167C61.489 46.7017 62.9 38.6077 63.162 30.4867C63.579 17.5807 61.067 4.6037 55.683 -7.1413C53.33 -12.2743 50.138 -19.4863 44.164 -21.1703C37.706 -22.9913 33.983 -16.6753 32.023 -11.6293C26.598 2.3307 24.139 17.5017 24.766 32.4607C25.208 42.9967 26.762 57.0207 36.646 63.2447C41.643 66.3917 46.597 66.0197 51.249 63.9477C50.895 64.6417 50.532 65.3317 50.157 66.0147C48.775 68.5357 47.324 71.1937 45.357 73.3127C43.292 75.5367 40.638 76.6247 37.63 75.8147C34.698 75.0247 32.17 73.0257 30.015 70.9607C23.405 64.6297 18.026 57.0657 13.962 48.8237C14.597 43.9417 15.083 39.0387 15.218 34.1157C15.499 23.9367 14.294 13.5127 9.79202 4.2637C8.65602 1.9297 7.302 -0.282301 5.769 -2.3753C5.008 -3.4143 2.85203 -3.5983 2.60403 -1.9613C1.63903 4.4197 1.411 10.8777 1.881 17.2777C0.713004 15.4567 -0.561985 13.7027 -1.95798 12.0447C-3.39298 10.3397 -4.95196 8.7397 -6.62296 7.2677C-8.45896 5.6507 -10.604 3.8167 -13.193 3.8147C-18.708 3.8097 -18.628 10.2647 -18.063 14.1247C-16.361 25.7707 -13.079 37.1367 -8.43497 47.9467C-7.29897 50.5917 -6.07799 53.1997 -4.77299 55.7647C-3.49599 58.2747 -2.24195 60.9297 -0.568947 63.2037C0.273053 64.3497 1.29804 65.4897 2.50204 66.3267C0.426037 70.7597 -2.50196 74.7657 -6.53996 77.2927C-10.139 79.5457 -14.551 79.9237 -18.039 77.2277C-21.154 74.8197 -22.88 70.8877 -23.893 67.1907C-26.505 57.6617 -25.79 47.1197 -22.671 37.8087C-21.854 35.3697 -20.846 33.0137 -19.678 30.7227C-18.667 28.7417 -21.6539 26.9867 -22.6679 28.9747C-27.8869 39.2027 -29.925 50.8567 -28.375 62.2427C-27.201 70.8677 -23.046 82.5297 -12.56 82.6397C-3.94597 82.7307 2.11405 74.9967 5.62905 67.5567C7.67805 67.7657 9.60203 66.7447 10.734 65.0067C12.07 62.9557 12.246 60.2827 12.627 57.9297C12.81 56.7967 12.964 55.6597 13.136 54.5247C16.148 59.8617 19.717 64.8947 23.823 69.4957C27.889 74.0527 33.365 79.8167 40.025 79.5677C46.665 79.3197 50.311 72.9367 53.148 67.7627C54.373 65.5287 55.482 63.2347 56.484 60.8947C61.13 57.5927 65.325 53.1657 68.76 49.7757C73.495 45.1017 78.145 40.0767 82.046 34.5867C81.592 38.1337 81.198 41.6877 80.933 45.2547C80.628 49.3647 80.203 53.6007 80.751 57.7067C81.215 61.1827 82.599 64.5747 85.597 66.6017C87.224 67.7017 89.15 68.1907 91.096 68.2217C91.36 71.0487 91.798 73.8467 92.493 76.5637C94.095 82.8227 97.258 89.3207 102.993 92.7467C110.412 97.1797 119.387 94.5007 125.331 88.8667C131.225 83.2797 133.7 75.3457 135.489 67.5727C138.25 71.9737 141.316 76.1767 144.686 80.1357C146.793 82.6107 149.017 84.9857 151.348 87.2507C153.562 89.4017 155.905 91.6177 158.881 92.6417C164.693 94.6427 169.302 90.0137 171.635 85.1877C174.387 79.4947 175.961 73.1257 176.799 66.8827C177.227 63.6877 177.433 60.4707 177.42 57.2567C177.916 57.0207 178.38 56.6957 178.777 56.2617C180.422 54.4587 181.041 51.6217 181.878 49.3977C182.936 46.5857 183.995 43.7747 185.053 40.9627C187.17 35.3397 189.287 29.7157 191.403 24.0927C194.878 14.8597 198.354 5.6277 201.829 -3.6053C201.414 7.1977 200.998 17.9997 200.583 28.8027C200.312 35.8627 200.04 42.9227 199.769 49.9827C199.564 55.3247 198.898 60.9737 200.374 66.2037C201.65 70.7237 205.104 74.6327 210.154 74.4057C216.022 74.1427 220.433 69.1637 223.967 65.0177C228.134 60.1297 231.907 54.8317 234.983 49.1707C241.251 49.5127 247.78 47.3677 253.214 43.9377C258.397 40.6667 262.793 36.2947 267.137 32.0167C269.324 29.8627 271.513 27.7067 273.817 25.6767C275.894 23.8457 278.434 21.3347 281.315 20.9537C282.421 20.8077 283.44 21.0477 284.199 21.8947C284.711 22.4657 285.32 23.5567 284.731 24.2767C283.332 25.9887 285.768 28.4527 287.18 26.7257C290.182 23.0457 286.953 17.8507 282.577 17.4827ZM5.12801 7.5057C5.18401 6.1487 5.28001 4.7947 5.40401 3.4427C12.071 15.2037 12.538 29.2217 11.221 42.6737C10.68 41.3157 10.173 39.9437 9.70101 38.5587C9.61101 37.9207 9.53603 37.2817 9.42403 36.6477C8.80603 33.1317 7.82201 29.6817 6.51601 26.3607C5.36001 20.1247 4.86801 13.7837 5.12801 7.5057ZM1.75204 60.4787C0.392037 58.3337 -0.763974 56.0287 -1.90897 53.7647C-6.57997 44.5327 -10.132 34.7507 -12.524 24.6867C-13.125 22.1577 -13.6519 19.6107 -14.1029 17.0507C-14.4999 14.7997 -15.052 12.4347 -14.955 10.1357C-14.861 7.9207 -13.739 6.5977 -11.533 7.8297C-9.789 8.8037 -8.269 10.3777 -6.874 11.7877C-2.448 16.2587 0.935051 21.6677 3.24105 27.5057C4.00205 31.4717 5.03105 35.3847 6.31905 39.2107C7.10105 44.7727 6.99401 50.4657 5.86001 55.9627C5.38201 58.2807 4.72004 60.6947 3.85104 63.0627C2.97304 62.2787 2.23204 61.2357 1.75204 60.4787ZM10.019 52.2927C9.678 54.6037 9.31001 56.9097 8.92501 59.2137C8.70901 60.5057 8.49002 62.9557 7.20602 63.8257C7.22102 63.7857 7.23901 63.7437 7.25301 63.7037C9.01601 58.9287 9.95105 53.8957 10.189 48.8237C10.272 48.9997 10.351 49.1767 10.435 49.3517C10.301 50.3387 10.162 51.3197 10.019 52.2927ZM45.291 61.9957C34.618 62.6827 30.206 50.0687 29.002 41.5337C27.119 28.1797 28.161 14.2697 31.521 1.2377C32.376 -2.0793 33.39 -5.3553 34.559 -8.5743C35.489 -11.1363 36.4271 -13.9623 38.2671 -16.0413C42.9541 -21.3393 47.9061 -14.4993 50.1341 -10.4693C55.8841 -0.0673037 59.057 11.7057 59.641 23.5617C60.218 35.2667 58.3311 47.0557 53.9781 57.9457C53.8661 58.2267 53.744 58.5027 53.628 58.7827C51.092 60.5117 48.317 61.8007 45.291 61.9957ZM95.059 49.8337C95.551 46.1417 96.116 42.2147 97.399 38.7007C98.433 35.8697 100.93 33.7307 103.652 36.1927C106.487 38.7577 105.647 43.0557 104.941 46.3547C103.638 52.4477 102.173 60.1717 96.193 63.4477C95.623 63.7597 95.01 64.0317 94.374 64.2477C94.349 63.4747 94.332 62.7017 94.325 61.9327C94.286 57.8927 94.524 53.8407 95.059 49.8337ZM167.306 41.0517C166.419 39.3817 165.532 37.7127 164.68 36.0237C160.395 27.5247 156.587 18.7917 153.246 9.8787C159.905 16.1187 165.184 23.6687 168.746 32.0027C168.721 33.2147 168.645 34.4267 168.496 35.6367C168.271 37.4557 167.883 39.2857 167.306 41.0517ZM160.691 4.4287C163.785 9.8997 166.385 15.9517 167.744 22.2107C163.353 14.9397 157.564 8.5347 150.866 3.3037C148.489 -3.5893 146.398 -10.5773 144.59 -17.6413C150.511 -10.6983 156.194 -3.5243 160.691 4.4287ZM162.737 48.9427C159.186 52.6387 154.217 54.3437 149.148 54.2447C138.076 54.0277 129.775 45.8267 125.34 36.2917C122.801 30.8327 121.479 24.8337 120.71 18.8877C120.298 15.7047 120.042 12.5037 119.829 9.3017C119.653 6.6507 119.369 3.9647 119.549 1.3067C119.677 -0.594302 120.031 -2.8353 121.283 -4.3563C123.034 -6.4823 125.84 -5.5103 128.076 -4.8203C133.04 -3.2883 137.784 -1.1343 142.233 1.5437C144.227 2.7437 146.139 4.0477 147.975 5.4377C151.784 16.3167 156.266 26.9607 161.436 37.2677C162.756 39.8997 164.128 42.5047 165.535 45.0917C164.761 46.4817 163.845 47.7887 162.737 48.9427ZM171.914 49.4047C171.077 47.9567 170.274 46.4887 169.464 45.0247C170.312 43.1947 170.932 41.2877 171.378 39.3367C172.649 43.6877 173.464 48.1957 173.795 52.7927C172.951 51.5737 172.232 49.9547 171.914 49.4047ZM226.719 43.1027C222.69 40.4667 219.993 36.1607 218.204 31.7777C216.104 26.6327 214.99 21.0857 214.181 15.6087C213.241 9.2467 212.884 2.7347 213.199 -3.6913C213.393 -7.6393 214.319 -13.6063 219.128 -14.3443C224.19 -15.1203 228.814 -9.9343 231.477 -6.3103C237.615 2.0407 240.07 12.6137 239.455 22.8657C238.979 30.7967 236.544 38.4507 232.976 45.5257C230.779 45.1377 228.654 44.3697 226.719 43.1027Z" fill="#87C9FF"/>
</g>
<path d="M59.6191 137.078C59.6191 140.403 59.284 143.635 58.626 146.763C39.037 133.961 20.0241 115.538 7.58008 89.7027C9.04608 89.5647 10.5351 89.4947 12.0361 89.4947C38.3091 89.4947 59.6191 110.793 59.6191 137.078Z" fill="#4B65FB"/>
<path d="M229.955 90.0027C228.801 92.7617 227.542 95.4977 226.169 98.1987C215.48 119.312 202.793 134.596 190.142 145.597C189.646 142.838 189.38 139.987 189.38 137.078C189.38 113.171 207.007 93.3967 229.955 90.0027Z" fill="#4B65FB"/>
<path d="M154.455 137.786C153.705 139.644 152.031 141.434 149.745 142.496C134.473 149.607 116.788 149.607 101.516 142.484C96.8643 140.325 95.0863 135.431 97.2104 132.522C98.2264 131.033 99.8883 130.19 101.654 129.879C103.42 129.567 105.302 129.787 107.045 130.595C107.218 130.676 107.38 130.745 107.553 130.826C111.224 132.477 115.068 133.608 118.981 134.197C119.27 134.243 119.547 134.289 119.835 134.312V134.324C123.679 134.832 127.581 134.832 131.425 134.324V134.312C131.714 134.289 131.991 134.243 132.279 134.197C136.192 133.608 140.036 132.477 143.707 130.826C143.88 130.745 144.042 130.676 144.215 130.595C147.632 129.037 151.938 129.591 154.062 132.523C155.078 133.999 155.228 135.916 154.455 137.786Z" fill="#333333"/>
<path d="M118.982 134.196C118.67 137.255 116.085 139.633 112.945 139.633C109.597 139.633 106.885 136.92 106.885 133.561C106.885 132.568 107.127 131.645 107.555 130.825C111.224 132.476 115.068 133.607 118.982 134.196Z" fill="white"/>
<path d="M144.377 133.561C144.377 136.92 141.664 139.633 138.317 139.633C135.177 139.633 132.591 137.255 132.28 134.196C136.193 133.607 140.037 132.476 143.708 130.825C144.135 131.645 144.377 132.568 144.377 133.561Z" fill="white"/>
<path d="M131.703 136.112C131.703 139.471 128.979 142.184 125.631 142.184C122.283 142.184 119.559 139.471 119.559 136.112C119.559 135.489 119.651 134.888 119.836 134.323C123.68 134.831 127.582 134.831 131.426 134.323C131.61 134.888 131.703 135.489 131.703 136.112Z" fill="white"/>
<path d="M125.635 149.579C117.156 149.579 108.677 147.739 100.778 144.059C97.7952 142.672 95.5751 140.152 94.8421 137.317C94.2891 135.18 94.6311 133.114 95.8051 131.502C96.9761 129.788 98.9591 128.592 101.357 128.176C103.525 127.787 105.751 128.08 107.78 129.023C119.125 134.31 132.137 134.311 143.48 129.028C147.919 126.992 152.956 128.037 155.467 131.506L155.493 131.543C156.845 133.518 157.048 136.034 156.049 138.447C155.099 140.809 153.066 142.863 150.477 144.065C142.585 147.741 134.11 149.579 125.635 149.579ZM103.231 131.473C102.807 131.473 102.382 131.51 101.959 131.586C100.48 131.843 99.3032 132.522 98.6342 133.499C98.0522 134.299 97.9071 135.332 98.1961 136.449C98.6731 138.292 100.185 139.963 102.241 140.919C117.105 147.847 134.155 147.848 149.019 140.925C150.793 140.101 152.223 138.685 152.845 137.137C153.398 135.799 153.327 134.521 152.649 133.517C151.121 131.433 147.81 130.854 144.933 132.17C132.669 137.884 118.592 137.882 106.319 132.162C105.337 131.706 104.287 131.473 103.231 131.473Z" fill="#FF575C"/>
<path d="M138.778 112.602C138.778 115.349 139.898 117.854 141.722 119.667C143.534 121.491 146.039 122.611 148.787 122.611H168.538C174.033 122.611 178.535 118.109 178.535 112.603C178.535 109.856 177.415 107.351 175.591 105.538C173.79 103.714 171.285 102.594 168.538 102.594H148.787C143.28 102.594 138.778 107.096 138.778 112.602Z" fill="white"/>
<path d="M162.558 112.602C160.988 114.218 160.065 116.088 160.065 118.085C160.065 119.701 160.654 121.237 161.716 122.61H168.538C174.033 122.61 178.535 118.108 178.535 112.602C178.535 109.855 177.415 107.35 175.591 105.537C173.79 103.713 171.285 102.593 168.538 102.593H161.716C160.654 103.967 160.065 105.502 160.065 107.118C160.064 109.116 160.988 110.986 162.558 112.602Z" fill="#333333"/>
<path d="M72.728 112.602C72.728 115.349 73.848 117.854 75.672 119.667C77.484 121.491 79.989 122.611 82.737 122.611H102.488C107.983 122.611 112.485 118.109 112.485 112.603C112.485 109.856 111.365 107.351 109.541 105.538C107.74 103.714 105.235 102.594 102.488 102.594H82.737C77.23 102.594 72.728 107.096 72.728 112.602Z" fill="white"/>
<path d="M96.5072 112.602C94.9372 114.218 94.0142 116.088 94.0142 118.085C94.0142 119.701 94.6032 121.237 95.6652 122.61H102.487C107.982 122.61 112.484 118.108 112.484 112.602C112.484 109.855 111.364 107.35 109.54 105.537C107.739 103.713 105.234 102.593 102.487 102.593H95.6652C94.6032 103.967 94.0142 105.502 94.0142 107.118C94.0142 109.116 94.9372 110.986 96.5072 112.602Z" fill="#333333"/>
</svg>
