<svg viewBox="0 0 451 218" fill="none" xmlns="http://www.w3.org/2000/svg">
<path d="M223.384 134.488C221.313 144.508 218.838 156.417 217.29 163.798C210.481 162.576 206.825 164.508 199.548 168.811C190.724 174.053 178.646 181.202 159.604 177.241C140.556 173.269 132.345 161.87 126.359 153.549C121.221 146.432 118.631 143.207 111.292 141.676C103.935 140.142 100.283 142.056 92.7247 146.544C83.9047 151.769 71.8227 158.935 52.7847 154.956C33.7427 150.994 25.5327 139.596 19.5357 131.281C14.4007 124.146 11.8187 120.932 4.46868 119.408L4.4757 119.373C3.0447 119.192 1.69168 118.423 0.843683 117.129C-0.714317 114.75 -0.052295 111.572 2.3167 110.021C3.12071 109.495 4.00072 109.246 4.88372 109.205C3.99072 108.821 3.18673 108.184 2.61273 107.308C1.06173 104.939 1.72371 101.762 4.09271 100.21C4.91671 99.67 5.8357 99.411 6.7597 99.388C6.1887 99.017 5.68769 98.525 5.28369 97.909C3.73269 95.54 4.39473 92.363 6.76373 90.811C8.02673 89.984 9.50572 89.806 10.8657 90.153C29.6957 94.179 37.8577 105.504 43.8277 113.777C48.9627 120.912 51.5447 124.126 58.8947 125.65C66.2407 127.191 69.8927 125.276 77.4517 120.789C86.2717 115.564 98.3537 108.398 117.403 112.37C136.434 116.339 144.644 127.737 150.641 136.051C155.786 143.179 158.358 146.4 165.715 147.934C173.065 149.458 176.717 147.543 184.282 143.066C192.965 137.903 204.827 130.88 223.384 134.488Z" fill="#74FFDA"/>
<path d="M226.672 134.488C228.743 144.508 231.218 156.417 232.766 163.798C239.575 162.576 243.231 164.508 250.508 168.811C259.332 174.053 271.41 181.202 290.452 177.241C309.501 173.269 317.711 161.87 323.697 153.549C328.835 146.432 331.425 143.207 338.764 141.676C346.121 140.142 349.773 142.056 357.331 146.544C366.151 151.769 378.233 158.935 397.271 154.956C416.313 150.994 424.523 139.596 430.52 131.281C435.655 124.146 438.237 120.932 445.587 119.408L445.58 119.373C447.011 119.192 448.364 118.423 449.212 117.129C450.77 114.75 450.107 111.572 447.739 110.021C446.935 109.495 446.055 109.246 445.172 109.205C446.065 108.821 446.869 108.184 447.443 107.308C448.994 104.939 448.332 101.762 445.963 100.21C445.138 99.67 444.22 99.411 443.296 99.388C443.867 99.017 444.368 98.525 444.772 97.909C446.323 95.54 445.661 92.363 443.292 90.811C442.029 89.984 440.55 89.806 439.19 90.153C420.36 94.179 412.197 105.504 406.228 113.777C401.093 120.912 398.511 124.126 391.161 125.65C383.815 127.191 380.163 125.276 372.604 120.789C363.784 115.564 351.702 108.398 332.653 112.37C313.622 116.339 305.412 127.737 299.415 136.051C294.27 143.179 291.698 146.4 284.341 147.934C276.991 149.458 273.339 147.543 265.774 143.066C257.092 137.903 245.229 130.88 226.672 134.488Z" fill="#74FFDA"/>
<path d="M134.036 57.116C134.014 56.918 134.047 56.69 133.961 56.526C133.952 56.508 133.942 56.491 133.933 56.474C133.81 56.697 133.684 56.919 133.563 57.143C133.719 57.139 133.878 57.123 134.036 57.116Z" fill="#74FFDA"/>
<path d="M172.836 125.515C172.617 125.365 172.415 125.145 172.174 125.091C172.023 125.056 171.816 125.27 171.458 125.471C171.876 125.732 172.101 125.969 172.345 125.99C172.494 126.003 172.672 125.685 172.836 125.515Z" fill="#74FFDA"/>
<path d="M165.485 122.392C165.589 122.709 165.895 122.96 166.118 123.238C166.33 123.036 166.749 122.781 166.713 122.642C166.627 122.302 166.33 122.016 166.006 121.546C165.744 121.951 165.432 122.231 165.485 122.392Z" fill="#74FFDA"/>
<path d="M244.36 1.025C244.441 1.199 244.513 1.376 244.597 1.547C244.711 1.78 244.837 2.007 244.973 2.228C245.097 2.431 245.24 2.621 245.375 2.817C245.564 2.645 245.903 2.484 245.915 2.301C245.964 1.568 246.39 1.635 246.971 1.739C246.56 2.467 246.917 2.938 247.412 3.428C247.56 3.575 247.547 4.176 247.414 4.258C247.097 4.455 246.504 4.673 246.308 4.519C245.576 3.944 245 3.613 244.466 4.7C244.424 4.785 244.164 4.808 244.014 4.788C243.333 4.699 242.065 3.191 241.987 2.511C241.948 2.174 241.716 1.86 241.577 1.533C241.45 1.236 241.319 0.940001 241.209 0.637001C237.336 0.220001 233.405 0 229.421 0C190.043 0 155.547 20.894 136.409 52.199C136.631 52.359 136.854 52.519 137.076 52.678C137.381 52.897 137.675 53.13 137.979 53.352C138.526 53.751 138.596 54.444 138.004 54.759C136.671 55.469 136.156 56.817 135.394 57.953C134.95 58.615 134.565 59.233 133.784 59.528C133.327 59.7 133.018 59.929 133.27 60.57C133.527 61.224 133.033 62.529 132.132 62.812C131.344 63.06 130.68 63.451 130.162 63.984C126.532 71.985 123.843 80.503 122.232 89.397C122.891 89.341 123.55 89.288 124.207 89.218C125.383 89.092 126.553 88.909 127.728 88.768C128.079 88.726 128.444 88.69 128.788 88.742C129.353 88.828 129.712 89.07 129.517 89.78C129.43 90.098 129.612 90.486 129.66 90.844C129.703 91.162 129.87 91.563 129.74 91.785C129.288 92.552 128.793 93.316 128.19 93.965C127.784 94.403 127.367 94.223 127.122 93.608C126.846 92.915 126.498 92.241 126.103 91.607C125.671 90.912 124.576 90.725 123.868 91.097C123.576 91.25 123.221 91.343 122.891 91.352C122.477 91.363 122.125 91.475 121.848 91.661C121.41 94.408 121.074 97.19 120.846 100.002C120.866 100.028 120.878 100.053 120.9 100.079C121.914 101.291 122.59 102.786 123.517 104.329C122.405 104.265 121.972 104.733 122.016 105.873C121.592 105.473 121.286 105.238 121.049 104.948C120.888 104.75 120.729 104.546 120.583 104.334C120.519 105.862 120.479 107.396 120.479 108.94C120.479 110.294 120.512 111.639 120.561 112.981C120.854 113.282 121.135 113.821 121.556 114.809C121.196 114.775 120.88 114.636 120.616 114.418C120.904 120.229 121.651 125.918 122.814 131.455C123.568 131.25 124.26 131.022 124.267 129.896C124.381 129.914 124.494 129.932 124.608 129.951C125.471 131.904 126.335 133.856 127.198 135.809C127.141 135.816 127.086 135.823 127.029 135.83C126.272 135.09 125.568 134.283 124.743 133.629C124.223 133.217 123.644 132.852 123.038 132.481C123.42 134.215 123.843 135.933 124.307 137.634C124.796 137.762 125.233 138.108 125.181 138.77C125.172 138.889 125.27 139.017 125.323 139.14C125.62 139.821 125.583 140.456 125.283 141.018C127.131 147.023 129.483 152.807 132.292 158.32C132.506 158.36 132.718 158.396 132.93 158.425C133.948 158.564 134.696 158.904 134.818 160.071C134.837 160.253 135.221 160.399 135.44 160.557C135.594 160.668 135.896 160.778 135.889 160.872C135.858 161.321 135.811 161.796 135.625 162.195C135.557 162.34 135.028 162.413 134.821 162.305C134.645 162.214 134.601 161.82 134.551 161.55C134.507 161.314 134.537 161.064 134.534 160.82C134.235 160.839 133.919 160.806 133.641 160.891C135.539 164.382 137.627 167.754 139.882 171.001C139.949 171.077 140.021 171.134 140.085 171.222C140.066 171.22 140.049 171.217 140.03 171.215C159.718 199.424 192.411 217.882 229.42 217.882C289.587 217.882 338.362 169.107 338.362 108.941C338.363 53.845 297.457 8.308 244.36 1.025ZM238.707 33.428C239.094 34.125 239.174 34.54 238.465 34.945C237.792 35.33 237.806 36.926 238.34 37.526C238.566 37.78 238.68 38.133 238.904 38.391C239.289 38.835 239.706 39.253 240.135 39.657C240.744 40.231 241.489 40.303 242.3 40.331C242.68 40.344 243.017 40.872 243.423 41.058C244.086 41.361 243.73 41.796 243.674 42.22C243.632 42.54 243.667 42.869 243.667 43.399C243.05 43.076 242.522 42.882 242.089 42.56C240.252 41.199 238.445 39.798 236.622 38.418C235.772 37.775 235.77 37.493 236.371 36.614C236.941 35.78 237.379 34.856 237.928 34.006C238.088 33.757 238.43 33.626 238.707 33.428ZM235.645 29.266C236.122 29.146 236.595 28.978 237.079 28.932C237.242 28.916 237.536 29.18 237.591 29.368C237.678 29.666 237.615 30.008 237.615 30.468C236.88 30.13 236.244 29.837 235.609 29.545C235.621 29.452 235.633 29.359 235.645 29.266ZM232.861 9.902C233.018 11.102 232.57 12.026 231.677 12.796C231.324 13.101 231.032 13.477 230.712 13.82C231.205 11.933 230.836 10.129 230.676 8.353C231.766 8.116 232.723 8.848 232.861 9.902ZM202.275 9.209C202.978 9.038 203.7 8.92 204.421 8.858C205.351 8.779 206.15 9.34 206.529 10.38C206.782 11.075 207.171 11.418 207.925 11.505C208.405 11.56 208.855 11.87 209.386 12.094C207.479 13.823 205.64 15.49 203.801 17.157C203.755 17.148 203.708 17.14 203.662 17.131C203.976 16.367 204.288 15.603 204.604 14.841C204.758 14.47 204.893 14.088 205.082 13.735C205.418 13.107 205.073 12.719 204.654 12.332C204.465 12.157 204.188 11.974 204.148 11.758C203.952 10.714 203.286 10.288 202.307 10.155C202.118 10.13 201.956 9.909 201.782 9.778C201.944 9.581 202.076 9.258 202.275 9.209ZM202.753 24.375C203.248 23.848 203.76 23.872 204.445 24.158C203.618 26.296 203.139 28.491 201.624 30.224C201.134 30.784 201.003 30.815 200.606 30.145C200.442 29.869 200.287 29.586 200.106 29.322C199.443 28.355 199.473 27.69 200.248 26.902C201.08 26.058 201.941 25.239 202.753 24.375ZM199.461 5.453C199.459 4.687 199.579 4.573 200.279 4.924C200.527 5.049 200.696 5.33 200.856 5.493C200.638 6.346 200.502 7.054 200.27 7.727C200.133 8.125 199.766 8.179 199.539 7.796C199.387 7.539 199.333 7.191 199.334 6.883C199.334 6.406 199.462 5.929 199.461 5.453ZM198.337 90.678C198.407 90.29 198.633 89.93 198.74 89.67C199.473 90.112 200.091 90.503 200.728 90.865C201.195 91.131 201.549 91.031 201.879 90.559C202.042 90.326 202.432 90.252 202.72 90.106C202.822 90.464 202.995 90.82 203.005 91.18C203.013 91.483 202.84 91.793 202.733 92.096C202.59 92.499 202.482 92.823 201.897 92.906C201.091 93.02 200.769 93.872 200.979 94.862C201.05 95.196 201.099 95.534 201.172 95.958C200.211 95.84 199.301 95.894 198.558 95.568C198.167 95.397 197.868 94.556 197.879 94.025C197.905 92.905 198.137 91.787 198.337 90.678ZM189.451 16.066C189.166 16.572 188.989 17.066 188.654 17.404C188.495 17.564 187.965 17.545 187.727 17.402C187.175 17.071 186.687 16.628 186.201 16.198C186.114 16.121 186.163 15.891 186.138 15.588C187.272 15.752 188.31 15.902 189.451 16.066ZM175.5 27.852C175.57 27.722 175.935 27.589 175.958 27.618C176.473 28.276 177.917 28.121 177.474 29.652C178.807 28.716 179.803 27.757 180.342 26.43C180.455 26.151 180.3 25.725 180.178 25.401C180.08 25.139 179.845 24.929 179.671 24.696C179.731 24.611 179.791 24.527 179.85 24.442C180.402 24.756 180.945 25.089 181.511 25.378C181.829 25.54 182.181 25.64 182.524 25.744C182.65 25.782 182.841 25.699 182.925 25.767C183.268 26.047 183.648 26.323 183.867 26.688C183.945 26.818 183.611 27.205 183.447 27.462C183.375 27.575 183.273 27.692 183.157 27.748C182.128 28.246 181.497 28.978 181.52 30.201C181.526 30.505 181.24 30.807 181.119 31.122C181.058 31.28 180.987 31.566 181.057 31.62C181.613 32.055 181.422 32.654 181.472 33.206C181.503 33.55 181.575 33.897 181.681 34.226C181.859 34.784 181.612 35.022 181.107 34.939C180.758 34.881 180.396 34.708 180.112 34.492C179.032 33.67 178.033 32.731 176.9 31.996C176.301 31.607 175.489 31.544 174.771 31.344C174.491 31.266 174.204 31.215 173.82 31.13C174.399 29.989 174.933 28.912 175.5 27.852ZM177.259 78.62C176.513 78.975 175.767 79.33 174.983 79.703C174.934 79.523 174.885 79.444 174.899 79.38C174.994 78.951 175.064 78.176 175.215 78.16C175.873 78.087 176.555 78.234 177.228 78.3C177.238 78.407 177.248 78.514 177.259 78.62ZM170.705 78.183C170.91 78.87 171.108 79.558 171.32 80.242C171.61 81.179 170.958 81.954 169.967 81.823C169.825 81.804 169.695 81.689 169.574 81.626C169.908 81.061 170.365 80.564 170.494 79.992C170.617 79.451 170.397 78.832 170.328 78.248C170.454 78.226 170.579 78.204 170.705 78.183ZM168.693 72.967C168.836 72.718 169.258 72.631 169.557 72.472C169.668 72.718 169.856 72.958 169.878 73.212C169.966 74.256 170.002 75.303 170.058 76.35C169.956 76.385 169.855 76.42 169.753 76.455C169.353 75.663 168.902 74.89 168.579 74.068C168.455 73.753 168.522 73.265 168.693 72.967ZM164.953 53.007C165.464 53.139 165.695 53.509 165.607 54.046C165.532 54.509 165.45 54.97 165.372 55.432C165.323 55.449 165.274 55.466 165.224 55.484C164.976 54.754 164.718 54.026 164.503 53.286C164.489 53.234 164.829 52.974 164.953 53.007ZM143.551 104.636C143.63 104.345 144.058 103.866 144.128 103.899C144.622 104.129 145.224 104.369 145.49 104.795C146.003 105.615 145.759 105.993 144.888 106.508C144.501 106.737 144.178 107.125 143.918 107.504C143.587 107.985 143.358 108.536 143.065 109.046C142.99 109.176 142.842 109.264 142.727 109.371C142.62 109.337 142.511 109.303 142.404 109.268C142.781 107.722 143.137 106.171 143.551 104.636ZM139.181 54.85C138.902 55.564 138.68 56.134 138.398 56.856C137.807 55.968 138.158 55.059 139.181 54.85ZM136.869 70.627C137.397 69.64 138.05 68.721 138.625 67.758C138.847 67.385 139.037 67.367 139.365 67.636C139.821 68.01 140.309 68.344 140.797 68.677C141.652 69.26 141.609 70.07 140.73 70.619C140.317 70.877 139.983 71.26 139.602 71.572C139.421 71.72 139.231 71.902 139.016 71.955C138.088 72.183 137.149 72.369 136.152 72.584C136.373 71.964 136.536 71.25 136.869 70.627ZM135.792 73.5C135.792 73.889 135.848 74.323 135.779 74.737C135.693 75.253 135.492 75.748 135.362 76.258C135.247 76.707 135.085 77.017 134.539 76.75C134.162 76.566 133.768 76.418 133.544 76.322C134.304 75.368 135.032 74.453 135.792 73.5ZM132.971 123.719C132.462 123.164 132.722 122.046 133.534 121.133C134.12 121.702 133.905 122.743 132.971 123.719ZM140.201 159.648C139.639 159.607 139.124 158.916 138.589 158.505C138.62 158.421 138.65 158.336 138.68 158.252C139.633 158.252 140.586 158.252 141.539 158.252C141.556 158.325 141.573 158.398 141.591 158.471C141.125 158.894 140.634 159.679 140.201 159.648ZM142.613 168.809C142.273 169.283 141.771 169.051 141.443 168.746C141.356 168.665 141.53 168.137 141.72 167.958C142.05 167.647 142.486 167.449 142.878 167.203C142.986 167.278 143.095 167.353 143.203 167.428C143.013 167.893 142.898 168.412 142.613 168.809ZM143.59 145.389C143.063 145.517 142.537 145.647 142.01 145.772C141.025 146.006 140.031 146.205 139.058 146.481C138.321 146.69 137.602 146.972 136.895 147.269C136.585 147.399 136.275 147.609 136.069 147.866C135.995 147.958 136.229 148.296 136.339 148.562C136.194 148.617 135.955 148.765 135.708 148.781C135.544 148.791 135.252 148.643 135.217 148.512C134.912 147.375 134.632 146.23 134.386 145.079C134.194 144.184 134.379 143.987 135.24 143.783C135.852 143.638 136.452 143.422 137.034 143.181C137.534 142.975 137.827 141.804 137.632 140.974C137.608 140.872 137.518 140.78 137.508 140.679C137.478 140.354 137.425 140.019 137.487 139.708C137.503 139.629 138.002 139.516 138.122 139.612C138.452 139.881 138.837 140.213 138.944 140.592C139.084 141.087 138.978 141.651 138.978 142.334C139.841 141.909 140.09 142.328 140.29 142.939C140.677 144.118 141.501 144.693 142.725 144.794C143.028 144.819 143.317 145.011 143.612 145.126C143.606 145.214 143.598 145.301 143.59 145.389ZM140.724 138.099C141.132 137.88 141.541 137.662 142.086 137.37C141.944 138.318 141.702 138.446 140.724 138.099ZM145.628 116.032C145.534 116.306 145.017 116.435 144.529 116.731C144.562 115.705 144.362 115.025 143.522 114.887C143.271 114.846 142.962 115.157 142.68 115.306C142.641 115.414 142.602 115.522 142.562 115.63C142.167 115.257 141.635 114.951 141.406 114.494C141.021 113.725 140.387 113.546 139.668 113.363C139.174 113.237 138.708 113.001 138.012 112.729C139.253 112.033 139.038 111.166 138.525 110.525C137.756 109.565 138.42 108.804 138.67 108.003C138.824 107.51 140.143 107.732 140.496 108.33C140.738 108.74 140.929 109.2 141.039 109.663C141.355 110.984 142.151 111.812 143.426 112.249C144.042 112.46 144.558 112.41 145.106 112.052C145.423 111.846 145.834 111.784 146.233 111.646C146.518 113.257 146.1 114.66 145.628 116.032ZM145.568 48.143C145.37 48.261 145.203 48.454 145.064 48.643C144.588 49.291 144.374 49.269 143.835 48.268C145.728 48.787 145.262 46.652 146.488 46.32C146.355 47.053 146.263 47.729 145.568 48.143ZM148.766 89.509C147.964 89.382 147.881 89.168 148.098 87.729C148.718 88.058 148.895 88.575 148.766 89.509ZM150.999 47.985C150.446 47.642 149.956 47.264 150.198 46.617C150.309 46.321 150.87 46.048 151.244 46.022C152.365 45.945 153.496 45.983 154.622 46.008C154.836 46.013 155.047 46.165 155.234 46.239C154.547 46.624 153.901 46.988 153.141 47.415C153.846 47.899 155.066 47.519 155.456 46.897C155.586 46.69 155.822 46.55 156.01 46.379C156.068 46.441 156.127 46.503 156.185 46.565C155.461 47.583 154.749 48.611 154.006 49.614C153.718 50.003 153.493 50.069 153.068 49.592C152.494 48.951 151.74 48.445 150.999 47.985ZM154.003 137.644C153.624 137.124 153.339 136.789 153.138 136.41C153.098 136.335 153.456 135.931 153.494 135.95C153.876 136.142 154.271 136.351 154.557 136.654C154.621 136.722 154.271 137.179 154.003 137.644ZM157.986 48.142C157.695 48.877 157.391 49.567 157.156 50.281C157.086 50.493 157.213 50.769 157.249 51.015C157.515 50.958 157.871 50.988 158.03 50.825C158.4 50.446 158.667 49.968 158.993 49.544C159.115 49.385 159.284 49.261 159.432 49.121C159.573 49.285 159.851 49.465 159.834 49.611C159.725 50.554 160.053 51.23 160.868 51.719C161.033 51.818 161.169 52.131 161.154 52.333C161.105 52.972 161.52 53.333 161.987 53.349C163 53.385 163.192 54.117 163.472 54.809C163.801 55.621 164.01 56.504 164.965 56.879C165.06 56.916 165.105 57.259 165.063 57.434C164.882 58.207 164.689 58.981 164.438 59.733C164.348 60.004 164.085 60.217 163.901 60.457C163.753 60.232 163.597 60.013 163.458 59.783C163.019 59.053 162.604 58.308 162.139 57.596C162.044 57.451 161.778 57.4 161.58 57.344C160.74 57.109 160.509 56.683 160.773 55.828C160.812 55.7 160.832 55.566 160.88 55.442C161.473 53.881 160.642 52.6 158.948 52.401C157.883 52.276 156.824 52.091 155.769 51.898C155.524 51.853 155.304 51.668 154.867 51.44C156.345 50.586 156.184 48.55 157.986 48.142ZM161.509 125.961C161.024 126.561 160.624 127.056 160.191 127.591C159.599 126.2 159.669 126.108 161.509 125.961ZM157.017 112.347C156.791 111.522 156.576 110.839 156.436 110.141C156.407 109.994 156.631 109.763 156.786 109.625C156.863 109.556 157.063 109.569 157.182 109.612C158.48 110.087 159.716 109.723 160.977 109.386C159.687 110.352 158.395 111.318 157.017 112.347ZM161.496 76.925C161.463 77.01 160.944 77.004 160.712 76.9C159.868 76.521 159.051 76.083 158.224 75.667C158.238 75.561 158.252 75.455 158.266 75.349C158.518 75.317 158.773 75.249 159.023 75.262C159.641 75.294 160.266 75.321 160.87 75.439C161.133 75.49 161.479 75.71 161.564 75.937C161.672 76.227 161.612 76.623 161.496 76.925ZM160.51 58.675C160.719 59.525 160.969 60.432 161.143 61.354C161.176 61.526 160.946 61.857 160.761 61.939C160.38 62.107 159.949 62.188 159.532 62.227C159.434 62.236 159.238 61.945 159.207 61.771C159.079 61.048 158.643 60.745 157.951 60.799C157.382 60.844 156.996 60.649 156.663 60.171C156.266 59.6 155.772 59.097 155.191 58.412C157.074 58.851 158.803 59.804 160.51 58.675ZM156.111 126.041C156.089 125.843 156.41 125.425 156.579 125.422C157.058 125.414 157.541 125.568 158.047 125.745C157.408 126.103 157.113 126.467 157.336 127.229C157.415 127.498 156.876 127.947 156.576 128.375C156.389 127.489 156.193 126.771 156.111 126.041ZM157.066 168.241C157.696 167.829 158.283 167.313 158.967 167.033C159.692 166.736 159.832 167.428 160.135 168.141C159.074 168.274 158.134 168.392 157.193 168.509C157.15 168.42 157.108 168.331 157.066 168.241ZM160.436 177.468C159.982 177.682 159.387 177.447 159.421 176.891C159.453 176.37 159.707 175.57 160.077 175.421C161.023 175.038 162.099 174.871 163.035 175.991C162.173 176.49 161.336 177.045 160.436 177.468ZM166.449 149.667C165.934 150.094 165.396 150.497 164.841 150.87C163.806 151.566 163.766 151.55 162.835 150.528C163.401 150.054 163.268 149.71 162.72 149.371C162.584 149.287 162.531 148.957 162.551 148.752C162.609 148.181 162.477 147.846 161.816 147.908C161.383 147.949 160.944 147.925 160.51 147.957C160.132 147.985 159.756 148.05 159.381 148.098C160.126 147.463 160.821 146.87 161.594 146.21C162.421 146.742 163.361 147.385 164.34 147.962C164.957 148.325 165.624 148.607 166.284 148.891C166.744 149.09 166.831 149.351 166.449 149.667ZM167.73 125.935C167.59 126.029 167.186 125.76 166.919 125.63C166.211 125.285 165.511 124.923 164.807 124.571C164.696 124.515 164.528 124.504 164.474 124.417C163.938 123.55 163.372 123.887 162.784 124.346C162.579 124.506 162.344 124.627 162.123 124.765C162.055 124.709 161.986 124.654 161.918 124.598C162.077 124.358 162.185 124.046 162.404 123.891C163.405 123.181 164.473 122.564 165.444 121.817C166.12 121.297 166.668 120.613 167.288 120.017C167.5 119.813 167.763 119.664 167.988 119.473C168.571 118.979 168.96 119.074 169.402 119.731C169.911 120.487 170.579 121.136 171.18 121.831C171.887 122.648 172.599 123.461 173.298 124.286C173.395 124.4 173.467 124.561 173.487 124.71C173.541 125.102 173.413 125.669 173.628 125.857C174.023 126.202 174.6 126.359 175.122 126.529C175.613 126.689 176.132 126.766 176.639 126.879C176.624 126.967 176.609 127.056 176.594 127.144C176.394 127.163 176.194 127.188 175.994 127.2C175.048 127.256 174.102 127.341 173.155 127.347C172.811 127.349 172.469 127.142 172.119 127.06C171.761 126.976 171.389 126.947 171.033 126.859C170.661 126.767 170.217 126.727 169.951 126.496C169.286 125.914 168.721 125.27 167.73 125.935ZM172.511 177.16C171.738 177.633 170.941 178.068 170.135 178.482C169.964 178.57 169.711 178.496 169.495 178.496C169.51 178.25 169.426 177.885 169.556 177.777C170.577 176.925 171.638 176.123 172.717 175.282C173.469 176.42 173.457 176.581 172.511 177.16ZM174.54 164.011C173.957 164.772 173.201 165.282 172.201 165.144C171.916 165.104 171.671 164.775 171.427 164.593C171.545 164.269 171.569 164.102 171.656 163.979C172.006 163.479 173.874 163.124 174.365 163.487C174.493 163.58 174.607 163.924 174.54 164.011ZM176.938 136.269C177.715 135.869 178.314 135.556 178.918 135.251C179.48 134.967 180.047 134.692 180.759 134.341C180.231 135.345 178.019 136.47 176.938 136.269ZM179.036 131.796C178.746 131.683 178.345 131.562 178.102 131.674C177.412 131.995 177.079 131.635 176.787 131.134C176.475 130.599 176.146 130.78 175.914 131.144C175.705 131.474 175.477 131.894 175.506 132.254C175.569 133.042 175.24 133.487 174.624 133.91C173.914 134.398 173.29 135.011 172.628 135.57C172.556 135.517 172.483 135.465 172.411 135.412C172.989 134.128 173.579 132.85 174.137 131.558C174.345 131.076 174.579 130.569 174.619 130.058C174.662 129.51 174.904 129.307 175.366 129.34C176.684 129.435 178.044 129.408 179.299 129.75C180.03 129.949 180.594 130.764 181.311 131.368C180.499 131.904 179.822 132.101 179.036 131.796ZM180.926 81.44C181.571 80.361 182.183 79.336 182.795 78.312C182.873 78.359 182.951 78.406 183.029 78.454C182.952 78.593 182.879 78.735 182.797 78.87C182.394 79.531 182.464 80.119 182.972 80.719C183.23 81.024 183.311 81.473 183.55 81.8C183.851 82.211 184.231 82.564 184.6 82.968C185.117 82.447 185.338 81.603 185.964 82.132C186.295 82.412 186.254 83.134 186.38 83.656C185.956 83.599 185.531 83.541 185.116 83.485C185.161 84.222 185.213 85.091 185.266 85.961C185.274 85.967 185.282 85.972 185.29 85.979L185.292 85.977C185.295 85.978 185.299 85.981 185.302 85.982C185.899 85.682 186.497 85.384 187.094 85.081C187.399 84.926 187.701 84.764 188.155 84.527C188.048 84.855 188.044 85.102 187.92 85.207C187.412 85.637 186.907 86.106 186.318 86.384C186.094 86.49 185.65 86.133 185.302 85.982C185.291 85.988 185.28 85.994 185.269 85.999C185.268 85.986 185.267 85.974 185.266 85.961C184.646 85.494 183.978 85.076 183.443 84.526C183.248 84.325 183.273 83.752 183.4 83.428C183.681 82.706 183.462 82.41 182.749 82.502C181.8 82.624 181.575 81.659 180.926 81.44ZM183.967 113.465C184.126 113.054 184.285 112.643 184.445 112.233C184.562 112.28 184.679 112.327 184.796 112.374C184.602 112.769 184.966 113.39 183.967 113.465ZM188.895 97.55C188.526 97.55 188.217 97.55 187.83 97.55C188.216 96.574 187.542 95.328 188.595 94.45C189.221 95.17 189.308 96.214 188.895 97.55ZM189.622 90.063C189.54 90.204 189.135 90.186 188.875 90.188C188.589 90.19 188.195 89.997 188.037 90.125C187.441 90.604 186.96 90.389 186.385 90.101C185.916 89.866 185.37 89.778 184.852 89.649C184.332 89.52 183.803 89.421 183.225 89.298C184.048 87.956 185.18 87.724 186.497 88.454C187.22 88.855 188.002 89.305 188.94 88.933C189.145 88.852 189.623 88.994 189.699 89.16C189.811 89.408 189.765 89.817 189.622 90.063ZM189.251 78.864C187.95 78.736 186.654 78.559 185.356 78.401C185.349 78.321 185.342 78.241 185.335 78.16C185.515 78.07 185.725 77.868 185.871 77.906C187.049 78.215 188.117 77.597 189.248 77.552C189.74 77.532 190.254 77.561 190.251 78.201C190.251 78.826 189.721 78.91 189.251 78.864ZM193.415 78.761C192.921 78.729 192.427 78.696 191.933 78.664C191.928 78.568 191.923 78.473 191.918 78.377C192.341 78.197 192.765 78.017 193.415 77.741C193.415 78.176 193.415 78.468 193.415 78.761ZM203.273 100.868C202.462 100.81 201.954 101.185 201.544 101.843C201.424 102.035 201.099 102.128 200.85 102.206C200.189 102.41 199.524 102.607 198.849 102.754C198.523 102.825 198.161 102.823 197.839 102.751C197.754 102.732 197.641 102.246 197.736 102.121C198.002 101.769 197.801 101.034 198.534 101.065C198.934 101.082 199.34 101.114 199.727 101.209C200.29 101.347 201.489 100.898 201.693 100.364C201.759 100.191 201.588 99.927 201.43 99.37C201.868 99.503 202.185 99.586 202.491 99.696C202.785 99.802 203.085 99.911 203.352 100.07C203.514 100.166 203.617 100.36 203.747 100.51C203.586 100.636 203.42 100.879 203.273 100.868ZM204.549 53.466C204.086 53.993 203.705 54.463 203.714 55.235C203.718 55.604 203.345 56.289 203.132 56.294C202.377 56.31 201.617 56.094 200.858 55.966C200.904 55.778 200.887 55.517 201.006 55.413C201.587 54.908 202.299 54.524 202.43 53.653C202.44 53.588 202.533 53.526 202.599 53.48C203.314 52.98 204.03 52.479 204.753 51.991C204.891 51.898 205.066 51.864 205.225 51.802C205.292 51.853 205.358 51.904 205.425 51.955C205.139 52.465 204.925 53.037 204.549 53.466ZM206.979 101.824C207.225 101.268 207.416 100.838 207.607 100.407C207.801 100.626 208.125 100.825 208.163 101.069C208.262 101.694 207.896 101.948 206.979 101.824ZM208.303 97.201C207.872 97.027 207.332 96.953 207.048 96.643C206.852 96.43 207.01 95.891 207.01 95.498C207.099 95.456 207.188 95.414 207.277 95.372C207.701 95.859 208.125 96.346 208.549 96.833C208.467 96.956 208.385 97.078 208.303 97.201ZM210.642 48.416C210.054 49.408 208.79 48.892 207.962 49.515C207.914 48.548 210.447 45.706 211.46 45.533C211.525 46.599 211.153 47.556 210.642 48.416ZM212.667 40.88C212.005 40.891 211.338 40.677 210.677 40.692C209.98 40.707 209.286 40.878 208.483 40.997C208.642 40.133 208.803 39.093 209.033 38.067C209.196 37.34 209.465 36.636 209.663 35.916C209.857 35.214 209.998 35.18 210.562 35.609C210.84 35.819 211.212 35.903 211.621 36.078C212.098 37.29 212.632 38.671 213.188 40.042C213.412 40.594 213.105 40.872 212.667 40.88ZM212.866 27.713C212.032 28.527 211.695 29.433 212.033 30.517C212.204 31.065 211.736 32.771 211.294 33.086C211.159 33.182 210.939 33.16 210.598 33.221C210.672 32.615 210.657 32.07 210.813 31.581C211.171 30.462 210.957 29.38 210.753 28.286C210.704 28.022 210.674 27.754 210.652 27.486C210.565 26.417 210.555 25.518 211.892 25.008C212.728 24.689 213.308 23.738 214.057 23.139C214.456 22.82 214.972 22.646 215.435 22.406C215.519 22.498 215.604 22.59 215.688 22.681C215.449 23.014 215.274 23.436 214.958 23.663C214.237 24.182 214.087 24.868 213.835 25.674C213.635 26.322 213.41 27.183 212.866 27.713ZM215.995 64.995C215.516 64.955 215.037 64.915 214.392 64.862C214.584 64.422 214.701 64.155 214.843 63.83C215.305 64.191 215.676 64.48 216.047 64.77C216.03 64.845 216.012 64.92 215.995 64.995ZM214.188 8.452C214.171 8.343 214.155 8.234 214.138 8.126C214.896 8.018 215.654 7.909 216.411 7.801C216.416 7.877 216.421 7.954 216.426 8.03C215.684 8.198 214.979 8.623 214.188 8.452ZM219.152 81.764C218.95 81.577 218.704 81.415 218.571 81.187C218.53 81.116 218.795 80.866 218.92 80.698C219.114 80.94 219.309 81.181 219.503 81.423C219.386 81.536 219.268 81.65 219.152 81.764ZM224.802 88.554C224.109 88.67 224.075 88.208 224.214 87.385C224.747 87.666 225.176 87.892 225.605 88.118C225.339 88.27 225.086 88.507 224.802 88.554ZM228.821 70.959C228.803 71.298 228.651 71.63 228.566 71.967C228.462 72.378 228.185 72.59 227.794 72.453C226.637 72.045 225.75 72.358 225.066 73.535C224.62 72.503 224.472 71.765 225.224 70.868C225.863 70.105 226.225 69.035 225.753 67.927C225.625 67.627 225.635 67.267 225.581 66.925C225.74 66.914 225.819 66.887 225.841 66.911C226.783 67.935 227.741 68.946 228.639 70.007C228.823 70.225 228.837 70.64 228.821 70.959ZM232.423 64.066C231.97 64.336 231.512 64.849 231.078 64.827C230.679 64.807 230.32 64.203 229.924 63.881C229.05 63.171 229.024 63.07 229.543 62.016C229.685 61.727 229.831 61.438 229.951 61.14C230.199 60.524 230.717 60.35 231.271 60.479C232.301 60.72 233.309 61.061 234.371 61.374C234.057 62.563 233.444 63.458 232.423 64.066ZM233.662 75.085C233.896 73.807 234.947 73.488 236.622 74.207C235.669 74.49 234.716 74.772 233.662 75.085ZM244.636 80.158C244.257 80.158 243.937 80.158 243.556 80.158C243.572 79.409 243.49 78.597 242.586 78.593C241.169 78.588 239.752 78.763 238.303 78.863C237.977 77.718 238.741 76.649 239.004 75.494C239.045 75.313 239.474 75.196 239.74 75.093C240.817 74.678 241.67 74.838 242.339 75.911C242.754 76.577 243.323 77.191 243.943 77.675C244.806 78.35 244.746 79.186 244.636 80.158ZM253.56 2.758C254.034 3.317 254.025 3.474 253.482 4.056C253.012 3.582 252.862 3.158 253.56 2.758ZM254.029 25.431C253.904 25.637 253.46 25.648 253.161 25.749C253.111 25.523 252.965 25.262 253.031 25.077C253.214 24.559 253.484 24.073 253.8 23.403C254.333 24.23 254.378 24.86 254.029 25.431ZM254.321 18.906C254.188 19.931 253.988 20.877 253.216 21.593C252.954 21.836 252.571 21.948 252.068 22.211C252.131 21.087 252.129 20.263 251.323 19.615C250.942 19.308 251.613 17.396 252.12 17.141C252.284 17.058 252.538 17.113 252.74 17.157C252.946 17.202 253.133 17.348 253.339 17.384C254.439 17.578 254.47 17.762 254.321 18.906ZM257.293 26.088C257.096 26.092 256.864 25.915 256.715 25.757C256.669 25.708 256.825 25.432 256.93 25.29C257.136 25.011 257.37 24.753 257.706 24.351C258.087 24.873 258.416 25.325 258.81 25.865C258.185 25.965 257.74 26.079 257.293 26.088ZM258.576 18.14C258.223 17.046 257.933 16.057 258.378 14.966C259.51 16.077 259.615 17.26 258.576 18.14ZM266.714 49.12C266.628 48.307 266.512 47.559 266.492 46.808C266.486 46.584 266.7 46.249 266.904 46.146C267.446 45.873 268.036 45.699 268.633 45.476C268.359 46.735 267.315 48.733 266.714 49.12ZM294.815 32.987C294.297 33.55 294.194 34.126 294.545 34.832C294.621 34.985 294.426 35.444 294.249 35.524C293.329 35.939 292.743 36.576 292.497 37.57C292.365 38.102 291.985 38.379 291.462 37.982C290.672 37.382 289.871 36.783 289.17 36.087C288.969 35.888 289.099 35.358 289.214 34.898C287.21 34.012 285.585 32.597 284.221 30.642C284.611 30.549 284.903 30.479 285.195 30.41C285.349 30.374 285.561 30.391 285.646 30.294C286.101 29.779 286.565 29.37 287.313 29.74C287.383 29.775 287.55 29.723 287.609 29.656C288.402 28.743 289.365 28.985 290.34 29.222C290.528 29.268 290.741 29.21 291.171 29.189C290.651 29.772 290.381 30.26 290.878 30.786C291.366 31.302 291.915 31.28 292.58 31.08C293.7 30.744 294.612 31.18 295.359 32.221C295.201 32.448 295.038 32.745 294.815 32.987ZM304.493 68.204C304.081 67.723 303.669 67.242 303.256 66.761C303.34 66.689 303.424 66.618 303.508 66.546C304.416 66.63 304.467 67.401 304.731 68.002C304.652 68.069 304.572 68.136 304.493 68.204ZM305.683 63.398C305.809 63.81 305.869 64.005 305.93 64.206C304.613 64.173 303.488 62.329 303.26 59.818C305.153 60.984 307.022 62.134 309.073 63.398C307.903 63.398 306.85 63.398 305.683 63.398ZM327.602 74.281C328.445 74.4 329.268 74.517 330.092 74.634C330.099 74.676 330.108 74.719 330.115 74.762C329.306 75.046 328.496 75.329 327.602 75.642C327.602 75.152 327.602 74.742 327.602 74.281Z" fill="#74FFDA"/>
<path d="M275.594 157.084C275.594 159.518 274.5 161.746 272.709 163.346C270.932 164.973 268.471 165.971 265.777 165.971H246.404C241.017 165.971 236.601 161.965 236.601 157.084C236.601 154.637 237.695 152.408 239.486 150.809C240.156 150.18 240.935 149.661 241.796 149.237C243.163 148.567 244.736 148.198 246.403 148.198H265.776C267.444 148.198 269.016 148.581 270.397 149.251C273.489 150.741 275.594 153.694 275.594 157.084Z" fill="#6C1B91"/>
<path d="M251.436 150.125C251.436 151.588 250.78 152.914 249.754 153.803C248.906 154.541 247.799 154.992 246.582 154.992C243.889 154.992 241.715 152.804 241.715 150.125C241.715 149.824 241.742 149.523 241.797 149.236C243.164 148.566 244.737 148.197 246.404 148.197H251.039C251.299 148.786 251.436 149.442 251.436 150.125Z" fill="white"/>
<path d="M257.78 150.125C257.78 151.588 257.124 152.914 256.098 153.789C255.25 154.541 254.143 154.992 252.926 154.992C251.723 154.992 250.615 154.554 249.754 153.803C248.715 152.928 248.059 151.602 248.059 150.125C248.059 149.441 248.196 148.785 248.455 148.197H257.383C257.643 148.786 257.78 149.442 257.78 150.125Z" fill="white"/>
<path d="M264.137 150.125C264.137 151.588 263.481 152.914 262.455 153.803C261.594 154.541 260.486 154.992 259.269 154.992C258.052 154.992 256.945 154.541 256.097 153.789C255.072 152.914 254.415 151.588 254.415 150.125C254.415 149.441 254.552 148.785 254.811 148.197H263.739C264.001 148.786 264.137 149.442 264.137 150.125Z" fill="white"/>
<path d="M270.481 150.125C270.481 152.805 268.307 154.992 265.614 154.992C264.411 154.992 263.303 154.554 262.456 153.803C261.417 152.928 260.761 151.602 260.761 150.125C260.761 149.441 260.898 148.785 261.157 148.197H265.778C267.446 148.197 269.018 148.58 270.399 149.25C270.454 149.537 270.481 149.825 270.481 150.125Z" fill="white"/>
<path d="M202.254 150.176C202.254 147.687 204.272 145.668 206.762 145.668C209.251 145.668 211.27 147.686 211.27 150.176C211.27 152.666 209.252 154.684 206.762 154.684C204.272 154.683 202.254 152.665 202.254 150.176Z" fill="#FF99DF"/>
<path d="M300.042 154.684C302.531 154.684 304.55 152.666 304.55 150.176C304.55 147.686 302.531 145.668 300.042 145.668C297.552 145.668 295.534 147.686 295.534 150.176C295.534 152.666 297.552 154.684 300.042 154.684Z" fill="#FF99DF"/>
<path d="M238.526 107.644V131.037C238.526 137.545 233.194 142.877 226.672 142.877C223.418 142.877 220.451 141.551 218.305 139.391C216.145 137.258 214.819 134.291 214.819 131.038V107.645C214.819 101.123 220.151 95.791 226.673 95.791C229.927 95.791 232.894 97.117 235.04 99.277C237.2 101.423 238.526 104.39 238.526 107.644Z" fill="white"/>
<path d="M215.482 87.212C215.267 87.212 215.05 87.143 214.867 87C214.432 86.66 214.355 86.031 214.695 85.596C217.597 81.884 221.961 79.754 226.668 79.754C231.375 79.754 235.738 81.883 238.641 85.595C238.981 86.03 238.904 86.658 238.469 86.999C238.03 87.339 237.404 87.261 237.065 86.827C234.545 83.603 230.755 81.754 226.669 81.754C222.583 81.754 218.792 83.603 216.273 86.827C216.073 87.08 215.78 87.212 215.482 87.212Z" fill="#333333"/>
<path d="M226.667 133.665C226.114 133.665 225.667 133.218 225.667 132.665V106.013C225.667 105.461 226.114 105.013 226.667 105.013C227.22 105.013 227.667 105.461 227.667 106.013V132.665C227.667 133.217 227.22 133.665 226.667 133.665Z" fill="#333333"/>
<path d="M238.526 127.577V131.036C238.526 137.544 233.194 142.876 226.672 142.876C223.418 142.876 220.451 141.55 218.305 139.39C216.145 137.257 214.819 134.29 214.819 131.037V127.578L238.526 127.577Z" fill="#51B399"/>
<path d="M295.55 107.644V131.037C295.55 137.545 290.218 142.877 283.696 142.877C280.442 142.877 277.475 141.551 275.329 139.391C273.169 137.258 271.843 134.291 271.843 131.038V107.645C271.843 101.123 277.175 95.791 283.697 95.791C286.951 95.791 289.918 97.117 292.064 99.277C294.224 101.423 295.55 104.39 295.55 107.644Z" fill="white"/>
<path d="M272.513 87.212C272.298 87.212 272.081 87.143 271.898 87C271.463 86.66 271.386 86.031 271.726 85.596C274.628 81.884 278.992 79.754 283.699 79.754C288.405 79.754 292.768 81.883 295.671 85.595C296.011 86.03 295.934 86.658 295.499 86.999C295.061 87.339 294.434 87.261 294.095 86.827C291.576 83.603 287.786 81.754 283.699 81.754C279.612 81.754 275.822 83.603 273.303 86.827C273.105 87.08 272.811 87.212 272.513 87.212Z" fill="#333333"/>
<path d="M283.697 133.665C283.144 133.665 282.697 133.218 282.697 132.665V106.013C282.697 105.461 283.144 105.013 283.697 105.013C284.25 105.013 284.697 105.461 284.697 106.013V132.665C284.697 133.217 284.25 133.665 283.697 133.665Z" fill="#333333"/>
<path d="M295.55 127.577V131.036C295.55 137.544 290.218 142.876 283.696 142.876C280.442 142.876 277.475 141.55 275.329 139.39C273.169 137.257 271.843 134.29 271.843 131.037V127.578L295.55 127.577Z" fill="#51B399"/>
<path d="M120.917 63.298C121.941 69.965 126.648 75.675 132.55 78.746C139.558 82.392 147.994 82.303 155.398 79.961C168.295 75.882 178.446 64.964 182.384 52.122C183.36 48.94 183.936 45.62 184.088 42.295C184.249 38.77 184.001 35.001 182.262 31.851C180.687 28.997 177.635 26.921 174.311 26.955C170.78 26.991 168.357 29.581 167.405 32.806C166.417 36.153 166.468 39.97 166.884 43.403C167.321 47.01 168.279 50.494 169.822 53.788C172.854 60.261 178.162 65.339 184.806 67.981C191.186 70.518 198.624 70.526 204.782 67.352C210.683 64.31 215.308 58.426 216.543 51.866C216.845 50.259 216.961 48.633 216.866 47.001C215.884 47.134 214.903 47.267 213.921 47.4C215.883 54.671 218.601 62.844 226.053 66.146C229.312 67.59 233.041 67.917 236.317 66.333C238.841 65.113 240.626 62.492 241.215 59.792C241.927 56.526 241.026 53.239 238.269 51.235C237.392 50.598 235.895 51.443 236.012 52.53C237.336 64.821 248.777 75.556 261.486 74.015C273.908 72.51 283.95 60.636 281.02 48.007C279.677 42.216 275.856 36.927 270.717 33.923C265.913 31.115 257.52 29.487 254.04 35.18C252.294 38.037 252.812 41.708 253.826 44.722C254.891 47.889 256.411 50.946 258.197 53.765C261.829 59.496 266.732 64.413 272.481 68.02C278.367 71.713 286.093 74.546 292.873 71.582C297.736 69.456 301.166 63.387 299.593 58.132C299.208 56.847 298.52 55.716 297.617 54.732C296.897 53.948 295.306 54.285 295.11 55.394C293.648 63.644 299 72.503 307.446 74.118C315.825 75.719 324.558 70.536 326.3 62.012C327.287 57.179 326.166 52.223 323.121 48.346C322.139 47.096 320.286 48.475 320.614 49.805C321.37 52.874 323.692 55.316 326.543 56.594C330.051 58.167 333.985 57.976 337.668 57.189C344.229 55.787 350.386 52.654 355.554 48.404C358.507 45.975 361.074 43.14 363.275 40.017C364.39 38.436 361.791 36.935 360.686 38.503C356.406 44.574 350.351 49.41 343.48 52.241C339.843 53.739 335.76 54.963 331.793 54.783C328.198 54.621 324.425 52.739 323.507 49.008C322.671 49.495 321.835 49.981 320.999 50.467C325.257 55.89 324.352 64.605 318.747 68.743C313.192 72.845 305.214 72.175 300.832 66.723C298.496 63.817 297.35 59.883 298.004 56.192C297.168 56.413 296.333 56.633 295.497 56.854C298.566 60.194 296.409 65.675 293.13 68.021C288.023 71.674 280.747 69.267 275.833 66.518C270.866 63.74 266.485 59.936 263.007 55.431C261.193 53.081 259.633 50.522 258.346 47.849C257.153 45.372 255.941 42.591 255.9 39.797C255.804 33.227 263.645 33.782 267.872 35.806C272.307 37.93 275.798 41.913 277.459 46.533C279.221 51.433 278.849 56.713 276.197 61.224C273.576 65.682 269.143 69.029 264.178 70.441C252.446 73.777 240.288 64.353 239.015 52.531C238.263 52.963 237.509 53.394 236.757 53.826C238.926 55.403 238.794 58.617 237.71 60.789C236.285 63.646 233.27 64.78 230.192 64.306C221.683 62.996 218.741 53.734 216.817 46.603C216.386 45.007 213.769 45.277 213.869 47.002C214.217 52.966 211.395 58.584 206.874 62.387C202.305 66.231 196.122 67.557 190.306 66.458C184.293 65.322 178.818 61.943 175.197 56.995C171.462 51.892 169.614 45.562 169.648 39.265C169.662 36.624 169.689 32.792 171.858 30.877C173.949 29.031 177.203 30.2 178.826 32.103C180.88 34.511 181.16 37.997 181.128 41.026C181.098 43.918 180.705 46.783 179.986 49.583C177.071 60.932 168.962 70.846 158.257 75.684C151.316 78.821 142.889 79.83 135.701 76.916C129.631 74.456 124.818 69.047 123.813 62.5C123.517 60.598 120.626 61.406 120.917 63.298Z" fill="#6C1B91"/>
</svg>
