<svg viewBox="0 0 243 279" fill="none" xmlns="http://www.w3.org/2000/svg">
<path d="M196.023 226.376C196.023 234.925 197.758 241.856 199.896 241.856C202.035 241.856 203.767 234.925 203.767 226.376C203.767 226.284 203.764 226.194 203.763 226.102H203.771C203.771 226.194 203.767 226.283 203.767 226.376C203.767 234.925 205.501 241.856 207.639 241.856C209.778 241.856 211.512 234.925 211.512 226.376C211.512 226.284 211.508 226.194 211.508 226.102H211.516C211.516 226.194 211.512 226.283 211.512 226.376C211.512 234.925 213.245 241.856 215.383 241.856C217.522 241.856 219.255 234.925 219.255 226.376C219.255 226.284 219.252 226.194 219.251 226.102H219.255V178.962L196.021 178.32V226.102H196.025C196.026 226.194 196.023 226.284 196.023 226.376Z" fill="#FFD630"/>
<path d="M123.089 186.942V278.224H76.8633C77.5213 263.981 93.5263 259.444 93.5263 259.444V188.205L123.089 186.942Z" fill="#FFD630"/>
<path d="M104.129 237.705C101.226 237.705 98.5583 235.994 96.8093 233.012C96.5303 232.535 96.6893 231.923 97.1663 231.644C97.6423 231.363 98.2543 231.524 98.5353 232C99.9153 234.354 101.954 235.705 104.129 235.705C106.303 235.705 108.342 234.354 109.723 232C110.003 231.523 110.615 231.363 111.092 231.644C111.569 231.923 111.728 232.536 111.449 233.012C109.699 235.994 107.032 237.705 104.129 237.705Z" fill="#333333"/>
<path d="M181.334 278.224H135.121V186.942L164.685 188.204V259.443C164.685 259.443 180.677 263.981 181.334 278.224Z" fill="#FFD630"/>
<path d="M154.078 237.705C151.175 237.705 148.507 235.994 146.758 233.012C146.479 232.535 146.638 231.923 147.115 231.644C147.591 231.363 148.203 231.524 148.484 232C149.864 234.354 151.903 235.705 154.078 235.705C156.252 235.705 158.291 234.354 159.672 232C159.951 231.523 160.564 231.363 161.041 231.644C161.518 231.923 161.677 232.536 161.398 233.012C159.649 235.994 156.981 237.705 154.078 237.705Z" fill="#333333"/>
<path d="M93.5253 249.686H123.089V278.224H76.8633C77.5213 263.981 93.5263 259.444 93.5263 259.444V249.686H93.5253Z" fill="#FF9345"/>
<path d="M181.334 278.224H135.121V249.686H164.685V259.444C164.685 259.444 180.677 263.981 181.334 278.224Z" fill="#FF9345"/>
<path d="M135.259 0L93.839 67.833C94.275 67.654 94.71 67.474 95.142 67.279C95.984 66.899 97.212 67.61 97.752 68.582C98.037 69.096 98.517 69.502 98.919 69.949C98.991 70.029 99.136 70.047 99.2 70.13C100.079 71.274 100.95 72.424 101.824 73.572C101.747 73.646 101.67 73.719 101.593 73.793C101.403 73.609 101.221 73.416 101.022 73.242C100.382 72.686 99.802 72.018 99.075 71.618C98.252 71.165 97.369 71.596 96.927 72.441C96.813 72.66 96.697 72.877 96.556 73.145C95.871 72.841 95.208 72.597 94.594 72.262C93.851 71.856 93.187 71.38 92.23 71.658C92.034 71.715 91.805 71.643 91.568 71.554L74.85 98.933C76.176 98.745 77.5 98.541 78.829 98.373C80.1 98.212 80.077 98.262 80.3 99.611C80.442 100.472 80.677 101.318 80.887 102.167C81.027 102.732 81.108 103.144 80.246 102.91C79.909 102.819 79.446 102.957 79.113 103.13C78.466 103.468 77.897 103.474 77.263 103.098C76.806 102.826 76.276 102.681 75.792 102.45C74.602 101.883 73.522 102.377 72.479 102.852C72.457 102.862 72.439 102.895 72.418 102.914L72.24 103.205C72.161 103.419 72.122 103.672 72.17 103.832C72.424 104.672 72.943 105.27 73.952 105.315C74.432 105.336 74.903 105.581 75.391 105.728C74.94 106.729 73.776 106.994 72.965 106.387C72.355 105.931 71.764 105.44 71.143 105.002L69.946 106.962C69.956 107.073 69.97 107.185 69.963 107.293C69.874 108.627 69.728 109.957 69.637 111.29C69.598 111.856 69.453 112.152 68.785 112.161C68.106 112.17 67.426 112.203 66.72 112.245L34.843 164.449C34.956 164.617 35.094 164.777 35.279 164.926C35.681 165.25 34.973 167.265 34.439 167.535C34.266 167.622 33.998 167.564 33.786 167.518C33.569 167.471 33.373 167.317 33.155 167.278C33.142 167.276 33.133 167.273 33.12 167.271L13.293 199.741H242.199L135.259 0ZM54.99 184.897C55.598 184.103 56.007 184.031 56.94 184.648C56.217 184.741 55.616 184.818 54.99 184.897ZM54.202 168.005C54.139 167.844 54.093 167.729 54.049 167.614C53.35 165.795 53.35 165.795 55.179 164.974C55.409 164.871 55.649 164.788 55.873 164.674C57.103 164.05 57.323 163.975 58.075 165.709C56.819 166.453 55.547 167.207 54.202 168.005ZM60.535 171.649C59.341 170.477 59.23 169.23 60.325 168.303C60.698 169.456 61.005 170.499 60.535 171.649ZM62.413 130.891C62.346 129.768 62.738 128.758 63.276 127.852C63.896 126.807 65.229 127.35 66.101 126.693C66.153 127.713 63.482 130.709 62.413 130.891ZM69.217 175.158C71.43 174.245 73.46 173.407 75.605 172.521C75.769 173.439 75.916 174.261 76.076 175.158C73.769 175.158 71.589 175.158 69.217 175.158ZM76.764 129.029C76.522 130.243 76.325 131.467 76.059 132.675C75.969 133.085 75.727 133.462 75.555 133.855C75.44 133.834 75.325 133.813 75.209 133.791C75.209 133.393 75.148 132.984 75.22 132.6C75.451 131.38 75.479 130.201 75.065 128.992C74.85 128.364 74.936 127.636 74.842 126.96C74.805 126.697 74.645 126.451 74.546 126.196C74.439 125.919 74.337 125.64 74.233 125.363C74.619 125.38 75.048 125.296 75.383 125.437C75.98 125.687 76.52 126.072 77.301 126.528C77.152 127.218 76.945 128.12 76.764 129.029ZM97.656 91.44C97.612 91.631 97.161 91.754 96.881 91.862C95.745 92.3 94.845 92.131 94.14 90.999C93.702 90.297 93.103 89.65 92.449 89.139C91.539 88.428 91.602 87.547 91.718 86.522C92.117 86.522 92.455 86.522 92.857 86.522C92.84 87.311 92.927 88.168 93.88 88.172C95.373 88.178 96.868 87.993 98.395 87.887C98.739 89.094 97.933 90.222 97.656 91.44ZM155.68 51.409C155.512 51.842 155.344 52.275 155.176 52.708C155.053 52.659 154.93 52.609 154.806 52.56C155.01 52.143 154.626 51.488 155.68 51.409ZM150.483 68.187C150.872 68.187 151.198 68.187 151.605 68.187C151.198 69.216 151.908 70.53 150.799 71.456C150.14 70.697 150.048 69.595 150.483 68.187ZM131.891 14.733C132.094 14.491 132.36 14.294 132.529 14.032C132.692 13.779 132.766 13.47 132.922 13.075C134.806 14.43 136.637 15.746 138.423 17.03C137.76 17.454 137.149 17.778 136.623 18.206C136.312 18.459 136.204 18.981 135.881 19.195C135.414 19.505 134.826 19.834 134.303 19.814C133.446 19.781 132.584 19.524 131.755 19.264C131.212 19.093 131.065 18.022 131.461 17.581C131.652 17.369 131.854 17.168 132.098 16.913C131.242 16.198 131.198 15.561 131.891 14.733ZM137.272 66.27C136.81 66.13 136.476 66.043 136.153 65.926C135.843 65.814 135.527 65.699 135.246 65.531C135.076 65.429 134.967 65.225 134.83 65.067C134.996 64.934 135.171 64.678 135.327 64.689C136.182 64.75 136.717 64.354 137.15 63.662C137.277 63.459 137.619 63.361 137.882 63.28C138.579 63.065 139.28 62.857 139.992 62.703C140.335 62.628 140.717 62.63 141.057 62.706C141.147 62.726 141.265 63.239 141.166 63.371C140.886 63.742 141.098 64.517 140.325 64.484C139.904 64.466 139.475 64.432 139.068 64.332C138.474 64.187 137.21 64.66 136.996 65.223C136.925 65.404 137.106 65.682 137.272 66.27ZM131.419 63.682C131.159 64.268 130.958 64.722 130.757 65.175C130.553 64.944 130.211 64.735 130.17 64.478C130.066 63.819 130.452 63.55 131.419 63.682ZM119.976 45.352C119.675 47.081 118.859 48.451 118.178 50.003C117.484 49.104 116.832 49.211 116.109 49.807C115.877 49.998 115.46 50.099 115.174 50.034C115.026 50 114.917 49.518 114.901 49.232C114.844 48.172 114.598 47.969 113.534 48.181C113.453 48.197 113.361 48.185 113.281 48.161C113.24 48.149 113.217 48.081 113.15 47.99C115.401 47.12 117.604 46.269 119.976 45.352ZM100.168 92.797C101.172 92.499 102.177 92.201 103.289 91.871C103.041 93.218 101.933 93.555 100.168 92.797ZM105.966 63.733C105.164 64.222 103.74 63.983 103.104 63.26C104.625 63.45 104.946 61.978 105.885 61.317C106.069 61.909 106.297 62.422 106.365 62.954C106.396 63.201 106.186 63.599 105.966 63.733ZM108.392 96.221C108.411 95.863 108.571 95.514 108.661 95.158C108.771 94.724 109.063 94.501 109.475 94.646C110.694 95.076 111.63 94.747 112.351 93.506C112.821 94.594 112.977 95.372 112.185 96.317C111.511 97.121 111.131 98.25 111.628 99.418C111.763 99.735 111.751 100.114 111.808 100.474C111.64 100.485 111.557 100.514 111.534 100.489C110.541 99.409 109.53 98.344 108.584 97.225C108.39 96.995 108.374 96.557 108.392 96.221ZM111.782 78.13C112.063 77.971 112.329 77.721 112.629 77.671C113.359 77.549 113.396 78.036 113.249 78.903C112.686 78.607 112.234 78.368 111.782 78.13ZM114.173 105.172C113.273 105.177 112.347 105.485 111.628 104.634C111.311 104.26 111.179 103.908 111.418 103.405C111.617 102.988 111.654 102.495 111.773 102.038C111.847 101.755 111.938 101.477 111.979 101.339C113.29 101.741 114.503 102.112 115.531 102.427C114.368 102.729 114.214 103.887 114.173 105.172ZM118.83 85.954C118.626 85.699 118.421 85.445 118.217 85.19C118.34 85.07 118.463 84.95 118.586 84.83C118.799 85.028 119.059 85.198 119.199 85.439C119.242 85.514 118.962 85.777 118.83 85.954ZM120.726 56.202C120.716 56.271 120.618 56.336 120.548 56.385C119.925 56.82 119.301 57.253 118.674 57.681C118.863 58.228 119.09 58.783 119.3 59.389C119.003 59.463 118.663 59.581 118.314 59.631C117.081 59.807 115.825 59.874 114.614 60.146C113.274 60.447 111.699 59.306 111.067 57.952C112.08 57.251 113.074 56.497 114.133 55.85C115.341 55.112 115.99 53.993 116.221 52.697C116.35 51.971 116.691 51.665 117.327 51.376C117.302 51.658 117.256 51.9 117.267 52.14C117.283 52.488 117.209 52.987 117.404 53.157C118.503 54.114 118.16 55.415 118.371 56.587C118.415 56.527 118.444 56.455 118.493 56.399C118.981 55.843 119.384 55.348 119.374 54.534C119.369 54.145 119.762 53.422 119.987 53.418C120.783 53.401 121.585 53.629 122.384 53.763C122.336 53.962 122.353 54.236 122.228 54.346C121.615 54.88 120.864 55.284 120.726 56.202ZM123.128 103.737C122.641 103.357 122.25 103.052 121.858 102.747C121.876 102.668 121.895 102.588 121.913 102.509C122.418 102.551 122.924 102.593 123.603 102.649C123.401 103.113 123.278 103.395 123.128 103.737ZM127.542 29.26C127.774 29.224 128.057 29.072 128.184 28.884C128.721 28.086 129.497 27.847 130.625 28.344C129.188 29.244 127.853 30.079 126.469 30.946C126.328 29.938 126.744 29.383 127.542 29.26ZM130.023 68.555C130.477 68.739 131.047 68.817 131.346 69.143C131.552 69.368 131.386 69.936 131.386 70.35C131.292 70.394 131.198 70.439 131.105 70.483C130.658 69.969 130.211 69.456 129.764 68.943C129.849 68.814 129.936 68.684 130.023 68.555ZM132.526 114.334C131.995 115.123 131.401 115.869 130.683 116.824C130.009 115.356 129.533 114.159 130.263 112.813C130.556 112.273 130.851 112.3 131.26 112.656C131.644 112.991 132.086 113.268 132.432 113.636C132.567 113.781 132.628 114.182 132.526 114.334ZM141.705 85.867C141.822 86.012 141.967 86.147 142.057 86.314C142.256 86.682 143.111 86.855 142.581 87.411C142.254 87.754 141.866 88.528 141.102 87.936C140.593 87.541 140.45 86.723 140.828 86.168C141.122 85.736 140.721 85.064 140.05 85.055C139.574 85.048 139.055 85.227 138.626 85.456C138.038 85.769 137.517 86.207 136.969 86.59C136.122 85.392 135.916 85.366 134.645 85.864C134.186 86.044 133.635 85.974 133.139 86.078C132.704 86.169 132.283 86.332 131.864 86.488C131.457 86.64 130.952 87.088 130.692 86.473C130.464 85.935 130.896 85.551 131.365 85.172C132.418 84.32 133.681 84.569 134.845 84.341C136.205 84.074 137.591 83.728 138.959 83.759C140.749 83.8 142.533 84.162 144.314 84.425C144.556 84.461 144.764 84.723 145.115 84.97C143.913 85.532 142.569 84.656 141.705 85.867ZM144.716 34.591C144.115 35.471 143.654 36.445 143.075 37.341C142.905 37.604 142.544 37.742 142.252 37.951C141.844 37.216 141.759 36.779 142.507 36.352C143.216 35.946 143.202 34.263 142.639 33.63C142.401 33.362 142.281 32.99 142.046 32.719C141.64 32.251 141.199 31.81 140.748 31.384C140.106 30.779 139.32 30.703 138.465 30.673C138.064 30.659 137.709 30.102 137.281 29.906C136.582 29.586 136.958 29.128 137.017 28.681C137.061 28.344 137.026 27.997 137.026 27.438C137.677 27.778 138.232 27.984 138.689 28.322C140.626 29.757 142.531 31.234 144.453 32.689C145.347 33.367 145.349 33.664 144.716 34.591ZM150.438 77.273C150.222 77.359 149.718 77.209 149.638 77.034C149.518 76.771 149.567 76.34 149.718 76.081C149.804 75.932 150.232 75.951 150.506 75.949C150.807 75.947 151.223 76.15 151.39 76.016C152.018 75.511 152.525 75.737 153.132 76.041C153.627 76.289 154.203 76.382 154.749 76.517C155.297 76.653 155.854 76.757 156.464 76.887C155.597 78.302 154.403 78.547 153.015 77.777C152.251 77.354 151.426 76.88 150.438 77.273ZM156.915 88.469C156.833 88.419 156.751 88.37 156.669 88.32C156.75 88.174 156.826 88.024 156.913 87.881C157.338 87.184 157.265 86.564 156.728 85.931C156.456 85.61 156.37 85.136 156.118 84.791C155.801 84.357 155.4 83.986 155.011 83.56C154.466 84.109 154.232 84.999 153.573 84.441C153.224 84.145 153.268 83.385 153.134 82.834C153.581 82.894 154.029 82.955 154.467 83.014C154.42 82.237 154.364 81.321 154.308 80.404C154.3 80.398 154.291 80.392 154.283 80.386L154.281 80.388C154.278 80.387 154.274 80.384 154.27 80.382C153.64 80.698 153.01 81.013 152.381 81.332C152.059 81.495 151.741 81.666 151.263 81.916C151.376 81.57 151.38 81.31 151.511 81.199C152.046 80.746 152.579 80.251 153.2 79.958C153.436 79.847 153.903 80.222 154.27 80.381C154.282 80.375 154.294 80.369 154.306 80.363C154.307 80.376 154.308 80.389 154.308 80.403C154.961 80.896 155.669 81.336 156.232 81.916C156.438 82.128 156.41 82.732 156.276 83.074C155.979 83.835 156.21 84.148 156.962 84.05C157.963 83.921 158.201 84.938 158.885 85.169C158.206 86.309 157.56 87.389 156.915 88.469ZM172.528 109.352C171.989 109.212 171.746 108.823 171.838 108.256C171.917 107.768 172.003 107.282 172.086 106.795C172.138 106.777 172.19 106.759 172.241 106.741C172.503 107.511 172.775 108.278 173.001 109.059C173.017 109.113 172.659 109.386 172.528 109.352ZM180.409 109.172C180.189 108.276 179.925 107.319 179.741 106.348C179.707 106.166 179.948 105.817 180.144 105.731C180.546 105.554 181 105.468 181.44 105.427C181.543 105.418 181.75 105.724 181.783 105.908C181.918 106.67 182.379 106.99 183.108 106.933C183.708 106.886 184.114 107.091 184.464 107.595C184.883 108.197 185.403 108.727 186.016 109.45C184.032 108.986 182.209 107.981 180.409 109.172Z" fill="#FFD630"/>
<path d="M119.5 139.831C119.5 139.831 107.112 152.995 91.8303 152.995C91.6983 152.995 91.5543 152.995 91.4223 152.982C76.3383 152.758 64.1733 139.831 64.1733 139.831C64.1733 139.831 76.3383 126.917 91.4223 126.693C91.5543 126.68 91.6983 126.68 91.8303 126.68C107.112 126.68 119.5 139.831 119.5 139.831Z" fill="white"/>
<path d="M88.5033 139.831C90.9753 142.382 92.4353 145.328 92.4353 148.484C92.4353 150.036 92.0933 151.548 91.4223 152.982C76.3383 152.758 64.1733 139.831 64.1733 139.831C64.1733 139.831 76.3383 126.917 91.4223 126.693C92.0933 128.126 92.4353 129.639 92.4353 131.191C92.4363 134.334 90.9763 137.28 88.5033 139.831Z" fill="#333333"/>
<path d="M194.023 139.831C194.023 139.831 181.635 152.995 166.353 152.995C166.221 152.995 166.077 152.995 165.945 152.982C150.861 152.758 138.696 139.831 138.696 139.831C138.696 139.831 150.861 126.917 165.945 126.693C166.077 126.68 166.221 126.68 166.353 126.68C181.635 126.68 194.023 139.831 194.023 139.831Z" fill="white"/>
<path d="M163.026 139.831C165.498 142.382 166.958 145.328 166.958 148.484C166.958 150.036 166.616 151.548 165.945 152.982C150.861 152.758 138.696 139.831 138.696 139.831C138.696 139.831 150.861 126.917 165.945 126.693C166.616 128.126 166.958 129.639 166.958 131.191C166.958 134.334 165.498 137.28 163.026 139.831Z" fill="#333333"/>
<path d="M104.957 118.473H78.7173C78.1653 118.473 77.7173 118.025 77.7173 117.473C77.7173 116.921 78.1653 116.473 78.7173 116.473H104.957C105.509 116.473 105.957 116.921 105.957 117.473C105.957 118.026 105.509 118.473 104.957 118.473Z" fill="#333333"/>
<path d="M179.48 118.473H153.24C152.688 118.473 152.24 118.025 152.24 117.473C152.24 116.921 152.688 116.473 153.24 116.473H179.48C180.032 116.473 180.48 116.921 180.48 117.473C180.48 118.026 180.032 118.473 179.48 118.473Z" fill="#333333"/>
<path d="M161.937 168.829C161.082 170.946 159.175 172.985 156.571 174.195C139.172 182.296 119.025 182.296 101.626 174.182C96.3261 171.723 94.3011 166.147 96.7211 162.833C97.8781 161.136 99.7721 160.176 101.784 159.821C103.796 159.466 105.94 159.716 107.926 160.636C108.123 160.728 108.307 160.807 108.505 160.899C112.687 162.78 117.066 164.069 121.525 164.739C121.854 164.792 122.169 164.844 122.498 164.871V164.884C126.877 165.463 131.322 165.463 135.702 164.884V164.871C136.031 164.845 136.346 164.792 136.675 164.739C141.133 164.068 145.513 162.779 149.695 160.899C149.892 160.807 150.076 160.728 150.274 160.636C154.167 158.861 159.072 159.492 161.492 162.832C162.647 164.516 162.818 166.699 161.937 168.829Z" fill="#333333"/>
<path d="M121.524 164.739C121.169 168.224 118.223 170.933 114.646 170.933C110.832 170.933 107.742 167.843 107.742 164.016C107.742 162.885 108.018 161.833 108.505 160.899C112.686 162.78 117.065 164.069 121.524 164.739Z" fill="white"/>
<path d="M150.456 164.016C150.456 167.843 147.365 170.933 143.552 170.933C139.975 170.933 137.029 168.224 136.674 164.739C141.132 164.068 145.512 162.779 149.694 160.899C150.18 161.833 150.456 162.885 150.456 164.016Z" fill="white"/>
<path d="M136.016 166.923C136.016 170.75 132.912 173.84 129.098 173.84C125.284 173.84 122.181 170.749 122.181 166.923C122.181 166.213 122.286 165.529 122.497 164.885C126.876 165.464 131.321 165.464 135.701 164.885C135.911 165.529 136.016 166.212 136.016 166.923Z" fill="white"/>
<path d="M129.104 182.265C119.444 182.265 109.784 180.169 100.786 175.976C97.3882 174.396 94.8582 171.525 94.0232 168.295C93.3932 165.86 93.7822 163.507 95.1202 161.671C96.4542 159.719 98.7132 158.356 101.445 157.882C103.915 157.439 106.451 157.773 108.763 158.846C121.687 164.869 136.511 164.871 149.434 158.851C154.491 156.532 160.229 157.722 163.09 161.674L163.12 161.716C164.66 163.966 164.892 166.833 163.754 169.581C162.672 172.272 160.356 174.612 157.406 175.982C148.414 180.171 138.759 182.265 129.104 182.265ZM103.579 161.638C103.095 161.638 102.611 161.68 102.13 161.766C100.446 162.059 99.1042 162.832 98.3422 163.945C97.6792 164.857 97.5142 166.033 97.8422 167.306C98.3852 169.406 100.108 171.309 102.451 172.398C119.385 180.291 138.809 180.293 155.743 172.404C157.764 171.465 159.393 169.852 160.102 168.089C160.733 166.564 160.651 165.108 159.879 163.965C158.138 161.59 154.366 160.932 151.089 162.43C137.117 168.94 121.08 168.937 107.098 162.421C105.978 161.903 104.783 161.638 103.579 161.638Z" fill="#FF4274"/>
<path d="M50.5581 150.314C50.5581 146.743 53.4531 143.848 57.0241 143.848C60.5951 143.848 63.4901 146.743 63.4901 150.314C63.4901 153.885 60.5951 156.78 57.0241 156.78C53.4521 156.78 50.5581 153.885 50.5581 150.314Z" fill="#FF6666"/>
<path d="M194.708 150.314C194.708 146.743 197.603 143.848 201.174 143.848C204.745 143.848 207.64 146.743 207.64 150.314C207.64 153.885 204.745 156.78 201.174 156.78C197.602 156.78 194.708 153.885 194.708 150.314Z" fill="#FF6666"/>
<path d="M30.2692 112.111C30.3112 112.361 34.4282 132.727 46.9622 147.724L32.8142 172.222C10.2222 150.952 3.87924 118.803 3.57324 117.203L3.61524 117.189L30.1722 112.125L30.2692 112.111Z" fill="#FFD630"/>
<path d="M7.14915 94.88C8.13915 94.88 9.07515 95.098 9.92515 95.475L3.15515 81.434C2.28815 79.833 2.88815 77.813 4.48915 76.946C6.09015 76.079 8.11015 76.679 8.97715 78.28L14.3501 88.227L15.3542 77.975C15.3982 76.155 16.9242 74.702 18.7442 74.746C20.5642 74.79 22.0171 76.316 21.9731 78.136L21.7722 93.856C21.7742 93.855 21.7761 93.854 21.7781 93.853C21.9441 93.779 22.1351 93.71 22.3191 93.665C24.0911 93.239 25.8852 94.337 26.3112 96.109L30.5291 113.645C30.1551 113.907 29.7191 114.104 29.2521 114.217L24.1531 115.443L15.2712 117.579L10.7801 118.659L5.68115 119.885C5.20315 120 4.73615 120.02 4.27315 119.959L0.0551487 102.423C-0.153851 101.543 -0.135849 94.88 7.14915 94.88Z" fill="#FFD630"/>
<path d="M18.44 107.758C15.158 107.758 11.748 107.024 10.955 104.153C9.45299 98.7169 20.132 93.522 21.354 92.947C21.851 92.713 22.449 92.9269 22.684 93.4269C22.919 93.9259 22.705 94.522 22.205 94.757C19.503 96.029 11.989 100.387 12.883 103.621C13.751 106.765 21.844 105.664 24.61 105.031C25.153 104.909 25.685 105.244 25.808 105.782C25.932 106.321 25.595 106.857 25.057 106.98C24.439 107.122 21.495 107.758 18.44 107.758Z" fill="#333333"/>
</svg>
