<svg viewBox="0 0 242 279" fill="none" xmlns="http://www.w3.org/2000/svg">
<path d="M114.425 181.076V278.226H65.2271C65.9271 263.068 82.9611 258.239 82.9611 258.239V182.42L114.425 181.076Z" fill="#9FB54A"/>
<path d="M94.2469 235.038C91.1809 235.038 88.362 233.229 86.512 230.075C86.233 229.598 86.392 228.986 86.869 228.707C87.344 228.426 87.9569 228.587 88.2379 229.063C89.7189 231.589 91.9099 233.038 94.2469 233.038C96.5839 233.038 98.7749 231.589 100.256 229.062C100.536 228.585 101.15 228.424 101.625 228.706C102.101 228.985 102.261 229.598 101.982 230.074C100.131 233.228 97.3119 235.038 94.2469 235.038Z" fill="#333333"/>
<path d="M176.415 278.226H127.231V181.076L158.695 182.42V258.239C158.695 258.239 175.716 263.068 176.415 278.226Z" fill="#9FB54A"/>
<path d="M147.407 235.038C144.342 235.038 141.523 233.228 139.672 230.074C139.393 229.597 139.552 228.985 140.029 228.706C140.504 228.425 141.118 228.586 141.398 229.062C142.88 231.588 145.07 233.038 147.407 233.038C149.744 233.038 151.935 231.59 153.416 229.063C153.696 228.586 154.308 228.426 154.785 228.707C155.262 228.986 155.421 229.599 155.142 230.075C153.292 233.229 150.473 235.038 147.407 235.038Z" fill="#333333"/>
<path d="M82.9611 247.854H114.425V278.226H65.2271C65.9271 263.068 82.9611 258.239 82.9611 258.239V247.854Z" fill="#FF575C"/>
<path d="M176.415 278.226H127.231V247.854H158.695V258.239C158.695 258.239 175.716 263.068 176.415 278.226Z" fill="#FF575C"/>
<path d="M72.4751 219.995C72.4751 228.488 70.7531 235.374 68.6281 235.374C66.5031 235.374 64.7811 228.489 64.7811 219.995C64.7811 219.903 64.7841 219.814 64.7841 219.723H64.7771C64.7771 219.814 64.7811 219.903 64.7811 219.995C64.7811 228.488 63.0581 235.374 60.9331 235.374C58.8081 235.374 57.0861 228.489 57.0861 219.995C57.0861 219.903 57.0891 219.814 57.0891 219.723H57.0821C57.0821 219.814 57.0861 219.903 57.0861 219.995C57.0861 228.488 55.3641 235.374 53.2391 235.374C51.1141 235.374 49.3921 228.489 49.3921 219.995C49.3921 219.903 49.3951 219.814 49.3951 219.723H49.3921V172.311L72.4731 172.254V219.723H72.4701C72.4721 219.814 72.4751 219.903 72.4751 219.995Z" fill="#9FB54A"/>
<path d="M192.249 219.995C192.249 228.488 190.527 235.374 188.402 235.374C186.277 235.374 184.555 228.489 184.555 219.995C184.555 219.903 184.558 219.814 184.558 219.723H184.551C184.551 219.814 184.555 219.903 184.555 219.995C184.555 228.488 182.832 235.374 180.707 235.374C178.582 235.374 176.86 228.489 176.86 219.995C176.86 219.903 176.863 219.814 176.863 219.723H176.856C176.856 219.814 176.86 219.903 176.86 219.995C176.86 228.488 175.137 235.374 173.012 235.374C170.887 235.374 169.165 228.489 169.165 219.995C169.165 219.903 169.168 219.814 169.168 219.723H169.165V172.311L192.246 172.254V219.723H192.243C192.246 219.814 192.249 219.903 192.249 219.995Z" fill="#9FB54A"/>
<path d="M125.003 0.00195312H124.971C124.973 0.00895313 124.976 0.0149541 124.978 0.0209541C124.989 0.0139541 124.994 0.00895313 125.003 0.00195312Z" fill="#9FB54A"/>
<path d="M241.033 180.686L240.826 175.586L233.77 9.889C233.34 10.345 232.876 10.472 232.265 10.233C231.933 10.104 231.547 10.109 231.184 10.069C230.57 10.001 230.146 10.127 230.063 10.882C230 11.458 229.504 11.484 228.927 11.362C229.099 10.314 229.243 9.286 229.447 8.269C229.54 7.806 229.854 7.713 230.283 7.967C230.89 8.326 231.514 8.549 232.258 8.624C232.77 8.675 233.251 9.051 233.749 9.372L233.35 0.0019989H187.228C186.728 0.248999 186.218 0.427998 185.965 0.398998C185.711 0.368998 185.44 0.508998 185.181 0.495998C184.983 0.486998 184.749 0.399999 184.613 0.265999C184.571 0.223999 184.56 0.108999 184.571 0.0019989H136.498C136.844 0.562999 137.146 1.165 137.298 1.893C135.792 1.234 134.379 0.613999 132.972 0.0019989H126.219C126.578 0.558999 126.73 1.287 127.513 1.499C127.59 1.52 127.681 1.831 127.627 1.938C127.312 2.57 127.731 2.824 128.182 2.998C129.08 3.345 129.999 3.638 131.088 4.015C129.426 5.32 127.799 6.59699 126.088 7.93999C126.271 7.42299 126.408 7.034 126.545 6.647C126.017 6.685 125.588 6.716 125.159 6.747C125.135 6.661 125.11 6.574 125.086 6.488C125.385 6.171 125.683 5.855 126.162 5.346C125.163 5.553 124.645 4.358 123.651 5.016C123.738 5.182 123.778 5.401 123.892 5.452C124.576 5.756 124.4 6.194 124.078 6.62C123.928 6.819 123.662 7.079 123.471 7.062C123.211 7.038 122.858 6.832 122.745 6.605C122.393 5.894 122.028 5.157 121.877 4.389C121.777 3.879 121.89 3.198 122.18 2.785C122.387 2.49 123.141 2.294 123.484 2.441C124.103 2.707 124.588 3.274 125.146 3.693C125.328 3.829 125.565 3.978 125.775 3.976C126.752 3.969 126.946 3.705 126.764 2.719C126.743 2.606 126.685 2.418 126.619 2.407C125.733 2.257 125.645 1.444 125.414 0.842999C125.24 0.389998 125.001 0.131999 124.648 0.000999451H45.306C45.372 0.123999 45.424 0.252998 45.441 0.370998C45.461 0.515998 45.065 0.715 44.864 0.896C44.673 1.068 44.49 1.248 44.303 1.425C44.589 1.496 44.891 1.666 45.157 1.621C46.08 1.467 46.958 1.525 47.829 1.884C48.074 1.985 48.492 2.093 48.621 1.973C49.174 1.457 49.642 1.811 49.984 2.126C50.852 2.926 51.639 3.811 52.763 4.279C52.835 4.309 52.871 4.427 52.972 4.575C52.077 4.723 51.247 4.909 50.407 4.984C49.635 5.053 48.837 4.903 48.079 5.027C47.006 5.203 45.958 5.535 44.904 5.814C44.506 5.92 44.105 6.199 43.73 6.16C43.285 6.113 42.776 5.896 42.471 5.582C42.3 5.406 42.485 4.884 42.514 4.442C42.428 4.423 42.192 4.289 42.043 4.354C41.447 4.612 41.042 4.23599 40.525 4.09299C39.001 3.67399 38.027 2.38 36.587 1.883C36.233 1.761 35.907 1.556 35.48 1.346C35.763 0.980997 35.972 0.716998 36.176 0.448997C36.285 0.305997 36.363 0.153 36.4 0H35.263C34.739 0.627 34.228 0.632 33.513 0H5.52802L5.41 4.174C5.425 4.189 5.43703 4.206 5.45203 4.221C5.64503 4.42 6.033 4.41899 6.311 4.55099C6.59 4.68299 6.88101 4.82799 7.10001 5.03699C7.45501 5.37499 7.73301 5.794 8.08401 6.137C8.97901 7.01 9.90602 7.852 10.804 8.722C11.654 9.546 11.881 9.622 12.578 8.733C13.186 7.958 13.776 7.868 14.556 8.317C15.04 8.596 15.515 8.889 16.147 9.268C15.396 9.73 14.807 10.17 14.152 10.46C13.867 10.586 13.425 10.468 13.091 10.355C12.067 10.007 12.076 9.988 11.524 10.874C11.461 10.975 11.348 11.046 11.238 11.149C10.34 10.801 9.45802 10.406 8.54102 10.12C7.76802 9.879 7.59002 9.187 7.49902 8.626C7.39402 7.984 7.141 7.538 6.595 7.437C6.125 7.35 5.71802 7.166 5.33102 6.952L5.28201 8.668C5.33101 8.691 5.38102 8.716 5.43002 8.74C5.66302 8.853 5.89501 8.968 6.12701 9.082C6.12701 9.176 6.12601 9.271 6.12601 9.365C5.83601 9.434 5.54601 9.504 5.25601 9.572L4.72101 28.445C4.92201 28.548 5.12501 28.649 5.32501 28.749C6.81401 29.492 8.437 29.964 9.953 30.658C11.282 31.266 12.544 32.02 13.835 32.709C13.838 32.764 13.841 32.818 13.845 32.873C13.074 33.012 12.305 33.165 11.531 33.278C11.394 33.298 11.117 33.175 11.1 33.083C10.911 32.038 9.87802 32.086 9.23602 31.681C7.96402 30.878 6.576 30.261 5.263 29.519C5.073 29.412 4.88801 29.296 4.70001 29.187L4.29401 43.517C4.30801 43.53 4.32002 43.545 4.33502 43.558C4.81102 43.974 5.20902 44.481 5.64102 44.947C5.71502 44.926 5.79001 44.906 5.86401 44.885C5.79301 44.635 5.71802 44.387 5.65302 44.136C5.58802 43.885 5.504 43.634 5.483 43.378C5.423 42.667 5.44303 41.946 5.33603 41.244C5.15003 40.015 5.17101 39.906 6.27701 39.15C6.31201 39.177 6.38202 39.219 6.37802 39.231C5.85402 40.513 7.15503 41.23 7.33603 42.294C7.34903 42.371 7.52101 42.466 7.62601 42.477C9.14501 42.636 10.644 43.198 12.198 42.723C12.285 42.696 12.393 42.737 12.594 42.756C12.078 43.573 11.426 44.138 10.584 44.441C9.98701 44.656 9.72301 45.032 9.51901 45.622C9.34801 46.114 8.96301 46.586 8.55701 46.929C7.80801 47.56 7.72002 47.886 8.27002 48.714C8.39902 48.908 8.43901 49.165 8.50201 49.399C8.54601 49.562 8.49702 49.794 8.59402 49.892C9.66302 50.978 9.85802 52.63 11.141 53.571C11.118 53.672 11.095 53.772 11.072 53.872C10.28 54.065 9.47602 54.221 8.69702 54.459C7.07702 54.954 5.44903 55.428 3.93503 56.207L3.54901 69.809C4.60301 69.917 5.66901 70.026 6.76901 70.138C6.38201 71.794 4.74702 72.98 5.40002 74.882C5.29902 74.88 5.19902 74.877 5.09802 74.875C4.55402 74.175 4.00903 73.474 3.46503 72.774L1.41 145.252L1.272 150.213L0.636017 172.588L0.415009 180.424L0.318024 183.616L0.180023 188.716L0 194.866H241.645L241.033 180.686ZM13.348 13.932C13.269 14.039 12.994 14.086 12.84 14.041C12.191 13.848 11.568 13.495 10.912 13.424C10.319 13.36 9.69401 13.589 9.08301 13.682C8.05501 13.837 7.36102 13.293 6.74802 12.587C6.76602 12.511 6.78303 12.435 6.80103 12.358C7.15603 12.417 7.51402 12.462 7.86502 12.538C8.64702 12.708 9.42001 12.99 10.208 13.04C10.754 13.075 11.319 12.793 11.878 12.661C12.587 12.494 13.141 12.754 13.363 13.388C13.421 13.554 13.438 13.81 13.348 13.932ZM34.147 42.513C33.635 43.255 33.106 43.478 32.361 43.187C32.029 43.058 31.643 43.063 31.279 43.023C30.665 42.955 30.241 43.081 30.158 43.836C30.095 44.412 29.599 44.438 29.022 44.316C29.194 43.268 29.338 42.24 29.542 41.223C29.635 40.76 29.949 40.667 30.378 40.921C30.985 41.28 31.609 41.503 32.353 41.578C32.969 41.64 33.537 42.176 34.147 42.513ZM29.102 21.787C29.167 21.687 29.359 21.67 29.65 21.549C30.114 22.363 30.582 23.184 31.073 24.045C30.226 24.229 28.494 23.337 28.503 22.928C28.512 22.542 28.865 22.152 29.102 21.787ZM25.022 9.863C25.654 10.092 26.197 10.565 26.813 10.963C26.3 11.625 25.736 10.989 25.233 11.106C25.045 11.15 24.786 11.059 24.611 10.948C24.359 10.789 24.154 10.556 23.929 10.354C24.299 10.176 24.753 9.766 25.022 9.863ZM20.482 70.017C20.475 70.61 20.177 70.814 19.641 70.711C18.338 70.462 17.039 70.195 15.738 69.936C15.736 69.84 15.734 69.743 15.732 69.647C17.041 69.353 18.343 69.015 19.663 68.784C20.241 68.683 20.492 69.164 20.482 70.017ZM16.114 7.659C16.593 7.136 17.093 7.494 17.58 7.587C17.222 8.348 16.978 8.364 16.114 7.659ZM16.166 14.634C16.326 14.364 16.579 14.149 16.872 13.815C17.209 14.713 17.477 15.416 17.736 16.122C17.967 16.754 17.643 17.223 17.148 17.479C16.933 17.59 16.416 17.438 16.238 17.231C15.923 16.866 15.597 16.373 15.583 15.923C15.568 15.499 15.921 15.045 16.166 14.634ZM11.104 60.288C12.537 59.898 13.98 59.539 15.426 59.198C15.837 59.101 16.759 59.95 16.719 60.379C16.705 60.536 16.538 60.796 16.424 60.806C15.798 60.86 15.167 60.854 14.537 60.861C14.165 60.865 13.734 60.732 13.43 60.875C12.477 61.323 11.558 61.057 10.365 60.898C10.709 60.605 10.88 60.349 11.104 60.288ZM9.14603 94.044C9.02603 92.985 9.75901 92.28 10.169 91.45C10.717 90.341 11.263 89.231 11.841 88.138C12 87.837 12.273 87.596 12.493 87.328C12.76 87.578 13.095 87.787 13.277 88.088C13.579 88.586 13.782 89.144 14.027 89.676C14.233 90.123 14.082 90.441 13.704 90.725C12.254 91.811 10.816 92.913 9.37003 94.004C9.32003 94.042 9.23203 94.03 9.14603 94.044ZM14.366 133.711C14.104 134.174 13.78 134.168 13.492 133.72C13.075 133.072 12.835 132.447 13.619 131.821C14.591 132.438 14.793 132.956 14.366 133.711ZM19.245 86.843C18.63 87.287 18.041 87.773 17.401 88.176C17.216 88.292 16.717 88.28 16.659 88.17C16.059 87.033 15.519 85.864 14.964 84.703C14.944 84.66 14.923 84.596 14.941 84.56C15.283 83.873 14.779 83.487 14.298 83C14.571 83.012 14.776 82.958 14.88 83.036C15.916 83.824 17.22 83.649 18.366 84.029C19.4 84.372 20.442 84.693 21.704 85.094C20.771 85.758 20.004 86.295 19.245 86.843ZM26.975 72.468C26.297 72.673 25.492 72.672 24.791 72.527C23.968 72.356 23.207 71.903 22.399 71.63C21.984 71.489 21.846 71.327 22.099 70.945C22.596 70.196 23.095 69.449 23.618 68.664C24.725 69.404 25.267 69.338 26.126 68.607C26.318 68.444 26.677 68.427 26.957 68.43C27.269 68.433 27.58 68.536 27.923 68.602C27.973 68.928 28.035 69.331 28.109 69.809C27.205 69.509 26.533 69.66 26.146 70.565C26.079 70.721 25.735 70.74 25.56 70.875C25.394 71.003 25.282 71.199 25.146 71.365C25.316 71.494 25.534 71.766 25.647 71.728C26.202 71.54 26.759 71.319 27.254 71.01C27.572 70.811 27.783 70.44 28.077 70.106C28.18 70.174 28.293 70.252 28.408 70.326C28.803 70.579 29.146 70.712 29.395 70.118C29.563 69.719 29.885 69.384 30.044 68.983C30.347 68.22 30.859 68.759 31.227 68.814C31.412 68.842 31.688 69.342 31.646 69.578C31.544 70.144 31.316 70.698 31.064 71.22C30.933 71.491 30.746 71.811 30.295 71.404C29.874 71.024 29.3 70.955 28.759 71.333C28.177 71.74 27.624 72.272 26.975 72.468ZM30.568 88.55C30.079 88.332 29.589 88.114 29.1 87.896C29.157 87.798 29.213 87.7 29.27 87.602C29.741 87.838 30.213 88.074 30.684 88.31C30.645 88.39 30.606 88.47 30.568 88.55ZM33.594 122.494C32.827 122.385 32.077 122.279 31.327 122.173C31.32 122.134 31.314 122.096 31.307 122.057C32.044 121.799 32.781 121.541 33.594 121.256C33.594 121.701 33.594 122.074 33.594 122.494ZM34.726 72.77C34.833 73.345 34.701 73.969 34.635 74.567C34.621 74.689 34.374 74.908 34.319 74.884C33.901 74.706 33.437 74.546 33.128 74.239C32.957 74.069 33.034 73.625 33.045 73.306C33.057 72.955 33.12 72.605 33.161 72.255C33.053 72.231 32.945 72.207 32.837 72.183C32.297 72.814 32.532 74.192 31.315 74.114C30.63 74.07 29.972 73.617 29.303 73.349C29.346 73.238 29.356 73.162 29.379 73.158C30.716 72.929 31.205 71.589 32.242 70.957C32.486 70.808 32.504 70.327 32.721 70.082C32.891 69.891 33.258 69.674 33.448 69.738C34.032 69.933 34.574 70.256 35.227 70.576C34.359 71.17 34.571 71.941 34.726 72.77ZM41.887 11.367C41.823 11.405 41.758 11.444 41.694 11.482C41.295 10.985 40.847 10.516 40.525 9.973C40.418 9.792 40.602 9.405 40.723 9.143C40.761 9.062 41.087 9.006 41.174 9.074C41.44 9.284 41.792 9.529 41.857 9.818C41.968 10.312 41.887 10.848 41.887 11.367ZM115.462 19.588C114.653 19.813 114.244 19.435 113.845 18.847C114.645 18.613 115.014 19.073 115.462 19.588ZM112.018 16.738C112.992 16.752 112.786 17.8 113.274 18.511C112.227 18.377 111.349 18.265 110.476 18.154C110.51 17.404 111.127 16.725 112.018 16.738ZM45.204 15.935C45.453 15.96 45.709 15.954 45.949 16.015C46.741 16.217 47.517 16.494 48.318 16.639C48.733 16.714 49.187 16.565 49.624 16.524C50.688 16.425 51.148 17.244 51.713 17.903C52.01 18.25 52.31 18.594 52.698 19.042C52.522 19.301 52.295 19.634 52.006 20.06C51.648 19.801 51.35 19.586 51.019 19.346C50.541 19.616 50.27 19.511 50.126 18.913C50.069 18.678 50.066 18.422 49.968 18.207C49.864 17.98 49.676 17.791 49.525 17.586C49.352 17.728 49.153 17.848 49.011 18.015C48.602 18.496 48.282 18.494 47.801 18.068C47.657 17.941 47.368 17.966 47.143 17.945C46.936 17.925 46.629 18.022 46.533 17.917C46.019 17.348 45.558 16.732 45.078 16.132C45.119 16.066 45.162 16.001 45.204 15.935ZM51.521 24.509C51.368 24.012 51.227 23.553 51.032 22.92C52.309 23.624 52.369 23.856 51.521 24.509ZM46.563 67.524C46.651 66.532 46.936 66.248 47.698 66.279C47.816 67.107 47.06 67.102 46.563 67.524ZM50.09 63.931C49.613 63.97 49.114 63.458 48.593 63.302C47.389 62.941 46.687 61.976 45.876 61.143C45.406 60.66 45.691 60.207 46.013 59.772C46.327 59.347 46.689 59.458 47.055 59.667C48.136 60.284 49.204 60.923 50.294 61.522C51.035 61.929 51.805 62.284 52.606 62.683C52.064 63.691 51.041 63.854 50.09 63.931ZM52.24 38.021C52.239 37.938 52.239 37.856 52.238 37.774C53.053 37.129 53.278 37.144 53.966 38.021C53.317 38.021 52.779 38.021 52.24 38.021ZM56.462 23.674C56.332 23.727 56.169 23.709 56.021 23.71C55.369 23.713 54.709 23.772 54.067 23.69C53.674 23.64 53.309 23.371 52.878 23.177C54.026 21.883 54.31 21.829 55.573 22.526C55.894 22.703 56.233 22.85 56.547 23.04C56.671 23.115 56.748 23.268 56.847 23.385C56.72 23.483 56.606 23.615 56.462 23.674ZM62.277 12.348C62.25 12.32 62.452 11.949 62.6 11.901C63.487 11.615 64.38 11.182 65.295 11.88C65.482 12.023 65.789 12.009 65.85 12.023C66.327 11.439 66.653 10.928 67.088 10.54C67.475 10.196 67.743 10.378 67.793 10.914C67.923 12.304 68.15 13.689 68.189 15.081C68.2 15.488 67.741 15.938 67.417 16.294C67.365 16.352 66.836 16.078 66.618 15.864C66.012 15.268 65.508 14.558 64.859 14.019C64.411 13.648 63.765 13.526 63.253 13.219C62.883 12.999 62.576 12.665 62.277 12.348ZM63.198 35.278C63.978 35.386 64.651 36.909 64.364 38.021C63.203 37.584 62.985 37.058 63.198 35.278ZM64.024 54.382C63.98 54.032 63.797 53.617 63.922 53.344C64.189 52.76 63.885 52.359 63.694 51.891C63.556 51.554 63.473 51.195 63.366 50.846C63.831 50.751 64.293 50.612 64.763 50.572C65.319 50.524 65.881 50.561 66.66 50.561C66.512 50.862 66.35 51.264 66.129 51.63C65.702 52.335 65.262 53.035 64.783 53.705C64.591 53.973 64.281 54.159 64.024 54.382ZM68.133 148.764C68.12 149.016 67.908 149.258 67.786 149.504C67.71 149.499 67.635 149.495 67.559 149.49C67.077 147.713 66.596 145.935 66.096 144.092C67.461 144.282 68.153 145.026 68.152 146.147C68.153 147.019 68.178 147.893 68.133 148.764ZM68.458 143.377C68.425 143.996 68.127 144.07 67.698 143.772C67.316 143.506 66.996 143.15 66.525 142.722C67.23 141.81 67.886 140.961 68.542 140.111C68.594 140.15 68.646 140.19 68.698 140.229C68.616 141.279 68.515 142.327 68.458 143.377ZM68.439 50.311C68.22 50.437 67.73 50.5 67.659 50.392C67.474 50.115 67.41 49.729 67.398 49.383C67.395 49.301 67.794 49.124 68 49.134C68.409 49.155 68.812 49.277 69.501 49.413C69.065 49.794 68.786 50.112 68.439 50.311ZM71.278 45.858C69.8 46.147 68.501 45.415 67.147 45.047C66.974 45 66.846 44.231 66.949 43.867C67.08 43.405 67.242 43.031 66.98 42.554C66.884 42.379 67.032 42.071 67.095 41.647C67.718 42.141 68.22 42.539 68.594 42.836C68.472 43.283 68.389 43.589 68.306 43.895C68.697 43.994 69.137 44.253 69.467 44.153C69.949 44.007 70.184 44.165 70.506 44.439C70.797 44.688 71.194 44.809 71.503 45.042C71.656 45.158 71.715 45.398 71.816 45.582C71.637 45.677 71.468 45.821 71.278 45.858ZM72.644 10.51C72.104 10.802 72.061 11.147 72.388 11.627C72.483 11.766 72.571 12.069 72.51 12.123C72.365 12.249 72.123 12.339 71.931 12.322C71.315 12.267 70.707 11.469 70.787 10.849C70.802 10.731 70.9 10.61 70.989 10.518C71.303 10.192 71.608 9.851 71.959 9.57C72.157 9.411 72.461 9.248 72.678 9.29C72.857 9.324 72.977 9.658 73.162 9.911C72.948 10.165 72.834 10.407 72.644 10.51ZM72.798 8.596C72.487 8.226 72.165 7.977 71.665 8.295C71.212 8.583 70.901 8.266 70.691 7.949C70.496 7.654 70.669 7.478 71.004 7.307C71.178 7.218 71.219 6.747 71.212 6.451C71.201 6.017 71.355 5.591 71.753 5.698C72.083 5.787 72.587 6.349 72.528 6.571C72.27 7.538 73.057 7.719 73.532 8.127C73.722 8.29 73.995 8.356 74.318 8.506C73.735 9.013 73.15 9.014 72.798 8.596ZM80.203 36.44C80.417 36.489 80.607 36.644 80.808 36.751C80.795 36.815 80.781 36.88 80.768 36.945C80.162 36.916 79.556 36.888 78.959 36.859C78.456 35.249 79.479 34.257 80.977 34.536C80.559 34.905 80.178 35.174 79.882 35.518C79.429 36.041 79.546 36.29 80.203 36.44ZM84.104 30.195C84.05 30.881 84.02 31.57 83.951 32.255C83.918 32.581 83.821 32.901 83.753 33.224C83.646 33.245 83.538 33.265 83.431 33.286C83.367 33.055 83.263 32.826 83.246 32.592C83.208 32.043 83.305 31.469 83.177 30.947C82.983 30.158 82.612 29.414 82.384 28.631C82.303 28.354 82.407 28.016 82.452 27.71C82.505 27.349 82.585 26.991 82.697 26.406C83.052 26.657 83.376 26.816 83.608 27.062C84.476 27.984 84.19 29.109 84.104 30.195ZM85.86 5.182C85.365 5.525 85.12 6.228 84.728 6.821C83.976 5.949 84.157 4.744 85.047 4.275C85.225 4.181 85.342 3.977 85.502 3.842C85.813 3.579 86.134 3.328 86.532 3.007C86.789 4.05 86.63 4.648 85.86 5.182ZM94.483 16.266C94.23 16.207 93.965 16.181 93.728 16.084C92.903 15.748 92.081 15.401 91.273 15.026C91.053 14.923 90.886 14.704 90.696 14.538C90.829 14.385 90.967 14.235 91.095 14.077C91.556 13.51 92.015 13.315 92.618 13.94C92.789 14.116 93.201 14.033 93.446 14.171C93.671 14.298 93.858 14.538 93.993 14.769C94.241 15.194 94.439 15.648 94.658 16.09C94.599 16.149 94.541 16.207 94.483 16.266ZM96.628 60.596C96.787 60.122 96.947 59.649 97.15 59.045C97.766 59.738 97.668 60.044 96.628 60.596ZM101.921 38.77C101.374 38.964 100.838 39.214 100.64 39.865C100.6 39.998 100.381 40.114 100.223 40.154C100.165 40.169 100.024 39.955 99.958 39.826C99.858 39.632 99.785 39.423 99.711 39.216C99.527 38.702 99.324 38.186 100.216 38.172C100.363 38.17 100.552 38.038 100.644 37.911C101.004 37.416 101.436 37.412 101.946 37.632C102.11 37.703 102.34 37.763 102.488 37.702C103.134 37.434 103.459 37.892 103.983 38.211C103.176 38.425 102.533 38.553 101.921 38.77ZM104.905 19.348C104.518 20.297 104.074 21.223 103.678 22.169C103.266 23.152 102.861 24.129 102.953 25.248C102.997 25.778 102.907 26.332 102.793 26.856C102.739 27.105 102.484 27.31 102.32 27.535C102.214 27.5 102.107 27.465 102.001 27.43C102.562 26.019 101.173 25.371 100.877 24.286C100.822 24.086 100.361 23.966 100.067 23.871C99.582 23.713 99.427 23.462 99.715 23.008C99.807 22.863 99.885 22.709 99.99 22.574C101.035 21.232 100.832 19.903 99.433 18.878C99.177 18.69 98.955 18.456 98.718 18.243C98.746 18.155 98.775 18.068 98.803 17.98C99.786 18.046 100.77 18.097 101.752 18.183C102.607 18.258 103.457 18.388 104.313 18.463C104.967 18.521 105.153 18.739 104.905 19.348ZM108.377 64.559C107.587 63.977 107.665 63.704 108.925 62.642C109.414 63.065 109.284 63.518 108.377 64.559ZM114.584 65.632C113.436 65.944 112.285 66.344 111.077 65.916C110.472 65.702 110.07 65.354 110.139 64.612C110.187 64.091 110.272 63.509 109.646 63.179C109.598 63.154 109.659 62.723 109.728 62.705C110.368 62.538 109.95 61.24 110.914 61.543C111.404 61.697 111.844 62.074 112.25 62.417C112.712 62.809 113.101 63.285 113.539 63.707C114.028 64.177 114.448 64.777 115.289 64.615C115.402 64.593 115.569 64.849 115.86 65.111C115.337 65.328 114.973 65.526 114.584 65.632ZM116.589 67.036C116.408 66.328 116.29 65.868 116.165 65.381C116.803 65.154 117.106 65.661 117.278 66.049C117.353 66.214 116.897 66.616 116.589 67.036ZM114.075 52.881C114.018 52.758 113.919 52.635 113.905 52.503C113.745 50.991 113.608 49.477 113.439 47.967C113.402 47.636 113.267 47.315 113.167 46.992C112.992 46.429 113.152 45.967 113.598 45.483C113.721 45.709 113.839 45.86 113.888 46.03C114.146 46.921 114.5 47.055 115.335 46.747C115.802 46.575 116.356 46.653 116.855 46.544C117.652 46.37 118.436 46.136 119.222 45.927C119.317 47.089 115.389 52.44 114.075 52.881ZM119.98 11.703C119.358 12.067 118.679 12.335 118.027 12.646C117.955 12.594 117.883 12.541 117.811 12.488C118.506 11.273 119.202 10.058 119.905 8.82899C121.07 9.66699 121.074 11.063 119.98 11.703ZM121.07 70.384C121.268 69.641 121.405 69.126 121.577 68.483C122.1 68.917 122.515 69.26 123.068 69.719C122.322 69.967 121.755 70.156 121.07 70.384ZM123.642 70.644C123.906 69.724 124.155 69.66 125.09 70.293C124.55 70.423 124.129 70.525 123.642 70.644ZM192.848 10.125C193.045 10.203 193.312 10.225 193.427 10.369C194.133 11.248 194.823 12.141 195.47 13.063C195.581 13.222 195.539 13.581 195.437 13.78C195.092 14.449 194.683 15.086 194.307 15.74C194.079 16.136 193.868 16.542 193.585 17.061C193.248 16.434 192.955 15.887 192.661 15.341C192.737 15.283 192.812 15.226 192.888 15.168C193.499 15.474 193.78 15.351 193.903 14.641C194.071 13.665 193.917 13.081 193.137 12.486C192.982 12.368 192.853 12.154 192.811 11.962C192.722 11.557 192.669 11.139 192.659 10.724C192.655 10.525 192.781 10.324 192.848 10.125ZM196.288 24.784C196.366 24.845 196.444 24.907 196.522 24.968C196.551 25.589 196.58 26.211 196.616 27.002C195.999 26.601 195.579 26.329 195.35 26.179C195.679 25.69 195.983 25.237 196.288 24.784ZM187.497 13.184C186.792 12.926 186.421 14.246 185.631 13.505C186.276 13.521 186.759 12.615 187.497 13.184ZM176.592 9.626C177.053 9.966 177.298 10.147 177.57 10.347C177.242 10.844 176.821 10.775 176.48 10.555C176.383 10.491 176.533 10.047 176.592 9.626ZM174.833 28.803C175.537 28.372 176.263 27.976 176.997 27.599C177.152 27.519 177.383 27.586 177.579 27.586C177.565 27.81 177.642 28.143 177.524 28.241C176.594 29.017 175.628 29.747 174.646 30.513C173.961 29.477 173.972 29.331 174.833 28.803ZM147.966 19.192C147.615 20.137 147.337 20.183 146.444 19.315C147.038 19.267 147.486 19.231 147.966 19.192ZM144.419 0.625999C144.696 1.095 144.883 1.412 145.133 1.835C144.742 1.981 144.423 2.099 144.058 2.235C144.18 1.689 144.274 1.271 144.419 0.625999ZM131.272 87.259C130.579 87.682 129.349 87.475 128.799 86.851C130.113 87.015 130.39 85.744 131.201 85.173C131.36 85.685 131.557 86.127 131.616 86.587C131.644 86.799 131.462 87.143 131.272 87.259ZM132.532 13.074C131.603 13.792 130.696 14.539 129.763 15.253C129.334 15.582 128.866 15.86 128.249 16.274C128.306 15.893 128.315 15.755 128.348 15.623C128.56 14.789 128.303 14.297 127.499 13.969C127.094 13.804 126.81 13.618 127.388 13.258C127.539 13.164 127.658 12.889 127.654 12.7C127.626 11.492 128.407 10.74 129.146 9.864C129.817 11.043 131.11 11.02 132.079 11.581C132.225 11.665 132.423 11.675 132.545 11.78C132.832 12.025 133.088 12.306 133.357 12.573C133.081 12.737 132.786 12.878 132.532 13.074ZM136.255 45.071C136.14 45.033 136.038 44.96 135.926 44.91C133.838 43.986 134.405 44.027 135.568 42.861C136.321 43.317 136.999 43.727 137.801 44.213C137.837 44.65 136.939 45.301 136.255 45.071ZM139.066 16.73C138.671 16.075 138.37 15.37 137.292 15.412C138.274 15.076 137.365 14.539 137.699 14.029C139.091 14.617 140.504 15.215 141.917 15.813C141.922 15.927 141.927 16.04 141.932 16.154C141.245 16.476 140.574 16.848 139.86 17.091C139.652 17.162 139.195 16.944 139.066 16.73ZM142.18 34.206C141.789 33.805 141.409 33.353 141.177 32.85C141.045 32.563 141.208 32.14 141.238 31.778C141.491 31.827 141.742 31.891 141.997 31.921C143.195 32.06 142.748 33.243 143.271 33.894C143.15 33.991 143.042 34.143 142.907 34.174C142.667 34.23 142.296 34.324 142.18 34.206ZM149.043 44.938C148.553 44.622 148.071 44.296 147.574 43.995C147.329 43.847 147.064 43.662 146.796 43.64C146.208 43.59 146.141 43.319 146.322 42.844C146.721 41.796 146.634 41.562 145.635 41.08C145.155 40.848 144.675 40.6 144.168 40.449C143.358 40.207 143.16 39.569 143.139 38.879C143.132 38.668 143.488 38.374 143.742 38.242C144.225 37.991 144.774 37.869 145.257 37.619C145.68 37.4 146.659 37.473 146.971 37.844C147.042 37.929 147.128 38.077 147.099 38.158C146.828 38.909 147.308 39.367 147.815 39.672C148.651 40.175 149.23 40.772 149.248 41.799C149.251 41.962 149.301 42.156 149.399 42.281C150.142 43.217 149.631 44.005 149.043 44.938ZM162.314 16.067C162.017 16.325 161.654 16.52 161.294 16.689C160.864 16.891 160.409 17.038 159.776 17.282C159.445 16.515 159.091 15.695 158.655 14.684C159.479 14.823 160.106 14.936 160.737 15.032C161.146 15.094 161.562 15.111 161.968 15.184C162.166 15.22 162.487 15.313 162.509 15.426C162.547 15.627 162.464 15.937 162.314 16.067ZM163.58 5.959C162.695 5.426 162.018 5.018 161.34 4.61C161.331 4.508 161.321 4.406 161.312 4.304C162.473 3.746 163.635 3.189 164.888 2.587C165.135 4.115 163.612 4.587 163.58 5.959ZM175.612 40.808C175.294 41.263 173.593 41.587 173.145 41.256C173.029 41.17 172.925 40.857 172.985 40.778C173.516 40.085 174.204 39.621 175.115 39.747C175.375 39.783 175.597 40.083 175.82 40.249C175.713 40.544 175.69 40.696 175.612 40.808ZM181.005 33.883C180.446 34.373 180.337 34.916 180.364 35.593C180.393 36.311 180.034 36.462 179.377 36.137C179.081 35.991 178.704 36.019 178.37 35.939C178.086 35.871 177.594 35.797 177.574 35.667C177.5 35.187 177.009 34.624 177.657 34.195C178.373 33.721 179.123 33.295 179.83 32.807C180.228 32.532 180.497 32.17 180.294 31.608C180.236 31.449 180.345 31.164 180.473 31.025C180.558 30.933 180.814 31 180.993 30.996C180.961 31.212 180.99 31.464 180.887 31.639C180.529 32.249 180.71 32.546 181.552 32.59C181.355 33.087 181.301 33.623 181.005 33.883ZM181.114 6.721C181.15 6.817 181.092 6.949 181.063 7.175C180.583 6.672 180.187 6.222 179.751 5.816C179.526 5.606 179.248 5.382 178.961 5.321C177.623 5.033 177.521 4.847 178.18 3.495C179.564 4.708 181.34 4.004 182.915 4.354C182.932 4.455 182.948 4.556 182.965 4.657C182.606 4.893 182.268 5.174 181.883 5.354C181.276 5.636 180.825 5.951 181.114 6.721ZM183.463 29.868C184.248 29.413 185.011 28.908 185.83 28.523C186.243 28.329 186.785 28.543 186.754 29.048C186.725 29.522 186.494 30.251 186.157 30.387C185.295 30.736 184.315 30.888 183.463 29.868ZM187.169 38.026C186.509 38.297 186.381 37.666 186.105 37.017C187.071 36.896 187.928 36.789 188.784 36.681C188.823 36.762 188.861 36.844 188.9 36.925C188.326 37.301 187.791 37.771 187.169 38.026ZM188.003 26.119C187.726 26.152 187.418 26.245 187.2 26.411C185.778 27.49 184.04 27.774 182.418 28.346C182.359 28.367 182.276 28.32 182.204 28.304C182.162 28.233 182.121 28.163 182.079 28.092C184.238 26.266 186.398 24.439 188.523 22.642C188.776 23.265 188.954 23.739 189.159 24.202C189.409 24.765 188.621 26.046 188.003 26.119ZM190.015 14.185C190.345 13.902 190.672 13.509 191.058 13.43C191.365 13.367 191.751 13.697 192.103 13.853C192.088 13.939 192.073 14.024 192.058 14.11C191.445 14.261 190.833 14.421 190.214 14.545C190.17 14.553 189.992 14.205 190.015 14.185ZM196.543 54.627C196.415 54.834 196.222 55.015 196.15 55.238C195.905 55.995 195.02 56.724 194.226 56.768C194.13 56.773 193.988 56.782 193.941 56.727C193.308 55.971 192.683 56.458 192.115 56.78C191.5 57.129 190.974 57.121 190.421 56.638C191.083 54.757 195.265 52.455 197.775 52.613C197.349 53.309 196.949 53.969 196.543 54.627ZM195.797 16.6C195.783 15.865 196.249 15.356 196.672 14.835C196.733 14.76 196.901 14.725 197.007 14.743C197.37 14.805 198.531 16.192 198.596 16.6C197.683 16.6 196.767 16.6 195.797 16.6ZM219.468 20.347C219.797 19.857 220.102 19.405 220.406 18.952C220.484 19.013 220.562 19.075 220.64 19.136C220.669 19.757 220.697 20.378 220.734 21.17C220.116 20.768 219.697 20.496 219.468 20.347ZM227.194 55.063C226.876 55.518 225.175 55.841 224.727 55.511C224.611 55.425 224.507 55.112 224.567 55.033C225.098 54.34 225.786 53.876 226.697 54.002C226.956 54.038 227.179 54.338 227.402 54.504C227.295 54.799 227.273 54.95 227.194 55.063ZM229.45 78.815C229.189 79.278 228.865 79.272 228.576 78.824C228.159 78.176 227.919 77.551 228.703 76.925C229.675 77.542 229.877 78.061 229.45 78.815Z" fill="#9FB54A"/>
<path d="M109.48 92.749C109.48 106.348 91.5969 117.363 69.5399 117.363C47.4829 117.363 29.5859 106.348 29.5859 92.749H109.48Z" fill="white"/>
<path d="M69.5331 103.767C75.6182 103.767 80.5511 98.834 80.5511 92.7489C80.5511 86.6639 75.6182 81.731 69.5331 81.731C63.4481 81.731 58.5151 86.6639 58.5151 92.7489C58.5151 98.834 63.4481 103.767 69.5331 103.767Z" fill="#333333"/>
<path d="M109.48 92.749H29.5859C29.5859 79.15 47.4829 68.135 69.5399 68.135C91.5969 68.135 109.48 79.15 109.48 92.749Z" fill="#B5CF54"/>
<path d="M212.057 92.749C212.057 106.348 194.174 117.363 172.117 117.363C150.06 117.363 132.163 106.348 132.163 92.749H212.057Z" fill="white"/>
<path d="M172.109 103.767C178.194 103.767 183.127 98.834 183.127 92.7489C183.127 86.6639 178.194 81.731 172.109 81.731C166.024 81.731 161.091 86.6639 161.091 92.7489C161.091 98.834 166.024 103.767 172.109 103.767Z" fill="#333333"/>
<path d="M212.057 92.749H132.163C132.163 79.15 150.06 68.135 172.117 68.135C194.173 68.135 212.057 79.15 212.057 92.749Z" fill="#B5CF54"/>
<path d="M154.149 130.658C153.281 132.807 151.346 134.876 148.703 136.104C131.045 144.326 110.597 144.326 92.9392 136.091C87.5602 133.595 85.5052 127.936 87.9602 124.572C89.1352 122.85 91.0562 121.876 93.0992 121.515C95.1412 121.155 97.3172 121.408 99.3322 122.343C99.5322 122.436 99.7192 122.516 99.9192 122.61C104.163 124.519 108.608 125.827 113.133 126.507C113.467 126.56 113.787 126.614 114.121 126.64V126.653C118.566 127.24 123.077 127.24 127.521 126.653V126.64C127.855 126.613 128.175 126.56 128.509 126.507C133.034 125.826 137.478 124.518 141.723 122.61C141.923 122.517 142.11 122.437 142.31 122.343C146.261 120.541 151.239 121.182 153.695 124.572C154.87 126.28 155.044 128.496 154.149 130.658Z" fill="#333333"/>
<path d="M113.133 126.507C112.773 130.044 109.783 132.793 106.152 132.793C102.281 132.793 99.145 129.657 99.145 125.772C99.145 124.624 99.425 123.556 99.919 122.609C104.164 124.518 108.609 125.826 113.133 126.507Z" fill="white"/>
<path d="M142.497 125.773C142.497 129.657 139.36 132.794 135.49 132.794C131.86 132.794 128.87 130.045 128.509 126.508C133.034 125.827 137.478 124.519 141.723 122.611C142.217 123.557 142.497 124.625 142.497 125.773Z" fill="white"/>
<path d="M127.842 128.723C127.842 132.607 124.692 135.744 120.821 135.744C116.95 135.744 113.8 132.607 113.8 128.723C113.8 128.002 113.907 127.308 114.12 126.654C118.565 127.241 123.076 127.241 127.52 126.654C127.735 127.308 127.842 128.002 127.842 128.723Z" fill="white"/>
<path d="M120.827 144.294C111.023 144.294 101.219 142.167 92.0871 137.911C88.6381 136.308 86.0711 133.393 85.2231 130.115C84.5841 127.644 84.9791 125.256 86.3361 123.392C87.6901 121.411 89.9821 120.028 92.7551 119.547C95.2621 119.097 97.8361 119.436 100.182 120.526C113.299 126.639 128.344 126.64 141.46 120.531C146.592 118.177 152.416 119.385 155.32 123.396L155.351 123.439C156.914 125.723 157.149 128.632 155.994 131.421C154.896 134.152 152.545 136.526 149.552 137.917C140.425 142.169 130.625 144.294 120.827 144.294ZM94.9221 123.359C94.4311 123.359 93.9401 123.402 93.4511 123.489C91.7421 123.786 90.3791 124.571 89.6071 125.701C88.9341 126.626 88.7661 127.82 89.1001 129.112C89.6511 131.243 91.4001 133.175 93.7771 134.28C110.963 142.291 130.677 142.292 147.864 134.287C149.915 133.334 151.568 131.697 152.288 129.907C152.928 128.36 152.845 126.882 152.062 125.722C150.295 123.312 146.466 122.643 143.141 124.164C128.961 130.771 112.684 130.769 98.4941 124.155C97.3571 123.628 96.1431 123.359 94.9221 123.359Z" fill="#FF575C"/>
<path d="M34.1041 129.58C22.8681 146.523 11.6331 163.481 0.411133 180.424L0.632141 172.588C8.86914 160.15 17.1191 147.712 25.3561 135.287C17.3261 140.262 9.29713 145.238 1.26813 150.213L1.40613 145.252C11.3571 139.088 21.3211 132.911 31.2711 126.747C32.9841 125.669 35.2651 127.838 34.1041 129.58Z" fill="#B5CF54"/>
<path d="M48.9468 161.463C43.5988 172.602 38.2638 183.727 32.9288 194.866H28.3408C35.3748 180.203 42.4098 165.54 49.4438 150.877C47.6748 152.535 45.8918 154.18 44.0678 155.783C30.3028 167.862 15.3358 178.434 0.174805 188.716L0.312805 183.616C1.40481 182.884 2.4958 182.137 3.5878 181.391C21.7608 168.898 39.5338 155.658 54.9018 139.765C56.6298 137.968 59.1168 140.249 58.1498 142.266C55.0828 148.665 52.0148 155.064 48.9468 161.463Z" fill="#B5CF54"/>
<path d="M89.287 152.314C87.145 166.839 83.552 181.074 78.632 194.866H74.279C78.632 182.912 81.9219 170.584 84.1599 158.049C80.3179 162.084 76.4759 166.12 72.6339 170.155C64.7979 178.392 56.948 186.629 49.112 194.865H43.377C57.529 180.008 71.6809 165.152 85.8189 150.295C87.3939 148.638 89.564 150.434 89.287 152.314Z" fill="#B5CF54"/>
<path d="M129.297 167.571C125.566 176.402 122.511 185.551 120.203 194.866H116.002C117.702 187.942 119.775 181.115 122.235 174.398C114.233 181.75 105.775 188.578 96.9301 194.866H89.5781C102.624 186.09 114.841 176.126 126.036 165.07C127.846 163.273 130.154 165.54 129.297 167.571Z" fill="#B5CF54"/>
<path d="M181.924 140.553C180.169 159.293 175.511 177.619 168.118 194.866H163.626C170.356 179.623 174.889 163.425 177.059 146.896C173.645 150.807 170.232 154.704 166.818 158.615C156.259 170.694 145.701 182.773 135.156 194.865H129.656C145.895 176.263 162.147 157.675 178.386 139.087C179.519 137.789 182.09 138.784 181.924 140.553Z" fill="#B5CF54"/>
<path d="M230.142 136.448C226.894 156.073 222.859 175.573 218.049 194.866H213.778C214.51 191.992 215.215 189.117 215.906 186.228C220.301 167.792 223.963 149.176 226.907 130.436C225.428 133.407 223.867 136.351 222.18 139.212C209.88 160.15 193.268 177.977 175.896 194.866H169.912C172.289 192.586 174.666 190.278 177.002 187.956C198.285 166.853 218.587 143.497 229.201 115.013C230.141 112.456 233.554 113.507 233.195 116.119C232.27 122.904 231.248 129.69 230.142 136.448Z" fill="#B5CF54"/>
<path d="M241.033 180.686C235.546 185.025 230.378 189.78 225.554 194.865H219.998C226.342 187.817 233.307 181.363 240.825 175.586L241.033 180.686Z" fill="#B5CF54"/>
</svg>
