<svg viewBox="0 0 236 243" fill="none" xmlns="http://www.w3.org/2000/svg">
<path d="M92.901 157.002V242.092H49.811C50.424 228.815 65.343 224.586 65.343 224.586V158.179L92.901 157.002Z" fill="#FF7592"/>
<path d="M75.2279 204.39C72.4979 204.39 69.9899 202.782 68.3459 199.981C68.0669 199.504 68.2259 198.892 68.7029 198.613C69.1789 198.332 69.7909 198.493 70.0719 198.97C71.3469 201.144 73.2259 202.391 75.2279 202.391C77.2299 202.391 79.1089 201.144 80.3839 198.97C80.6639 198.494 81.2779 198.332 81.7529 198.613C82.2299 198.892 82.3889 199.505 82.1099 199.981C80.4659 202.782 77.9579 204.39 75.2279 204.39Z" fill="#333333"/>
<path d="M147.197 242.092H104.118V157.002L131.676 158.179V224.586C131.676 224.586 146.584 228.815 147.197 242.092Z" fill="#FF7592"/>
<path d="M121.789 204.39C119.059 204.39 116.551 202.782 114.907 199.981C114.628 199.504 114.787 198.892 115.264 198.613C115.74 198.332 116.353 198.493 116.633 198.97C117.908 201.144 119.787 202.391 121.789 202.391C123.79 202.391 125.67 201.144 126.945 198.97C127.225 198.494 127.838 198.332 128.314 198.613C128.791 198.892 128.95 199.505 128.671 199.981C127.027 202.782 124.519 204.39 121.789 204.39Z" fill="#333333"/>
<path d="M37.0629 37.075C37.0629 29.106 35.4469 22.645 33.4529 22.645C31.4589 22.645 29.8429 29.106 29.8429 37.075C29.8429 37.161 29.8459 37.245 29.8459 37.33H29.8389C29.8389 37.244 29.8429 37.161 29.8429 37.075C29.8429 29.106 28.2259 22.645 26.2319 22.645C24.2379 22.645 22.6219 29.106 22.6219 37.075C22.6219 37.161 22.6249 37.245 22.6249 37.33H22.6189C22.6189 37.244 22.6219 37.161 22.6219 37.075C22.6219 29.106 21.0059 22.645 19.0119 22.645C17.0179 22.645 15.4019 29.106 15.4019 37.075C15.4019 37.161 15.4049 37.245 15.4049 37.33H15.4019V146.163L37.0599 111.838V37.33H37.0569C37.0599 37.244 37.0629 37.161 37.0629 37.075Z" fill="#FF7592"/>
<path d="M170.15 37.075C170.15 29.106 171.766 22.645 173.76 22.645C175.753 22.645 177.37 29.106 177.37 37.075C177.37 37.161 177.367 37.245 177.367 37.33H177.373C177.373 37.244 177.37 37.161 177.37 37.075C177.37 29.106 178.986 22.645 180.98 22.645C182.974 22.645 184.59 29.106 184.59 37.075C184.59 37.161 184.587 37.245 184.587 37.33H184.594C184.594 37.244 184.591 37.161 184.591 37.075C184.591 29.106 186.207 22.645 188.201 22.645C190.195 22.645 191.811 29.106 191.811 37.075C191.811 37.161 191.808 37.245 191.808 37.33H191.811V146.163L170.153 111.838V37.33H170.156C170.152 37.244 170.15 37.161 170.15 37.075Z" fill="#FF7592"/>
<path d="M83.8241 47.122C83.6701 47.141 83.4001 47.458 83.4261 47.504C83.5611 47.747 83.7741 47.946 84.0581 48.275C84.3131 47.988 84.5641 47.828 84.5491 47.699C84.5051 47.314 84.2151 47.074 83.8241 47.122Z" fill="#FF7592"/>
<path d="M43.7959 87.341C43.9239 87.313 44.0319 87.206 44.1589 87.159C44.4209 87.062 44.8579 87.044 44.9189 86.881C45.0489 86.532 45.0339 86.105 44.9859 85.721C44.9269 85.246 44.7559 84.787 44.6669 84.314C44.6539 84.246 44.6689 84.197 44.6739 84.141L43.0679 87.405C43.0779 87.407 43.0869 87.413 43.0959 87.415C43.3119 87.467 43.5659 87.392 43.7959 87.341Z" fill="#FF7592"/>
<path d="M233.035 172.142L230.497 169.175L230.215 168.844L227.702 165.89L226.513 164.505L224.711 162.396L222.112 159.356L220.935 157.983L219.145 155.875V155.863L215.443 151.536L215.382 151.462L213.555 149.317L213.028 148.704L210.037 145.21L208.235 143.089L204.165 138.32L202.829 136.763L201.064 134.704L173.958 102.927L86.085 0L65.721 41.377C66.06 41.326 66.396 41.191 66.699 41.08C67.213 40.892 67.663 40.337 67.976 39.841C68.434 39.115 69.167 38.958 69.85 38.658C70.161 38.521 70.451 38.337 70.752 38.177C71.04 38.023 71.33 37.875 71.617 37.719C72.19 37.409 72.762 37.096 73.334 36.783C73.6 36.638 73.865 36.492 74.146 36.339C74.396 36.841 74.084 37.106 73.809 37.209C73.242 37.423 73.083 37.871 72.943 38.365C72.729 39.123 72.427 39.746 71.615 40.127C70.692 40.56 70.175 41.432 69.714 42.354C69.132 43.518 68.626 44.754 67.59 45.641C67.424 45.783 67.386 46.067 67.233 46.235C67.021 46.468 66.696 46.863 66.526 46.815C66.171 46.714 65.79 46.426 65.598 46.107C65.41 45.794 65.273 45.554 64.885 45.557C64.826 45.557 64.744 45.571 64.712 45.539C64.459 45.293 64.187 45.15 63.905 45.063L56.879 59.338C57.263 59.616 57.692 59.786 58.25 59.7C58.65 59.639 58.705 59.924 58.676 60.232C58.625 60.791 58.848 61.161 59.294 61.528C59.512 61.708 59.559 62.262 59.482 62.6C59.28 63.487 59.713 64.203 59.96 64.974C59.983 65.045 59.972 65.126 59.984 65.314C59.516 64.994 59.157 64.683 58.744 64.48C58.137 64.181 58.134 63.632 58.085 63.103C58.026 62.477 57.784 62.181 57.172 62.088C56.85 62.039 56.577 62.402 56.719 62.767C56.85 63.103 57.032 63.433 57.255 63.716C57.672 64.242 58.142 64.727 58.577 65.24C58.735 65.426 58.855 65.645 58.993 65.848C58.951 65.905 58.909 65.963 58.867 66.021C58.645 65.955 58.418 65.9 58.201 65.819C57.642 65.61 57.086 65.208 56.532 65.214C55.661 65.224 55.009 64.911 54.39 64.392L44.859 83.757C44.98 83.653 45.135 83.575 45.283 83.504C46.171 83.079 47.075 82.688 47.966 82.271C48.487 82.028 48.991 81.747 49.515 81.512C49.681 81.438 49.889 81.457 50.166 81.423C49.842 82.25 49.244 82.681 48.607 82.814C47.823 82.977 47.382 83.406 47.16 84.067C46.719 85.379 46.341 86.712 45.966 88.044C45.87 88.386 45.4 88.631 44.891 88.517C44.608 88.453 44.308 88.429 44.043 88.32C43.57 88.125 43.131 88.068 42.709 88.125L35.271 103.246L31.848 110.2C31.943 110.21 32.035 110.2 32.131 110.222C33.103 110.44 34.037 110.838 34.975 111.19C35.076 111.228 35.083 111.494 35.149 111.648C35.31 112.027 35.429 112.438 35.66 112.77C35.906 113.122 36.293 113.372 36.56 113.711C36.769 113.977 36.938 114.298 37.037 114.621C37.218 115.212 37.334 115.823 37.489 116.477C37.004 116.161 36.253 116.581 35.679 116.028C35.533 115.887 35.196 115.956 34.952 115.903C34.771 115.864 34.485 115.826 34.442 115.713C34.206 115.09 33.655 114.58 33.72 113.852C33.777 113.205 33.505 112.508 34.027 111.921C34.09 111.85 34.01 111.551 33.906 111.462C33.782 111.355 33.564 111.34 33.383 111.323C33.12 111.299 32.852 111.287 32.589 111.308C32.169 111.341 31.735 111.35 31.339 111.47C31.29 111.485 31.244 111.51 31.195 111.527L18.893 136.518L17.079 140.196L15.853 142.697L14.014 146.424L13.327 147.822L12.665 149.158L12.126 150.249L12.003 150.494L11.071 152.406L10.875 152.81L9.968 154.661L8.374 157.873L7.32 160.018L7.124 160.422L5.395 163.928L4.304 166.135L3.752 167.275L2.685 169.457L2.477 169.874L0.687 173.503L0 174.888H235.374L233.035 172.142ZM70.776 34.964C70.418 35.38 70.51 35.578 71.032 35.697C71.202 35.736 71.353 35.859 71.512 35.943C71.501 35.994 71.491 36.046 71.48 36.097C70.999 36.074 70.518 36.051 70.044 36.029C69.645 34.751 70.456 33.964 71.646 34.185C71.314 34.478 71.011 34.692 70.776 34.964ZM74.129 30.74C74.086 31.285 74.062 31.832 74.008 32.375C73.982 32.634 73.905 32.888 73.851 33.144C73.766 33.16 73.681 33.177 73.596 33.193C73.545 33.009 73.462 32.828 73.449 32.642C73.419 32.206 73.496 31.75 73.394 31.336C73.24 30.71 72.945 30.119 72.764 29.498C72.7 29.278 72.782 29.01 72.818 28.767C72.86 28.48 72.924 28.197 73.012 27.732C73.294 27.931 73.551 28.057 73.735 28.253C74.424 28.984 74.197 29.877 74.129 30.74ZM17.336 162.753C17.154 162.941 16.923 163.081 16.712 163.241C16.675 163.203 16.638 163.166 16.601 163.128C16.654 162.886 16.661 162.619 16.777 162.412C16.854 162.274 17.077 162.193 17.251 162.143C17.324 162.122 17.526 162.261 17.519 162.304C17.495 162.462 17.442 162.644 17.336 162.753ZM21.04 160.92C21.512 160.503 21.903 160.158 22.37 159.746C22.365 160.384 21.82 160.844 21.04 160.92ZM26.851 125.173C26.394 125.48 26.458 125.792 26.683 126.21C26.907 126.626 26.929 127.006 26.336 127.216C25.962 127.349 25.644 127.636 25.291 127.835C25.203 127.884 25.056 127.899 24.965 127.86C24.742 127.766 24.586 126.785 24.755 126.586C25.422 125.795 26.059 124.99 26.126 123.887C26.176 123.868 26.225 123.849 26.275 123.83C26.488 124.095 26.737 124.34 26.899 124.634C26.975 124.772 26.95 125.107 26.851 125.173ZM29.061 127.958C28.847 128.296 28.587 128.516 28.149 128.235C27.982 128.128 27.735 128.155 27.539 128.082C27.227 127.966 27.183 127.708 27.478 127.59C28.091 127.343 28.738 127.181 29.371 126.984C29.402 127.039 29.433 127.095 29.464 127.151C29.332 127.42 29.221 127.704 29.061 127.958ZM27.349 121.481C27.971 120.907 28.686 120.57 29.502 120.409C30.065 120.298 30.639 120.149 31.152 119.9C31.505 119.729 31.821 119.399 32.047 119.067C32.332 118.647 32.688 118.71 33.058 118.784C33.319 118.837 33.565 118.963 33.922 119.095C31.792 120.266 29.572 120.872 27.349 121.481ZM69.449 60.585C69.49 60.616 69.532 60.648 69.573 60.679C69.507 61.512 69.427 62.343 69.382 63.177C69.356 63.668 69.119 63.728 68.779 63.491C68.475 63.28 68.221 62.998 67.848 62.658C68.408 61.933 68.929 61.259 69.449 60.585ZM69.14 65.375C69.14 66.068 69.159 66.762 69.124 67.452C69.114 67.652 68.945 67.844 68.849 68.039C68.789 68.035 68.729 68.032 68.669 68.028C68.287 66.617 67.904 65.206 67.508 63.743C68.592 63.895 69.141 64.486 69.14 65.375ZM68.304 68.541C68.164 68.707 68.023 68.874 67.883 69.04C67.804 68.988 67.725 68.937 67.646 68.885C67.746 68.676 67.846 68.468 67.946 68.259C68.065 68.353 68.185 68.447 68.304 68.541ZM67.884 87.87C68.235 87.515 68.638 87.211 69.091 86.819C69.116 87.091 69.131 87.255 69.142 87.376C68.897 87.469 68.61 87.493 68.517 87.64C68.445 87.754 68.656 88.019 68.668 88.221C68.686 88.526 68.723 88.872 68.606 89.134C68.29 89.838 67.869 90.494 67.54 91.193C67.095 92.139 66.683 93.101 66.283 94.067C66.051 94.628 65.752 94.976 65.06 94.888C64.491 94.816 63.905 94.887 63.328 94.868C62.703 94.847 62.079 94.788 61.454 94.756C61.174 94.742 60.892 94.772 60.614 94.746C60.452 94.731 60.22 94.69 60.158 94.582C60.096 94.474 60.161 94.234 60.251 94.11C60.491 93.779 60.742 93.494 61.259 93.667C61.926 93.889 62.407 93.451 62.827 93.028C64.523 91.318 66.193 89.584 67.884 87.87ZM59.897 71.636C59.836 71.597 59.775 71.558 59.714 71.519C59.773 71.261 59.832 71.003 59.892 70.745C59.952 70.735 60.013 70.725 60.073 70.714C60.163 70.903 60.333 71.099 60.316 71.278C60.303 71.41 60.046 71.518 59.897 71.636ZM66.439 69.949C66.511 69.955 66.646 70.267 66.612 70.303C66.381 70.545 66.139 70.816 65.843 70.943C65.675 71.015 65.37 70.873 65.174 70.752C64.767 70.499 64.392 70.195 63.838 69.79C64.792 69.842 65.617 69.879 66.439 69.949ZM64.072 67.89C64.261 68.393 64.563 68.774 64.184 69.149C64.098 69.234 63.636 69.124 63.538 68.977C63.189 68.452 63.769 68.307 64.072 67.89ZM64.736 77.7C64.247 78.126 63.768 78.543 63.29 78.96C63.443 77.92 64.146 77.377 64.736 77.7ZM63.507 87.583C64.248 86.973 64.908 86.265 65.62 85.619C65.889 85.376 66.206 85.186 66.501 84.972C66.551 85.023 66.6 85.075 66.65 85.127C65.156 86.646 63.663 88.165 62.146 89.708C62.118 88.665 62.819 88.15 63.507 87.583ZM55.567 65.372C56.61 66.599 58.027 66.904 59.454 67.175C59.899 67.26 60.29 67.378 60.452 67.851C60.664 68.468 60.863 69.089 61.077 69.705C61.159 69.941 61.207 70.286 61.379 70.378C61.946 70.681 61.867 71.133 61.761 71.6C61.724 71.762 61.591 71.901 61.502 72.051C61.355 71.938 61.162 71.853 61.07 71.706C60.779 71.235 60.558 70.72 60.248 70.265C60.064 69.995 59.805 69.776 59.479 70.217C59.208 70.585 58.463 70.471 58.174 70.097C57.911 69.757 57.536 69.48 57.355 69.105C57.004 68.378 56.66 67.769 55.79 67.477C55.26 67.299 55.611 66.734 55.816 66.38C55.761 66.033 55.033 65.867 55.567 65.372ZM52.375 79.848C52.954 79.375 53.531 78.899 54.128 78.45C54.726 77.999 54.419 77.43 54.383 76.887C54.367 76.65 54.402 76.41 54.414 76.171C54.632 76.194 54.876 76.161 55.062 76.25C55.907 76.652 56.725 77.11 57.574 77.503C58.126 77.759 58.713 77.938 59.388 78.19C59.469 78.895 58.849 79.307 58.279 79.854C57.93 79.174 57.506 79.002 56.802 79.161C55.711 79.407 54.604 79.553 53.657 80.214C53.601 80.253 53.505 80.248 53.429 80.243C52.995 80.217 52.561 80.184 52.102 80.152C52.165 80.079 52.255 79.945 52.375 79.848ZM47.425 85.732C47.59 85.332 48.138 85.089 48.514 84.776C48.589 84.836 48.664 84.895 48.74 84.955C48.644 85.844 48.597 86.743 48.423 87.617C48.368 87.89 48.009 88.188 47.72 88.308C47.383 88.448 46.999 88.276 47.042 87.832C47.111 87.122 47.16 86.377 47.425 85.732ZM40.868 118.149C39.999 118.175 39.129 118.167 38.259 118.161C37.787 118.158 37.873 117.818 37.897 117.527C37.92 117.251 37.953 116.976 37.991 116.614C38.327 116.614 38.757 116.6 39.186 116.618C39.596 116.635 39.922 116.605 39.658 116.036C40.224 116.219 41.216 117.388 41.188 117.842C41.18 117.956 40.982 118.145 40.868 118.149ZM46.417 107.002C46.366 106.977 46.245 107.014 46.203 107.063C45.63 107.723 44.933 107.548 44.229 107.377C44.093 107.344 43.939 107.386 43.628 107.401C44.004 106.979 44.2 106.627 43.84 106.246C43.487 105.873 43.089 105.889 42.609 106.033C41.799 106.276 41.14 105.961 40.6 105.208C40.715 105.043 40.834 104.829 40.995 104.654C41.37 104.247 41.444 103.83 41.191 103.32C41.136 103.209 41.277 102.878 41.405 102.82C42.07 102.52 42.494 102.059 42.672 101.341C42.767 100.956 43.042 100.756 43.42 101.043C43.991 101.477 44.57 101.91 45.077 102.413C45.222 102.557 45.129 102.94 45.046 103.272C46.495 103.913 47.669 104.936 48.655 106.349C48.373 106.416 48.162 106.467 47.951 106.517C47.84 106.543 47.686 106.531 47.625 106.601C47.293 106.974 46.958 107.27 46.417 107.002ZM49.616 155.98C49.604 155.906 49.591 155.832 49.579 155.758C49.78 155.427 50.052 155.234 50.443 155.412C50.524 155.449 50.536 155.636 50.579 155.754C50.258 155.829 49.937 155.905 49.616 155.98ZM47.426 111.881C48.273 111.881 49.034 111.881 49.877 111.881C49.786 111.583 49.743 111.442 49.698 111.297C50.65 111.321 51.464 112.654 51.629 114.47C50.261 113.626 48.909 112.794 47.426 111.881ZM51.45 109.605C50.794 109.544 50.757 108.986 50.566 108.552C50.623 108.504 50.681 108.455 50.738 108.406C51.036 108.754 51.334 109.101 51.632 109.449C51.571 109.501 51.51 109.553 51.45 109.605ZM59.728 169.689C59.439 170.226 59.136 170.776 58.726 171.218C58.55 171.408 58.101 171.395 57.778 171.39C56.935 171.379 56.092 171.276 55.251 171.295C54.397 171.315 53.545 171.444 52.691 171.509C52.364 171.534 52.033 171.513 51.649 171.513C51.899 170.718 52.571 170.41 53.095 169.977C53.585 169.572 54.091 169.176 54.808 169.592C55.001 169.704 55.313 169.627 55.569 169.611C56.21 169.571 56.827 169.39 57.431 169.911C57.758 170.193 58.238 169.91 58.599 169.637C58.871 169.431 59.173 169.265 59.55 169.025C59.635 169.317 59.795 169.564 59.728 169.689ZM57.737 160.292C56.761 160.356 56.031 160.881 55.214 161.256C55.126 161.296 55.037 161.335 54.948 161.375C54.883 161.355 54.818 161.335 54.753 161.315C54.842 161.083 54.87 160.791 55.029 160.628C55.678 159.967 56.394 159.45 57.414 159.497C57.938 159.521 58.471 159.365 59 159.29C59.027 159.336 59.053 159.381 59.08 159.427C58.633 159.731 58.201 160.261 57.737 160.292ZM57.183 162.976C57.072 162.066 57.291 161.662 57.985 161.429C58.329 162.201 58.317 162.227 57.183 162.976ZM56.98 165.798C56.892 166.728 56.509 167.165 55.886 167.126C55.471 167.1 55.384 166.969 55.586 166.569C55.878 165.992 56.399 165.924 56.98 165.798ZM55.163 126.96C55.328 126.364 55.481 125.905 55.565 125.433C55.583 125.331 55.328 125.06 55.243 125.078C54.449 125.242 53.956 124.727 53.369 124.359C52.833 124.023 52.786 124.066 52.233 122.86C52.862 122.369 53.402 121.914 53.976 121.506C54.715 120.979 55.176 121.135 55.529 121.952C55.886 122.779 56.351 123.57 56.618 124.424C56.863 125.208 56.908 126.054 57.063 127.005C56.343 126.727 55.657 127.391 55.163 126.96ZM60.268 134.2C60.2 134.277 59.971 134.328 59.919 134.279C59.758 134.128 59.553 133.933 59.536 133.739C59.509 133.443 59.624 133.134 59.686 132.79C60.222 132.95 60.586 133.841 60.268 134.2ZM64.886 103.05C64.372 103.013 63.907 103.063 63.502 102.929C63.011 102.766 62.658 102.965 62.336 103.214C62.036 103.445 61.833 103.41 61.583 103.188C61.365 102.994 61.086 102.85 60.917 102.622C60.575 102.161 60.246 102.292 59.812 102.483C58.779 102.937 58.322 103.911 57.69 104.722C57.336 105.177 57.061 105.693 56.685 106.283C55.937 105.393 55.263 104.613 54.617 103.81C54.381 103.517 54.547 103.381 54.876 103.298C55.625 103.109 56.415 102.982 57.095 102.642C58.023 102.179 58.975 101.869 59.984 101.701C60.425 101.628 60.869 101.57 61.314 101.531C61.42 101.522 61.606 101.595 61.635 101.674C61.865 102.311 62.299 101.937 62.414 101.726C62.867 100.899 63.684 101.097 64.366 100.94C64.66 100.872 64.983 100.929 65.391 100.929C65.052 101.643 64.193 102.155 64.886 103.05ZM64.289 99.051C64.013 98.888 63.674 98.83 63.334 98.716C63.364 98.598 63.401 98.456 63.436 98.32C62.588 97.779 61.746 98.025 60.915 98.279C60.195 98.499 59.494 98.785 58.768 98.982C58.457 99.066 58.096 99.049 57.774 98.988C57.078 98.856 56.956 98.911 56.834 99.6C56.452 99.641 56.172 99.655 55.859 99.242C55.675 98.999 55.021 99.032 54.592 99.077C54.231 99.115 53.991 99.4 54.028 99.845C54.038 99.96 53.855 100.191 53.753 100.195C53.535 100.205 53.204 100.173 53.111 100.031C52.879 99.677 52.643 99.584 52.242 99.693C51.369 99.929 50.808 99.659 50.414 98.875C50.569 98.772 50.712 98.647 50.878 98.576C51.048 98.503 51.327 98.384 51.411 98.457C52.108 99.059 52.826 98.608 53.533 98.546C54.351 98.474 55.167 98.371 55.987 98.322C57.595 98.226 59.209 98.21 60.81 98.054C61.561 97.981 62.286 97.654 63.027 97.455C63.163 97.419 63.318 97.456 63.462 97.443C64.019 97.393 64.58 97.367 65.131 97.276C66.18 97.103 67.185 97.209 68.363 97.641C67.865 98.243 67.473 98.717 67.074 99.199C66.643 98.736 65.977 98.626 65.46 98.995C65.043 99.294 64.715 99.302 64.289 99.051ZM65.98 105.483C65.501 105.264 65.759 104.949 65.799 104.643C65.829 104.412 65.805 104.174 65.805 103.79C66.251 104.023 66.632 104.164 66.945 104.396C68.273 105.38 69.58 106.393 70.897 107.391C71.511 107.856 71.513 108.06 71.079 108.695C70.667 109.298 70.35 109.966 69.953 110.581C69.837 110.761 69.589 110.856 69.389 110.999C69.109 110.495 69.051 110.195 69.564 109.902C70.05 109.624 70.041 108.47 69.655 108.036C69.492 107.852 69.41 107.597 69.248 107.411C68.969 107.09 68.667 106.788 68.358 106.496C67.918 106.081 67.379 106.029 66.793 106.009C66.517 106 66.274 105.618 65.98 105.483ZM71.674 128.46C71.648 128.848 71.548 129.051 71.09 129.057C70.112 129.07 69.135 129.154 67.983 129.219C68.136 128.842 68.176 128.597 68.313 128.434C69.078 127.52 69.871 126.629 70.645 125.723C70.846 125.488 71.015 125.225 71.197 124.974C71.435 124.647 71.654 124.679 71.791 125.04C71.871 125.251 71.913 125.495 71.898 125.72C71.836 126.633 71.736 127.545 71.674 128.46ZM99.023 22.319C98.381 22.497 98.056 22.198 97.74 21.73C98.375 21.545 98.667 21.91 99.023 22.319ZM96.289 20.057C97.062 20.068 96.899 20.9 97.286 21.465C96.455 21.359 95.758 21.27 95.065 21.181C95.092 20.585 95.581 20.046 96.289 20.057ZM93.834 56.498C94.222 56.835 94.119 57.194 93.399 58.02C92.772 57.557 92.834 57.341 93.834 56.498ZM90.171 21.426C90.692 21.471 90.84 21.645 90.642 22.128C90.335 22.881 89.983 23.616 89.668 24.367C89.341 25.147 89.019 25.923 89.092 26.811C89.127 27.232 89.056 27.672 88.964 28.088C88.921 28.286 88.719 28.448 88.589 28.627C88.505 28.599 88.42 28.572 88.336 28.544C88.782 27.424 87.679 26.909 87.443 26.048C87.4 25.889 87.033 25.794 86.8 25.718C86.415 25.593 86.292 25.393 86.52 25.033C86.593 24.918 86.655 24.795 86.738 24.688C87.567 23.623 87.406 22.568 86.296 21.754C86.093 21.605 85.917 21.419 85.728 21.25C85.75 21.18 85.773 21.111 85.795 21.041C86.575 21.093 87.357 21.134 88.136 21.202C88.817 21.264 89.492 21.367 90.171 21.426ZM89.911 37.104C89.27 37.274 88.759 37.375 88.273 37.548C87.839 37.702 87.413 37.901 87.256 38.417C87.224 38.522 87.051 38.615 86.925 38.647C86.879 38.659 86.767 38.489 86.715 38.387C86.636 38.233 86.578 38.067 86.519 37.903C86.373 37.495 86.212 37.085 86.92 37.074C87.036 37.072 87.186 36.968 87.26 36.867C87.546 36.474 87.889 36.471 88.294 36.645C88.424 36.701 88.607 36.749 88.724 36.701C89.238 36.487 89.495 36.851 89.911 37.104ZM85.199 12.344C85.413 12.199 85.479 11.839 85.616 11.579C85.91 11.022 86.17 10.443 86.512 9.917C86.858 9.386 87.287 8.909 87.68 8.408C87.744 8.409 87.807 8.41 87.871 8.41C87.871 9.048 87.9 9.688 87.864 10.325C87.813 11.24 87.694 12.152 87.646 13.067C87.606 13.829 87.555 13.883 86.817 13.955C86.48 13.988 86.162 14.174 85.826 14.25C85.555 14.311 85.205 14.452 85.331 13.875C85.379 13.656 85.241 13.346 85.094 13.147C84.846 12.812 84.799 12.617 85.199 12.344ZM79.678 17.945C80.044 17.495 80.408 17.34 80.887 17.836C81.022 17.976 81.35 17.91 81.544 18.02C81.723 18.121 81.871 18.312 81.978 18.495C82.175 18.832 82.332 19.193 82.506 19.544C82.46 19.59 82.414 19.636 82.368 19.683C82.167 19.637 81.957 19.616 81.769 19.539C81.114 19.272 80.462 18.997 79.82 18.699C79.645 18.618 79.513 18.444 79.362 18.312C79.467 18.189 79.577 18.07 79.678 17.945ZM82.169 137.321C81.438 137.534 80.753 137.907 80.05 138.213C79.663 138.381 79.277 138.551 78.891 138.722C78.771 138.775 78.636 138.814 78.537 138.895C78.035 139.304 77.934 139.291 77.639 138.727C77.488 138.437 77.351 138.139 77.138 137.702C77.547 137.837 77.842 137.9 78.105 138.03C78.379 138.167 78.472 138.08 78.667 137.86C79.128 137.341 79.495 136.688 80.448 136.878C80.921 136.972 81.48 136.642 81.999 136.504C82.239 136.44 82.478 136.377 82.777 136.298C82.854 136.899 82.713 137.163 82.169 137.321ZM83.757 128.912C83.591 129.744 83.456 130.583 83.274 131.412C83.212 131.693 83.046 131.952 82.928 132.221C82.849 132.207 82.77 132.192 82.691 132.177C82.691 131.904 82.649 131.624 82.699 131.361C82.857 130.524 82.877 129.716 82.592 128.887C82.444 128.456 82.504 127.957 82.439 127.493C82.414 127.312 82.304 127.144 82.236 126.969C82.163 126.779 82.093 126.588 82.022 126.398C82.287 126.41 82.581 126.352 82.811 126.448C83.22 126.619 83.591 126.884 84.126 127.196C84.023 127.67 83.881 128.289 83.757 128.912ZM84.072 54.874C84.198 54.498 84.325 54.122 84.486 53.643C84.975 54.192 84.897 54.436 84.072 54.874ZM84.235 48.86C83.387 48.305 82.271 48.072 81.813 46.89C82.056 46.789 82.275 46.743 82.434 46.62C82.587 46.503 82.809 46.207 82.774 46.161C82.601 45.934 82.378 45.67 82.125 45.606C81.96 45.564 81.632 45.795 81.522 45.987C81.348 46.29 81.321 46.674 81.184 47.004C80.944 47.58 80.51 47.629 80.196 47.085C79.785 46.371 79.433 45.622 79.088 44.874C78.943 44.56 78.869 44.275 79.339 44.042C79.704 43.861 79.884 43.432 79.582 42.986C79.485 42.843 79.415 42.681 79.334 42.527C79.121 42.123 78.914 41.754 78.493 42.373C78.467 42.411 78.066 42.264 77.921 42.12C77.849 42.049 77.904 41.716 78.008 41.629C78.28 41.402 80.386 41.956 80.568 42.261C80.608 42.327 80.654 42.425 80.714 42.439C81.428 42.61 81.263 43.177 81.261 43.657C81.257 44.59 82.099 45.092 82.992 45.185C83.406 45.228 83.746 45.26 84.108 45.562C84.698 46.054 85.42 45.818 86.051 45.565C86.558 45.362 86.765 45.494 86.887 45.985C87.051 46.64 87.259 47.285 87.429 47.939C87.465 48.078 87.418 48.24 87.407 48.428C86.462 48.118 85.655 48.427 84.849 48.79C84.664 48.871 84.369 48.948 84.235 48.86ZM85.395 51.414C85.617 50.971 85.696 50.456 85.919 50.014C85.999 49.856 86.314 49.756 86.53 49.738C87.024 49.697 87.529 49.771 88.018 49.709C88.489 49.648 88.752 49.918 88.933 50.223C89.798 51.684 91.154 52.58 92.541 53.445C92.72 53.557 92.927 53.625 93.121 53.713C93.052 53.785 92.982 53.858 92.913 53.93C92.896 53.985 92.894 54.054 92.859 54.094C92.364 54.657 92.515 55.228 92.744 55.858C92.842 56.128 92.763 56.554 92.602 56.804C92.404 57.112 92.059 57.039 91.806 56.755C90.055 54.79 87.948 53.297 85.629 52.08C85.376 51.946 85.213 51.776 85.395 51.414ZM87.446 58.009C87.036 57.864 86.656 57.59 86.321 57.304C86.172 57.177 86.166 56.883 86.067 56.58C86.623 56.689 87.045 56.745 87.449 56.862C87.643 56.918 87.902 57.052 87.964 57.215C88.285 58.058 88.995 58.237 89.757 58.394C90.225 58.49 90.684 58.649 91.133 58.816C91.638 59.004 91.769 59.458 91.84 59.936C91.856 60.045 91.864 60.155 91.866 60.173C92.223 59.958 92.531 59.636 92.862 59.609C93.296 59.574 93.719 59.812 93.827 60.198C93.388 60.771 93.006 61.27 92.572 61.836C92.562 61.631 92.586 61.477 92.541 61.348C92.438 61.058 92.239 60.898 91.937 61.101C91.776 61.21 91.661 61.386 91.507 61.508C91.135 61.802 90.752 62.074 90.375 61.508C90.364 61.492 90.348 61.47 90.332 61.468C89.414 61.357 89.079 60.614 88.696 59.939C88.491 59.578 88.29 59.199 88.183 58.803C88.07 58.379 87.869 58.158 87.446 58.009ZM95.725 80.812C95.961 81.64 95.409 82.413 95.218 83.248C95.188 83.379 94.879 83.463 94.686 83.538C93.907 83.838 93.29 83.722 92.806 82.946C92.506 82.465 92.095 82.021 91.647 81.671C91.023 81.183 91.066 80.579 91.145 79.876C91.419 79.876 91.65 79.876 91.926 79.876C91.915 80.417 91.974 81.005 92.627 81.007C93.653 81.012 94.677 80.885 95.725 80.812ZM93.46 89.377C93.384 89.334 93.232 89.393 93.131 89.442C93.073 89.47 93.053 89.571 93.009 89.633C92.56 90.269 92.024 90.513 91.287 90.267C90.833 90.115 90.652 90.291 90.536 90.639C90.338 91.233 90.196 91.853 89.41 91.993C89.766 92.852 90.547 93.075 91.223 93.518C91.195 93.904 90.901 94.19 90.53 94.158C89.846 94.098 89.292 94.333 88.733 94.654C88.546 94.762 88.323 94.807 87.967 94.935C88.05 94.509 88.09 94.232 88.159 93.962C88.385 93.07 88.597 92.173 88.864 91.293C88.967 90.954 89.126 90.544 89.393 90.364C89.869 90.044 90.08 89.623 90.148 89.115C90.217 88.603 90.479 88.441 90.967 88.395C91.439 88.35 91.911 88.213 92.361 88.056C92.65 87.955 92.879 87.885 93.079 88.175C93.101 88.207 93.132 88.256 93.161 88.257C93.792 88.29 93.968 88.819 94.261 89.236C94.753 89.938 95.455 90.123 96.282 89.927C96.341 90.333 96.37 90.643 96.433 90.945C96.516 91.339 96.689 91.753 96.054 91.835C96.036 91.837 96.015 91.847 96.001 91.86C95.837 92.017 95.66 92.319 95.513 92.305C95.14 92.27 94.75 92.146 94.421 91.963C93.567 91.488 93.278 90.653 93.553 89.692C93.581 89.598 93.531 89.417 93.46 89.377ZM97.111 94.009C97.026 94.101 96.97 94.238 96.942 94.363C96.539 96.171 96.146 97.982 95.743 99.79C95.594 100.46 95.425 101.125 95.265 101.793C95.189 101.81 95.113 101.827 95.038 101.844C94.918 101.649 94.715 101.464 94.691 101.259C94.579 100.307 94.368 99.374 94.633 98.383C94.752 97.94 94.46 97.372 94.307 96.876C94.165 96.414 93.896 95.976 94.305 95.513C94.352 95.459 94.311 95.328 94.311 95.121C94.057 95.236 93.904 95.305 93.622 95.432C93.622 94.705 93.491 93.996 93.656 93.365C93.851 92.622 94.202 92.532 94.903 92.873C95.375 93.103 95.754 93.085 96.123 92.738C96.388 92.895 96.641 93.066 96.913 93.199C97.318 93.398 97.461 93.629 97.111 94.009ZM96.941 84.179C97.63 83.975 98.319 83.77 99.081 83.544C98.911 84.468 98.151 84.699 96.941 84.179ZM98.326 58.872C97.414 59.12 96.501 59.437 95.542 59.098C95.062 58.928 94.743 58.652 94.797 58.063C94.835 57.649 94.902 57.187 94.405 56.926C94.367 56.906 94.416 56.564 94.47 56.55C94.978 56.417 94.647 55.387 95.412 55.627C95.801 55.749 96.15 56.048 96.472 56.321C96.839 56.632 97.148 57.01 97.495 57.345C97.883 57.718 98.217 58.194 98.884 58.065C98.974 58.048 99.106 58.251 99.337 58.459C98.924 58.63 98.635 58.788 98.326 58.872ZM99.918 59.986C99.774 59.424 99.681 59.059 99.582 58.672C100.088 58.492 100.329 58.894 100.466 59.202C100.524 59.334 100.162 59.653 99.918 59.986ZM97.922 48.749C97.876 48.651 97.798 48.554 97.787 48.449C97.66 47.249 97.551 46.047 97.417 44.848C97.388 44.585 97.28 44.33 97.201 44.074C97.062 43.627 97.189 43.261 97.543 42.876C97.64 43.056 97.734 43.175 97.773 43.311C97.978 44.018 98.259 44.124 98.922 43.88C99.293 43.743 99.732 43.805 100.128 43.719C100.761 43.581 101.383 43.395 102.008 43.229C102.083 44.151 98.965 48.399 97.922 48.749ZM103.475 62.644C103.632 62.054 103.741 61.645 103.877 61.135C104.292 61.479 104.622 61.752 105.061 62.116C104.469 62.313 104.019 62.463 103.475 62.644ZM105.517 62.85C105.726 62.119 105.924 62.069 106.667 62.571C106.238 62.676 105.904 62.757 105.517 62.85ZM110.386 60.526C110.282 60.478 110.172 60.438 110.06 60.417C109.856 60.379 109.648 60.358 109.442 60.33C109.534 60.112 109.626 59.893 109.67 59.787C110.392 59.878 111.018 59.957 111.702 60.044C111.354 60.497 110.983 60.8 110.386 60.526ZM112.222 61.113C112.441 60.552 112.58 60.198 112.688 59.92C113.133 60.08 113.596 60.246 114.162 60.45C113.55 60.66 112.954 60.864 112.222 61.113ZM114.984 40.795C115.582 41.157 116.12 41.483 116.757 41.868C116.786 42.215 116.073 42.732 115.53 42.55C115.439 42.519 115.357 42.461 115.269 42.422C113.611 41.689 114.061 41.721 114.984 40.795ZM114.262 54.305C114.165 53.613 114.45 53.233 114.998 53.149C115.157 53.125 115.351 53.02 115.438 52.891C115.806 52.344 116.338 52.18 117.112 52.521C116.127 53.138 115.211 53.711 114.262 54.305ZM120.17 50.605C119.957 50.778 119.883 51.137 119.661 51.283C119.34 51.495 118.938 51.721 118.579 51.707C117.991 51.684 117.4 51.508 116.832 51.33C116.459 51.213 116.358 50.478 116.631 50.176C116.762 50.031 116.901 49.893 117.067 49.718C116.48 49.227 116.45 48.791 116.925 48.223C117.064 48.057 117.247 47.922 117.362 47.743C117.474 47.57 117.524 47.357 117.632 47.087C118.924 48.016 120.18 48.919 121.404 49.799C120.949 50.089 120.531 50.311 120.17 50.605Z" fill="#FF7592"/>
<path d="M64.8909 44.543C65.4079 44.29 65.9039 43.886 66.4539 43.603C66.6589 43.498 66.7289 43.133 66.8609 42.886C66.6459 42.827 66.3829 42.659 66.2249 42.729C65.7569 42.935 65.4479 42.777 65.1719 42.494L64.0459 44.783C64.3369 44.742 64.6239 44.674 64.8909 44.543Z" fill="#FF7592"/>
<path d="M2.55199 169.727L2.47799 169.874L0.687988 173.503C1.00699 173.981 1.34999 174.447 1.72999 174.888H6.80499C5.06499 173.466 3.60599 171.713 2.55199 169.727ZM227.702 165.89C225.826 166.454 223.571 166.184 221.916 165.289C217.772 163.058 215.308 158.228 213.837 153.949C213.543 153.115 213.298 152.257 213.077 151.411C213.874 151.423 214.658 151.472 215.443 151.533L215.382 151.459L213.555 149.314L213.028 148.701L210.037 145.207L208.235 143.086C208.26 144.741 208.407 146.384 208.64 147.99C204.803 148.309 201.027 149.191 197.496 150.773C192.47 153.041 188.216 156.964 185.74 161.904C185.372 162.64 185.041 163.412 184.747 164.209C183.313 162.628 181.78 161.132 180.162 159.734C175.185 155.431 169.509 152.06 163.379 149.682C160.449 148.542 157.421 147.684 154.332 147.058C157.176 146.126 159.873 144.042 160.927 141.21C162.178 137.814 160.216 134.651 157.213 133.045C153.633 131.133 149.428 129.992 145.542 128.877C139.596 127.173 129.103 123.63 125.756 131.341C123.022 137.605 127.766 144.519 131.653 149.104C132.033 149.558 132.45 149.987 132.854 150.428C129.299 151.09 125.952 152.831 123.463 155.589C121.134 158.163 119.871 161.351 119.834 164.599C115.605 164.329 111.375 164.403 107.158 164.832C103.713 165.187 100.17 165.702 96.811 166.708C96.995 165.96 97.154 165.212 97.252 164.452C98.429 155.405 92.876 146.762 85.005 142.594C77.441 138.598 66.334 138.524 60.609 145.794C60.523 145.904 60.45 146.039 60.352 146.162C56.343 146.125 52.261 147.339 48.914 149.558C43.299 153.297 38.911 159.243 36.618 165.777C36.593 165.716 36.581 165.654 36.557 165.593C35.441 162.835 33.039 160.971 30.035 160.775C29.912 160.763 29.79 160.775 29.667 160.775C29.728 159.083 29.361 157.343 28.662 155.859C28.061 154.584 27.24 153.579 26.259 152.77C26.774 148.234 23.574 144.52 19.222 143.245C18.094 142.914 16.954 142.73 15.851 142.693L14.012 146.42C16.39 146.163 18.928 146.604 20.779 148.026C21.784 148.811 22.336 149.767 22.52 150.784C20.007 149.987 17.163 149.901 14.588 150.183C13.791 150.269 12.908 150.367 12.001 150.49L11.069 152.402L10.873 152.806L9.96599 154.657C10.064 154.632 10.162 154.62 10.26 154.596C13.607 153.922 18.412 152.904 21.931 154.326C21.379 155.454 20.533 156.471 19.54 157.219C17.652 158.629 15.286 159.266 13.018 159.708C11.13 160.076 9.06999 160.48 7.12099 160.419L5.39199 163.925C7.59899 164.354 9.97699 163.888 12.147 163.57C16.989 162.834 22.359 160.983 24.909 156.693C25.878 158.14 26.368 160.15 25.853 161.731C24.75 162.368 23.83 163.288 23.303 164.489C22.555 166.218 24.075 167.787 25.816 167.002C27.079 166.45 27.998 165.58 28.623 164.538C29.138 164.403 29.69 164.379 30.266 164.477C32.105 164.783 33.196 166.377 33.49 168.142C33.931 170.839 32.767 173.082 30.989 174.884H38.553C38.676 169.024 41.213 163.152 44.707 158.555C48.029 154.191 52.945 150.403 58.45 149.814C56.378 155.686 57.714 163.091 63.709 165.935C67.374 167.676 72.315 167.247 74.57 163.496C76.948 159.561 75.159 154.473 72.327 151.31C70.231 148.981 67.619 147.51 64.812 146.762C68.195 143.82 73.381 142.986 77.843 143.893C84.659 145.278 90.862 150.378 92.983 157.096C94.123 160.737 93.915 164.844 92.419 168.374C92.211 168.472 92.002 168.582 91.794 168.693C89.489 168.092 87.148 167.81 84.917 168.215C81.803 168.779 79.069 171.77 79.266 174.884H83.017C83.005 174.823 82.993 174.761 82.993 174.7C82.809 172.886 84.623 171.893 86.156 171.733C86.536 171.684 86.928 171.684 87.321 171.696C86.267 172.64 85.311 173.706 84.501 174.883H92.592C93.046 174.38 93.462 173.841 93.855 173.289C95.203 173.755 96.552 174.27 97.851 174.883H105.415C103.319 173.51 101.1 172.296 98.795 171.279C98.219 171.021 97.618 170.764 96.993 170.507C97.679 170.286 98.378 170.066 99.077 169.894C104.753 168.435 110.76 168.006 116.62 168.129C117.858 168.153 119.096 168.215 120.335 168.301C120.58 169.147 120.911 169.981 121.34 170.802C122.125 172.31 123.277 173.732 124.662 174.884H137.534C138.245 173.523 138.282 171.832 137.522 170.25C136.125 167.345 132.962 166.437 130.032 165.874C127.874 165.457 125.705 165.138 123.51 164.905C123.473 163.164 123.878 161.411 124.846 159.818C127.212 155.932 131.748 153.75 136.235 153.786C140.82 157.856 146.177 161.043 151.951 163.189C153.41 163.741 154.918 161.767 154.023 160.492C150.517 155.503 145.307 151.408 139.177 150.366C138.711 150.292 138.258 150.268 137.792 150.219C137.706 150.145 137.62 150.072 137.535 149.998C133.759 146.369 129.358 141.539 128.733 136.096C128.439 133.546 129.358 131.143 132.031 130.432C134.985 129.66 138.406 130.812 141.262 131.535C144.756 132.418 148.213 133.472 151.609 134.698C153.595 135.421 157.984 136.488 157.628 139.356C157.248 142.433 153.264 143.757 150.714 144.088C147.183 144.541 143.653 144.541 140.441 146.295C138.86 147.153 139.546 149.801 141.373 149.715C153.093 149.2 164.714 152.841 174.215 159.694C167.031 158.468 159.455 160.589 154.233 166.289C152.014 168.729 150.396 171.695 149.673 174.883H153.437C153.449 174.809 153.474 174.736 153.498 174.662C155.913 166.694 164.911 161.876 172.929 163.089C176.521 163.641 179.904 165.21 182.785 167.416C183.055 167.735 183.337 168.066 183.606 168.384C183.238 170.566 183.214 172.81 183.716 174.881H187.492C187.32 174.427 187.198 173.937 187.124 173.422C187.136 173.447 187.161 173.471 187.173 173.508C187.43 173.949 187.663 174.403 187.86 174.881H193.266C192.494 172.638 190.875 170.517 189.417 168.727C188.878 168.089 188.314 167.476 187.713 166.876C187.787 166.631 187.86 166.398 187.921 166.177C189.233 162.144 192.015 158.491 195.509 156.088C199.469 153.366 204.323 151.92 209.3 151.515C209.312 151.552 209.312 151.589 209.325 151.625C210.661 157.227 213.346 163.345 217.943 167.022C221.363 169.78 226.291 170.835 230.214 168.836L227.702 165.89ZM70.418 154.795C72.061 157.161 73.176 161.819 69.597 163.045C66.839 163.989 63.847 162.285 62.45 159.931C60.967 157.442 60.856 154.341 61.665 151.619C61.837 151.031 62.07 150.491 62.327 149.964C62.437 149.989 62.548 150.001 62.67 150.025C65.686 150.664 68.628 152.209 70.418 154.795ZM125.854 168.881C128.171 169.224 131.751 169.347 133.589 171.002C134.153 171.517 134.741 172.522 134.275 173.258C133.736 174.116 132.093 174.092 131.223 173.994C129.225 173.786 127.447 172.682 126.099 171.223C125.388 170.451 124.812 169.593 124.395 168.685C124.873 168.746 125.363 168.807 125.854 168.881ZM230.497 169.175C230.473 169.212 230.46 169.261 230.436 169.298C229.333 171.407 227.911 173.282 226.231 174.888H231.208C231.882 174.005 232.495 173.086 233.035 172.142L230.497 169.175Z" fill="#FFCD7D"/>
<path d="M72.5367 74.311C75.4547 74.311 78.1147 75.5 80.0397 77.437C81.9767 79.362 83.1657 82.022 83.1657 84.94V105.915C83.1657 111.75 78.3847 116.531 72.5367 116.531C69.6187 116.531 66.9587 115.342 65.0347 113.405C63.0977 111.493 61.9087 108.832 61.9087 105.915V84.94C61.9087 79.092 66.6897 74.311 72.5367 74.311Z" fill="white"/>
<path d="M62.5079 66.718C62.2919 66.718 62.0749 66.649 61.8929 66.506C61.4579 66.166 61.3809 65.537 61.7209 65.102C64.3429 61.748 68.2849 59.824 72.5379 59.824C76.7899 59.824 80.7329 61.747 83.3539 65.101C83.6939 65.536 83.6169 66.164 83.1819 66.505C82.7469 66.844 82.1179 66.768 81.7779 66.333C79.5379 63.468 76.1709 61.824 72.5379 61.824C68.9049 61.824 65.5369 63.468 63.2969 66.333C63.0999 66.586 62.8049 66.718 62.5079 66.718Z" fill="#333333"/>
<path d="M72.5381 108.37C71.9861 108.37 71.5381 107.922 71.5381 107.37V83.4719C71.5381 82.9199 71.9861 82.4719 72.5381 82.4719C73.0901 82.4719 73.5381 82.9199 73.5381 83.4719V107.37C73.5381 107.922 73.0901 108.37 72.5381 108.37Z" fill="#333333"/>
<path d="M119.667 74.311C122.585 74.311 125.245 75.5 127.169 77.437C129.106 79.362 130.295 82.022 130.295 84.94V105.915C130.295 111.75 125.514 116.531 119.666 116.531C116.748 116.531 114.088 115.342 112.163 113.405C110.226 111.493 109.037 108.832 109.037 105.915V84.94C109.038 79.092 113.819 74.311 119.667 74.311Z" fill="white"/>
<path d="M109.638 66.718C109.423 66.718 109.205 66.649 109.023 66.506C108.588 66.166 108.511 65.537 108.851 65.102C111.473 61.748 115.415 59.824 119.668 59.824C123.92 59.824 127.863 61.747 130.484 65.101C130.824 65.536 130.747 66.164 130.312 66.505C129.878 66.844 129.249 66.768 128.908 66.333C126.668 63.468 123.301 61.824 119.668 61.824C116.035 61.824 112.667 63.468 110.427 66.333C110.229 66.586 109.935 66.718 109.638 66.718Z" fill="#333333"/>
<path d="M119.667 108.37C119.115 108.37 118.667 107.922 118.667 107.37V83.4719C118.667 82.9199 119.115 82.4719 119.667 82.4719C120.219 82.4719 120.667 82.9199 120.667 83.4719V107.37C120.667 107.922 120.219 108.37 119.667 108.37Z" fill="#333333"/>
<path d="M112.376 131.062H79.8281C79.8281 122.064 87.1101 114.782 96.0961 114.782C105.094 114.782 112.376 122.064 112.376 131.062Z" fill="#333333"/>
<path d="M111.653 131.062H80.5391C84.0571 127.09 89.7211 124.516 96.0961 124.516C102.471 124.515 108.134 127.09 111.653 131.062Z" fill="#B8367F"/>
<path d="M54.1011 127.739C54.1011 141.727 42.7611 153.078 28.7741 153.078C22.9631 153.078 17.5941 151.117 13.3281 147.819L35.2711 103.246C46.1081 106.114 54.1011 115.995 54.1011 127.739Z" fill="#B366FF"/>
<path d="M202.828 136.762C199.199 146.3 189.968 153.079 179.144 153.079C165.156 153.079 153.817 141.727 153.817 127.74C153.817 115.53 162.46 105.318 173.959 102.928L202.828 136.762Z" fill="#B366FF"/>
<path d="M65.343 215.49H92.901V242.092H49.811C50.424 228.815 65.343 224.586 65.343 224.586V215.49Z" fill="#FFCD7D"/>
<path d="M147.197 242.092H104.118V215.49H131.676V224.586C131.676 224.586 146.584 228.815 147.197 242.092Z" fill="#FFCD7D"/>
</svg>
