<svg viewBox="0 0 262 240" fill="none" xmlns="http://www.w3.org/2000/svg">
<path d="M188.02 70.458C188.295 70.528 188.546 70.691 188.808 70.811C188.642 70.876 188.476 70.94 188.309 71.005C188.12 71.405 187.932 71.805 187.743 72.205C188.117 72.355 188.518 72.673 188.858 72.618C189.471 72.519 189.394 72 189.134 71.501C189.441 71.335 189.731 71.212 189.982 71.035C190.222 70.865 190.423 70.639 190.641 70.437C190.407 70.267 190.172 70.097 189.849 69.862C190.326 69.32 190.914 68.743 191.383 68.082C191.593 67.786 191.79 67.205 191.716 66.983L186.594 69.615C186.954 70.019 187.421 70.305 188.02 70.458Z" fill="#4D68FF"/>
<path d="M200.064 102.032C199.894 101.644 199.806 101.192 199.597 100.833C199.507 100.679 199.498 100.41 199.376 100.353C198.542 99.957 198.241 99.153 197.799 98.44C197.083 97.283 197.238 96.476 198.404 95.764C199.15 95.309 199.898 94.854 200.674 94.454C200.888 94.343 201.232 94.353 201.468 94.439C202.37 94.766 202.674 94.539 202.551 93.574C202.541 93.499 202.546 93.408 202.58 93.345C202.616 93.28 202.696 93.239 202.738 93.204C202.946 93.37 203.117 93.551 203.279 93.735L213.503 67.357C213.316 67.34 213.13 67.322 212.945 67.305C212.937 67.183 212.929 67.061 212.921 66.94C213.202 66.846 213.494 66.747 213.776 66.652L214.613 64.493C214.443 64.578 214.217 64.646 214.041 64.701C212.956 65.043 212.125 64.316 211.266 63.909C210.527 63.558 209.579 64.109 209.428 64.757C209.377 64.977 209.519 65.32 209.687 65.497C209.996 65.821 210.413 66.039 210.739 66.35C210.915 66.517 210.996 66.784 211.121 67.006C210.861 67.106 210.6 67.294 210.341 67.291C209.674 67.282 209.005 67.219 208.344 67.122C207.354 66.977 206.371 66.785 205.386 66.613C205.353 66.541 205.321 66.468 205.289 66.396C206.008 65.902 206.726 65.406 207.447 64.914C208.279 64.346 209.134 63.809 209.937 63.202C210.394 62.857 210.783 62.733 211.391 62.839C212.322 63.001 213.281 62.92 214.173 63.385C214.473 63.541 214.737 63.704 214.826 63.95L215.684 61.736C215.322 61.64 214.953 61.56 214.567 61.524C214.328 61.501 213.992 61.158 213.928 60.905C213.8 60.4 214.167 60.196 214.608 60.35C215.082 60.515 215.549 60.697 216.021 60.867L219.105 52.911L203.923 60.713C204.243 60.659 204.563 60.586 204.88 60.462C205.436 60.244 206.057 60.199 206.63 60.015C206.868 59.939 207.039 59.668 207.274 59.561C207.49 59.463 207.752 59.466 207.994 59.424C208.031 59.532 208.068 59.641 208.105 59.749C206.336 60.898 204.575 62.061 202.782 63.173C202.621 63.273 202.218 63.101 201.996 62.953C201.71 62.761 201.468 62.486 201.252 62.211C201.225 62.177 201.195 62.161 201.168 62.129L192.593 66.536C192.594 66.569 192.6 66.601 192.598 66.634C192.528 67.668 192.643 68.6 193.518 69.315C193.605 69.386 193.511 69.87 193.361 69.998C192.982 70.322 192.53 70.563 192.094 70.816C191.222 71.322 190.585 72.024 190.145 72.938C190.053 73.129 189.706 73.305 189.475 73.306C187.885 73.313 186.283 73.505 184.711 73.141C184.496 73.091 184.303 72.82 184.16 72.61C183.876 72.193 183.621 71.755 183.381 71.311C183.376 71.301 183.372 71.287 183.366 71.276L162.185 82.161C162.852 82.408 163.52 82.653 164.184 82.908C164.73 83.118 165.037 82.978 165.305 82.436C165.446 82.15 165.862 82.001 166.155 81.79C166.355 82.071 166.691 82.333 166.732 82.635C166.911 83.948 166.895 83.862 168.263 84.088C168.873 84.189 169.409 84.738 169.978 85.084C169.962 85.143 169.945 85.203 169.929 85.262C169.73 85.293 169.532 85.325 169.333 85.353C168.597 85.455 167.863 85.583 167.124 85.644C166.765 85.674 166.371 85.644 166.033 85.525C164.449 84.965 163.009 84.169 161.636 83.166C161.435 83.019 161.216 82.894 160.996 82.772L152.969 86.897L132.071 50.242C132.013 50.242 131.951 50.242 131.894 50.242C130.678 50.241 130.595 50.299 130.176 51.465C129.868 52.321 129.702 52.374 128.94 51.86C128.416 51.506 127.73 51.736 127.239 52.376C126.825 52.916 126.363 53.419 125.922 53.938C125.843 53.892 125.765 53.846 125.686 53.8C125.582 53.326 125.479 52.853 125.375 52.379C125.335 52.374 125.295 52.369 125.254 52.363C125.163 52.737 125.073 53.111 124.979 53.498C123.354 52.9 122.93 52.111 123.418 50.592C123.589 50.062 123.439 49.794 122.96 49.587C122.304 49.302 121.882 48.828 121.878 48.209C122.587 47.947 123.218 47.708 123.854 47.483C123.951 47.449 124.069 47.469 124.177 47.473C124.991 47.507 125.806 47.544 126.694 47.583C126.749 47.749 126.809 48.032 126.934 48.281C127.123 48.656 127.369 48.757 127.749 48.436C127.92 48.291 128.263 48.196 128.464 48.265C129.522 48.627 130.567 49.028 131.61 49.431L127.165 41.635C126.945 41.731 126.729 41.836 126.503 41.913C126.276 41.99 125.78 41.754 125.64 41.521C125.212 40.81 124.884 40.044 123.714 40.09C124.781 39.725 123.794 39.142 124.156 38.588C124.709 38.822 125.273 39.061 125.831 39.296L120.89 30.63C120.163 30.413 119.438 30.19 118.734 29.903C118.586 29.843 118.414 29.788 118.314 29.676C118.122 29.462 117.797 29.167 117.842 28.98C117.955 28.509 118.303 28.358 118.836 28.544C119.189 28.667 119.545 28.779 119.9 28.895L103.426 0L101.202 12.363C101.375 12.363 101.548 12.363 101.721 12.363C101.504 12.682 101.282 13.007 101.017 13.395L95.952 41.555C96.053 41.539 96.157 41.528 96.266 41.529C97.323 41.545 97.1 42.682 97.63 43.455C96.91 43.363 96.273 43.282 95.655 43.203L87.993 85.799L45.631 80.656C45.411 80.995 45.207 81.344 44.972 81.672C44.763 81.964 44.426 82.166 44.147 82.408C44.1 82.028 43.901 81.578 44.037 81.281C44.177 80.974 44.169 80.715 44.103 80.47L0 75.113L28.661 101.771C29.442 101.55 30.197 101.436 30.847 101.477C30.534 101.99 30.238 102.473 29.94 102.961L59.831 130.763L45.023 148.403C45.929 148.359 46.835 148.307 47.737 148.219C48.764 148.119 49.757 147.671 50.77 147.399C50.956 147.349 51.167 147.401 51.365 147.383C52.127 147.315 52.895 147.279 53.648 147.154C55.083 146.917 56.457 147.062 58.07 147.654C57.388 148.478 56.852 149.126 56.307 149.785C55.717 149.151 54.806 149.001 54.099 149.507C53.527 149.916 53.078 149.927 52.495 149.583C52.117 149.36 51.654 149.281 51.19 149.125C51.231 148.964 51.281 148.77 51.329 148.583C50.169 147.843 49.018 148.179 47.88 148.527C46.895 148.828 45.936 149.22 44.943 149.489C44.667 149.564 44.365 149.567 44.064 149.547L35.641 159.581L31.323 164.725L30.225 166.033L21.639 176.272L9.673 190.52L36.855 182.372C36.536 182.128 36.343 181.813 35.812 180.656C36.672 179.984 37.411 179.362 38.195 178.803C39.206 178.083 39.837 178.295 40.319 179.414C40.564 179.982 40.846 180.536 41.112 181.096L49.222 178.665L84.096 168.228L84.7 168.043L86.452 174.384L87.427 177.961L89.092 183.994L90.19 187.991L93.977 201.771L95.001 205.472L104.241 239.051L138.289 180.306L140.152 177.086L141.521 178.418L145.765 182.538L148.417 185.116L148.627 185.314L151.403 188.003L197.454 232.734L195.505 220.718L194.888 216.98L192.815 204.187L191.927 198.784L191.471 195.91L190.879 192.283L188.251 176.184L186.808 167.277L186.487 165.303L249.212 159.37C249.142 159.079 249.078 158.798 249.043 158.518C249.014 158.281 249.179 157.882 249.372 157.782C249.778 157.572 250.261 157.512 250.713 157.391C250.75 157.618 250.896 157.915 250.804 158.06C250.542 158.472 250.177 158.827 250.051 159.291L261.874 158.173L198.281 106.632L200.064 102.032ZM25.188 96.677C25.284 95.6 25.593 95.292 26.421 95.325C26.548 96.224 25.727 96.218 25.188 96.677ZM29.018 92.775C28.5 92.817 27.958 92.262 27.392 92.092C26.084 91.7 25.322 90.653 24.442 89.748C23.931 89.223 24.241 88.731 24.59 88.259C24.932 87.797 25.325 87.918 25.722 88.145C26.896 88.814 28.056 89.509 29.24 90.159C30.045 90.601 30.881 90.986 31.751 91.42C31.161 92.515 30.051 92.691 29.018 92.775ZM52.197 106.959C52.456 107.647 52.869 108.169 52.35 108.681C52.232 108.797 51.6 108.648 51.466 108.446C50.989 107.728 51.783 107.529 52.197 106.959ZM46.487 112.082C46.404 112.029 46.32 111.976 46.237 111.922C46.318 111.569 46.399 111.216 46.48 110.863C46.562 110.849 46.645 110.835 46.727 110.821C46.85 111.079 47.083 111.348 47.059 111.593C47.042 111.773 46.689 111.92 46.487 112.082ZM51.128 122.102C51.337 120.678 52.298 119.935 53.106 120.378C52.437 120.961 51.783 121.532 51.128 122.102ZM53.705 110.872C53.149 110.526 52.636 110.11 51.877 109.556C53.183 109.628 54.311 109.678 55.436 109.774C55.534 109.783 55.719 110.209 55.672 110.258C55.355 110.589 55.025 110.96 54.62 111.133C54.389 111.232 53.972 111.039 53.705 110.872ZM58.623 114.534C58.554 115.786 58.39 117.033 58.324 118.285C58.269 119.327 58.199 119.401 57.19 119.5C56.73 119.545 56.294 119.8 55.834 119.903C55.463 119.986 54.984 120.18 55.156 119.39C55.221 119.091 55.033 118.666 54.832 118.394C54.492 117.935 54.428 117.668 54.976 117.295C55.268 117.096 55.359 116.604 55.547 116.248C55.949 115.486 56.305 114.694 56.773 113.975C57.246 113.249 57.833 112.596 58.37 111.911C58.457 111.912 58.544 111.913 58.631 111.914C58.633 112.788 58.672 113.664 58.623 114.534ZM57.085 108.319C57.222 108.034 57.359 107.748 57.496 107.463C57.659 107.591 57.823 107.72 57.986 107.848C57.794 108.076 57.602 108.303 57.41 108.531C57.302 108.461 57.193 108.39 57.085 108.319ZM59.109 106.36C59.095 106.633 58.864 106.896 58.733 107.163C58.651 107.158 58.569 107.153 58.487 107.148C57.964 105.218 57.441 103.288 56.899 101.287C58.382 101.493 59.132 102.302 59.132 103.518C59.13 104.466 59.157 105.415 59.109 106.36ZM59.461 100.511C59.425 101.183 59.101 101.264 58.636 100.941C58.221 100.652 57.873 100.266 57.362 99.801C58.128 98.81 58.84 97.888 59.553 96.966C59.609 97.009 59.666 97.052 59.722 97.094C59.633 98.232 59.523 99.37 59.461 100.511ZM29.427 167.133C30.585 167.133 31.627 167.133 32.78 167.133C32.655 166.725 32.596 166.532 32.535 166.334C33.837 166.367 34.95 168.19 35.176 170.674C33.305 169.521 31.456 168.382 29.427 167.133ZM34.932 164.02C34.034 163.937 33.983 163.174 33.723 162.58C33.801 162.514 33.88 162.447 33.958 162.381C34.366 162.856 34.773 163.332 35.181 163.808C35.097 163.878 35.014 163.949 34.932 164.02ZM53.311 155.054C52.608 155.003 51.971 155.072 51.418 154.888C50.746 154.664 50.264 154.937 49.823 155.278C49.413 155.594 49.135 155.547 48.793 155.242C48.495 154.976 48.113 154.779 47.882 154.468C47.414 153.837 46.965 154.016 46.371 154.277C44.958 154.898 44.333 156.23 43.469 157.34C42.985 157.962 42.608 158.668 42.095 159.475C41.072 158.257 40.15 157.19 39.266 156.092C38.943 155.692 39.171 155.505 39.621 155.392C40.646 155.134 41.726 154.959 42.656 154.495C43.925 153.862 45.227 153.438 46.609 153.208C47.212 153.108 47.82 153.028 48.429 152.976C48.574 152.964 48.829 153.063 48.867 153.171C49.181 154.042 49.775 153.531 49.933 153.242C50.552 152.111 51.67 152.382 52.603 152.167C53.006 152.074 53.447 152.151 54.006 152.151C53.538 153.129 52.362 153.829 53.311 155.054ZM127.998 57.859C128.273 57.912 128.545 57.982 128.823 58.014C130.124 58.164 129.639 59.45 130.206 60.157C130.075 60.263 129.958 60.427 129.81 60.461C129.549 60.522 129.146 60.624 129.021 60.496C128.596 60.06 128.184 59.569 127.932 59.023C127.789 58.711 127.966 58.252 127.998 57.859ZM108.423 16.886C108.562 16.794 108.982 16.98 109.176 17.15C109.609 17.527 109.981 17.974 110.388 18.405C109.889 18.808 109.544 19.086 109.199 19.365C109.28 19.265 109.36 19.165 109.441 19.065C109.045 18.814 108.63 18.589 108.259 18.306C107.919 18.045 107.99 17.174 108.423 16.886ZM100.007 44.622C99.128 44.866 98.684 44.456 98.252 43.817C99.12 43.563 99.521 44.062 100.007 44.622ZM97.982 72.742C98.115 72.988 98.244 73.151 98.297 73.336C98.578 74.303 98.962 74.449 99.868 74.114C100.375 73.927 100.977 74.011 101.518 73.893C102.384 73.704 103.235 73.449 104.089 73.223C104.192 74.484 99.927 80.295 98.5 80.774C98.437 80.64 98.331 80.507 98.315 80.364C98.141 78.723 97.992 77.078 97.809 75.438C97.769 75.078 97.622 74.729 97.514 74.379C97.324 73.769 97.497 73.267 97.982 72.742ZM101.98 95.074C102.06 95.254 101.565 95.69 101.231 96.146C101.034 95.377 100.906 94.878 100.771 94.349C101.463 94.103 101.792 94.653 101.98 95.074ZM93.781 91.444C94.476 91.263 94.023 89.853 95.069 90.182C95.601 90.349 96.079 90.758 96.52 91.131C97.022 91.556 97.444 92.074 97.92 92.531C98.451 93.042 98.907 93.693 99.82 93.517C99.943 93.493 100.124 93.772 100.44 94.055C99.872 94.291 99.477 94.506 99.055 94.621C97.808 94.96 96.558 95.394 95.247 94.93C94.59 94.697 94.154 94.32 94.228 93.514C94.28 92.948 94.372 92.316 93.692 91.958C93.639 91.931 93.706 91.463 93.781 91.444ZM92.908 91.374C93.439 91.834 93.298 92.326 92.313 93.456C91.456 92.824 91.54 92.528 92.908 91.374ZM80.121 87.469C80.789 88.221 80.683 88.554 79.555 89.153C79.728 88.639 79.901 88.125 80.121 87.469ZM61.782 162.776C61.218 163.601 60.785 164.515 60.242 165.355C60.083 165.601 59.744 165.731 59.47 165.927C59.087 165.238 59.008 164.828 59.709 164.427C60.374 164.046 60.361 162.468 59.833 161.874C59.61 161.623 59.497 161.273 59.277 161.019C58.896 160.58 58.483 160.166 58.059 159.767C57.457 159.199 56.72 159.128 55.918 159.1C55.542 159.087 55.209 158.565 54.807 158.381C54.151 158.081 54.504 157.651 54.559 157.232C54.601 156.916 54.567 156.59 54.567 156.066C55.177 156.385 55.698 156.578 56.127 156.895C57.944 158.241 59.731 159.627 61.533 160.992C62.374 161.628 62.377 161.907 61.782 162.776ZM61.086 124.523C60.965 124.213 60.843 123.902 60.654 123.417C61.302 123.123 61.954 122.888 62.536 122.538C62.824 122.365 62.968 121.964 63.207 121.693C63.428 121.442 63.688 121.224 64.077 120.852C64.147 121.958 62.27 124.083 61.086 124.523ZM83.583 97.961C83.511 98.151 82.976 98.345 82.74 98.265C81.409 97.817 80.403 98.191 79.466 99.198C78.606 100.122 77.608 100.919 76.536 101.893C76.927 99.897 76.602 97.966 77.639 96.284C77.82 95.99 77.736 95.534 77.774 95.152C77.672 95.122 77.57 95.092 77.468 95.062C76.923 95.911 76.378 96.759 75.752 97.735C75.031 95.757 75.763 94.361 77.133 92.889C76.435 92.792 75.999 92.734 75.564 92.671C75.349 92.64 74.98 92.652 74.945 92.552C74.675 91.785 74.447 91 74.275 90.206C74.254 90.107 74.658 89.772 74.823 89.8C75.78 89.962 76.724 90.199 77.798 90.439C77.775 90.347 77.816 90.443 77.82 90.54C77.868 91.618 77.871 91.632 78.92 91.292C79.432 91.126 79.713 91.149 79.791 91.796C79.928 92.929 80.342 93.936 81.249 94.724C82.032 95.405 82.767 96.153 83.445 96.938C83.643 97.166 83.693 97.67 83.583 97.961ZM91.14 98.008C91 97.611 90.727 97.392 90.315 97.67C90.094 97.819 89.938 98.06 89.727 98.227C89.218 98.63 88.694 99.001 88.179 98.227C88.164 98.205 88.142 98.176 88.12 98.173C86.865 98.021 86.406 97.005 85.883 96.081C85.603 95.587 85.328 95.069 85.181 94.527C85.025 93.948 84.75 93.646 84.17 93.442C83.61 93.244 83.09 92.868 82.631 92.478C82.428 92.305 82.419 91.903 82.284 91.488C83.045 91.637 83.622 91.714 84.174 91.873C84.44 91.95 84.794 92.133 84.878 92.355C85.317 93.509 86.288 93.753 87.331 93.967C87.972 94.099 88.599 94.316 89.214 94.545C89.905 94.802 90.085 95.424 90.181 96.077C90.203 96.226 90.214 96.377 90.216 96.401C90.705 96.108 91.126 95.666 91.579 95.63C92.173 95.582 92.752 95.907 92.899 96.435C92.298 97.218 91.776 97.901 91.182 98.676C91.169 98.396 91.202 98.185 91.14 98.008ZM95.557 122.272C94.519 122.894 93.443 123.453 92.374 124.023C92.325 124.049 92.228 123.987 91.865 123.884C93.754 123.111 93.558 121.365 94.223 119.834C94.762 120.455 95.259 120.965 95.668 121.539C95.777 121.692 95.7 122.187 95.557 122.272ZM104.242 103.094C103.989 103.81 103.827 104.564 103.695 105.314C103.657 105.529 103.802 105.839 103.963 106.013C104.348 106.428 104.126 106.634 103.748 106.776C101.846 107.492 99.94 108.195 98.031 108.892C97.893 108.942 97.72 108.899 97.524 108.899C97.4 107.979 97.908 107.317 98.356 106.699C99.255 105.459 99.808 104.079 100.247 102.638C100.275 102.546 100.233 102.432 100.204 102.125C99.764 102.348 99.385 102.487 99.067 102.712C97.985 103.48 97.164 104.423 96.648 105.704C96.282 106.613 95.556 107.378 94.856 108.122C95.025 107.118 95.079 106.177 95.743 105.303C96.549 104.241 97.016 102.924 97.655 101.732C98.028 101.036 98.441 100.361 98.861 99.692C98.93 99.582 99.153 99.469 99.264 99.501C100.092 99.738 101.078 99.638 101.579 100.608C101.67 100.784 102.01 100.953 102.21 100.928C103.038 100.825 103.857 100.647 104.75 100.484C104.709 100.672 104.617 100.833 104.664 100.917C105.139 101.773 104.494 102.383 104.242 103.094ZM104.913 36.059C104.238 36.455 103.501 36.745 102.792 37.083C102.714 37.026 102.635 36.969 102.557 36.912C103.312 35.593 104.067 34.273 104.831 32.939C106.097 33.848 106.1 35.364 104.913 36.059ZM106.096 99.783C106.311 98.976 106.46 98.417 106.646 97.719C107.214 98.19 107.665 98.563 108.265 99.061C107.457 99.33 106.84 99.535 106.096 99.783ZM108.89 100.064C109.176 99.064 109.447 98.995 110.463 99.682C109.876 99.825 109.419 99.936 108.89 100.064ZM110.535 30.678C110.508 30.584 110.482 30.491 110.455 30.397C110.779 30.053 111.103 29.709 111.624 29.157C110.539 29.382 109.977 28.084 108.897 28.798C108.992 28.978 109.035 29.216 109.159 29.271C109.902 29.602 109.711 30.077 109.361 30.54C109.198 30.756 108.909 31.039 108.702 31.02C108.419 30.994 108.036 30.771 107.914 30.524C107.531 29.751 107.136 28.951 106.972 28.117C106.863 27.564 106.986 26.824 107.301 26.375C107.526 26.055 108.344 25.842 108.717 26.002C109.389 26.291 109.916 26.907 110.522 27.361C110.72 27.509 110.977 27.67 111.206 27.669C112.267 27.661 112.477 27.375 112.28 26.304C112.257 26.181 112.194 25.977 112.123 25.965C111.161 25.803 111.065 24.919 110.814 24.266C110.557 23.597 110.175 23.315 109.519 23.246C109.317 23.225 109.123 23.118 108.93 23.053C109.166 21.978 108.441 20.815 109.385 19.819C109.99 20.605 110.425 21.354 110.047 22.359C109.958 22.595 110.212 22.96 110.342 23.373C110.679 23.108 110.883 22.946 111.176 22.715C111.331 22.9 111.505 23.08 111.646 23.284C112.069 23.895 112.209 24.739 113.09 24.977C113.174 25 113.272 25.337 113.214 25.454C112.872 26.14 113.327 26.416 113.817 26.605C114.792 26.981 115.79 27.3 116.973 27.71C115.168 29.127 113.401 30.514 111.543 31.973C111.742 31.411 111.891 30.989 112.04 30.569C111.466 30.611 111.001 30.645 110.535 30.678ZM113.078 38.519C112.639 38.34 112.33 38.138 112.958 37.747C113.121 37.645 113.251 37.346 113.247 37.141C113.217 35.829 114.064 35.012 114.867 34.061C115.596 35.341 117 35.316 118.052 35.925C118.21 36.016 118.425 36.027 118.558 36.141C118.87 36.407 119.148 36.712 119.44 37.002C119.14 37.182 118.819 37.335 118.544 37.548C117.535 38.328 116.55 39.139 115.537 39.915C115.071 40.272 114.563 40.574 113.892 41.023C113.954 40.609 113.963 40.459 114 40.316C114.23 39.409 113.951 38.876 113.078 38.519ZM115.551 96.885C115.409 96.82 115.258 96.764 115.105 96.735C114.826 96.683 114.542 96.654 114.26 96.615C114.386 96.316 114.511 96.017 114.572 95.873C115.56 95.998 116.416 96.106 117.351 96.224C116.875 96.845 116.367 97.259 115.551 96.885ZM118.061 97.688C118.361 96.921 118.551 96.436 118.699 96.056C119.308 96.275 119.94 96.502 120.716 96.781C119.878 97.068 119.063 97.347 118.061 97.688ZM121.84 69.895C122.658 70.39 123.394 70.836 124.265 71.363C124.305 71.837 123.329 72.545 122.587 72.295C122.463 72.253 122.351 72.174 122.23 72.121C119.962 71.117 120.577 71.162 121.84 69.895ZM120.852 88.376C120.72 87.43 121.11 86.909 121.858 86.794C122.075 86.761 122.341 86.618 122.46 86.441C122.964 85.692 123.692 85.468 124.75 85.935C123.403 86.779 122.151 87.563 120.852 88.376ZM128.934 83.314C128.642 83.551 128.541 84.041 128.238 84.242C127.8 84.532 127.249 84.841 126.758 84.822C125.954 84.791 125.145 84.55 124.368 84.306C123.858 84.146 123.72 83.141 124.093 82.727C124.272 82.528 124.462 82.339 124.69 82.101C123.887 81.429 123.846 80.832 124.496 80.056C124.686 79.829 124.936 79.644 125.094 79.399C125.246 79.162 125.316 78.872 125.463 78.501C127.231 79.772 128.948 81.006 130.623 82.211C130 82.608 129.427 82.912 128.934 83.314ZM136.473 72.149C135.941 71.805 135.417 71.452 134.878 71.125C134.613 70.964 134.324 70.764 134.033 70.739C133.395 70.685 133.322 70.391 133.519 69.875C133.952 68.737 133.858 68.483 132.773 67.959C132.252 67.708 131.73 67.438 131.18 67.274C130.3 67.011 130.086 66.318 130.063 65.57C130.056 65.341 130.442 65.022 130.718 64.878C131.242 64.605 131.839 64.473 132.364 64.201C132.823 63.963 133.886 64.042 134.225 64.445C134.302 64.537 134.395 64.699 134.364 64.786C134.07 65.602 134.591 66.099 135.142 66.43C136.05 66.976 136.679 67.625 136.698 68.739C136.701 68.916 136.755 69.127 136.862 69.262C137.667 70.281 137.112 71.137 136.473 72.149ZM159.209 86.934C160.757 87.162 162.299 87.473 163.855 87.587C164.676 87.647 165.523 87.365 166.522 87.212C166.39 88.351 166.258 89.603 166.084 90.849C166.059 91.028 165.867 91.242 165.696 91.332C164.739 91.833 163.778 92.333 162.783 92.749C162.6 92.826 162.143 92.586 162.003 92.369C161.476 91.552 161.105 90.626 160.529 89.85C159.884 88.982 159.076 88.236 158.35 87.427C158.237 87.301 158.181 87.124 157.991 86.768C158.518 86.84 158.864 86.883 159.209 86.934ZM160.102 95.068C159.334 95.463 158.741 95.773 158.144 96.075C157.588 96.356 157.027 96.627 156.323 96.975C156.846 95.981 159.033 94.868 160.102 95.068ZM148.277 133.358C148.642 133.358 148.947 133.358 149.33 133.358C148.949 134.323 149.615 135.556 148.574 136.424C147.955 135.713 147.869 134.679 148.277 133.358ZM161.806 152.534C161.156 152.606 160.481 152.461 159.816 152.395C159.806 152.29 159.795 152.184 159.785 152.078C160.523 151.727 161.261 151.376 162.036 151.007C162.085 151.185 162.133 151.263 162.119 151.327C162.024 151.751 161.955 152.518 161.806 152.534ZM162.872 99.726C162.666 100.203 162.435 100.704 162.395 101.209C162.352 101.75 162.114 101.952 161.656 101.919C160.352 101.825 159.008 101.852 157.766 101.514C157.043 101.317 156.486 100.511 155.777 99.914C156.581 99.384 157.25 99.189 158.027 99.491C158.314 99.603 158.71 99.723 158.95 99.611C159.633 99.294 159.962 99.65 160.251 100.145C160.559 100.674 160.885 100.495 161.114 100.135C161.321 99.808 161.546 99.393 161.518 99.037C161.456 98.258 161.781 97.818 162.39 97.399C163.092 96.916 163.71 96.31 164.365 95.758C164.436 95.81 164.508 95.862 164.579 95.914C164.008 97.184 163.424 98.448 162.872 99.726ZM166.266 152.512C166.064 151.833 165.867 151.152 165.658 150.476C165.371 149.55 166.016 148.783 166.996 148.912C167.137 148.931 167.265 149.044 167.384 149.107C167.053 149.666 166.602 150.157 166.474 150.722C166.353 151.257 166.57 151.869 166.639 152.447C166.514 152.469 166.39 152.49 166.266 152.512ZM168.257 157.67C168.116 157.916 167.697 158.002 167.401 158.159C167.291 157.916 167.106 157.679 167.085 157.428C166.998 156.396 166.961 155.36 166.906 154.325C167.007 154.29 167.107 154.256 167.208 154.221C167.603 155.005 168.049 155.768 168.369 156.582C168.491 156.892 168.426 157.375 168.257 157.67ZM174.133 84.031C173.955 84.048 173.671 83.978 173.602 83.855C173.511 83.69 173.565 83.432 173.588 83.217C173.63 82.83 173.767 82.441 173.737 82.062C173.654 81.007 173.506 79.958 173.365 78.744C174.239 79.027 174.951 79.28 175.677 79.488C176.845 79.822 178.016 80.15 179.198 80.43C179.798 80.572 180.035 80.825 180.14 81.485C180.337 82.731 180.739 83.945 181.048 85.174C181.079 85.3 181.052 85.44 181.052 85.617C179.76 85.142 178.554 84.699 177.301 84.238C177.958 83.488 178.566 82.848 179.099 82.15C179.27 81.926 179.24 81.549 179.302 81.243C179.014 81.294 178.673 81.263 178.446 81.408C177.243 82.18 176.074 83.006 174.878 83.791C174.666 83.929 174.388 84.006 174.133 84.031ZM175.306 154.734C175.199 154.447 175.259 154.054 175.373 153.756C175.405 153.672 175.918 153.678 176.149 153.781C176.983 154.156 177.792 154.589 178.609 155C178.595 155.105 178.581 155.21 178.567 155.315C178.318 155.346 178.066 155.414 177.819 155.401C177.208 155.369 176.59 155.342 175.992 155.226C175.732 155.176 175.389 154.958 175.306 154.734ZM176.349 171.804C176.142 170.963 175.895 170.066 175.723 169.155C175.691 168.985 175.917 168.657 176.101 168.577C176.478 168.411 176.904 168.33 177.317 168.292C177.413 168.283 177.608 168.571 177.638 168.743C177.764 169.458 178.197 169.758 178.881 169.704C179.443 169.66 179.824 169.852 180.153 170.325C180.546 170.889 181.034 171.387 181.609 172.065C179.747 171.63 178.036 170.687 176.349 171.804ZM181.89 73.532C181.259 73.599 180.621 73.612 179.986 73.644C179.972 73.535 179.959 73.426 179.945 73.316C180.526 73.106 181.098 72.863 181.694 72.712C181.814 72.681 182.051 72.98 182.171 73.167C182.202 73.215 182.002 73.52 181.89 73.532ZM183.287 95.384C182.91 95.194 182.519 94.987 182.236 94.687C182.173 94.62 182.519 94.168 182.784 93.708C183.159 94.223 183.44 94.554 183.64 94.929C183.678 95.003 183.324 95.402 183.287 95.384ZM186.873 81.869C187.474 81.98 187.977 82.072 188.481 82.164C187.731 82.788 187.217 82.678 186.873 81.869ZM188.623 143.072C188.01 142.746 187.835 142.235 187.963 141.311C188.755 141.436 188.838 141.648 188.623 143.072ZM196.434 71.948C196.99 71.988 197.499 72.672 198.028 73.078C197.998 73.161 197.968 73.245 197.938 73.328C196.995 73.328 196.052 73.328 195.109 73.328C195.092 73.256 195.075 73.183 195.058 73.111C195.519 72.693 196.006 71.917 196.434 71.948ZM195.915 93.258C195.511 93.474 195.107 93.69 194.568 93.979C194.709 93.041 194.948 92.914 195.915 93.258ZM220.343 127.332C220.524 127.033 220.883 126.736 221.22 126.658C221.976 126.482 222.972 127.086 223.355 127.795C223.451 127.974 223.618 128.176 223.798 128.238C224.809 128.588 225.388 129.389 225.874 130.249C226.128 130.698 226.213 131.243 226.374 131.744C226.28 131.81 226.185 131.877 226.09 131.943C225.658 131.666 225.219 131.4 224.797 131.109C224.143 130.658 223.499 130.192 222.856 129.726C222.126 129.197 221.381 128.687 220.689 128.113C220.481 127.941 220.255 127.477 220.343 127.332ZM220.757 154.226C220.572 154.942 220.339 155.257 219.644 154.973C219.291 154.829 218.838 154.895 218.434 154.918C217.204 154.989 216.035 154.758 214.906 154.237C216.83 154.11 218.75 153.605 220.757 154.226ZM200.807 155.919C200.892 155.409 201.089 154.919 201.218 154.415C201.331 153.971 201.492 153.664 202.032 153.929C202.404 154.111 202.794 154.257 203.016 154.352C202.264 155.296 201.543 156.2 200.793 157.143C200.793 156.758 200.739 156.328 200.807 155.919ZM200.437 158.047C200.218 158.661 200.057 159.367 199.727 159.983C199.205 160.959 198.559 161.868 197.991 162.821C197.771 163.19 197.585 163.208 197.26 162.942C196.809 162.572 196.325 162.241 195.843 161.912C194.998 161.335 195.04 160.535 195.909 159.991C196.317 159.736 196.648 159.357 197.024 159.049C197.203 158.902 197.392 158.722 197.605 158.67C198.523 158.444 199.451 158.26 200.437 158.047Z" fill="#4D68FF"/>
<path d="M201.259 98.949L201.622 98.013C201.295 98.24 201.178 98.553 201.259 98.949Z" fill="#4D68FF"/>
<path d="M200.972 95.646C200.069 95.574 199.766 95.905 199.79 96.985C200.946 97.102 201.163 96.842 200.972 95.646Z" fill="#4D68FF"/>
<path d="M72.5771 122.261C72.5771 122.261 83.2892 110.884 96.5032 110.884C109.717 110.884 120.429 122.261 120.429 122.261C120.429 122.261 109.717 133.638 96.5032 133.638C83.2892 133.638 72.5771 122.261 72.5771 122.261Z" fill="white"/>
<path d="M138.895 122.261C138.895 122.261 149.607 110.884 162.821 110.884C176.035 110.884 186.747 122.261 186.747 122.261C186.747 122.261 176.035 133.638 162.821 133.638C149.607 133.638 138.895 122.261 138.895 122.261Z" fill="white"/>
<path d="M96.5029 131.879C95.9509 131.879 95.5029 131.432 95.5029 130.879V113.644C95.5029 113.092 95.9509 112.644 96.5029 112.644C97.0549 112.644 97.5029 113.092 97.5029 113.644V130.878C97.5029 131.431 97.0559 131.879 96.5029 131.879Z" fill="#333333"/>
<path d="M162.821 131.879C162.269 131.879 161.821 131.432 161.821 130.879V113.644C161.821 113.092 162.269 112.644 162.821 112.644C163.373 112.644 163.821 113.092 163.821 113.644V130.878C163.821 131.431 163.373 131.879 162.821 131.879Z" fill="#333333"/>
<path d="M103.076 143.027L107.38 156.34L111.084 143.027H103.076Z" fill="white"/>
<path d="M148.241 143.027L152.545 156.34L156.248 143.027H148.241Z" fill="white"/>
<path d="M162.821 144.027H96.5039C95.9519 144.027 95.5039 143.58 95.5039 143.027C95.5039 142.474 95.9519 142.027 96.5039 142.027H162.821C163.373 142.027 163.821 142.474 163.821 143.027C163.821 143.58 163.373 144.027 162.821 144.027Z" fill="#333333"/>
<path d="M118.21 110.856C118.154 110.856 118.097 110.852 118.039 110.841L90.9889 106.18C90.4449 106.086 90.0799 105.569 90.1739 105.025C90.2679 104.481 90.7799 104.111 91.3289 104.21L118.379 108.871C118.923 108.965 119.288 109.482 119.194 110.026C119.111 110.513 118.689 110.856 118.21 110.856Z" fill="#333333"/>
<path d="M141.114 110.856C140.636 110.856 140.214 110.513 140.13 110.026C140.036 109.482 140.401 108.964 140.945 108.871L167.994 104.21C168.539 104.112 169.056 104.481 169.149 105.025C169.243 105.569 168.878 106.087 168.334 106.18L141.285 110.841C141.227 110.852 141.17 110.856 141.114 110.856Z" fill="#333333"/>
<path d="M84.3062 167.87C84.2322 167.993 84.1702 168.104 84.0962 168.228L49.2222 178.664C48.1862 178.072 48.0382 176.258 49.1852 175.395C50.3942 174.494 51.5912 173.594 52.7872 172.693C42.7332 174.802 32.4942 176.048 22.2062 176.369C22.0092 176.381 21.8112 176.344 21.6382 176.27L30.2242 166.031C31.1122 165.426 32.0002 164.834 32.9012 164.255C32.3702 164.403 31.8522 164.563 31.3222 164.724L35.6402 159.58C40.2542 158.211 44.8672 156.854 49.4812 155.497C51.8502 154.794 52.5902 158.174 50.4682 159.062C42.3512 162.479 34.7022 166.994 27.7322 172.397C38.7852 171.694 49.7282 169.917 60.4482 167.08C62.6192 166.513 63.4702 169.276 61.8792 170.473C61.1512 171.016 60.4232 171.559 59.7082 172.101C67.2082 169.782 74.7092 167.463 82.2222 165.143C83.7882 164.662 85.0952 166.501 84.3062 167.87Z" fill="#5E77FF"/>
<path d="M109.089 170.695C102.785 176.456 96.4941 182.229 90.1901 187.99L89.0921 183.993C92.3361 181.02 95.5691 178.059 98.8131 175.086C95.1001 176.332 91.2881 177.294 87.4271 177.96L86.4521 174.383C93.5211 173.236 100.404 171.028 106.844 167.783C108.645 166.883 110.706 169.215 109.089 170.695Z" fill="#5E77FF"/>
<path d="M185.414 152.832C173.078 163.589 160.741 174.359 148.418 185.116L145.766 182.538C153.291 175.963 160.816 169.4 168.341 162.825C160.939 167.13 153.538 171.436 146.136 175.741C144.594 176.641 143.064 177.53 141.522 178.418L140.153 177.086L138.29 180.306C129.531 185.401 120.785 190.483 112.026 195.566C106.351 198.86 100.677 202.166 95.002 205.472L93.978 201.771C102.305 196.935 110.62 192.099 118.947 187.264C140.363 174.817 161.766 162.369 183.17 149.922C184.957 148.884 187.018 151.426 185.414 152.832Z" fill="#5E77FF"/>
<path d="M191.471 195.91C182.996 197.292 174.509 198.686 166.034 200.08C164.406 200.339 162.679 198.316 164.233 196.984C173.09 189.41 180.862 180.675 187.339 171.016C174.916 175.704 163.049 181.65 151.403 188.003L148.627 185.314C160.988 178.541 173.596 172.2 186.808 167.278L188.251 176.185C183.304 183.143 177.654 189.594 171.437 195.467C177.914 194.406 184.402 193.345 190.879 192.284L191.471 195.91Z" fill="#5E77FF"/>
<path d="M195.505 220.718C192.458 220.632 189.485 219.904 187.363 217.696C183.835 214.032 185.167 209.159 187.573 205.347C188.794 203.41 190.781 201.165 191.928 198.784L192.816 204.187C192.36 204.853 191.903 205.519 191.459 206.173C189.535 209.01 187.006 213.464 190.99 215.869C192.15 216.572 193.519 216.868 194.888 216.979L195.505 220.718Z" fill="#5E77FF"/>
<path d="M70.8591 143.096C76.2477 143.096 80.6161 140.979 80.6161 138.367C80.6161 135.755 76.2477 133.638 70.8591 133.638C65.4704 133.638 61.1021 135.755 61.1021 138.367C61.1021 140.979 65.4704 143.096 70.8591 143.096Z" fill="#FF5E76"/>
<path d="M188.465 143.096C193.854 143.096 198.222 140.979 198.222 138.367C198.222 135.755 193.854 133.638 188.465 133.638C183.076 133.638 178.708 135.755 178.708 138.367C178.708 140.979 183.076 143.096 188.465 143.096Z" fill="#FF5E76"/>
</svg>
